<?xml version="1.0" encoding="UTF-8" standalone="no"?>
<!DOCTYPE svg PUBLIC "-//W3C//DTD SVG 1.1//EN"
 "http://www.w3.org/Graphics/SVG/1.1/DTD/svg11.dtd">
<!-- Generated by graphviz version 2.40.1 (20161225.0304)
 -->
<!-- Title: packages_npfc Pages: 1 -->
<svg width="574pt" height="116pt"
 viewBox="0.00 0.00 574.00 116.00" xmlns="http://www.w3.org/2000/svg" xmlns:xlink="http://www.w3.org/1999/xlink">
<g id="graph0" class="graph" transform="scale(1 1) rotate(0) translate(4 112)">
<title>packages_npfc</title>
<polygon fill="#ffffff" stroke="transparent" points="-4,4 -4,-112 570,-112 570,4 -4,4"/>
<!-- 0 -->
<g id="node1" class="node">
<title>0</title>
<polygon fill="none" stroke="#000000" points="216,-108 162,-108 162,-72 216,-72 216,-108"/>
<text text-anchor="middle" x="189" y="-86.3" font-family="Times,serif" font-size="14.00" fill="#000000">npfc</text>
</g>
<!-- 1 -->
<g id="node2" class="node">
<title>1</title>
<polygon fill="none" stroke="#000000" points="479.5,-36 408.5,-36 408.5,0 479.5,0 479.5,-36"/>
<text text-anchor="middle" x="444" y="-14.3" font-family="Times,serif" font-size="14.00" fill="#000000">npfc.draw</text>
</g>
<!-- 2 -->
<g id="node3" class="node">
<title>2</title>
<polygon fill="none" stroke="#000000" points="372.5,-108 301.5,-108 301.5,-72 372.5,-72 372.5,-108"/>
<text text-anchor="middle" x="337" y="-86.3" font-family="Times,serif" font-size="14.00" fill="#000000">npfc.filter</text>
</g>
<!-- 3 -->
<g id="node4" class="node">
<title>3</title>
<polygon fill="none" stroke="#000000" points="94,-36 0,-36 0,0 94,0 94,-36"/>
<text text-anchor="middle" x="47" y="-14.3" font-family="Times,serif" font-size="14.00" fill="#000000">npfc.fragment</text>
</g>
<!-- 3&#45;&gt;0 -->
<g id="edge1" class="edge">
<title>3&#45;&gt;0</title>
<path fill="none" stroke="#000000" d="M82.8326,-36.1686C104.1604,-46.9827 131.1523,-60.6688 152.5824,-71.5348"/>
<polygon fill="#000000" stroke="#000000" points="161.6945,-76.155 150.7404,-75.6462 157.235,-73.8938 152.7755,-71.6326 152.7755,-71.6326 152.7755,-71.6326 157.235,-73.8938 154.8106,-67.619 161.6945,-76.155 161.6945,-76.155"/>
</g>
<!-- 4 -->
<g id="node5" class="node">
<title>4</title>
<polygon fill="none" stroke="#000000" points="180,-36 112,-36 112,0 180,0 180,-36"/>
<text text-anchor="middle" x="146" y="-14.3" font-family="Times,serif" font-size="14.00" fill="#000000">npfc.load</text>
</g>
<!-- 4&#45;&gt;0 -->
<g id="edge2" class="edge">
<title>4&#45;&gt;0</title>
<path fill="none" stroke="#000000" d="M156.8507,-36.1686C161.7023,-44.2921 167.5217,-54.0363 172.868,-62.9882"/>
<polygon fill="#000000" stroke="#000000" points="178.0032,-71.5867 169.0123,-65.3086 175.4395,-67.294 172.8757,-63.0013 172.8757,-63.0013 172.8757,-63.0013 175.4395,-67.294 176.7392,-60.6939 178.0032,-71.5867 178.0032,-71.5867"/>
</g>
<!-- 5 -->
<g id="node6" class="node">
<title>5</title>
<polygon fill="none" stroke="#000000" points="266,-36 198,-36 198,0 266,0 266,-36"/>
<text text-anchor="middle" x="232" y="-14.3" font-family="Times,serif" font-size="14.00" fill="#000000">npfc.save</text>
</g>
<!-- 5&#45;&gt;0 -->
<g id="edge3" class="edge">
<title>5&#45;&gt;0</title>
<path fill="none" stroke="#000000" d="M221.1493,-36.1686C216.2977,-44.2921 210.4783,-54.0363 205.132,-62.9882"/>
<polygon fill="#000000" stroke="#000000" points="199.9968,-71.5867 201.2608,-60.6939 202.5605,-67.294 205.1243,-63.0013 205.1243,-63.0013 205.1243,-63.0013 202.5605,-67.294 208.9877,-65.3086 199.9968,-71.5867 199.9968,-71.5867"/>
</g>
<!-- 6 -->
<g id="node7" class="node">
<title>6</title>
<polygon fill="none" stroke="#000000" points="390,-36 284,-36 284,0 390,0 390,-36"/>
<text text-anchor="middle" x="337" y="-14.3" font-family="Times,serif" font-size="14.00" fill="#000000">npfc.standardize</text>
</g>
<!-- 6&#45;&gt;0 -->
<g id="edge4" class="edge">
<title>6&#45;&gt;0</title>
<path fill="none" stroke="#000000" d="M299.6534,-36.1686C276.8751,-47.2499 247.8982,-61.3468 225.3115,-72.335"/>
<polygon fill="#000000" stroke="#000000" points="216.0594,-76.836 223.0831,-68.4147 220.5556,-74.6486 225.0517,-72.4613 225.0517,-72.4613 225.0517,-72.4613 220.5556,-74.6486 227.0204,-76.5078 216.0594,-76.836 216.0594,-76.836"/>
</g>
<!-- 6&#45;&gt;2 -->
<g id="edge5" class="edge">
<title>6&#45;&gt;2</title>
<path fill="none" stroke="#000000" d="M337,-36.1686C337,-43.869 337,-53.0257 337,-61.5834"/>
<polygon fill="#000000" stroke="#000000" points="337,-71.5867 332.5001,-61.5867 337,-66.5867 337.0001,-61.5867 337.0001,-61.5867 337.0001,-61.5867 337,-66.5867 341.5001,-61.5868 337,-71.5867 337,-71.5867"/>
</g>
<!-- 7 -->
<g id="node8" class="node">
<title>7</title>
<polygon fill="none" stroke="#000000" points="566,-36 498,-36 498,0 566,0 566,-36"/>
<text text-anchor="middle" x="532" y="-14.3" font-family="Times,serif" font-size="14.00" fill="#000000">npfc.utils</text>
</g>
</g>
</svg>
