<?xml version="1.0" encoding="UTF-8" standalone="no"?>
<!DOCTYPE svg PUBLIC "-//W3C//DTD SVG 1.1//EN"
 "http://www.w3.org/Graphics/SVG/1.1/DTD/svg11.dtd">
<!-- Generated by graphviz version 2.40.1 (20161225.0304)
 -->
<!-- Title: classes_npfc Pages: 1 -->
<svg width="915pt" height="712pt"
 viewBox="0.00 0.00 915.00 712.00" xmlns="http://www.w3.org/2000/svg" xmlns:xlink="http://www.w3.org/1999/xlink">
<g id="graph0" class="graph" transform="scale(1 1) rotate(0) translate(4 708)">
<title>classes_npfc</title>
<polygon fill="#ffffff" stroke="transparent" points="-4,4 -4,-708 911,-708 911,4 -4,4"/>
<!-- 0 -->
<g id="node1" class="node">
<title>0</title>
<polygon fill="none" stroke="#000000" points="0,-23.5 0,-122.5 150,-122.5 150,-23.5 0,-23.5"/>
<text text-anchor="middle" x="75" y="-107.3" font-family="Times,serif" font-size="14.00" fill="#000000">ColorMap</text>
<polyline fill="none" stroke="#000000" points="0,-99.5 150,-99.5 "/>
<text text-anchor="start" x="8" y="-84.3" font-family="Times,serif" font-size="14.00" fill="#000000">atoms</text>
<text text-anchor="start" x="8" y="-69.3" font-family="Times,serif" font-size="14.00" fill="#000000">bonds</text>
<text text-anchor="start" x="8" y="-54.3" font-family="Times,serif" font-size="14.00" fill="#000000">fragments : OrderedDict</text>
<polyline fill="none" stroke="#000000" points="0,-46.5 150,-46.5 "/>
<text text-anchor="middle" x="75" y="-31.3" font-family="Times,serif" font-size="14.00" fill="#000000"> </text>
</g>
<!-- 1 -->
<g id="node2" class="node">
<title>1</title>
<polygon fill="none" stroke="#000000" points="168,-.5 168,-145.5 384,-145.5 384,-.5 168,-.5"/>
<text text-anchor="middle" x="276" y="-130.3" font-family="Times,serif" font-size="14.00" fill="#000000">CombinationClassifier</text>
<polyline fill="none" stroke="#000000" points="168,-122.5 384,-122.5 "/>
<polyline fill="none" stroke="#000000" points="168,-98.5 384,-98.5 "/>
<text text-anchor="start" x="176" y="-83.3" font-family="Times,serif" font-size="14.00" fill="#000000">classify_fragment_combination()</text>
<text text-anchor="start" x="176" y="-68.3" font-family="Times,serif" font-size="14.00" fill="#000000">classify_fragment_combinations()</text>
<text text-anchor="start" x="176" y="-53.3" font-family="Times,serif" font-size="14.00" fill="#000000">clean()</text>
<text text-anchor="start" x="176" y="-38.3" font-family="Times,serif" font-size="14.00" fill="#000000">get_rings_between_two_fragments()</text>
<text text-anchor="start" x="176" y="-23.3" font-family="Times,serif" font-size="14.00" fill="#000000">get_shortest_path_between_frags()</text>
<text text-anchor="start" x="176" y="-8.3" font-family="Times,serif" font-size="14.00" fill="#000000">map_frags()</text>
</g>
<!-- 2 -->
<g id="node3" class="node">
<title>2</title>
<polygon fill="none" stroke="#000000" points="402,-1 402,-145 512,-145 512,-1 402,-1"/>
<text text-anchor="middle" x="457" y="-129.8" font-family="Times,serif" font-size="14.00" fill="#000000">DuplicateFilter</text>
<polyline fill="none" stroke="#000000" points="402,-122 512,-122 "/>
<text text-anchor="start" x="410" y="-106.8" font-family="Times,serif" font-size="14.00" fill="#000000">col_id</text>
<text text-anchor="start" x="410" y="-91.8" font-family="Times,serif" font-size="14.00" fill="#000000">col_mol</text>
<text text-anchor="start" x="410" y="-76.8" font-family="Times,serif" font-size="14.00" fill="#000000">on</text>
<text text-anchor="start" x="410" y="-61.8" font-family="Times,serif" font-size="14.00" fill="#000000">ref_file</text>
<polyline fill="none" stroke="#000000" points="402,-54 512,-54 "/>
<text text-anchor="start" x="410" y="-38.8" font-family="Times,serif" font-size="14.00" fill="#000000">find_synonyms()</text>
<text text-anchor="start" x="410" y="-23.8" font-family="Times,serif" font-size="14.00" fill="#000000">init_ref_file()</text>
<text text-anchor="start" x="410" y="-8.8" font-family="Times,serif" font-size="14.00" fill="#000000">mark_dupl()</text>
</g>
<!-- 3 -->
<g id="node4" class="node">
<title>3</title>
<polygon fill="none" stroke="#000000" points="419.5,-634.5 419.5,-703.5 526.5,-703.5 526.5,-634.5 419.5,-634.5"/>
<text text-anchor="middle" x="473" y="-688.3" font-family="Times,serif" font-size="14.00" fill="#000000">Filter</text>
<polyline fill="none" stroke="#000000" points="419.5,-680.5 526.5,-680.5 "/>
<text text-anchor="start" x="427.5" y="-665.3" font-family="Times,serif" font-size="14.00" fill="#000000">descriptors : dict</text>
<polyline fill="none" stroke="#000000" points="419.5,-657.5 526.5,-657.5 "/>
<text text-anchor="start" x="427.5" y="-642.3" font-family="Times,serif" font-size="14.00" fill="#000000">filter_mol()</text>
</g>
<!-- 4 -->
<g id="node5" class="node">
<title>4</title>
<polygon fill="none" stroke="#000000" points="530.5,-16 530.5,-130 631.5,-130 631.5,-16 530.5,-16"/>
<text text-anchor="middle" x="581" y="-114.8" font-family="Times,serif" font-size="14.00" fill="#000000">FullUncharger</text>
<polyline fill="none" stroke="#000000" points="530.5,-107 631.5,-107 "/>
<text text-anchor="start" x="538.5" y="-91.8" font-family="Times,serif" font-size="14.00" fill="#000000">q_neg_1</text>
<text text-anchor="start" x="538.5" y="-76.8" font-family="Times,serif" font-size="14.00" fill="#000000">q_neg_2</text>
<text text-anchor="start" x="538.5" y="-61.8" font-family="Times,serif" font-size="14.00" fill="#000000">q_pos_1</text>
<text text-anchor="start" x="538.5" y="-46.8" font-family="Times,serif" font-size="14.00" fill="#000000">q_pos_2</text>
<polyline fill="none" stroke="#000000" points="530.5,-39 631.5,-39 "/>
<text text-anchor="start" x="538.5" y="-23.8" font-family="Times,serif" font-size="14.00" fill="#000000">full_uncharge()</text>
</g>
<!-- 8 -->
<g id="node9" class="node">
<title>8</title>
<polygon fill="none" stroke="#000000" points="353.5,-250 353.5,-544 592.5,-544 592.5,-250 353.5,-250"/>
<text text-anchor="middle" x="473" y="-528.8" font-family="Times,serif" font-size="14.00" fill="#000000">Standardizer</text>
<polyline fill="none" stroke="#000000" points="353.5,-521 592.5,-521 "/>
<text text-anchor="start" x="361.5" y="-505.8" font-family="Times,serif" font-size="14.00" fill="#000000">canonicalizer : TautomerCanonicalizer</text>
<text text-anchor="start" x="361.5" y="-490.8" font-family="Times,serif" font-size="14.00" fill="#000000">col_id</text>
<text text-anchor="start" x="361.5" y="-475.8" font-family="Times,serif" font-size="14.00" fill="#000000">col_mol</text>
<text text-anchor="start" x="361.5" y="-460.8" font-family="Times,serif" font-size="14.00" fill="#000000">compute_2D</text>
<text text-anchor="start" x="361.5" y="-445.8" font-family="Times,serif" font-size="14.00" fill="#000000">elements_medchem</text>
<text text-anchor="start" x="361.5" y="-430.8" font-family="Times,serif" font-size="14.00" fill="#000000">filter_duplicates</text>
<text text-anchor="start" x="361.5" y="-415.8" font-family="Times,serif" font-size="14.00" fill="#000000">full_uncharger</text>
<text text-anchor="start" x="361.5" y="-400.8" font-family="Times,serif" font-size="14.00" fill="#000000">metal_disconnector : MetalDisconnector</text>
<text text-anchor="start" x="361.5" y="-385.8" font-family="Times,serif" font-size="14.00" fill="#000000">normalizer : Normalizer</text>
<text text-anchor="start" x="361.5" y="-370.8" font-family="Times,serif" font-size="14.00" fill="#000000">on</text>
<text text-anchor="start" x="361.5" y="-355.8" font-family="Times,serif" font-size="14.00" fill="#000000">protocol</text>
<text text-anchor="start" x="361.5" y="-340.8" font-family="Times,serif" font-size="14.00" fill="#000000">ref_file</text>
<text text-anchor="start" x="361.5" y="-325.8" font-family="Times,serif" font-size="14.00" fill="#000000">suffix</text>
<polyline fill="none" stroke="#000000" points="353.5,-318 592.5,-318 "/>
<text text-anchor="start" x="361.5" y="-302.8" font-family="Times,serif" font-size="14.00" fill="#000000">keep_best()</text>
<text text-anchor="start" x="361.5" y="-287.8" font-family="Times,serif" font-size="14.00" fill="#000000">remove_isotopes()</text>
<text text-anchor="start" x="361.5" y="-272.8" font-family="Times,serif" font-size="14.00" fill="#000000">run()</text>
<text text-anchor="start" x="361.5" y="-257.8" font-family="Times,serif" font-size="14.00" fill="#000000">run_df()</text>
</g>
<!-- 4&#45;&gt;8 -->
<g id="edge4" class="edge">
<title>4&#45;&gt;8</title>
<path fill="none" stroke="#000000" d="M535.443,-130.067C528.4176,-140.877 521.8865,-152.4355 517,-164 507.2136,-187.1605 499.5925,-212.5324 493.6603,-237.7421"/>
<polygon fill="#000000" stroke="#000000" points="493.6043,-237.9913 496.1879,-244.7236 490.9671,-249.6979 488.3835,-242.9655 493.6043,-237.9913"/>
<text text-anchor="middle" x="557" y="-167.8" font-family="Times,serif" font-size="14.00" fill="#00ff00">full_uncharger</text>
</g>
<!-- 9 -->
<g id="node10" class="node">
<title>9</title>
<polygon fill="none" stroke="#000000" points="610.5,-362 610.5,-432 685.5,-432 685.5,-362 610.5,-362"/>
<text text-anchor="middle" x="648" y="-416.8" font-family="Times,serif" font-size="14.00" fill="#000000">Uncharger</text>
<polyline fill="none" stroke="#000000" points="610.5,-409 685.5,-409 "/>
<polyline fill="none" stroke="#000000" points="610.5,-385 685.5,-385 "/>
<text text-anchor="start" x="618.5" y="-369.8" font-family="Times,serif" font-size="14.00" fill="#000000">uncharge()</text>
</g>
<!-- 4&#45;&gt;9 -->
<g id="edge1" class="edge">
<title>4&#45;&gt;9</title>
<path fill="none" stroke="#000000" d="M592.824,-130.1789C605.9011,-193.4174 626.701,-294.0017 638.6777,-351.919"/>
<polygon fill="none" stroke="#000000" points="635.2834,-352.7886 640.736,-361.8726 642.1383,-351.371 635.2834,-352.7886"/>
</g>
<!-- 5 -->
<g id="node6" class="node">
<title>5</title>
<polygon fill="none" stroke="#000000" points="703.5,-197.5 703.5,-596.5 846.5,-596.5 846.5,-197.5 703.5,-197.5"/>
<text text-anchor="middle" x="775" y="-581.3" font-family="Times,serif" font-size="14.00" fill="#000000">HDFStore</text>
<polyline fill="none" stroke="#000000" points="703.5,-573.5 846.5,-573.5 "/>
<text text-anchor="start" x="711.5" y="-558.3" font-family="Times,serif" font-size="14.00" fill="#000000">filename</text>
<text text-anchor="start" x="711.5" y="-543.3" font-family="Times,serif" font-size="14.00" fill="#000000">is_open</text>
<text text-anchor="start" x="711.5" y="-528.3" font-family="Times,serif" font-size="14.00" fill="#000000">iteritems</text>
<text text-anchor="start" x="711.5" y="-513.3" font-family="Times,serif" font-size="14.00" fill="#000000">root</text>
<polyline fill="none" stroke="#000000" points="703.5,-505.5 846.5,-505.5 "/>
<text text-anchor="start" x="711.5" y="-490.3" font-family="Times,serif" font-size="14.00" fill="#000000">append()</text>
<text text-anchor="start" x="711.5" y="-475.3" font-family="Times,serif" font-size="14.00" fill="#000000">append_to_multiple()</text>
<text text-anchor="start" x="711.5" y="-460.3" font-family="Times,serif" font-size="14.00" fill="#000000">close()</text>
<text text-anchor="start" x="711.5" y="-445.3" font-family="Times,serif" font-size="14.00" fill="#000000">copy()</text>
<text text-anchor="start" x="711.5" y="-430.3" font-family="Times,serif" font-size="14.00" fill="#000000">create_table_index()</text>
<text text-anchor="start" x="711.5" y="-415.3" font-family="Times,serif" font-size="14.00" fill="#000000">flush()</text>
<text text-anchor="start" x="711.5" y="-400.3" font-family="Times,serif" font-size="14.00" fill="#000000">get()</text>
<text text-anchor="start" x="711.5" y="-385.3" font-family="Times,serif" font-size="14.00" fill="#000000">get_node()</text>
<text text-anchor="start" x="711.5" y="-370.3" font-family="Times,serif" font-size="14.00" fill="#000000">get_storer()</text>
<text text-anchor="start" x="711.5" y="-355.3" font-family="Times,serif" font-size="14.00" fill="#000000">groups()</text>
<text text-anchor="start" x="711.5" y="-340.3" font-family="Times,serif" font-size="14.00" fill="#000000">info()</text>
<text text-anchor="start" x="711.5" y="-325.3" font-family="Times,serif" font-size="14.00" fill="#000000">items()</text>
<text text-anchor="start" x="711.5" y="-310.3" font-family="Times,serif" font-size="14.00" fill="#000000">keys()</text>
<text text-anchor="start" x="711.5" y="-295.3" font-family="Times,serif" font-size="14.00" fill="#000000">open()</text>
<text text-anchor="start" x="711.5" y="-280.3" font-family="Times,serif" font-size="14.00" fill="#000000">put()</text>
<text text-anchor="start" x="711.5" y="-265.3" font-family="Times,serif" font-size="14.00" fill="#000000">remove()</text>
<text text-anchor="start" x="711.5" y="-250.3" font-family="Times,serif" font-size="14.00" fill="#000000">select()</text>
<text text-anchor="start" x="711.5" y="-235.3" font-family="Times,serif" font-size="14.00" fill="#000000">select_as_coordinates()</text>
<text text-anchor="start" x="711.5" y="-220.3" font-family="Times,serif" font-size="14.00" fill="#000000">select_as_multiple()</text>
<text text-anchor="start" x="711.5" y="-205.3" font-family="Times,serif" font-size="14.00" fill="#000000">select_column()</text>
</g>
<!-- 6 -->
<g id="node7" class="node">
<title>6</title>
<polygon fill="none" stroke="#000000" points="845,-38 845,-108 907,-108 907,-38 845,-38"/>
<text text-anchor="middle" x="876" y="-92.8" font-family="Times,serif" font-size="14.00" fill="#000000">Matcher</text>
<polyline fill="none" stroke="#000000" points="845,-85 907,-85 "/>
<polyline fill="none" stroke="#000000" points="845,-61 907,-61 "/>
<text text-anchor="start" x="853" y="-45.8" font-family="Times,serif" font-size="14.00" fill="#000000">run()</text>
</g>
<!-- 7 -->
<g id="node8" class="node">
<title>7</title>
<polygon fill="none" stroke="#000000" points="723.5,-38 723.5,-108 826.5,-108 826.5,-38 723.5,-38"/>
<text text-anchor="middle" x="775" y="-92.8" font-family="Times,serif" font-size="14.00" fill="#000000">SafeHDF5Store</text>
<polyline fill="none" stroke="#000000" points="723.5,-85 826.5,-85 "/>
<polyline fill="none" stroke="#000000" points="723.5,-61 826.5,-61 "/>
<text text-anchor="middle" x="775" y="-45.8" font-family="Times,serif" font-size="14.00" fill="#000000"> </text>
</g>
<!-- 7&#45;&gt;5 -->
<g id="edge2" class="edge">
<title>7&#45;&gt;5</title>
<path fill="none" stroke="#000000" d="M775,-108.2905C775,-128.8463 775,-156.6384 775,-186.8924"/>
<polygon fill="none" stroke="#000000" points="771.5001,-187.2398 775,-197.2399 778.5001,-187.2399 771.5001,-187.2398"/>
</g>
<!-- 8&#45;&gt;3 -->
<g id="edge3" class="edge">
<title>8&#45;&gt;3</title>
<path fill="none" stroke="#000000" d="M473,-544.1451C473,-573.3214 473,-601.8089 473,-624.1881"/>
<polygon fill="none" stroke="#000000" points="469.5001,-624.3395 473,-634.3396 476.5001,-624.3396 469.5001,-624.3395"/>
</g>
</g>
</svg>
