<svg xmlns="http://www.w3.org/2000/svg" xmlns:rdkit="http://www.rdkit.org/xml" xmlns:xlink="http://www.w3.org/1999/xlink" version="1.1" baseProfile="full" xml:space="preserve" width="400px" height="400px" viewBox="0 0 400 400">
<!-- END OF HEADER -->
<rect style="opacity:1.0;fill:#FFFFFF;stroke:none" width="400.0" height="400.0" x="0.0" y="0.0"> </rect>
<path class="bond-0 atom-0 atom-1" d="M 56.5,219.2 L 126.8,259.9 L 114.6,281.0 L 44.3,240.3 Z" style="fill:#FF9999;fill-rule:evenodd;fill-opacity:1;stroke:#FF9999;stroke-width:2.0px;stroke-linecap:butt;stroke-linejoin:miter;stroke-opacity:1;"/>
<path class="bond-1 atom-1 atom-2" d="M 114.6,259.9 L 185.0,219.3 L 197.2,240.5 L 126.8,281.0 Z" style="fill:#FF9999;fill-rule:evenodd;fill-opacity:1;stroke:#FF9999;stroke-width:2.0px;stroke-linecap:butt;stroke-linejoin:miter;stroke-opacity:1;"/>
<path class="bond-2 atom-2 atom-3" d="M 197.2,219.3 L 267.5,260.0 L 255.3,281.1 L 185.0,240.4 Z" style="fill:#33FF33;fill-rule:evenodd;fill-opacity:1;stroke:#33FF33;stroke-width:2.0px;stroke-linecap:butt;stroke-linejoin:miter;stroke-opacity:1;"/>
<path class="bond-3 atom-3 atom-4" d="M 255.3,260.0 L 325.7,219.5 L 337.9,240.6 L 267.5,281.1 Z" style="fill:#33FF33;fill-rule:evenodd;fill-opacity:1;stroke:#33FF33;stroke-width:2.0px;stroke-linecap:butt;stroke-linejoin:miter;stroke-opacity:1;"/>
<path class="bond-4 atom-4 atom-5" d="M 319.6,230.0 L 319.7,148.8 L 344.0,148.8 L 344.0,230.0 Z" style="fill:#33FF33;fill-rule:evenodd;fill-opacity:1;stroke:#33FF33;stroke-width:2.0px;stroke-linecap:butt;stroke-linejoin:miter;stroke-opacity:1;"/>
<path class="bond-5 atom-5 atom-6" d="M 325.8,159.3 L 255.4,118.6 L 267.6,97.6 L 338.0,138.2 Z" style="fill:#33FF33;fill-rule:evenodd;fill-opacity:1;stroke:#33FF33;stroke-width:2.0px;stroke-linecap:butt;stroke-linejoin:miter;stroke-opacity:1;"/>
<path class="bond-6 atom-6 atom-7" d="M 267.6,118.7 L 197.2,159.2 L 185.1,138.1 L 255.5,97.5 Z" style="fill:#33FF33;fill-rule:evenodd;fill-opacity:1;stroke:#33FF33;stroke-width:2.0px;stroke-linecap:butt;stroke-linejoin:miter;stroke-opacity:1;"/>
<path class="bond-7 atom-7 atom-8" d="M 185.1,159.2 L 114.8,118.6 L 127.0,97.5 L 197.3,138.1 Z" style="fill:#FF9999;fill-rule:evenodd;fill-opacity:1;stroke:#FF9999;stroke-width:2.0px;stroke-linecap:butt;stroke-linejoin:miter;stroke-opacity:1;"/>
<path class="bond-8 atom-8 atom-9" d="M 126.9,118.6 L 56.6,159.1 L 44.4,138.0 L 114.8,97.4 Z" style="fill:#FF9999;fill-rule:evenodd;fill-opacity:1;stroke:#FF9999;stroke-width:2.0px;stroke-linecap:butt;stroke-linejoin:miter;stroke-opacity:1;"/>
<path class="bond-9 atom-9 atom-0" d="M 62.7,148.6 L 62.6,229.8 L 38.2,229.8 L 38.3,148.5 Z" style="fill:#FF9999;fill-rule:evenodd;fill-opacity:1;stroke:#FF9999;stroke-width:2.0px;stroke-linecap:butt;stroke-linejoin:miter;stroke-opacity:1;"/>
<path class="bond-10 atom-7 atom-2" d="M 179.0,148.7 L 191.2,148.7 L 191.1,229.9 L 178.9,229.9 Z" style="fill:#FF9999;fill-rule:evenodd;fill-opacity:1;stroke:#FF9999;stroke-width:2.0px;stroke-linecap:butt;stroke-linejoin:miter;stroke-opacity:1;"/>
<path class="bond-10 atom-7 atom-2" d="M 191.2,148.7 L 203.3,148.7 L 203.3,229.9 L 191.1,229.9 Z" style="fill:#33FF33;fill-rule:evenodd;fill-opacity:1;stroke:#33FF33;stroke-width:2.0px;stroke-linecap:butt;stroke-linejoin:miter;stroke-opacity:1;"/>
<ellipse cx="50.4" cy="229.8" rx="17.4" ry="17.4" class="atom-0" style="fill:#FF9999;fill-rule:evenodd;stroke:#FF9999;stroke-width:1.0px;stroke-linecap:butt;stroke-linejoin:miter;stroke-opacity:1"/>
<ellipse cx="120.7" cy="270.5" rx="17.4" ry="17.4" class="atom-1" style="fill:#FF9999;fill-rule:evenodd;stroke:#FF9999;stroke-width:1.0px;stroke-linecap:butt;stroke-linejoin:miter;stroke-opacity:1"/>
<path class="atom-2" d="M 191.1,128.4 L 199.7,128.7 L 208.3,129.8 L 216.7,131.6 L 224.9,134.2 L 232.9,137.4 L 240.6,141.3 L 248.0,145.8 L 254.9,150.9 L 261.4,156.6 L 267.3,162.8 L 272.7,169.5 L 277.6,176.7 L 281.8,184.2 L 285.3,192.0 L 288.2,200.2 L 290.4,208.5 L 291.8,217.0 L 292.5,225.6 L 292.5,234.2 L 291.8,242.8 L 290.4,251.3 L 288.2,259.6 L 285.3,267.8 L 281.8,275.6 L 277.6,283.1 L 272.7,290.3 L 267.3,297.0 L 261.4,303.2 L 254.9,308.9 L 248.0,314.0 L 240.6,318.5 L 232.9,322.4 L 224.9,325.6 L 216.7,328.2 L 208.3,330.0 L 199.7,331.1 L 191.1,331.4 L 191.1,229.9 Z" style="fill:#FF9999;fill-rule:evenodd;fill-opacity:1;stroke:#FF9999;stroke-width:18.6px;stroke-linecap:butt;stroke-linejoin:miter;stroke-opacity:1;"/>
<path class="atom-2" d="M 191.1,331.4 L 182.5,331.1 L 173.9,330.0 L 165.5,328.2 L 157.3,325.6 L 149.3,322.4 L 141.6,318.5 L 134.2,314.0 L 127.3,308.9 L 120.8,303.2 L 114.9,297.0 L 109.5,290.3 L 104.6,283.1 L 100.4,275.6 L 96.9,267.8 L 94.0,259.6 L 91.8,251.3 L 90.4,242.8 L 89.7,234.2 L 89.7,225.6 L 90.4,217.0 L 91.8,208.5 L 94.0,200.2 L 96.9,192.0 L 100.4,184.2 L 104.6,176.7 L 109.5,169.5 L 114.9,162.8 L 120.8,156.6 L 127.3,150.9 L 134.2,145.8 L 141.6,141.3 L 149.3,137.4 L 157.3,134.2 L 165.5,131.6 L 173.9,129.8 L 182.5,128.7 L 191.1,128.4 L 191.1,229.9 Z" style="fill:#33FF33;fill-rule:evenodd;fill-opacity:1;stroke:#33FF33;stroke-width:18.6px;stroke-linecap:butt;stroke-linejoin:miter;stroke-opacity:1;"/>
<ellipse cx="261.4" cy="270.6" rx="17.4" ry="17.4" class="atom-3" style="fill:#33FF33;fill-rule:evenodd;stroke:#33FF33;stroke-width:1.0px;stroke-linecap:butt;stroke-linejoin:miter;stroke-opacity:1"/>
<ellipse cx="331.8" cy="230.0" rx="17.4" ry="17.4" class="atom-4" style="fill:#33FF33;fill-rule:evenodd;stroke:#33FF33;stroke-width:1.0px;stroke-linecap:butt;stroke-linejoin:miter;stroke-opacity:1"/>
<ellipse cx="331.9" cy="149.0" rx="17.4" ry="17.9" class="atom-5" style="fill:#33FF33;fill-rule:evenodd;stroke:#33FF33;stroke-width:1.0px;stroke-linecap:butt;stroke-linejoin:miter;stroke-opacity:1"/>
<ellipse cx="261.5" cy="108.1" rx="17.4" ry="17.4" class="atom-6" style="fill:#33FF33;fill-rule:evenodd;stroke:#33FF33;stroke-width:1.0px;stroke-linecap:butt;stroke-linejoin:miter;stroke-opacity:1"/>
<path class="atom-7" d="M 191.2,131.3 L 192.6,131.3 L 194.1,131.5 L 195.6,131.8 L 197.0,132.3 L 198.3,132.8 L 199.7,133.5 L 200.9,134.2 L 202.1,135.1 L 203.2,136.1 L 204.2,137.2 L 205.2,138.3 L 206.0,139.5 L 206.7,140.8 L 207.3,142.2 L 207.8,143.6 L 208.2,145.0 L 208.4,146.5 L 208.6,147.9 L 208.6,149.4 L 208.4,150.9 L 208.2,152.3 L 207.8,153.8 L 207.3,155.2 L 206.7,156.5 L 206.0,157.8 L 205.2,159.0 L 204.2,160.2 L 203.2,161.2 L 202.1,162.2 L 200.9,163.1 L 199.7,163.9 L 198.3,164.5 L 197.0,165.1 L 195.6,165.5 L 194.1,165.8 L 192.6,166.0 L 191.2,166.1 L 191.2,148.7 Z" style="fill:#FF9999;fill-rule:evenodd;fill-opacity:1;stroke:#FF9999;stroke-width:18.6px;stroke-linecap:butt;stroke-linejoin:miter;stroke-opacity:1;"/>
<path class="atom-7" d="M 191.2,166.1 L 189.7,166.0 L 188.2,165.8 L 186.8,165.5 L 185.4,165.1 L 184.0,164.5 L 182.7,163.9 L 181.4,163.1 L 180.2,162.2 L 179.1,161.2 L 178.1,160.2 L 177.2,159.0 L 176.3,157.8 L 175.6,156.5 L 175.0,155.2 L 174.5,153.8 L 174.1,152.3 L 173.9,150.9 L 173.8,149.4 L 173.8,147.9 L 173.9,146.5 L 174.1,145.0 L 174.5,143.6 L 175.0,142.2 L 175.6,140.8 L 176.3,139.5 L 177.2,138.3 L 178.1,137.2 L 179.1,136.1 L 180.2,135.1 L 181.4,134.2 L 182.7,133.5 L 184.0,132.8 L 185.4,132.3 L 186.8,131.8 L 188.2,131.5 L 189.7,131.3 L 191.2,131.3 L 191.2,148.7 Z" style="fill:#33FF33;fill-rule:evenodd;fill-opacity:1;stroke:#33FF33;stroke-width:18.6px;stroke-linecap:butt;stroke-linejoin:miter;stroke-opacity:1;"/>
<ellipse cx="120.9" cy="94.4" rx="17.4" ry="36.6" class="atom-8" style="fill:#FF9999;fill-rule:evenodd;stroke:#FF9999;stroke-width:1.0px;stroke-linecap:butt;stroke-linejoin:miter;stroke-opacity:1"/>
<ellipse cx="50.5" cy="148.6" rx="17.4" ry="17.4" class="atom-9" style="fill:#FF9999;fill-rule:evenodd;stroke:#FF9999;stroke-width:1.0px;stroke-linecap:butt;stroke-linejoin:miter;stroke-opacity:1"/>
<path class="bond-0 atom-0 atom-1" d="M 50.4,229.8 L 120.7,270.5" style="fill:none;fill-rule:evenodd;stroke:#000000;stroke-width:2.0px;stroke-linecap:butt;stroke-linejoin:miter;stroke-opacity:1"/>
<path class="bond-1 atom-1 atom-2" d="M 120.7,270.5 L 191.1,229.9" style="fill:none;fill-rule:evenodd;stroke:#000000;stroke-width:2.0px;stroke-linecap:butt;stroke-linejoin:miter;stroke-opacity:1"/>
<path class="bond-2 atom-2 atom-3" d="M 191.1,229.9 L 261.4,270.6" style="fill:none;fill-rule:evenodd;stroke:#000000;stroke-width:2.0px;stroke-linecap:butt;stroke-linejoin:miter;stroke-opacity:1"/>
<path class="bond-3 atom-3 atom-4" d="M 261.4,270.6 L 331.8,230.0" style="fill:none;fill-rule:evenodd;stroke:#000000;stroke-width:2.0px;stroke-linecap:butt;stroke-linejoin:miter;stroke-opacity:1"/>
<path class="bond-4 atom-4 atom-5" d="M 331.8,230.0 L 331.8,197.2" style="fill:none;fill-rule:evenodd;stroke:#000000;stroke-width:2.0px;stroke-linecap:butt;stroke-linejoin:miter;stroke-opacity:1"/>
<path class="bond-4 atom-4 atom-5" d="M 331.8,197.2 L 331.8,164.3" style="fill:none;fill-rule:evenodd;stroke:#FF0000;stroke-width:2.0px;stroke-linecap:butt;stroke-linejoin:miter;stroke-opacity:1"/>
<path class="bond-5 atom-5 atom-6" d="M 317.9,140.7 L 289.7,124.4" style="fill:none;fill-rule:evenodd;stroke:#FF0000;stroke-width:2.0px;stroke-linecap:butt;stroke-linejoin:miter;stroke-opacity:1"/>
<path class="bond-5 atom-5 atom-6" d="M 289.7,124.4 L 261.5,108.1" style="fill:none;fill-rule:evenodd;stroke:#000000;stroke-width:2.0px;stroke-linecap:butt;stroke-linejoin:miter;stroke-opacity:1"/>
<path class="bond-6 atom-6 atom-7" d="M 261.5,108.1 L 191.2,148.7" style="fill:none;fill-rule:evenodd;stroke:#000000;stroke-width:2.0px;stroke-linecap:butt;stroke-linejoin:miter;stroke-opacity:1"/>
<path class="bond-7 atom-7 atom-8" d="M 191.2,148.7 L 162.0,131.8" style="fill:none;fill-rule:evenodd;stroke:#000000;stroke-width:2.0px;stroke-linecap:butt;stroke-linejoin:miter;stroke-opacity:1"/>
<path class="bond-7 atom-7 atom-8" d="M 162.0,131.8 L 132.9,115.0" style="fill:none;fill-rule:evenodd;stroke:#0000FF;stroke-width:2.0px;stroke-linecap:butt;stroke-linejoin:miter;stroke-opacity:1"/>
<path class="bond-8 atom-8 atom-9" d="M 108.8,114.9 L 79.6,131.7" style="fill:none;fill-rule:evenodd;stroke:#0000FF;stroke-width:2.0px;stroke-linecap:butt;stroke-linejoin:miter;stroke-opacity:1"/>
<path class="bond-8 atom-8 atom-9" d="M 79.6,131.7 L 50.5,148.6" style="fill:none;fill-rule:evenodd;stroke:#000000;stroke-width:2.0px;stroke-linecap:butt;stroke-linejoin:miter;stroke-opacity:1"/>
<path class="bond-9 atom-9 atom-0" d="M 50.5,148.6 L 50.4,229.8" style="fill:none;fill-rule:evenodd;stroke:#000000;stroke-width:2.0px;stroke-linecap:butt;stroke-linejoin:miter;stroke-opacity:1"/>
<path class="bond-10 atom-7 atom-2" d="M 191.2,148.7 L 191.1,229.9" style="fill:none;fill-rule:evenodd;stroke:#000000;stroke-width:2.0px;stroke-linecap:butt;stroke-linejoin:miter;stroke-opacity:1"/>
<path d="M 53.9,231.8 L 50.4,229.8 L 50.4,225.7" style="fill:none;stroke:#000000;stroke-width:2.0px;stroke-linecap:butt;stroke-linejoin:miter;stroke-opacity:1;"/>
<path d="M 117.2,268.4 L 120.7,270.5 L 124.2,268.4" style="fill:none;stroke:#000000;stroke-width:2.0px;stroke-linecap:butt;stroke-linejoin:miter;stroke-opacity:1;"/>
<path d="M 257.9,268.5 L 261.4,270.6 L 264.9,268.5" style="fill:none;stroke:#000000;stroke-width:2.0px;stroke-linecap:butt;stroke-linejoin:miter;stroke-opacity:1;"/>
<path d="M 328.3,232.0 L 331.8,230.0 L 331.8,228.4" style="fill:none;stroke:#000000;stroke-width:2.0px;stroke-linecap:butt;stroke-linejoin:miter;stroke-opacity:1;"/>
<path d="M 262.9,108.9 L 261.5,108.1 L 258.0,110.1" style="fill:none;stroke:#000000;stroke-width:2.0px;stroke-linecap:butt;stroke-linejoin:miter;stroke-opacity:1;"/>
<path d="M 51.9,147.7 L 50.5,148.6 L 50.5,152.6" style="fill:none;stroke:#000000;stroke-width:2.0px;stroke-linecap:butt;stroke-linejoin:miter;stroke-opacity:1;"/>
<path class="atom-5" d="M 320.5 148.8 Q 320.5 142.9, 323.5 139.6 Q 326.4 136.3, 331.9 136.3 Q 337.3 136.3, 340.2 139.6 Q 343.2 142.9, 343.2 148.8 Q 343.2 154.8, 340.2 158.2 Q 337.2 161.6, 331.9 161.6 Q 326.4 161.6, 323.5 158.2 Q 320.5 154.9, 320.5 148.8 M 331.9 158.8 Q 335.6 158.8, 337.6 156.3 Q 339.7 153.8, 339.7 148.8 Q 339.7 144.0, 337.6 141.6 Q 335.6 139.1, 331.9 139.1 Q 328.1 139.1, 326.0 141.5 Q 324.0 144.0, 324.0 148.8 Q 324.0 153.8, 326.0 156.3 Q 328.1 158.8, 331.9 158.8 " fill="#FF0000"/>
<path class="atom-8" d="M 115.4 95.7 L 123.5 108.7 Q 124.3 110.0, 125.6 112.4 Q 126.9 114.7, 126.9 114.8 L 126.9 95.7 L 130.2 95.7 L 130.2 120.3 L 126.8 120.3 L 118.2 106.1 Q 117.1 104.4, 116.1 102.5 Q 115.0 100.6, 114.7 100.0 L 114.7 120.3 L 111.5 120.3 L 111.5 95.7 L 115.4 95.7 " fill="#0000FF"/>
<path class="atom-8" d="M 111.2 68.6 L 114.6 68.6 L 114.6 79.0 L 127.2 79.0 L 127.2 68.6 L 130.5 68.6 L 130.5 93.2 L 127.2 93.2 L 127.2 81.8 L 114.6 81.8 L 114.6 93.2 L 111.2 93.2 L 111.2 68.6 " fill="#0000FF"/>
<path class="note" d="M 37.8 243.4 Q 35.6 243.4, 34.4 241.7 Q 33.3 240.1, 33.3 237.1 Q 33.3 234.1, 34.4 232.4 Q 35.6 230.8, 37.8 230.8 Q 40.1 230.8, 41.2 232.4 Q 42.3 234.1, 42.3 237.1 Q 42.3 240.1, 41.2 241.7 Q 40.1 243.4, 37.8 243.4 M 37.8 242.0 Q 39.2 242.0, 39.9 240.8 Q 40.6 239.5, 40.6 237.1 Q 40.6 234.7, 39.9 233.4 Q 39.2 232.2, 37.8 232.2 Q 36.5 232.2, 35.8 233.4 Q 35.1 234.7, 35.1 237.1 Q 35.1 239.5, 35.8 240.8 Q 36.5 242.0, 37.8 242.0 " fill="#000000"/>
<path class="note" d="M 117.7 289.8 L 120.4 289.8 L 120.4 280.6 L 117.4 281.5 L 117.0 280.5 L 120.8 278.8 L 122.0 279.0 L 122.0 289.8 L 124.4 289.8 L 124.4 291.2 L 117.7 291.2 L 117.7 289.8 " fill="#000000"/>
<path class="note" d="M 187.0 240.6 Q 187.4 239.5, 188.5 238.8 Q 189.6 238.2, 191.1 238.2 Q 192.9 238.2, 194.0 239.2 Q 195.0 240.2, 195.0 242.0 Q 195.0 243.8, 193.7 245.5 Q 192.3 247.2, 189.5 249.2 L 195.2 249.2 L 195.2 250.6 L 186.9 250.6 L 186.9 249.5 Q 189.2 247.8, 190.6 246.6 Q 192.0 245.4, 192.6 244.3 Q 193.3 243.2, 193.3 242.1 Q 193.3 240.9, 192.7 240.2 Q 192.1 239.6, 191.1 239.6 Q 190.1 239.6, 189.4 240.0 Q 188.8 240.4, 188.3 241.3 L 187.0 240.6 " fill="#000000"/>
<path class="note" d="M 263.2 284.8 Q 264.4 285.2, 265.0 285.9 Q 265.5 286.7, 265.5 287.9 Q 265.5 289.0, 265.0 289.8 Q 264.5 290.6, 263.5 291.0 Q 262.6 291.5, 261.3 291.5 Q 260.0 291.5, 259.0 291.0 Q 258.0 290.5, 257.3 289.6 L 258.2 288.6 Q 259.0 289.4, 259.7 289.8 Q 260.3 290.1, 261.3 290.1 Q 262.4 290.1, 263.1 289.5 Q 263.8 288.9, 263.8 287.9 Q 263.8 286.6, 263.1 286.1 Q 262.4 285.5, 260.9 285.5 L 260.0 285.5 L 260.0 284.3 L 260.8 284.3 Q 262.1 284.2, 262.8 283.7 Q 263.5 283.1, 263.5 282.0 Q 263.5 281.2, 262.9 280.7 Q 262.4 280.2, 261.3 280.2 Q 260.3 280.2, 259.7 280.6 Q 259.1 281.0, 258.6 281.9 L 257.4 281.2 Q 257.8 280.2, 258.8 279.5 Q 259.9 278.8, 261.3 278.8 Q 263.2 278.8, 264.2 279.7 Q 265.3 280.5, 265.3 282.0 Q 265.3 283.0, 264.7 283.7 Q 264.2 284.4, 263.2 284.8 " fill="#000000"/>
<path class="note" d="M 347.6 239.2 L 349.1 239.2 L 349.1 240.6 L 347.6 240.6 L 347.6 243.4 L 346.0 243.4 L 346.0 240.6 L 339.6 240.6 L 339.6 239.5 L 345.0 231.1 L 347.6 231.1 L 347.6 239.2 M 341.6 239.2 L 346.0 239.2 L 346.0 232.2 L 341.6 239.2 " fill="#000000"/>
<path class="note" d="M 357.3 132.7 Q 358.4 132.7, 359.3 133.2 Q 360.1 133.7, 360.7 134.5 Q 361.2 135.4, 361.2 136.6 Q 361.2 137.8, 360.5 138.8 Q 359.9 139.7, 358.9 140.1 Q 357.9 140.6, 356.8 140.6 Q 355.6 140.6, 354.6 140.2 Q 353.5 139.8, 352.8 139.0 L 353.9 137.9 Q 354.4 138.5, 355.2 138.9 Q 356.0 139.2, 356.8 139.2 Q 357.9 139.2, 358.7 138.5 Q 359.4 137.8, 359.4 136.6 Q 359.4 135.3, 358.7 134.7 Q 357.9 134.1, 356.7 134.1 Q 355.6 134.1, 354.4 134.5 L 353.5 134.1 L 354.1 128.1 L 360.4 128.1 L 360.2 129.5 L 355.5 129.5 L 355.1 133.2 Q 356.2 132.7, 357.3 132.7 " fill="#000000"/>
<path class="note" d="M 262.1 92.1 Q 263.2 92.1, 264.0 92.6 Q 264.9 93.1, 265.4 93.9 Q 265.8 94.8, 265.8 95.9 Q 265.8 97.1, 265.3 98.0 Q 264.8 98.9, 263.8 99.4 Q 262.9 100.0, 261.7 100.0 Q 259.5 100.0, 258.4 98.5 Q 257.3 97.0, 257.3 94.0 Q 257.3 90.8, 258.6 89.1 Q 260.0 87.4, 262.6 87.4 Q 263.4 87.4, 264.1 87.5 Q 264.7 87.7, 265.3 88.1 L 264.7 89.2 Q 263.8 88.8, 262.7 88.8 Q 260.9 88.8, 260.0 89.9 Q 259.1 91.0, 259.0 93.3 Q 259.7 92.7, 260.4 92.4 Q 261.2 92.1, 262.1 92.1 M 261.7 98.5 Q 262.4 98.5, 262.9 98.2 Q 263.5 97.8, 263.8 97.2 Q 264.1 96.6, 264.1 95.9 Q 264.1 94.8, 263.5 94.2 Q 262.9 93.5, 261.8 93.5 Q 261.0 93.5, 260.3 93.8 Q 259.6 94.1, 259.0 94.7 Q 259.1 96.7, 259.8 97.6 Q 260.4 98.5, 261.7 98.5 " fill="#000000"/>
<path class="note" d="M 193.5 129.4 L 187.1 129.4 L 187.1 128.0 L 195.3 128.0 L 195.3 129.2 L 190.3 140.3 L 188.6 140.3 L 193.5 129.4 " fill="#000000"/>
<path class="note" d="M 122.8 136.7 Q 123.9 137.2, 124.5 137.9 Q 125.2 138.6, 125.2 139.9 Q 125.2 140.9, 124.6 141.7 Q 124.1 142.5, 123.1 143.0 Q 122.2 143.4, 120.9 143.4 Q 118.8 143.4, 117.7 142.5 Q 116.5 141.5, 116.5 139.9 Q 116.5 138.9, 117.0 138.1 Q 117.5 137.3, 118.6 136.8 Q 117.8 136.3, 117.4 135.7 Q 116.9 135.0, 116.9 133.9 Q 116.9 132.5, 118.0 131.6 Q 119.0 130.8, 120.8 130.8 Q 122.6 130.8, 123.7 131.6 Q 124.7 132.5, 124.7 133.9 Q 124.7 134.8, 124.2 135.5 Q 123.7 136.2, 122.8 136.7 M 120.8 132.1 Q 119.8 132.1, 119.2 132.6 Q 118.7 133.1, 118.7 133.9 Q 118.7 134.6, 119.1 135.0 Q 119.4 135.4, 120.0 135.7 Q 120.5 135.9, 121.6 136.3 Q 122.3 135.8, 122.7 135.2 Q 123.0 134.6, 123.0 133.9 Q 123.0 133.1, 122.4 132.6 Q 121.9 132.1, 120.8 132.1 M 120.9 142.1 Q 122.0 142.1, 122.7 141.5 Q 123.4 140.9, 123.4 139.9 Q 123.4 139.2, 123.1 138.8 Q 122.7 138.4, 122.2 138.1 Q 121.6 137.9, 120.6 137.6 L 119.9 137.3 Q 119.0 137.8, 118.6 138.4 Q 118.2 139.0, 118.2 139.9 Q 118.2 140.9, 118.9 141.5 Q 119.7 142.1, 120.9 142.1 " fill="#000000"/>
<path class="note" d="M 37.8 135.1 Q 40.0 135.1, 41.1 136.6 Q 42.2 138.0, 42.2 141.0 Q 42.2 144.3, 40.8 146.0 Q 39.5 147.7, 36.8 147.7 Q 36.1 147.7, 35.4 147.5 Q 34.8 147.3, 34.1 146.9 L 34.8 145.8 Q 35.7 146.3, 36.8 146.3 Q 38.6 146.3, 39.4 145.2 Q 40.3 144.0, 40.4 141.7 Q 39.8 142.3, 39.0 142.6 Q 38.2 142.9, 37.4 142.9 Q 36.3 142.9, 35.4 142.4 Q 34.6 142.0, 34.1 141.1 Q 33.6 140.2, 33.6 139.2 Q 33.6 138.0, 34.2 137.0 Q 34.7 136.1, 35.6 135.6 Q 36.6 135.1, 37.8 135.1 M 35.4 139.1 Q 35.4 140.2, 36.0 140.9 Q 36.6 141.5, 37.7 141.5 Q 38.4 141.5, 39.2 141.2 Q 39.9 140.9, 40.4 140.4 Q 40.4 138.3, 39.7 137.4 Q 39.1 136.5, 37.8 136.5 Q 37.1 136.5, 36.6 136.8 Q 36.0 137.2, 35.7 137.8 Q 35.4 138.4, 35.4 139.1 " fill="#000000"/>
</svg>