<?xml version="1.0" encoding="UTF-8" standalone="no"?>
<!DOCTYPE svg PUBLIC "-//W3C//DTD SVG 1.1//EN"
 "http://www.w3.org/Graphics/SVG/1.1/DTD/svg11.dtd">
<!-- Generated by graphviz version 2.40.1 (20161225.0304)
 -->
<!-- Title: packages_npfc Pages: 1 -->
<svg width="398pt" height="116pt"
 viewBox="0.00 0.00 398.00 116.00" xmlns="http://www.w3.org/2000/svg" xmlns:xlink="http://www.w3.org/1999/xlink">
<g id="graph0" class="graph" transform="scale(1 1) rotate(0) translate(4 112)">
<title>packages_npfc</title>
<polygon fill="#ffffff" stroke="transparent" points="-4,4 -4,-112 394,-112 394,4 -4,4"/>
<!-- 0 -->
<g id="node1" class="node">
<title>0</title>
<polygon fill="none" stroke="#000000" points="265,-108 211,-108 211,-72 265,-72 265,-108"/>
<text text-anchor="middle" x="238" y="-86.3" font-family="Times,serif" font-size="14.00" fill="#000000">npfc</text>
</g>
<!-- 1 -->
<g id="node2" class="node">
<title>1</title>
<polygon fill="none" stroke="#000000" points="96.5,-108 25.5,-108 25.5,-72 96.5,-72 96.5,-108"/>
<text text-anchor="middle" x="61" y="-86.3" font-family="Times,serif" font-size="14.00" fill="#000000">npfc.draw</text>
</g>
<!-- 2 -->
<g id="node3" class="node">
<title>2</title>
<polygon fill="none" stroke="#000000" points="192.5,-108 121.5,-108 121.5,-72 192.5,-72 192.5,-108"/>
<text text-anchor="middle" x="157" y="-86.3" font-family="Times,serif" font-size="14.00" fill="#000000">npfc.filter</text>
</g>
<!-- 3 -->
<g id="node4" class="node">
<title>3</title>
<polygon fill="none" stroke="#000000" points="94,-36 0,-36 0,0 94,0 94,-36"/>
<text text-anchor="middle" x="47" y="-14.3" font-family="Times,serif" font-size="14.00" fill="#000000">npfc.fragment</text>
</g>
<!-- 3&#45;&gt;0 -->
<g id="edge1" class="edge">
<title>3&#45;&gt;0</title>
<path fill="none" stroke="#000000" d="M94.2562,-33.9017C131.8865,-46.6889 181.3873,-63.8229 201,-72 201.0989,-72.0412 201.1979,-72.0826 201.297,-72.1241"/>
<polygon fill="#000000" stroke="#000000" points="210.6823,-76.2744 199.7167,-76.3456 206.1095,-74.2522 201.5366,-72.23 201.5366,-72.23 201.5366,-72.23 206.1095,-74.2522 203.3566,-68.1144 210.6823,-76.2744 210.6823,-76.2744"/>
</g>
<!-- 3&#45;&gt;1 -->
<g id="edge2" class="edge">
<title>3&#45;&gt;1</title>
<path fill="none" stroke="#000000" d="M50.5328,-36.1686C52.0301,-43.869 53.8105,-53.0257 55.4745,-61.5834"/>
<polygon fill="#000000" stroke="#000000" points="57.4196,-71.5867 51.0936,-62.6295 56.4653,-66.6787 55.5109,-61.7706 55.5109,-61.7706 55.5109,-61.7706 56.4653,-66.6787 59.9281,-60.9116 57.4196,-71.5867 57.4196,-71.5867"/>
</g>
<!-- 4 -->
<g id="node5" class="node">
<title>4</title>
<polygon fill="none" stroke="#000000" points="304,-36 236,-36 236,0 304,0 304,-36"/>
<text text-anchor="middle" x="270" y="-14.3" font-family="Times,serif" font-size="14.00" fill="#000000">npfc.load</text>
</g>
<!-- 4&#45;&gt;0 -->
<g id="edge3" class="edge">
<title>4&#45;&gt;0</title>
<path fill="none" stroke="#000000" d="M261.925,-36.1686C258.3898,-44.1229 254.164,-53.631 250.2544,-62.4277"/>
<polygon fill="#000000" stroke="#000000" points="246.1837,-71.5867 246.133,-60.621 248.2144,-67.0177 250.2451,-62.4486 250.2451,-62.4486 250.2451,-62.4486 248.2144,-67.0177 254.3573,-64.2763 246.1837,-71.5867 246.1837,-71.5867"/>
</g>
<!-- 7 -->
<g id="node8" class="node">
<title>7</title>
<polygon fill="none" stroke="#000000" points="351,-108 283,-108 283,-72 351,-72 351,-108"/>
<text text-anchor="middle" x="317" y="-86.3" font-family="Times,serif" font-size="14.00" fill="#000000">npfc.utils</text>
</g>
<!-- 4&#45;&gt;7 -->
<g id="edge4" class="edge">
<title>4&#45;&gt;7</title>
<path fill="none" stroke="#000000" d="M281.8601,-36.1686C287.1629,-44.2921 293.5237,-54.0363 299.3673,-62.9882"/>
<polygon fill="#000000" stroke="#000000" points="304.9802,-71.5867 295.7457,-65.6727 302.2471,-67.3998 299.514,-63.2129 299.514,-63.2129 299.514,-63.2129 302.2471,-67.3998 303.2822,-60.7531 304.9802,-71.5867 304.9802,-71.5867"/>
</g>
<!-- 5 -->
<g id="node6" class="node">
<title>5</title>
<polygon fill="none" stroke="#000000" points="390,-36 322,-36 322,0 390,0 390,-36"/>
<text text-anchor="middle" x="356" y="-14.3" font-family="Times,serif" font-size="14.00" fill="#000000">npfc.save</text>
</g>
<!-- 5&#45;&gt;0 -->
<g id="edge5" class="edge">
<title>5&#45;&gt;0</title>
<path fill="none" stroke="#000000" d="M326.2236,-36.1686C310.4394,-45.7997 290.9219,-57.7087 274.2608,-67.8748"/>
<polygon fill="#000000" stroke="#000000" points="265.3403,-73.3178 271.5328,-64.2677 269.6085,-70.7134 273.8767,-68.1091 273.8767,-68.1091 273.8767,-68.1091 269.6085,-70.7134 276.2206,-71.9505 265.3403,-73.3178 265.3403,-73.3178"/>
</g>
<!-- 5&#45;&gt;7 -->
<g id="edge6" class="edge">
<title>5&#45;&gt;7</title>
<path fill="none" stroke="#000000" d="M346.1587,-36.1686C341.8043,-44.2075 336.5902,-53.8334 331.7831,-62.7082"/>
<polygon fill="#000000" stroke="#000000" points="326.9739,-71.5867 327.7799,-60.6505 329.3553,-67.1903 331.7367,-62.7938 331.7367,-62.7938 331.7367,-62.7938 329.3553,-67.1903 335.6936,-64.9371 326.9739,-71.5867 326.9739,-71.5867"/>
</g>
<!-- 6 -->
<g id="node7" class="node">
<title>6</title>
<polygon fill="none" stroke="#000000" points="218,-36 112,-36 112,0 218,0 218,-36"/>
<text text-anchor="middle" x="165" y="-14.3" font-family="Times,serif" font-size="14.00" fill="#000000">npfc.standardize</text>
</g>
<!-- 6&#45;&gt;0 -->
<g id="edge7" class="edge">
<title>6&#45;&gt;0</title>
<path fill="none" stroke="#000000" d="M183.421,-36.1686C192.1529,-44.781 202.7317,-55.2149 212.2423,-64.5952"/>
<polygon fill="#000000" stroke="#000000" points="219.5849,-71.8372 209.3052,-68.0189 216.0251,-68.3261 212.4652,-64.815 212.4652,-64.815 212.4652,-64.815 216.0251,-68.3261 215.6252,-61.6111 219.5849,-71.8372 219.5849,-71.8372"/>
</g>
<!-- 6&#45;&gt;1 -->
<g id="edge8" class="edge">
<title>6&#45;&gt;1</title>
<path fill="none" stroke="#000000" d="M138.7564,-36.1686C125.7005,-45.2073 109.7465,-56.2524 95.6953,-65.9802"/>
<polygon fill="#000000" stroke="#000000" points="87.2352,-71.8372 92.8957,-62.4452 91.3462,-68.9911 95.4571,-66.145 95.4571,-66.145 95.4571,-66.145 91.3462,-68.9911 98.0186,-69.8449 87.2352,-71.8372 87.2352,-71.8372"/>
</g>
<!-- 6&#45;&gt;2 -->
<g id="edge9" class="edge">
<title>6&#45;&gt;2</title>
<path fill="none" stroke="#000000" d="M162.9813,-36.1686C162.1257,-43.869 161.1083,-53.0257 160.1574,-61.5834"/>
<polygon fill="#000000" stroke="#000000" points="159.0459,-71.5867 155.6778,-61.1509 159.5981,-66.6173 160.1503,-61.6479 160.1503,-61.6479 160.1503,-61.6479 159.5981,-66.6173 164.6228,-62.1449 159.0459,-71.5867 159.0459,-71.5867"/>
</g>
<!-- 6&#45;&gt;7 -->
<g id="edge10" class="edge">
<title>6&#45;&gt;7</title>
<path fill="none" stroke="#000000" d="M203.356,-36.1686C224.7491,-46.3022 251.466,-58.9576 273.6193,-69.4513"/>
<polygon fill="#000000" stroke="#000000" points="282.8054,-73.8025 271.8416,-73.5884 278.2867,-71.6621 273.768,-69.5216 273.768,-69.5216 273.768,-69.5216 278.2867,-71.6621 275.6944,-65.4548 282.8054,-73.8025 282.8054,-73.8025"/>
</g>
</g>
</svg>
