<?xml version="1.0" encoding="UTF-8" standalone="no"?>
<!DOCTYPE svg PUBLIC "-//W3C//DTD SVG 1.1//EN"
 "http://www.w3.org/Graphics/SVG/1.1/DTD/svg11.dtd">
<!-- Generated by graphviz version 2.40.1 (20161225.0304)
 -->
<!-- Title: packages_npfc Pages: 1 -->
<svg width="453pt" height="188pt"
 viewBox="0.00 0.00 453.00 188.00" xmlns="http://www.w3.org/2000/svg" xmlns:xlink="http://www.w3.org/1999/xlink">
<g id="graph0" class="graph" transform="scale(1 1) rotate(0) translate(4 184)">
<title>packages_npfc</title>
<polygon fill="#ffffff" stroke="transparent" points="-4,4 -4,-184 449,-184 449,4 -4,4"/>
<!-- 0 -->
<g id="node1" class="node">
<title>0</title>
<polygon fill="none" stroke="#000000" points="197,-180 143,-180 143,-144 197,-144 197,-180"/>
<text text-anchor="middle" x="170" y="-158.3" font-family="Times,serif" font-size="14.00" fill="#000000">npfc</text>
</g>
<!-- 1 -->
<g id="node2" class="node">
<title>1</title>
<polygon fill="none" stroke="#000000" points="110.5,-108 39.5,-108 39.5,-72 110.5,-72 110.5,-108"/>
<text text-anchor="middle" x="75" y="-86.3" font-family="Times,serif" font-size="14.00" fill="#000000">npfc.draw</text>
</g>
<!-- 1&#45;&gt;0 -->
<g id="edge1" class="edge">
<title>1&#45;&gt;0</title>
<path fill="none" stroke="#000000" d="M98.9725,-108.1686C110.7861,-117.1221 125.1972,-128.0442 137.9435,-137.7045"/>
<polygon fill="#000000" stroke="#000000" points="146.0352,-143.8372 135.3473,-141.3833 142.0503,-140.8171 138.0654,-137.7969 138.0654,-137.7969 138.0654,-137.7969 142.0503,-140.8171 140.7835,-134.2106 146.0352,-143.8372 146.0352,-143.8372"/>
</g>
<!-- 8 -->
<g id="node9" class="node">
<title>8</title>
<polygon fill="none" stroke="#000000" points="302,-180 234,-180 234,-144 302,-144 302,-180"/>
<text text-anchor="middle" x="268" y="-158.3" font-family="Times,serif" font-size="14.00" fill="#000000">npfc.utils</text>
</g>
<!-- 1&#45;&gt;8 -->
<g id="edge2" class="edge">
<title>1&#45;&gt;8</title>
<path fill="none" stroke="#000000" d="M110.8495,-103.3739C142.8969,-115.3294 189.9522,-132.8837 224.2154,-145.6659"/>
<polygon fill="#000000" stroke="#000000" points="233.9614,-149.3017 223.0192,-150.0225 229.2767,-147.554 224.5921,-145.8063 224.5921,-145.8063 224.5921,-145.8063 229.2767,-147.554 226.165,-141.5902 233.9614,-149.3017 233.9614,-149.3017"/>
</g>
<!-- 2 -->
<g id="node3" class="node">
<title>2</title>
<polygon fill="none" stroke="#000000" points="214,-36 120,-36 120,0 214,0 214,-36"/>
<text text-anchor="middle" x="167" y="-14.3" font-family="Times,serif" font-size="14.00" fill="#000000">npfc.duplicate</text>
</g>
<!-- 2&#45;&gt;0 -->
<g id="edge3" class="edge">
<title>2&#45;&gt;0</title>
<path fill="none" stroke="#000000" d="M162.9294,-36.2824C159.4072,-54.474 155.2756,-83.1814 158,-108 158.9284,-116.4575 160.6514,-125.5285 162.5078,-133.7754"/>
<polygon fill="#000000" stroke="#000000" points="164.8809,-143.6727 158.1732,-134.9975 163.715,-138.8105 162.5492,-133.9483 162.5492,-133.9483 162.5492,-133.9483 163.715,-138.8105 166.9251,-132.899 164.8809,-143.6727 164.8809,-143.6727"/>
</g>
<!-- 5 -->
<g id="node6" class="node">
<title>5</title>
<polygon fill="none" stroke="#000000" points="235,-108 167,-108 167,-72 235,-72 235,-108"/>
<text text-anchor="middle" x="201" y="-86.3" font-family="Times,serif" font-size="14.00" fill="#000000">npfc.load</text>
</g>
<!-- 2&#45;&gt;5 -->
<g id="edge4" class="edge">
<title>2&#45;&gt;5</title>
<path fill="none" stroke="#000000" d="M175.5796,-36.1686C179.3358,-44.1229 183.8257,-53.631 187.9798,-62.4277"/>
<polygon fill="#000000" stroke="#000000" points="192.3048,-71.5867 183.9656,-64.4658 190.1698,-67.0655 188.0347,-62.5442 188.0347,-62.5442 188.0347,-62.5442 190.1698,-67.0655 192.1038,-60.6227 192.3048,-71.5867 192.3048,-71.5867"/>
</g>
<!-- 3 -->
<g id="node4" class="node">
<title>3</title>
<polygon fill="none" stroke="#000000" points="427.5,-180 356.5,-180 356.5,-144 427.5,-144 427.5,-180"/>
<text text-anchor="middle" x="392" y="-158.3" font-family="Times,serif" font-size="14.00" fill="#000000">npfc.filter</text>
</g>
<!-- 4 -->
<g id="node5" class="node">
<title>4</title>
<polygon fill="none" stroke="#000000" points="94,-36 0,-36 0,0 94,0 94,-36"/>
<text text-anchor="middle" x="47" y="-14.3" font-family="Times,serif" font-size="14.00" fill="#000000">npfc.fragment</text>
</g>
<!-- 4&#45;&gt;0 -->
<g id="edge5" class="edge">
<title>4&#45;&gt;0</title>
<path fill="none" stroke="#000000" d="M36.2751,-36.1846C26.3727,-55.6083 15.2465,-86.4964 30,-108 42.0234,-125.5243 95.5898,-142.6458 132.8608,-152.7594"/>
<polygon fill="#000000" stroke="#000000" points="142.893,-155.4207 132.0734,-157.2061 138.0601,-154.1386 133.2273,-152.8566 133.2273,-152.8566 133.2273,-152.8566 138.0601,-154.1386 134.3811,-148.507 142.893,-155.4207 142.893,-155.4207"/>
</g>
<!-- 4&#45;&gt;1 -->
<g id="edge6" class="edge">
<title>4&#45;&gt;1</title>
<path fill="none" stroke="#000000" d="M54.0656,-36.1686C57.126,-44.0383 60.7779,-53.4288 64.1682,-62.1467"/>
<polygon fill="#000000" stroke="#000000" points="67.8393,-71.5867 60.0207,-63.8977 66.027,-66.9267 64.2148,-62.2667 64.2148,-62.2667 64.2148,-62.2667 66.027,-66.9267 68.4088,-60.6356 67.8393,-71.5867 67.8393,-71.5867"/>
</g>
<!-- 5&#45;&gt;0 -->
<g id="edge7" class="edge">
<title>5&#45;&gt;0</title>
<path fill="none" stroke="#000000" d="M193.1774,-108.1686C189.7891,-116.0383 185.7459,-125.4288 181.9924,-134.1467"/>
<polygon fill="#000000" stroke="#000000" points="177.9279,-143.5867 177.7494,-132.6223 179.9053,-138.9943 181.8826,-134.4019 181.8826,-134.4019 181.8826,-134.4019 179.9053,-138.9943 186.0158,-136.1815 177.9279,-143.5867 177.9279,-143.5867"/>
</g>
<!-- 5&#45;&gt;8 -->
<g id="edge8" class="edge">
<title>5&#45;&gt;8</title>
<path fill="none" stroke="#000000" d="M217.9069,-108.1686C225.7813,-116.6306 235.292,-126.8511 243.9013,-136.1029"/>
<polygon fill="#000000" stroke="#000000" points="250.8654,-143.5867 240.7588,-139.3316 247.4593,-139.9264 244.0531,-136.266 244.0531,-136.266 244.0531,-136.266 247.4593,-139.9264 247.3474,-133.2005 250.8654,-143.5867 250.8654,-143.5867"/>
</g>
<!-- 6 -->
<g id="node7" class="node">
<title>6</title>
<polygon fill="none" stroke="#000000" points="321,-108 253,-108 253,-72 321,-72 321,-108"/>
<text text-anchor="middle" x="287" y="-86.3" font-family="Times,serif" font-size="14.00" fill="#000000">npfc.save</text>
</g>
<!-- 6&#45;&gt;0 -->
<g id="edge9" class="edge">
<title>6&#45;&gt;0</title>
<path fill="none" stroke="#000000" d="M257.476,-108.1686C241.8255,-117.7997 222.4734,-129.7087 205.9535,-139.8748"/>
<polygon fill="#000000" stroke="#000000" points="197.1086,-145.3178 203.2668,-136.2443 201.3669,-142.6973 205.6252,-140.0768 205.6252,-140.0768 205.6252,-140.0768 201.3669,-142.6973 207.9837,-143.9092 197.1086,-145.3178 197.1086,-145.3178"/>
</g>
<!-- 6&#45;&gt;8 -->
<g id="edge10" class="edge">
<title>6&#45;&gt;8</title>
<path fill="none" stroke="#000000" d="M282.2055,-108.1686C280.1511,-115.9537 277.704,-125.2271 275.4244,-133.8653"/>
<polygon fill="#000000" stroke="#000000" points="272.8591,-143.5867 271.0596,-132.7695 274.1349,-138.7522 275.4107,-133.9177 275.4107,-133.9177 275.4107,-133.9177 274.1349,-138.7522 279.7617,-135.066 272.8591,-143.5867 272.8591,-143.5867"/>
</g>
<!-- 7 -->
<g id="node8" class="node">
<title>7</title>
<polygon fill="none" stroke="#000000" points="445,-108 339,-108 339,-72 445,-72 445,-108"/>
<text text-anchor="middle" x="392" y="-86.3" font-family="Times,serif" font-size="14.00" fill="#000000">npfc.standardize</text>
</g>
<!-- 7&#45;&gt;0 -->
<g id="edge11" class="edge">
<title>7&#45;&gt;0</title>
<path fill="none" stroke="#000000" d="M338.9604,-107.0976C306.1265,-117.6949 263.104,-131.6043 225,-144 219.1854,-145.8916 213.027,-147.901 207.017,-149.8655"/>
<polygon fill="#000000" stroke="#000000" points="197.1293,-153.1002 205.2344,-145.7139 201.8815,-151.5455 206.6337,-149.9908 206.6337,-149.9908 206.6337,-149.9908 201.8815,-151.5455 208.0329,-154.2678 197.1293,-153.1002 197.1293,-153.1002"/>
</g>
<!-- 7&#45;&gt;3 -->
<g id="edge12" class="edge">
<title>7&#45;&gt;3</title>
<path fill="none" stroke="#000000" d="M392,-108.1686C392,-115.869 392,-125.0257 392,-133.5834"/>
<polygon fill="#000000" stroke="#000000" points="392,-143.5867 387.5001,-133.5867 392,-138.5867 392.0001,-133.5867 392.0001,-133.5867 392.0001,-133.5867 392,-138.5867 396.5001,-133.5868 392,-143.5867 392,-143.5867"/>
</g>
<!-- 7&#45;&gt;8 -->
<g id="edge13" class="edge">
<title>7&#45;&gt;8</title>
<path fill="none" stroke="#000000" d="M360.7096,-108.1686C344.7023,-117.4632 325.0414,-128.8792 307.9506,-138.8029"/>
<polygon fill="#000000" stroke="#000000" points="299.2804,-143.8372 305.6687,-134.9242 303.6044,-141.3265 307.9283,-138.8158 307.9283,-138.8158 307.9283,-138.8158 303.6044,-141.3265 310.188,-142.7073 299.2804,-143.8372 299.2804,-143.8372"/>
</g>
</g>
</svg>
