<?xml version="1.0" encoding="UTF-8" standalone="no"?>
<!DOCTYPE svg PUBLIC "-//W3C//DTD SVG 1.1//EN"
 "http://www.w3.org/Graphics/SVG/1.1/DTD/svg11.dtd">
<!-- Generated by graphviz version 2.40.1 (20161225.0304)
 -->
<!-- Title: classes_npfc Pages: 1 -->
<svg width="990pt" height="728pt"
 viewBox="0.00 0.00 990.00 728.00" xmlns="http://www.w3.org/2000/svg" xmlns:xlink="http://www.w3.org/1999/xlink">
<g id="graph0" class="graph" transform="scale(1 1) rotate(0) translate(4 724)">
<title>classes_npfc</title>
<polygon fill="#ffffff" stroke="transparent" points="-4,4 -4,-724 986,-724 986,4 -4,4"/>
<!-- 0 -->
<g id="node1" class="node">
<title>0</title>
<polygon fill="none" stroke="#000000" points="38.5,-23.5 38.5,-122.5 188.5,-122.5 188.5,-23.5 38.5,-23.5"/>
<text text-anchor="middle" x="113.5" y="-107.3" font-family="Times,serif" font-size="14.00" fill="#000000">npfc.draw.ColorMap</text>
<polyline fill="none" stroke="#000000" points="38.5,-99.5 188.5,-99.5 "/>
<text text-anchor="start" x="46.5" y="-84.3" font-family="Times,serif" font-size="14.00" fill="#000000">atoms</text>
<text text-anchor="start" x="46.5" y="-69.3" font-family="Times,serif" font-size="14.00" fill="#000000">bonds</text>
<text text-anchor="start" x="46.5" y="-54.3" font-family="Times,serif" font-size="14.00" fill="#000000">fragments : OrderedDict</text>
<polyline fill="none" stroke="#000000" points="38.5,-46.5 188.5,-46.5 "/>
<text text-anchor="middle" x="113.5" y="-31.3" font-family="Times,serif" font-size="14.00" fill="#000000"> </text>
</g>
<!-- 1 -->
<g id="node2" class="node">
<title>1</title>
<polygon fill="none" stroke="#000000" points="66,-650 66,-719 173,-719 173,-650 66,-650"/>
<text text-anchor="middle" x="119.5" y="-703.8" font-family="Times,serif" font-size="14.00" fill="#000000">npfc.filter.Filter</text>
<polyline fill="none" stroke="#000000" points="66,-696 173,-696 "/>
<text text-anchor="start" x="74" y="-680.8" font-family="Times,serif" font-size="14.00" fill="#000000">descriptors : dict</text>
<polyline fill="none" stroke="#000000" points="66,-673 173,-673 "/>
<text text-anchor="start" x="74" y="-657.8" font-family="Times,serif" font-size="14.00" fill="#000000">filter_mol()</text>
</g>
<!-- 2 -->
<g id="node3" class="node">
<title>2</title>
<polygon fill="none" stroke="#000000" points="413,-.5 413,-145.5 634,-145.5 634,-.5 413,-.5"/>
<text text-anchor="middle" x="523.5" y="-130.3" font-family="Times,serif" font-size="14.00" fill="#000000">npfc.fragment.CombinationClassifier</text>
<polyline fill="none" stroke="#000000" points="413,-122.5 634,-122.5 "/>
<polyline fill="none" stroke="#000000" points="413,-98.5 634,-98.5 "/>
<text text-anchor="start" x="421" y="-83.3" font-family="Times,serif" font-size="14.00" fill="#000000">classify_fragment_combination()</text>
<text text-anchor="start" x="421" y="-68.3" font-family="Times,serif" font-size="14.00" fill="#000000">classify_fragment_combinations()</text>
<text text-anchor="start" x="421" y="-53.3" font-family="Times,serif" font-size="14.00" fill="#000000">clean()</text>
<text text-anchor="start" x="421" y="-38.3" font-family="Times,serif" font-size="14.00" fill="#000000">get_rings_between_two_fragments()</text>
<text text-anchor="start" x="421" y="-23.3" font-family="Times,serif" font-size="14.00" fill="#000000">get_shortest_path_between_frags()</text>
<text text-anchor="start" x="421" y="-8.3" font-family="Times,serif" font-size="14.00" fill="#000000">map_frags()</text>
</g>
<!-- 3 -->
<g id="node4" class="node">
<title>3</title>
<polygon fill="none" stroke="#000000" points="652,-38 652,-108 795,-108 795,-38 652,-38"/>
<text text-anchor="middle" x="723.5" y="-92.8" font-family="Times,serif" font-size="14.00" fill="#000000">npfc.fragment.Matcher</text>
<polyline fill="none" stroke="#000000" points="652,-85 795,-85 "/>
<polyline fill="none" stroke="#000000" points="652,-61 795,-61 "/>
<text text-anchor="start" x="660" y="-45.8" font-family="Times,serif" font-size="14.00" fill="#000000">run()</text>
</g>
<!-- 4 -->
<g id="node5" class="node">
<title>4</title>
<polygon fill="none" stroke="#000000" points="813.5,-38 813.5,-108 971.5,-108 971.5,-38 813.5,-38"/>
<text text-anchor="middle" x="892.5" y="-92.8" font-family="Times,serif" font-size="14.00" fill="#000000">npfc.save.SafeHDF5Store</text>
<polyline fill="none" stroke="#000000" points="813.5,-85 971.5,-85 "/>
<polyline fill="none" stroke="#000000" points="813.5,-61 971.5,-61 "/>
<text text-anchor="middle" x="892.5" y="-45.8" font-family="Times,serif" font-size="14.00" fill="#000000"> </text>
</g>
<!-- 8 -->
<g id="node9" class="node">
<title>8</title>
<polygon fill="none" stroke="#000000" points="804.5,-197.5 804.5,-611.5 980.5,-611.5 980.5,-197.5 804.5,-197.5"/>
<text text-anchor="middle" x="892.5" y="-596.3" font-family="Times,serif" font-size="14.00" fill="#000000">pandas.io.pytables.HDFStore</text>
<polyline fill="none" stroke="#000000" points="804.5,-588.5 980.5,-588.5 "/>
<text text-anchor="start" x="812.5" y="-573.3" font-family="Times,serif" font-size="14.00" fill="#000000">filename</text>
<text text-anchor="start" x="812.5" y="-558.3" font-family="Times,serif" font-size="14.00" fill="#000000">is_open</text>
<text text-anchor="start" x="812.5" y="-543.3" font-family="Times,serif" font-size="14.00" fill="#000000">iteritems</text>
<text text-anchor="start" x="812.5" y="-528.3" font-family="Times,serif" font-size="14.00" fill="#000000">root</text>
<polyline fill="none" stroke="#000000" points="804.5,-520.5 980.5,-520.5 "/>
<text text-anchor="start" x="812.5" y="-505.3" font-family="Times,serif" font-size="14.00" fill="#000000">append()</text>
<text text-anchor="start" x="812.5" y="-490.3" font-family="Times,serif" font-size="14.00" fill="#000000">append_to_multiple()</text>
<text text-anchor="start" x="812.5" y="-475.3" font-family="Times,serif" font-size="14.00" fill="#000000">close()</text>
<text text-anchor="start" x="812.5" y="-460.3" font-family="Times,serif" font-size="14.00" fill="#000000">copy()</text>
<text text-anchor="start" x="812.5" y="-445.3" font-family="Times,serif" font-size="14.00" fill="#000000">create_table_index()</text>
<text text-anchor="start" x="812.5" y="-430.3" font-family="Times,serif" font-size="14.00" fill="#000000">flush()</text>
<text text-anchor="start" x="812.5" y="-415.3" font-family="Times,serif" font-size="14.00" fill="#000000">get()</text>
<text text-anchor="start" x="812.5" y="-400.3" font-family="Times,serif" font-size="14.00" fill="#000000">get_node()</text>
<text text-anchor="start" x="812.5" y="-385.3" font-family="Times,serif" font-size="14.00" fill="#000000">get_storer()</text>
<text text-anchor="start" x="812.5" y="-370.3" font-family="Times,serif" font-size="14.00" fill="#000000">groups()</text>
<text text-anchor="start" x="812.5" y="-355.3" font-family="Times,serif" font-size="14.00" fill="#000000">info()</text>
<text text-anchor="start" x="812.5" y="-340.3" font-family="Times,serif" font-size="14.00" fill="#000000">items()</text>
<text text-anchor="start" x="812.5" y="-325.3" font-family="Times,serif" font-size="14.00" fill="#000000">keys()</text>
<text text-anchor="start" x="812.5" y="-310.3" font-family="Times,serif" font-size="14.00" fill="#000000">open()</text>
<text text-anchor="start" x="812.5" y="-295.3" font-family="Times,serif" font-size="14.00" fill="#000000">put()</text>
<text text-anchor="start" x="812.5" y="-280.3" font-family="Times,serif" font-size="14.00" fill="#000000">remove()</text>
<text text-anchor="start" x="812.5" y="-265.3" font-family="Times,serif" font-size="14.00" fill="#000000">select()</text>
<text text-anchor="start" x="812.5" y="-250.3" font-family="Times,serif" font-size="14.00" fill="#000000">select_as_coordinates()</text>
<text text-anchor="start" x="812.5" y="-235.3" font-family="Times,serif" font-size="14.00" fill="#000000">select_as_multiple()</text>
<text text-anchor="start" x="812.5" y="-220.3" font-family="Times,serif" font-size="14.00" fill="#000000">select_column()</text>
<text text-anchor="start" x="812.5" y="-205.3" font-family="Times,serif" font-size="14.00" fill="#000000">walk()</text>
</g>
<!-- 4&#45;&gt;8 -->
<g id="edge1" class="edge">
<title>4&#45;&gt;8</title>
<path fill="none" stroke="#000000" d="M892.5,-108.1625C892.5,-128.6725 892.5,-156.4475 892.5,-186.8092"/>
<polygon fill="none" stroke="#000000" points="889.0001,-187.1981 892.5,-197.1981 896.0001,-187.1982 889.0001,-187.1981"/>
</g>
<!-- 5 -->
<g id="node6" class="node">
<title>5</title>
<polygon fill="none" stroke="#000000" points="206.5,-16 206.5,-130 394.5,-130 394.5,-16 206.5,-16"/>
<text text-anchor="middle" x="300.5" y="-114.8" font-family="Times,serif" font-size="14.00" fill="#000000">npfc.standardize.FullUncharger</text>
<polyline fill="none" stroke="#000000" points="206.5,-107 394.5,-107 "/>
<text text-anchor="start" x="214.5" y="-91.8" font-family="Times,serif" font-size="14.00" fill="#000000">q_neg_1</text>
<text text-anchor="start" x="214.5" y="-76.8" font-family="Times,serif" font-size="14.00" fill="#000000">q_neg_2</text>
<text text-anchor="start" x="214.5" y="-61.8" font-family="Times,serif" font-size="14.00" fill="#000000">q_pos_1</text>
<text text-anchor="start" x="214.5" y="-46.8" font-family="Times,serif" font-size="14.00" fill="#000000">q_pos_2</text>
<polyline fill="none" stroke="#000000" points="206.5,-39 394.5,-39 "/>
<text text-anchor="start" x="214.5" y="-23.8" font-family="Times,serif" font-size="14.00" fill="#000000">full_uncharge()</text>
</g>
<!-- 6 -->
<g id="node7" class="node">
<title>6</title>
<polygon fill="none" stroke="#000000" points="0,-257.5 0,-551.5 239,-551.5 239,-257.5 0,-257.5"/>
<text text-anchor="middle" x="119.5" y="-536.3" font-family="Times,serif" font-size="14.00" fill="#000000">npfc.standardize.Standardizer</text>
<polyline fill="none" stroke="#000000" points="0,-528.5 239,-528.5 "/>
<text text-anchor="start" x="8" y="-513.3" font-family="Times,serif" font-size="14.00" fill="#000000">canonicalizer : TautomerCanonicalizer</text>
<text text-anchor="start" x="8" y="-498.3" font-family="Times,serif" font-size="14.00" fill="#000000">col_id</text>
<text text-anchor="start" x="8" y="-483.3" font-family="Times,serif" font-size="14.00" fill="#000000">col_mol</text>
<text text-anchor="start" x="8" y="-468.3" font-family="Times,serif" font-size="14.00" fill="#000000">compute_2D</text>
<text text-anchor="start" x="8" y="-453.3" font-family="Times,serif" font-size="14.00" fill="#000000">elements_medchem</text>
<text text-anchor="start" x="8" y="-438.3" font-family="Times,serif" font-size="14.00" fill="#000000">filter_duplicates</text>
<text text-anchor="start" x="8" y="-423.3" font-family="Times,serif" font-size="14.00" fill="#000000">full_uncharger</text>
<text text-anchor="start" x="8" y="-408.3" font-family="Times,serif" font-size="14.00" fill="#000000">metal_disconnector : MetalDisconnector</text>
<text text-anchor="start" x="8" y="-393.3" font-family="Times,serif" font-size="14.00" fill="#000000">normalizer : Normalizer</text>
<text text-anchor="start" x="8" y="-378.3" font-family="Times,serif" font-size="14.00" fill="#000000">on</text>
<text text-anchor="start" x="8" y="-363.3" font-family="Times,serif" font-size="14.00" fill="#000000">protocol</text>
<text text-anchor="start" x="8" y="-348.3" font-family="Times,serif" font-size="14.00" fill="#000000">ref_file</text>
<text text-anchor="start" x="8" y="-333.3" font-family="Times,serif" font-size="14.00" fill="#000000">suffix</text>
<polyline fill="none" stroke="#000000" points="0,-325.5 239,-325.5 "/>
<text text-anchor="start" x="8" y="-310.3" font-family="Times,serif" font-size="14.00" fill="#000000">keep_best()</text>
<text text-anchor="start" x="8" y="-295.3" font-family="Times,serif" font-size="14.00" fill="#000000">remove_isotopes()</text>
<text text-anchor="start" x="8" y="-280.3" font-family="Times,serif" font-size="14.00" fill="#000000">run()</text>
<text text-anchor="start" x="8" y="-265.3" font-family="Times,serif" font-size="14.00" fill="#000000">run_df()</text>
</g>
<!-- 5&#45;&gt;6 -->
<g id="edge5" class="edge">
<title>5&#45;&gt;6</title>
<path fill="none" stroke="#000000" d="M264.3152,-130.3922C257.5844,-141.4597 250.7183,-153.0249 244.5,-164 229.5507,-190.3849 214.2064,-218.7267 199.6135,-246.368"/>
<polygon fill="#000000" stroke="#000000" points="199.4322,-246.7127 200.1782,-253.8851 193.8445,-257.3324 193.0984,-250.16 199.4322,-246.7127"/>
<text text-anchor="middle" x="284.5" y="-167.8" font-family="Times,serif" font-size="14.00" fill="#00ff00">full_uncharger</text>
</g>
<!-- 9 -->
<g id="node10" class="node">
<title>9</title>
<polygon fill="none" stroke="#000000" points="257.5,-369.5 257.5,-439.5 527.5,-439.5 527.5,-369.5 257.5,-369.5"/>
<text text-anchor="middle" x="392.5" y="-424.3" font-family="Times,serif" font-size="14.00" fill="#000000">rdkit.Chem.MolStandardize.charge.Uncharger</text>
<polyline fill="none" stroke="#000000" points="257.5,-416.5 527.5,-416.5 "/>
<polyline fill="none" stroke="#000000" points="257.5,-392.5 527.5,-392.5 "/>
<text text-anchor="start" x="265.5" y="-377.3" font-family="Times,serif" font-size="14.00" fill="#000000">uncharge()</text>
</g>
<!-- 5&#45;&gt;9 -->
<g id="edge2" class="edge">
<title>5&#45;&gt;9</title>
<path fill="none" stroke="#000000" d="M316.4201,-130.3644C334.4568,-195.3553 363.4806,-299.9356 379.9767,-359.3754"/>
<polygon fill="none" stroke="#000000" points="376.6626,-360.522 382.7094,-369.2218 383.4076,-358.65 376.6626,-360.522"/>
</g>
<!-- 6&#45;&gt;1 -->
<g id="edge3" class="edge">
<title>6&#45;&gt;1</title>
<path fill="none" stroke="#000000" d="M119.5,-551.8798C119.5,-583.8995 119.5,-615.4029 119.5,-639.6656"/>
<polygon fill="none" stroke="#000000" points="116.0001,-639.9395 119.5,-649.9395 123.0001,-639.9395 116.0001,-639.9395"/>
</g>
<!-- 7 -->
<g id="node8" class="node">
<title>7</title>
<polygon fill="none" stroke="#000000" points="803,-649.5 803,-719.5 982,-719.5 982,-649.5 803,-649.5"/>
<text text-anchor="middle" x="892.5" y="-704.3" font-family="Times,serif" font-size="14.00" fill="#000000">pandas.core.base.StringMixin</text>
<polyline fill="none" stroke="#000000" points="803,-696.5 982,-696.5 "/>
<polyline fill="none" stroke="#000000" points="803,-672.5 982,-672.5 "/>
<text text-anchor="middle" x="892.5" y="-657.3" font-family="Times,serif" font-size="14.00" fill="#000000"> </text>
</g>
<!-- 8&#45;&gt;7 -->
<g id="edge4" class="edge">
<title>8&#45;&gt;7</title>
<path fill="none" stroke="#000000" d="M892.5,-611.6642C892.5,-621.4911 892.5,-630.7394 892.5,-639.1342"/>
<polygon fill="none" stroke="#000000" points="889.0001,-639.2903 892.5,-649.2904 896.0001,-639.2904 889.0001,-639.2903"/>
</g>
</g>
</svg>
