<?xml version="1.0" encoding="UTF-8" standalone="no"?>
<!DOCTYPE svg PUBLIC "-//W3C//DTD SVG 1.1//EN"
 "http://www.w3.org/Graphics/SVG/1.1/DTD/svg11.dtd">
<!-- Generated by graphviz version 2.47.3 (20210619.2315)
 -->
<!-- Title: classes_npfc Pages: 1 -->
<svg width="3695pt" height="786pt"
 viewBox="0.00 0.00 3695.00 786.00" xmlns="http://www.w3.org/2000/svg" xmlns:xlink="http://www.w3.org/1999/xlink">
<g id="graph0" class="graph" transform="scale(1 1) rotate(0) translate(4 782)">
<title>classes_npfc</title>
<polygon fill="white" stroke="transparent" points="-4,4 -4,-782 3691,-782 3691,4 -4,4"/>
<!-- 0 -->
<g id="node1" class="node">
<title>0</title>
<polygon fill="none" stroke="black" points="0,-45.5 0,-129.5 191,-129.5 191,-45.5 0,-45.5"/>
<text text-anchor="middle" x="95.5" y="-114.3" font-family="Times,serif" font-size="14.00">npfc.contrib.np_score.NPScorer</text>
<polyline fill="none" stroke="black" points="0,-106.5 191,-106.5 "/>
<text text-anchor="start" x="8" y="-91.3" font-family="Times,serif" font-size="14.00">file_model</text>
<text text-anchor="start" x="8" y="-76.3" font-family="Times,serif" font-size="14.00">fscores</text>
<polyline fill="none" stroke="black" points="0,-68.5 191,-68.5 "/>
<text text-anchor="start" x="8" y="-53.3" font-family="Times,serif" font-size="14.00">score(mol, confidence)</text>
</g>
<!-- 1 -->
<g id="node2" class="node">
<title>1</title>
<polygon fill="none" stroke="black" points="209,-38 209,-137 398,-137 398,-38 209,-38"/>
<text text-anchor="middle" x="303.5" y="-121.8" font-family="Times,serif" font-size="14.00">npfc.contrib.sa_score.SAScorer</text>
<polyline fill="none" stroke="black" points="209,-114 398,-114 "/>
<text text-anchor="start" x="217" y="-98.8" font-family="Times,serif" font-size="14.00">file_model</text>
<text text-anchor="start" x="217" y="-83.8" font-family="Times,serif" font-size="14.00">fscores : dict</text>
<polyline fill="none" stroke="black" points="209,-76 398,-76 "/>
<text text-anchor="start" x="217" y="-60.8" font-family="Times,serif" font-size="14.00">load_model(file_model)</text>
<text text-anchor="start" x="217" y="-45.8" font-family="Times,serif" font-size="14.00">score(m)</text>
</g>
<!-- 2 -->
<g id="node3" class="node">
<title>2</title>
<polygon fill="none" stroke="black" points="416.5,-30.5 416.5,-144.5 814.5,-144.5 814.5,-30.5 416.5,-30.5"/>
<text text-anchor="middle" x="615.5" y="-129.3" font-family="Times,serif" font-size="14.00">npfc.draw.ColorMap</text>
<polyline fill="none" stroke="black" points="416.5,-121.5 814.5,-121.5 "/>
<text text-anchor="start" x="424.5" y="-106.3" font-family="Times,serif" font-size="14.00">atoms : dict</text>
<text text-anchor="start" x="424.5" y="-91.3" font-family="Times,serif" font-size="14.00">bonds : dict</text>
<text text-anchor="start" x="424.5" y="-76.3" font-family="Times,serif" font-size="14.00">fragments : dict</text>
<text text-anchor="start" x="424.5" y="-61.3" font-family="Times,serif" font-size="14.00">palette : ListedColormap, _ColorPalette, list, NoneType, OrderedDict</text>
<polyline fill="none" stroke="black" points="416.5,-53.5 814.5,-53.5 "/>
<text text-anchor="start" x="424.5" y="-38.3" font-family="Times,serif" font-size="14.00">blend()</text>
</g>
<!-- 3 -->
<g id="node4" class="node">
<title>3</title>
<polygon fill="none" stroke="black" points="832.5,-0.5 832.5,-174.5 1186.5,-174.5 1186.5,-0.5 832.5,-0.5"/>
<text text-anchor="middle" x="1009.5" y="-159.3" font-family="Times,serif" font-size="14.00">npfc.draw.DepictionValidator</text>
<polyline fill="none" stroke="black" points="832.5,-151.5 1186.5,-151.5 "/>
<text text-anchor="start" x="840.5" y="-136.3" font-family="Times,serif" font-size="14.00">bonds</text>
<text text-anchor="start" x="840.5" y="-121.3" font-family="Times,serif" font-size="14.00">conformer</text>
<text text-anchor="start" x="840.5" y="-106.3" font-family="Times,serif" font-size="14.00">kd_tree : KDTree</text>
<text text-anchor="start" x="840.5" y="-91.3" font-family="Times,serif" font-size="14.00">mol</text>
<polyline fill="none" stroke="black" points="832.5,-83.5 1186.5,-83.5 "/>
<text text-anchor="start" x="840.5" y="-68.3" font-family="Times,serif" font-size="14.00">count_bond_collisions()</text>
<text text-anchor="start" x="840.5" y="-53.3" font-family="Times,serif" font-size="14.00">count_suboptimal_atom_positions(lowerBound, upperBound)</text>
<text text-anchor="start" x="840.5" y="-38.3" font-family="Times,serif" font-size="14.00">depiction_score()</text>
<text text-anchor="start" x="840.5" y="-23.3" font-family="Times,serif" font-size="14.00">has_bond_crossing()</text>
<text text-anchor="start" x="840.5" y="-8.3" font-family="Times,serif" font-size="14.00">has_degenerated_atom_positions(threshold)</text>
</g>
<!-- 4 -->
<g id="node5" class="node">
<title>4</title>
<polygon fill="none" stroke="black" points="1205,-30.5 1205,-144.5 1384,-144.5 1384,-30.5 1205,-30.5"/>
<text text-anchor="middle" x="1294.5" y="-129.3" font-family="Times,serif" font-size="14.00">npfc.draw.FragmentHighlight</text>
<polyline fill="none" stroke="black" points="1205,-121.5 1384,-121.5 "/>
<text text-anchor="start" x="1213" y="-106.3" font-family="Times,serif" font-size="14.00">atoms</text>
<text text-anchor="start" x="1213" y="-91.3" font-family="Times,serif" font-size="14.00">bonds : dict</text>
<text text-anchor="start" x="1213" y="-76.3" font-family="Times,serif" font-size="14.00">fragments</text>
<text text-anchor="start" x="1213" y="-61.3" font-family="Times,serif" font-size="14.00">num_fragments</text>
<polyline fill="none" stroke="black" points="1205,-53.5 1384,-53.5 "/>
<text text-anchor="middle" x="1294.5" y="-38.3" font-family="Times,serif" font-size="14.00"> </text>
</g>
<!-- 5 -->
<g id="node6" class="node">
<title>5</title>
<polygon fill="none" stroke="black" points="1402,-38 1402,-137 1743,-137 1743,-38 1402,-38"/>
<text text-anchor="middle" x="1572.5" y="-121.8" font-family="Times,serif" font-size="14.00">npfc.draw.Palette</text>
<polyline fill="none" stroke="black" points="1402,-114 1743,-114 "/>
<text text-anchor="start" x="1410" y="-98.8" font-family="Times,serif" font-size="14.00">colors</text>
<text text-anchor="start" x="1410" y="-83.8" font-family="Times,serif" font-size="14.00">colors_ini : list, _ColorPalette, ListedColormap, NoneType</text>
<text text-anchor="start" x="1410" y="-68.8" font-family="Times,serif" font-size="14.00">num_colors</text>
<polyline fill="none" stroke="black" points="1402,-61 1743,-61 "/>
<text text-anchor="start" x="1410" y="-45.8" font-family="Times,serif" font-size="14.00">show()</text>
</g>
<!-- 6 -->
<g id="node7" class="node">
<title>6</title>
<polygon fill="none" stroke="black" points="1561,-678.5 1561,-777.5 1788,-777.5 1788,-678.5 1561,-678.5"/>
<text text-anchor="middle" x="1674.5" y="-762.3" font-family="Times,serif" font-size="14.00">npfc.filter.Filter</text>
<polyline fill="none" stroke="black" points="1561,-754.5 1788,-754.5 "/>
<text text-anchor="start" x="1569" y="-739.3" font-family="Times,serif" font-size="14.00">descriptors : dict</text>
<polyline fill="none" stroke="black" points="1561,-731.5 1788,-731.5 "/>
<text text-anchor="start" x="1569" y="-716.3" font-family="Times,serif" font-size="14.00">compute_descriptors(mol, descriptors)</text>
<text text-anchor="start" x="1569" y="-701.3" font-family="Times,serif" font-size="14.00">filter_mol(mol, expr)</text>
<text text-anchor="start" x="1569" y="-686.3" font-family="Times,serif" font-size="14.00">get_possible_descriptors()</text>
</g>
<!-- 7 -->
<g id="node8" class="node">
<title>7</title>
<polygon fill="none" stroke="black" points="1968,-52.5 1968,-122.5 2219,-122.5 2219,-52.5 1968,-52.5"/>
<text text-anchor="middle" x="2093.5" y="-107.3" font-family="Times,serif" font-size="14.00">npfc.report.ReporterFragmentCombination</text>
<polyline fill="none" stroke="black" points="1968,-99.5 2219,-99.5 "/>
<polyline fill="none" stroke="black" points="1968,-75.5 2219,-75.5 "/>
<text text-anchor="middle" x="2093.5" y="-60.3" font-family="Times,serif" font-size="14.00"> </text>
</g>
<!-- 8 -->
<g id="node9" class="node">
<title>8</title>
<polygon fill="none" stroke="black" points="2237,-52.5 2237,-122.5 2522,-122.5 2522,-52.5 2237,-52.5"/>
<text text-anchor="middle" x="2379.5" y="-107.3" font-family="Times,serif" font-size="14.00">npfc.report.ReporterFragmentCombinationGraph</text>
<polyline fill="none" stroke="black" points="2237,-99.5 2522,-99.5 "/>
<polyline fill="none" stroke="black" points="2237,-75.5 2522,-75.5 "/>
<text text-anchor="middle" x="2379.5" y="-60.3" font-family="Times,serif" font-size="14.00"> </text>
</g>
<!-- 9 -->
<g id="node10" class="node">
<title>9</title>
<polygon fill="none" stroke="black" points="2540,-52.5 2540,-122.5 2757,-122.5 2757,-52.5 2540,-52.5"/>
<text text-anchor="middle" x="2648.5" y="-107.3" font-family="Times,serif" font-size="14.00">npfc.report.ReporterFragmentSearch</text>
<polyline fill="none" stroke="black" points="2540,-99.5 2757,-99.5 "/>
<polyline fill="none" stroke="black" points="2540,-75.5 2757,-75.5 "/>
<text text-anchor="middle" x="2648.5" y="-60.3" font-family="Times,serif" font-size="14.00"> </text>
</g>
<!-- 10 -->
<g id="node11" class="node">
<title>10</title>
<polygon fill="none" stroke="black" points="2775.5,-52.5 2775.5,-122.5 2927.5,-122.5 2927.5,-52.5 2775.5,-52.5"/>
<text text-anchor="middle" x="2851.5" y="-107.3" font-family="Times,serif" font-size="14.00">npfc.report.ReporterPNP</text>
<polyline fill="none" stroke="black" points="2775.5,-99.5 2927.5,-99.5 "/>
<polyline fill="none" stroke="black" points="2775.5,-75.5 2927.5,-75.5 "/>
<text text-anchor="middle" x="2851.5" y="-60.3" font-family="Times,serif" font-size="14.00"> </text>
</g>
<!-- 11 -->
<g id="node12" class="node">
<title>11</title>
<polygon fill="none" stroke="black" points="2946,-52.5 2946,-122.5 3115,-122.5 3115,-52.5 2946,-52.5"/>
<text text-anchor="middle" x="3030.5" y="-107.3" font-family="Times,serif" font-size="14.00">npfc.report.ReporterProcess</text>
<polyline fill="none" stroke="black" points="2946,-99.5 3115,-99.5 "/>
<polyline fill="none" stroke="black" points="2946,-75.5 3115,-75.5 "/>
<text text-anchor="middle" x="3030.5" y="-60.3" font-family="Times,serif" font-size="14.00"> </text>
</g>
<!-- 12 -->
<g id="node13" class="node">
<title>12</title>
<polygon fill="none" stroke="black" points="3132.5,-52.5 3132.5,-122.5 3290.5,-122.5 3290.5,-52.5 3132.5,-52.5"/>
<text text-anchor="middle" x="3211.5" y="-107.3" font-family="Times,serif" font-size="14.00">npfc.save.SafeHDF5Store</text>
<polyline fill="none" stroke="black" points="3132.5,-99.5 3290.5,-99.5 "/>
<polyline fill="none" stroke="black" points="3132.5,-75.5 3290.5,-75.5 "/>
<text text-anchor="middle" x="3211.5" y="-60.3" font-family="Times,serif" font-size="14.00"> </text>
</g>
<!-- 15 -->
<g id="node16" class="node">
<title>15</title>
<polygon fill="none" stroke="black" points="2736,-226.5 2736,-640.5 3687,-640.5 3687,-226.5 2736,-226.5"/>
<text text-anchor="middle" x="3211.5" y="-625.3" font-family="Times,serif" font-size="14.00">pandas.io.pytables.HDFStore</text>
<polyline fill="none" stroke="black" points="2736,-617.5 3687,-617.5 "/>
<text text-anchor="start" x="2744" y="-602.3" font-family="Times,serif" font-size="14.00">filename</text>
<text text-anchor="start" x="2744" y="-587.3" font-family="Times,serif" font-size="14.00">is_open</text>
<text text-anchor="start" x="2744" y="-572.3" font-family="Times,serif" font-size="14.00">iteritems</text>
<text text-anchor="start" x="2744" y="-557.3" font-family="Times,serif" font-size="14.00">root</text>
<polyline fill="none" stroke="black" points="2736,-549.5 3687,-549.5 "/>
<text text-anchor="start" x="2744" y="-534.3" font-family="Times,serif" font-size="14.00">append(key, value, format, axes, index, append, complib, complevel, columns, min_itemsize, nan_rep, chunksize, expectedrows, dropna, data_columns, encoding, errors)</text>
<text text-anchor="start" x="2744" y="-519.3" font-family="Times,serif" font-size="14.00">append_to_multiple(d, value, selector, data_columns, axes, dropna)</text>
<text text-anchor="start" x="2744" y="-504.3" font-family="Times,serif" font-size="14.00">close()</text>
<text text-anchor="start" x="2744" y="-489.3" font-family="Times,serif" font-size="14.00">copy(file, mode, propindexes, keys, complib, complevel, fletcher32, overwrite)</text>
<text text-anchor="start" x="2744" y="-474.3" font-family="Times,serif" font-size="14.00">create_table_index(key, columns, optlevel, kind)</text>
<text text-anchor="start" x="2744" y="-459.3" font-family="Times,serif" font-size="14.00">flush(fsync)</text>
<text text-anchor="start" x="2744" y="-444.3" font-family="Times,serif" font-size="14.00">get(key)</text>
<text text-anchor="start" x="2744" y="-429.3" font-family="Times,serif" font-size="14.00">get_node(key)</text>
<text text-anchor="start" x="2744" y="-414.3" font-family="Times,serif" font-size="14.00">get_storer(key)</text>
<text text-anchor="start" x="2744" y="-399.3" font-family="Times,serif" font-size="14.00">groups()</text>
<text text-anchor="start" x="2744" y="-384.3" font-family="Times,serif" font-size="14.00">info()</text>
<text text-anchor="start" x="2744" y="-369.3" font-family="Times,serif" font-size="14.00">items()</text>
<text text-anchor="start" x="2744" y="-354.3" font-family="Times,serif" font-size="14.00">keys(include)</text>
<text text-anchor="start" x="2744" y="-339.3" font-family="Times,serif" font-size="14.00">open(mode)</text>
<text text-anchor="start" x="2744" y="-324.3" font-family="Times,serif" font-size="14.00">put(key, value, format, index, append, complib, complevel, min_itemsize, nan_rep, data_columns, encoding, errors, track_times, dropna)</text>
<text text-anchor="start" x="2744" y="-309.3" font-family="Times,serif" font-size="14.00">remove(key, where, start, stop)</text>
<text text-anchor="start" x="2744" y="-294.3" font-family="Times,serif" font-size="14.00">select(key, where, start, stop, columns, iterator, chunksize, auto_close)</text>
<text text-anchor="start" x="2744" y="-279.3" font-family="Times,serif" font-size="14.00">select_as_coordinates(key, where, start, stop)</text>
<text text-anchor="start" x="2744" y="-264.3" font-family="Times,serif" font-size="14.00">select_as_multiple(keys, where, selector, columns, start, stop, iterator, chunksize, auto_close)</text>
<text text-anchor="start" x="2744" y="-249.3" font-family="Times,serif" font-size="14.00">select_column(key, column, start, stop)</text>
<text text-anchor="start" x="2744" y="-234.3" font-family="Times,serif" font-size="14.00">walk(where)</text>
</g>
<!-- 12&#45;&gt;15 -->
<g id="edge1" class="edge">
<title>12&#45;&gt;15</title>
<path fill="none" stroke="black" d="M3211.5,-122.74C3211.5,-146.28 3211.5,-179.74 3211.5,-216.04"/>
<polygon fill="none" stroke="black" points="3208,-216.35 3211.5,-226.35 3215,-216.35 3208,-216.35"/>
</g>
<!-- 13 -->
<g id="node14" class="node">
<title>13</title>
<polygon fill="none" stroke="black" points="1761.5,-30.5 1761.5,-144.5 1949.5,-144.5 1949.5,-30.5 1761.5,-30.5"/>
<text text-anchor="middle" x="1855.5" y="-129.3" font-family="Times,serif" font-size="14.00">npfc.standardize.FullUncharger</text>
<polyline fill="none" stroke="black" points="1761.5,-121.5 1949.5,-121.5 "/>
<text text-anchor="start" x="1769.5" y="-106.3" font-family="Times,serif" font-size="14.00">q_neg_1</text>
<text text-anchor="start" x="1769.5" y="-91.3" font-family="Times,serif" font-size="14.00">q_neg_2</text>
<text text-anchor="start" x="1769.5" y="-76.3" font-family="Times,serif" font-size="14.00">q_pos_1</text>
<text text-anchor="start" x="1769.5" y="-61.3" font-family="Times,serif" font-size="14.00">q_pos_2</text>
<polyline fill="none" stroke="black" points="1761.5,-53.5 1949.5,-53.5 "/>
<text text-anchor="start" x="1769.5" y="-38.3" font-family="Times,serif" font-size="14.00">full_uncharge(mol)</text>
</g>
<!-- 14 -->
<g id="node15" class="node">
<title>14</title>
<polygon fill="none" stroke="black" points="1555,-294 1555,-573 1794,-573 1794,-294 1555,-294"/>
<text text-anchor="middle" x="1674.5" y="-557.8" font-family="Times,serif" font-size="14.00">npfc.standardize.Standardizer</text>
<polyline fill="none" stroke="black" points="1555,-550 1794,-550 "/>
<text text-anchor="start" x="1563" y="-534.8" font-family="Times,serif" font-size="14.00">canonicalizer : TautomerCanonicalizer</text>
<text text-anchor="start" x="1563" y="-519.8" font-family="Times,serif" font-size="14.00">col_id</text>
<text text-anchor="start" x="1563" y="-504.8" font-family="Times,serif" font-size="14.00">col_mol</text>
<text text-anchor="start" x="1563" y="-489.8" font-family="Times,serif" font-size="14.00">elements_medchem</text>
<text text-anchor="start" x="1563" y="-474.8" font-family="Times,serif" font-size="14.00">full_uncharger</text>
<text text-anchor="start" x="1563" y="-459.8" font-family="Times,serif" font-size="14.00">metal_disconnector : MetalDisconnector</text>
<text text-anchor="start" x="1563" y="-444.8" font-family="Times,serif" font-size="14.00">normalizer : Normalizer</text>
<text text-anchor="start" x="1563" y="-429.8" font-family="Times,serif" font-size="14.00">protocol</text>
<text text-anchor="start" x="1563" y="-414.8" font-family="Times,serif" font-size="14.00">timeout</text>
<polyline fill="none" stroke="black" points="1555,-407 1794,-407 "/>
<text text-anchor="start" x="1563" y="-391.8" font-family="Times,serif" font-size="14.00">clear_isotopes(mol)</text>
<text text-anchor="start" x="1563" y="-376.8" font-family="Times,serif" font-size="14.00">clear_mixtures(mol)</text>
<text text-anchor="start" x="1563" y="-361.8" font-family="Times,serif" font-size="14.00">clear_side_chains(mol, debug)</text>
<text text-anchor="start" x="1563" y="-346.8" font-family="Times,serif" font-size="14.00">deglycosylate(mol, mode)</text>
<text text-anchor="start" x="1563" y="-331.8" font-family="Times,serif" font-size="14.00">describe()</text>
<text text-anchor="start" x="1563" y="-316.8" font-family="Times,serif" font-size="14.00">run(mol, timeout)</text>
<text text-anchor="start" x="1563" y="-301.8" font-family="Times,serif" font-size="14.00">run_df(df)</text>
</g>
<!-- 13&#45;&gt;14 -->
<g id="edge4" class="edge">
<title>13&#45;&gt;14</title>
<path fill="none" stroke="black" d="M1826.02,-144.54C1806.18,-182.23 1779.04,-233.82 1753.19,-282.94"/>
<polygon fill="black" stroke="black" points="1753.12,-283.08 1753.86,-290.26 1747.53,-293.7 1746.78,-286.53 1753.12,-283.08"/>
<text text-anchor="middle" x="1837.5" y="-196.8" font-family="Times,serif" font-size="14.00" fill="green">full_uncharger</text>
</g>
<!-- 16 -->
<g id="node17" class="node">
<title>16</title>
<polygon fill="none" stroke="black" points="1812.5,-398.5 1812.5,-468.5 2082.5,-468.5 2082.5,-398.5 1812.5,-398.5"/>
<text text-anchor="middle" x="1947.5" y="-453.3" font-family="Times,serif" font-size="14.00">rdkit.Chem.MolStandardize.charge.Uncharger</text>
<polyline fill="none" stroke="black" points="1812.5,-445.5 2082.5,-445.5 "/>
<polyline fill="none" stroke="black" points="1812.5,-421.5 2082.5,-421.5 "/>
<text text-anchor="start" x="1820.5" y="-406.3" font-family="Times,serif" font-size="14.00">uncharge(mol)</text>
</g>
<!-- 13&#45;&gt;16 -->
<g id="edge2" class="edge">
<title>13&#45;&gt;16</title>
<path fill="none" stroke="black" d="M1870.49,-144.54C1888.72,-212.71 1919.12,-326.37 1935.75,-388.55"/>
<polygon fill="none" stroke="black" points="1932.43,-389.68 1938.39,-398.44 1939.19,-387.87 1932.43,-389.68"/>
</g>
<!-- 14&#45;&gt;6 -->
<g id="edge3" class="edge">
<title>14&#45;&gt;6</title>
<path fill="none" stroke="black" d="M1674.5,-573.04C1674.5,-606.56 1674.5,-640.62 1674.5,-668.15"/>
<polygon fill="none" stroke="black" points="1671,-668.37 1674.5,-678.37 1678,-668.37 1671,-668.37"/>
</g>
</g>
</svg>
