<?xml version="1.0" encoding="UTF-8" standalone="no"?>
<!DOCTYPE svg PUBLIC "-//W3C//DTD SVG 1.1//EN"
 "http://www.w3.org/Graphics/SVG/1.1/DTD/svg11.dtd">
<!-- Generated by graphviz version 2.40.1 (20161225.0304)
 -->
<!-- Title: classes_npfc Pages: 1 -->
<svg width="771pt" height="696pt"
 viewBox="0.00 0.00 771.00 696.00" xmlns="http://www.w3.org/2000/svg" xmlns:xlink="http://www.w3.org/1999/xlink">
<g id="graph0" class="graph" transform="scale(1 1) rotate(0) translate(4 692)">
<title>classes_npfc</title>
<polygon fill="#ffffff" stroke="transparent" points="-4,4 -4,-692 767,-692 767,4 -4,4"/>
<!-- 0 -->
<g id="node1" class="node">
<title>0</title>
<polygon fill="none" stroke="#000000" points="0,-.5 0,-114.5 230,-114.5 230,-.5 0,-.5"/>
<text text-anchor="middle" x="115" y="-99.3" font-family="Times,serif" font-size="14.00" fill="#000000">npfc.draw.ColorMap</text>
<polyline fill="none" stroke="#000000" points="0,-91.5 230,-91.5 "/>
<text text-anchor="start" x="8" y="-76.3" font-family="Times,serif" font-size="14.00" fill="#000000">atoms : dict</text>
<text text-anchor="start" x="8" y="-61.3" font-family="Times,serif" font-size="14.00" fill="#000000">bonds : dict</text>
<text text-anchor="start" x="8" y="-46.3" font-family="Times,serif" font-size="14.00" fill="#000000">fragments : dict</text>
<text text-anchor="start" x="8" y="-31.3" font-family="Times,serif" font-size="14.00" fill="#000000">palette : _ColorPalette, dict, NoneType</text>
<polyline fill="none" stroke="#000000" points="0,-23.5 230,-23.5 "/>
<text text-anchor="start" x="8" y="-8.3" font-family="Times,serif" font-size="14.00" fill="#000000">blend()</text>
</g>
<!-- 1 -->
<g id="node2" class="node">
<title>1</title>
<polygon fill="none" stroke="#000000" points="107.5,-618.5 107.5,-687.5 214.5,-687.5 214.5,-618.5 107.5,-618.5"/>
<text text-anchor="middle" x="161" y="-672.3" font-family="Times,serif" font-size="14.00" fill="#000000">npfc.filter.Filter</text>
<polyline fill="none" stroke="#000000" points="107.5,-664.5 214.5,-664.5 "/>
<text text-anchor="start" x="115.5" y="-649.3" font-family="Times,serif" font-size="14.00" fill="#000000">descriptors : dict</text>
<polyline fill="none" stroke="#000000" points="107.5,-641.5 214.5,-641.5 "/>
<text text-anchor="start" x="115.5" y="-626.3" font-family="Times,serif" font-size="14.00" fill="#000000">filter_mol()</text>
</g>
<!-- 2 -->
<g id="node3" class="node">
<title>2</title>
<polygon fill="none" stroke="#000000" points="596,-22.5 596,-92.5 754,-92.5 754,-22.5 596,-22.5"/>
<text text-anchor="middle" x="675" y="-77.3" font-family="Times,serif" font-size="14.00" fill="#000000">npfc.save.SafeHDF5Store</text>
<polyline fill="none" stroke="#000000" points="596,-69.5 754,-69.5 "/>
<polyline fill="none" stroke="#000000" points="596,-45.5 754,-45.5 "/>
<text text-anchor="middle" x="675" y="-30.3" font-family="Times,serif" font-size="14.00" fill="#000000"> </text>
</g>
<!-- 5 -->
<g id="node6" class="node">
<title>5</title>
<polygon fill="none" stroke="#000000" points="587,-166.5 587,-580.5 763,-580.5 763,-166.5 587,-166.5"/>
<text text-anchor="middle" x="675" y="-565.3" font-family="Times,serif" font-size="14.00" fill="#000000">pandas.io.pytables.HDFStore</text>
<polyline fill="none" stroke="#000000" points="587,-557.5 763,-557.5 "/>
<text text-anchor="start" x="595" y="-542.3" font-family="Times,serif" font-size="14.00" fill="#000000">filename</text>
<text text-anchor="start" x="595" y="-527.3" font-family="Times,serif" font-size="14.00" fill="#000000">is_open</text>
<text text-anchor="start" x="595" y="-512.3" font-family="Times,serif" font-size="14.00" fill="#000000">iteritems</text>
<text text-anchor="start" x="595" y="-497.3" font-family="Times,serif" font-size="14.00" fill="#000000">root</text>
<polyline fill="none" stroke="#000000" points="587,-489.5 763,-489.5 "/>
<text text-anchor="start" x="595" y="-474.3" font-family="Times,serif" font-size="14.00" fill="#000000">append()</text>
<text text-anchor="start" x="595" y="-459.3" font-family="Times,serif" font-size="14.00" fill="#000000">append_to_multiple()</text>
<text text-anchor="start" x="595" y="-444.3" font-family="Times,serif" font-size="14.00" fill="#000000">close()</text>
<text text-anchor="start" x="595" y="-429.3" font-family="Times,serif" font-size="14.00" fill="#000000">copy()</text>
<text text-anchor="start" x="595" y="-414.3" font-family="Times,serif" font-size="14.00" fill="#000000">create_table_index()</text>
<text text-anchor="start" x="595" y="-399.3" font-family="Times,serif" font-size="14.00" fill="#000000">flush()</text>
<text text-anchor="start" x="595" y="-384.3" font-family="Times,serif" font-size="14.00" fill="#000000">get()</text>
<text text-anchor="start" x="595" y="-369.3" font-family="Times,serif" font-size="14.00" fill="#000000">get_node()</text>
<text text-anchor="start" x="595" y="-354.3" font-family="Times,serif" font-size="14.00" fill="#000000">get_storer()</text>
<text text-anchor="start" x="595" y="-339.3" font-family="Times,serif" font-size="14.00" fill="#000000">groups()</text>
<text text-anchor="start" x="595" y="-324.3" font-family="Times,serif" font-size="14.00" fill="#000000">info()</text>
<text text-anchor="start" x="595" y="-309.3" font-family="Times,serif" font-size="14.00" fill="#000000">items()</text>
<text text-anchor="start" x="595" y="-294.3" font-family="Times,serif" font-size="14.00" fill="#000000">keys()</text>
<text text-anchor="start" x="595" y="-279.3" font-family="Times,serif" font-size="14.00" fill="#000000">open()</text>
<text text-anchor="start" x="595" y="-264.3" font-family="Times,serif" font-size="14.00" fill="#000000">put()</text>
<text text-anchor="start" x="595" y="-249.3" font-family="Times,serif" font-size="14.00" fill="#000000">remove()</text>
<text text-anchor="start" x="595" y="-234.3" font-family="Times,serif" font-size="14.00" fill="#000000">select()</text>
<text text-anchor="start" x="595" y="-219.3" font-family="Times,serif" font-size="14.00" fill="#000000">select_as_coordinates()</text>
<text text-anchor="start" x="595" y="-204.3" font-family="Times,serif" font-size="14.00" fill="#000000">select_as_multiple()</text>
<text text-anchor="start" x="595" y="-189.3" font-family="Times,serif" font-size="14.00" fill="#000000">select_column()</text>
<text text-anchor="start" x="595" y="-174.3" font-family="Times,serif" font-size="14.00" fill="#000000">walk()</text>
</g>
<!-- 2&#45;&gt;5 -->
<g id="edge1" class="edge">
<title>2&#45;&gt;5</title>
<path fill="none" stroke="#000000" d="M675,-92.5249C675,-109.6142 675,-131.7264 675,-156.0378"/>
<polygon fill="none" stroke="#000000" points="671.5001,-156.2043 675,-166.2044 678.5001,-156.2044 671.5001,-156.2043"/>
</g>
<!-- 3 -->
<g id="node4" class="node">
<title>3</title>
<polygon fill="none" stroke="#000000" points="248,-.5 248,-114.5 436,-114.5 436,-.5 248,-.5"/>
<text text-anchor="middle" x="342" y="-99.3" font-family="Times,serif" font-size="14.00" fill="#000000">npfc.standardize.FullUncharger</text>
<polyline fill="none" stroke="#000000" points="248,-91.5 436,-91.5 "/>
<text text-anchor="start" x="256" y="-76.3" font-family="Times,serif" font-size="14.00" fill="#000000">q_neg_1</text>
<text text-anchor="start" x="256" y="-61.3" font-family="Times,serif" font-size="14.00" fill="#000000">q_neg_2</text>
<text text-anchor="start" x="256" y="-46.3" font-family="Times,serif" font-size="14.00" fill="#000000">q_pos_1</text>
<text text-anchor="start" x="256" y="-31.3" font-family="Times,serif" font-size="14.00" fill="#000000">q_pos_2</text>
<polyline fill="none" stroke="#000000" points="248,-23.5 436,-23.5 "/>
<text text-anchor="start" x="256" y="-8.3" font-family="Times,serif" font-size="14.00" fill="#000000">full_uncharge()</text>
</g>
<!-- 4 -->
<g id="node5" class="node">
<title>4</title>
<polygon fill="none" stroke="#000000" points="41.5,-241.5 41.5,-505.5 280.5,-505.5 280.5,-241.5 41.5,-241.5"/>
<text text-anchor="middle" x="161" y="-490.3" font-family="Times,serif" font-size="14.00" fill="#000000">npfc.standardize.Standardizer</text>
<polyline fill="none" stroke="#000000" points="41.5,-482.5 280.5,-482.5 "/>
<text text-anchor="start" x="49.5" y="-467.3" font-family="Times,serif" font-size="14.00" fill="#000000">canonicalizer : TautomerCanonicalizer</text>
<text text-anchor="start" x="49.5" y="-452.3" font-family="Times,serif" font-size="14.00" fill="#000000">col_id</text>
<text text-anchor="start" x="49.5" y="-437.3" font-family="Times,serif" font-size="14.00" fill="#000000">col_mol</text>
<text text-anchor="start" x="49.5" y="-422.3" font-family="Times,serif" font-size="14.00" fill="#000000">elements_medchem</text>
<text text-anchor="start" x="49.5" y="-407.3" font-family="Times,serif" font-size="14.00" fill="#000000">full_uncharger</text>
<text text-anchor="start" x="49.5" y="-392.3" font-family="Times,serif" font-size="14.00" fill="#000000">metal_disconnector : MetalDisconnector</text>
<text text-anchor="start" x="49.5" y="-377.3" font-family="Times,serif" font-size="14.00" fill="#000000">normalizer : Normalizer</text>
<text text-anchor="start" x="49.5" y="-362.3" font-family="Times,serif" font-size="14.00" fill="#000000">protocol</text>
<text text-anchor="start" x="49.5" y="-347.3" font-family="Times,serif" font-size="14.00" fill="#000000">timeout</text>
<polyline fill="none" stroke="#000000" points="41.5,-339.5 280.5,-339.5 "/>
<text text-anchor="start" x="49.5" y="-324.3" font-family="Times,serif" font-size="14.00" fill="#000000">clear_isotopes()</text>
<text text-anchor="start" x="49.5" y="-309.3" font-family="Times,serif" font-size="14.00" fill="#000000">clear_side_chains()</text>
<text text-anchor="start" x="49.5" y="-294.3" font-family="Times,serif" font-size="14.00" fill="#000000">deglycosylate()</text>
<text text-anchor="start" x="49.5" y="-279.3" font-family="Times,serif" font-size="14.00" fill="#000000">keep_best()</text>
<text text-anchor="start" x="49.5" y="-264.3" font-family="Times,serif" font-size="14.00" fill="#000000">run()</text>
<text text-anchor="start" x="49.5" y="-249.3" font-family="Times,serif" font-size="14.00" fill="#000000">run_df()</text>
</g>
<!-- 3&#45;&gt;4 -->
<g id="edge4" class="edge">
<title>3&#45;&gt;4</title>
<path fill="none" stroke="#000000" d="M293.7208,-114.6653C289.2399,-120.7261 284.9175,-126.9042 281,-133 261.3946,-163.507 242.6338,-197.6555 226.0114,-230.4232"/>
<polygon fill="#000000" stroke="#000000" points="225.8458,-230.7529 226.7262,-237.9101 220.4582,-241.4755 219.5778,-234.3183 225.8458,-230.7529"/>
<text text-anchor="middle" x="321" y="-136.8" font-family="Times,serif" font-size="14.00" fill="#00ff00">full_uncharger</text>
</g>
<!-- 6 -->
<g id="node7" class="node">
<title>6</title>
<polygon fill="none" stroke="#000000" points="299,-338.5 299,-408.5 569,-408.5 569,-338.5 299,-338.5"/>
<text text-anchor="middle" x="434" y="-393.3" font-family="Times,serif" font-size="14.00" fill="#000000">rdkit.Chem.MolStandardize.charge.Uncharger</text>
<polyline fill="none" stroke="#000000" points="299,-385.5 569,-385.5 "/>
<polyline fill="none" stroke="#000000" points="299,-361.5 569,-361.5 "/>
<text text-anchor="start" x="307" y="-346.3" font-family="Times,serif" font-size="14.00" fill="#000000">uncharge()</text>
</g>
<!-- 3&#45;&gt;6 -->
<g id="edge2" class="edge">
<title>3&#45;&gt;6</title>
<path fill="none" stroke="#000000" d="M358.6605,-114.7252C376.5389,-176.1336 404.5655,-272.3988 420.923,-328.5834"/>
<polygon fill="none" stroke="#000000" points="417.5826,-329.631 423.7385,-338.254 424.3036,-327.6742 417.5826,-329.631"/>
</g>
<!-- 4&#45;&gt;1 -->
<g id="edge3" class="edge">
<title>4&#45;&gt;1</title>
<path fill="none" stroke="#000000" d="M161,-505.8834C161,-542.667 161,-580.133 161,-608.0502"/>
<polygon fill="none" stroke="#000000" points="157.5001,-608.2608 161,-618.2608 164.5001,-608.2609 157.5001,-608.2608"/>
</g>
</g>
</svg>
