<?xml version="1.0" encoding="UTF-8" standalone="no"?>
<!DOCTYPE svg PUBLIC "-//W3C//DTD SVG 1.1//EN"
 "http://www.w3.org/Graphics/SVG/1.1/DTD/svg11.dtd">
<!-- Generated by graphviz version 2.43.0 (0)
 -->
<!-- Title: classes_npfc Pages: 1 -->
<svg width="2847pt" height="786pt"
 viewBox="0.00 0.00 2846.50 786.00" xmlns="http://www.w3.org/2000/svg" xmlns:xlink="http://www.w3.org/1999/xlink">
<g id="graph0" class="graph" transform="scale(1 1) rotate(0) translate(4 782)">
<title>classes_npfc</title>
<polygon fill="white" stroke="transparent" points="-4,4 -4,-782 2842.5,-782 2842.5,4 -4,4"/>
<!-- npfc.contrib.np_score.NPScorer -->
<g id="node1" class="node">
<title>npfc.contrib.np_score.NPScorer</title>
<polygon fill="none" stroke="black" points="0,-45.5 0,-129.5 276,-129.5 276,-45.5 0,-45.5"/>
<text text-anchor="middle" x="138" y="-114.3" font-family="Times,serif" font-size="14.00">npfc.contrib.np_score.NPScorer</text>
<polyline fill="none" stroke="black" points="0,-106.5 276,-106.5 "/>
<text text-anchor="start" x="8" y="-91.3" font-family="Times,serif" font-size="14.00">file_model : str</text>
<text text-anchor="start" x="8" y="-76.3" font-family="Times,serif" font-size="14.00">fscores</text>
<polyline fill="none" stroke="black" points="0,-68.5 276,-68.5 "/>
<text text-anchor="start" x="8" y="-53.3" font-family="Times,serif" font-size="14.00">score(mol: Mol, confidence): Union[float, dict]</text>
</g>
<!-- npfc.contrib.sa_score.SAScorer -->
<g id="node2" class="node">
<title>npfc.contrib.sa_score.SAScorer</title>
<polygon fill="none" stroke="black" points="294.5,-38 294.5,-137 483.5,-137 483.5,-38 294.5,-38"/>
<text text-anchor="middle" x="389" y="-121.8" font-family="Times,serif" font-size="14.00">npfc.contrib.sa_score.SAScorer</text>
<polyline fill="none" stroke="black" points="294.5,-114 483.5,-114 "/>
<text text-anchor="start" x="302.5" y="-98.8" font-family="Times,serif" font-size="14.00">file_model : str</text>
<text text-anchor="start" x="302.5" y="-83.8" font-family="Times,serif" font-size="14.00">fscores : dict</text>
<polyline fill="none" stroke="black" points="294.5,-76 483.5,-76 "/>
<text text-anchor="start" x="302.5" y="-60.8" font-family="Times,serif" font-size="14.00">load_model(file_model: str)</text>
<text text-anchor="start" x="302.5" y="-45.8" font-family="Times,serif" font-size="14.00">score(m: Mol): float</text>
</g>
<!-- npfc.draw.ColorMap -->
<g id="node3" class="node">
<title>npfc.draw.ColorMap</title>
<polygon fill="none" stroke="black" points="502,-30.5 502,-144.5 636,-144.5 636,-30.5 502,-30.5"/>
<text text-anchor="middle" x="569" y="-129.3" font-family="Times,serif" font-size="14.00">npfc.draw.ColorMap</text>
<polyline fill="none" stroke="black" points="502,-121.5 636,-121.5 "/>
<text text-anchor="start" x="510" y="-106.3" font-family="Times,serif" font-size="14.00">atoms : dict</text>
<text text-anchor="start" x="510" y="-91.3" font-family="Times,serif" font-size="14.00">bonds : dict</text>
<text text-anchor="start" x="510" y="-76.3" font-family="Times,serif" font-size="14.00">fragments : dict</text>
<text text-anchor="start" x="510" y="-61.3" font-family="Times,serif" font-size="14.00">palette : Optional[str]</text>
<polyline fill="none" stroke="black" points="502,-53.5 636,-53.5 "/>
<text text-anchor="start" x="510" y="-38.3" font-family="Times,serif" font-size="14.00">blend()</text>
</g>
<!-- npfc.draw.DepictionValidator -->
<g id="node4" class="node">
<title>npfc.draw.DepictionValidator</title>
<polygon fill="none" stroke="black" points="654,-0.5 654,-174.5 1008,-174.5 1008,-0.5 654,-0.5"/>
<text text-anchor="middle" x="831" y="-159.3" font-family="Times,serif" font-size="14.00">npfc.draw.DepictionValidator</text>
<polyline fill="none" stroke="black" points="654,-151.5 1008,-151.5 "/>
<text text-anchor="start" x="662" y="-136.3" font-family="Times,serif" font-size="14.00">bonds</text>
<text text-anchor="start" x="662" y="-121.3" font-family="Times,serif" font-size="14.00">conformer</text>
<text text-anchor="start" x="662" y="-106.3" font-family="Times,serif" font-size="14.00">kd_tree : KDTree</text>
<text text-anchor="start" x="662" y="-91.3" font-family="Times,serif" font-size="14.00">mol</text>
<polyline fill="none" stroke="black" points="654,-83.5 1008,-83.5 "/>
<text text-anchor="start" x="662" y="-68.3" font-family="Times,serif" font-size="14.00">count_bond_collisions()</text>
<text text-anchor="start" x="662" y="-53.3" font-family="Times,serif" font-size="14.00">count_suboptimal_atom_positions(lowerBound, upperBound)</text>
<text text-anchor="start" x="662" y="-38.3" font-family="Times,serif" font-size="14.00">depiction_score()</text>
<text text-anchor="start" x="662" y="-23.3" font-family="Times,serif" font-size="14.00">has_bond_crossing()</text>
<text text-anchor="start" x="662" y="-8.3" font-family="Times,serif" font-size="14.00">has_degenerated_atom_positions(threshold)</text>
</g>
<!-- npfc.draw.FragmentHighlight -->
<g id="node5" class="node">
<title>npfc.draw.FragmentHighlight</title>
<polygon fill="none" stroke="black" points="1026.5,-30.5 1026.5,-144.5 1205.5,-144.5 1205.5,-30.5 1026.5,-30.5"/>
<text text-anchor="middle" x="1116" y="-129.3" font-family="Times,serif" font-size="14.00">npfc.draw.FragmentHighlight</text>
<polyline fill="none" stroke="black" points="1026.5,-121.5 1205.5,-121.5 "/>
<text text-anchor="start" x="1034.5" y="-106.3" font-family="Times,serif" font-size="14.00">atoms</text>
<text text-anchor="start" x="1034.5" y="-91.3" font-family="Times,serif" font-size="14.00">bonds : dict</text>
<text text-anchor="start" x="1034.5" y="-76.3" font-family="Times,serif" font-size="14.00">fragments</text>
<text text-anchor="start" x="1034.5" y="-61.3" font-family="Times,serif" font-size="14.00">num_fragments</text>
<polyline fill="none" stroke="black" points="1026.5,-53.5 1205.5,-53.5 "/>
<text text-anchor="middle" x="1116" y="-38.3" font-family="Times,serif" font-size="14.00"> </text>
</g>
<!-- npfc.draw.Palette -->
<g id="node6" class="node">
<title>npfc.draw.Palette</title>
<polygon fill="none" stroke="black" points="1223.5,-38 1223.5,-137 1386.5,-137 1386.5,-38 1223.5,-38"/>
<text text-anchor="middle" x="1305" y="-121.8" font-family="Times,serif" font-size="14.00">npfc.draw.Palette</text>
<polyline fill="none" stroke="black" points="1223.5,-114 1386.5,-114 "/>
<text text-anchor="start" x="1231.5" y="-98.8" font-family="Times,serif" font-size="14.00">colors</text>
<text text-anchor="start" x="1231.5" y="-83.8" font-family="Times,serif" font-size="14.00">colors_ini : list, NoneType</text>
<text text-anchor="start" x="1231.5" y="-68.8" font-family="Times,serif" font-size="14.00">num_colors</text>
<polyline fill="none" stroke="black" points="1223.5,-61 1386.5,-61 "/>
<text text-anchor="start" x="1231.5" y="-45.8" font-family="Times,serif" font-size="14.00">show()</text>
</g>
<!-- npfc.filter.Filter -->
<g id="node7" class="node">
<title>npfc.filter.Filter</title>
<polygon fill="none" stroke="black" points="1129,-678.5 1129,-777.5 1443,-777.5 1443,-678.5 1129,-678.5"/>
<text text-anchor="middle" x="1286" y="-762.3" font-family="Times,serif" font-size="14.00">npfc.filter.Filter</text>
<polyline fill="none" stroke="black" points="1129,-754.5 1443,-754.5 "/>
<text text-anchor="start" x="1137" y="-739.3" font-family="Times,serif" font-size="14.00">descriptors : list</text>
<polyline fill="none" stroke="black" points="1129,-731.5 1443,-731.5 "/>
<text text-anchor="start" x="1137" y="-716.3" font-family="Times,serif" font-size="14.00">compute_descriptors(mol: Mol, descriptors: List): dict</text>
<text text-anchor="start" x="1137" y="-701.3" font-family="Times,serif" font-size="14.00">filter_mol(mol: Mol, expr: str): bool</text>
<text text-anchor="start" x="1137" y="-686.3" font-family="Times,serif" font-size="14.00">get_possible_descriptors(): List</text>
</g>
<!-- npfc.save.SafeHDF5Store -->
<g id="node8" class="node">
<title>npfc.save.SafeHDF5Store</title>
<polygon fill="none" stroke="black" points="2218,-52.5 2218,-122.5 2376,-122.5 2376,-52.5 2218,-52.5"/>
<text text-anchor="middle" x="2297" y="-107.3" font-family="Times,serif" font-size="14.00">npfc.save.SafeHDF5Store</text>
<polyline fill="none" stroke="black" points="2218,-99.5 2376,-99.5 "/>
<polyline fill="none" stroke="black" points="2218,-75.5 2376,-75.5 "/>
<text text-anchor="middle" x="2297" y="-60.3" font-family="Times,serif" font-size="14.00"> </text>
</g>
<!-- pandas.io.pytables.HDFStore -->
<g id="node11" class="node">
<title>pandas.io.pytables.HDFStore</title>
<polygon fill="none" stroke="black" points="1755.5,-226.5 1755.5,-640.5 2838.5,-640.5 2838.5,-226.5 1755.5,-226.5"/>
<text text-anchor="middle" x="2297" y="-625.3" font-family="Times,serif" font-size="14.00">pandas.io.pytables.HDFStore</text>
<polyline fill="none" stroke="black" points="1755.5,-617.5 2838.5,-617.5 "/>
<text text-anchor="start" x="1763.5" y="-602.3" font-family="Times,serif" font-size="14.00">filename</text>
<text text-anchor="start" x="1763.5" y="-587.3" font-family="Times,serif" font-size="14.00">is_open</text>
<text text-anchor="start" x="1763.5" y="-572.3" font-family="Times,serif" font-size="14.00">iteritems</text>
<text text-anchor="start" x="1763.5" y="-557.3" font-family="Times,serif" font-size="14.00">root</text>
<polyline fill="none" stroke="black" points="1755.5,-549.5 2838.5,-549.5 "/>
<text text-anchor="start" x="1763.5" y="-534.3" font-family="Times,serif" font-size="14.00">append(key: str, value: FrameOrSeries, format, axes, index, append, complib, complevel, columns, min_itemsize, nan_rep, chunksize, expectedrows, dropna, data_columns, encoding, errors: str)</text>
<text text-anchor="start" x="1763.5" y="-519.3" font-family="Times,serif" font-size="14.00">append_to_multiple(d: dict, value, selector, data_columns, axes, dropna)</text>
<text text-anchor="start" x="1763.5" y="-504.3" font-family="Times,serif" font-size="14.00">close()</text>
<text text-anchor="start" x="1763.5" y="-489.3" font-family="Times,serif" font-size="14.00">copy(file, mode, propindexes: bool, keys, complib, complevel, fletcher32: bool, overwrite)</text>
<text text-anchor="start" x="1763.5" y="-474.3" font-family="Times,serif" font-size="14.00">create_table_index(key: str, columns, optlevel, kind)</text>
<text text-anchor="start" x="1763.5" y="-459.3" font-family="Times,serif" font-size="14.00">flush(fsync: bool)</text>
<text text-anchor="start" x="1763.5" y="-444.3" font-family="Times,serif" font-size="14.00">get(key: str)</text>
<text text-anchor="start" x="1763.5" y="-429.3" font-family="Times,serif" font-size="14.00">get_node(key: str): </text>
<text text-anchor="start" x="1763.5" y="-414.3" font-family="Times,serif" font-size="14.00">get_storer(key: str): </text>
<text text-anchor="start" x="1763.5" y="-399.3" font-family="Times,serif" font-size="14.00">groups()</text>
<text text-anchor="start" x="1763.5" y="-384.3" font-family="Times,serif" font-size="14.00">info(): str</text>
<text text-anchor="start" x="1763.5" y="-369.3" font-family="Times,serif" font-size="14.00">items()</text>
<text text-anchor="start" x="1763.5" y="-354.3" font-family="Times,serif" font-size="14.00">keys(include: str): list[str]</text>
<text text-anchor="start" x="1763.5" y="-339.3" font-family="Times,serif" font-size="14.00">open(mode: str)</text>
<text text-anchor="start" x="1763.5" y="-324.3" font-family="Times,serif" font-size="14.00">put(key: str, value: FrameOrSeries, format, index, append, complib, complevel, min_itemsize, nan_rep, data_columns, encoding, errors: str, track_times: bool, dropna: bool)</text>
<text text-anchor="start" x="1763.5" y="-309.3" font-family="Times,serif" font-size="14.00">remove(key: str, where, start, stop)</text>
<text text-anchor="start" x="1763.5" y="-294.3" font-family="Times,serif" font-size="14.00">select(key: str, where, start, stop, columns, iterator, chunksize, auto_close: bool)</text>
<text text-anchor="start" x="1763.5" y="-279.3" font-family="Times,serif" font-size="14.00">select_as_coordinates(key: str, where, start, stop)</text>
<text text-anchor="start" x="1763.5" y="-264.3" font-family="Times,serif" font-size="14.00">select_as_multiple(keys, where, selector, columns, start, stop, iterator, chunksize, auto_close: bool)</text>
<text text-anchor="start" x="1763.5" y="-249.3" font-family="Times,serif" font-size="14.00">select_column(key: str, column: str, start, stop)</text>
<text text-anchor="start" x="1763.5" y="-234.3" font-family="Times,serif" font-size="14.00">walk(where)</text>
</g>
<!-- npfc.save.SafeHDF5Store&#45;&gt;pandas.io.pytables.HDFStore -->
<g id="edge1" class="edge">
<title>npfc.save.SafeHDF5Store&#45;&gt;pandas.io.pytables.HDFStore</title>
<path fill="none" stroke="black" d="M2297,-122.74C2297,-146.28 2297,-179.74 2297,-216.04"/>
<polygon fill="none" stroke="black" points="2293.5,-216.35 2297,-226.35 2300.5,-216.35 2293.5,-216.35"/>
</g>
<!-- npfc.standardize.FullUncharger -->
<g id="node9" class="node">
<title>npfc.standardize.FullUncharger</title>
<polygon fill="none" stroke="black" points="1405,-30.5 1405,-144.5 1593,-144.5 1593,-30.5 1405,-30.5"/>
<text text-anchor="middle" x="1499" y="-129.3" font-family="Times,serif" font-size="14.00">npfc.standardize.FullUncharger</text>
<polyline fill="none" stroke="black" points="1405,-121.5 1593,-121.5 "/>
<text text-anchor="start" x="1413" y="-106.3" font-family="Times,serif" font-size="14.00">q_neg_1</text>
<text text-anchor="start" x="1413" y="-91.3" font-family="Times,serif" font-size="14.00">q_neg_2</text>
<text text-anchor="start" x="1413" y="-76.3" font-family="Times,serif" font-size="14.00">q_pos_1</text>
<text text-anchor="start" x="1413" y="-61.3" font-family="Times,serif" font-size="14.00">q_pos_2</text>
<polyline fill="none" stroke="black" points="1405,-53.5 1593,-53.5 "/>
<text text-anchor="start" x="1413" y="-38.3" font-family="Times,serif" font-size="14.00">full_uncharge(mol: Mol): Mol</text>
</g>
<!-- npfc.standardize.Standardizer -->
<g id="node10" class="node">
<title>npfc.standardize.Standardizer</title>
<polygon fill="none" stroke="black" points="1123,-294 1123,-573 1449,-573 1449,-294 1123,-294"/>
<text text-anchor="middle" x="1286" y="-557.8" font-family="Times,serif" font-size="14.00">npfc.standardize.Standardizer</text>
<polyline fill="none" stroke="black" points="1123,-550 1449,-550 "/>
<text text-anchor="start" x="1131" y="-534.8" font-family="Times,serif" font-size="14.00">canonicalizer : TautomerCanonicalizer</text>
<text text-anchor="start" x="1131" y="-519.8" font-family="Times,serif" font-size="14.00">col_id</text>
<text text-anchor="start" x="1131" y="-504.8" font-family="Times,serif" font-size="14.00">col_mol</text>
<text text-anchor="start" x="1131" y="-489.8" font-family="Times,serif" font-size="14.00">elements_medchem</text>
<text text-anchor="start" x="1131" y="-474.8" font-family="Times,serif" font-size="14.00">full_uncharger</text>
<text text-anchor="start" x="1131" y="-459.8" font-family="Times,serif" font-size="14.00">metal_disconnector : MetalDisconnector</text>
<text text-anchor="start" x="1131" y="-444.8" font-family="Times,serif" font-size="14.00">normalizer : Normalizer</text>
<text text-anchor="start" x="1131" y="-429.8" font-family="Times,serif" font-size="14.00">protocol</text>
<text text-anchor="start" x="1131" y="-414.8" font-family="Times,serif" font-size="14.00">timeout</text>
<polyline fill="none" stroke="black" points="1123,-407 1449,-407 "/>
<text text-anchor="start" x="1131" y="-391.8" font-family="Times,serif" font-size="14.00">clear_isotopes(mol: Mol): Mol</text>
<text text-anchor="start" x="1131" y="-376.8" font-family="Times,serif" font-size="14.00">clear_mixtures(mol: Mol): Mol</text>
<text text-anchor="start" x="1131" y="-361.8" font-family="Times,serif" font-size="14.00">clear_side_chains(mol: Mol, debug: bool): Mol</text>
<text text-anchor="start" x="1131" y="-346.8" font-family="Times,serif" font-size="14.00">deglycosylate(mol: Mol, mode: str): Union[Mol, Graph]</text>
<text text-anchor="start" x="1131" y="-331.8" font-family="Times,serif" font-size="14.00">describe()</text>
<text text-anchor="start" x="1131" y="-316.8" font-family="Times,serif" font-size="14.00">run(mol: Mol, timeout: int): tuple</text>
<text text-anchor="start" x="1131" y="-301.8" font-family="Times,serif" font-size="14.00">run_df(df: DataFrame, filter_unwanted: List[str]): tuple</text>
</g>
<!-- npfc.standardize.FullUncharger&#45;&gt;npfc.standardize.Standardizer -->
<g id="edge4" class="edge">
<title>npfc.standardize.FullUncharger&#45;&gt;npfc.standardize.Standardizer</title>
<path fill="none" stroke="black" d="M1464.3,-144.54C1440.92,-182.31 1408.88,-234.04 1378.42,-283.25"/>
<polygon fill="black" stroke="black" points="1378.26,-283.5 1378.5,-290.71 1371.94,-293.7 1371.7,-286.5 1378.26,-283.5"/>
<text text-anchor="middle" x="1471" y="-196.8" font-family="Times,serif" font-size="14.00" fill="green">full_uncharger</text>
</g>
<!-- rdkit.Chem.MolStandardize.charge.Uncharger -->
<g id="node12" class="node">
<title>rdkit.Chem.MolStandardize.charge.Uncharger</title>
<polygon fill="none" stroke="black" points="1467,-398.5 1467,-468.5 1737,-468.5 1737,-398.5 1467,-398.5"/>
<text text-anchor="middle" x="1602" y="-453.3" font-family="Times,serif" font-size="14.00">rdkit.Chem.MolStandardize.charge.Uncharger</text>
<polyline fill="none" stroke="black" points="1467,-445.5 1737,-445.5 "/>
<polyline fill="none" stroke="black" points="1467,-421.5 1737,-421.5 "/>
<text text-anchor="start" x="1475" y="-406.3" font-family="Times,serif" font-size="14.00">uncharge(mol)</text>
</g>
<!-- npfc.standardize.FullUncharger&#45;&gt;rdkit.Chem.MolStandardize.charge.Uncharger -->
<g id="edge2" class="edge">
<title>npfc.standardize.FullUncharger&#45;&gt;rdkit.Chem.MolStandardize.charge.Uncharger</title>
<path fill="none" stroke="black" d="M1515.78,-144.54C1536.19,-212.71 1570.22,-326.37 1588.84,-388.55"/>
<polygon fill="none" stroke="black" points="1585.58,-389.86 1591.8,-398.44 1592.29,-387.86 1585.58,-389.86"/>
</g>
<!-- npfc.standardize.Standardizer&#45;&gt;npfc.filter.Filter -->
<g id="edge3" class="edge">
<title>npfc.standardize.Standardizer&#45;&gt;npfc.filter.Filter</title>
<path fill="none" stroke="black" d="M1286,-573.04C1286,-606.56 1286,-640.62 1286,-668.15"/>
<polygon fill="none" stroke="black" points="1282.5,-668.37 1286,-678.37 1289.5,-668.37 1282.5,-668.37"/>
</g>
</g>
</svg>
