<?xml version="1.0" encoding="UTF-8" standalone="no"?>
<!DOCTYPE svg PUBLIC "-//W3C//DTD SVG 1.1//EN"
 "http://www.w3.org/Graphics/SVG/1.1/DTD/svg11.dtd">
<!-- Generated by graphviz version 2.38.0 (20140413.2041)
 -->
<!-- Title: classes_npfc Pages: 1 -->
<svg width="3480pt" height="786pt"
 viewBox="0.00 0.00 3479.50 786.00" xmlns="http://www.w3.org/2000/svg" xmlns:xlink="http://www.w3.org/1999/xlink">
<g id="graph0" class="graph" transform="scale(1 1) rotate(0) translate(4 782)">
<title>classes_npfc</title>
<polygon fill="white" stroke="none" points="-4,4 -4,-782 3475.5,-782 3475.5,4 -4,4"/>
<!-- 0 -->
<g id="node1" class="node"><title>0</title>
<polygon fill="none" stroke="black" points="0,-45.5 0,-129.5 191,-129.5 191,-45.5 0,-45.5"/>
<text text-anchor="middle" x="95.5" y="-114.3" font-family="Times,serif" font-size="14.00">npfc.contrib.np_score.NPScorer</text>
<polyline fill="none" stroke="black" points="0,-106.5 191,-106.5 "/>
<text text-anchor="start" x="8" y="-91.3" font-family="Times,serif" font-size="14.00">file_model</text>
<text text-anchor="start" x="8" y="-76.3" font-family="Times,serif" font-size="14.00">fscores</text>
<polyline fill="none" stroke="black" points="0,-68.5 191,-68.5 "/>
<text text-anchor="start" x="8" y="-53.3" font-family="Times,serif" font-size="14.00">score(mol, confidence)</text>
</g>
<!-- 1 -->
<g id="node2" class="node"><title>1</title>
<polygon fill="none" stroke="black" points="209,-38 209,-137 398,-137 398,-38 209,-38"/>
<text text-anchor="middle" x="303.5" y="-121.8" font-family="Times,serif" font-size="14.00">npfc.contrib.sa_score.SAScorer</text>
<polyline fill="none" stroke="black" points="209,-114 398,-114 "/>
<text text-anchor="start" x="217" y="-98.8" font-family="Times,serif" font-size="14.00">file_model</text>
<text text-anchor="start" x="217" y="-83.8" font-family="Times,serif" font-size="14.00">fscores : dict</text>
<polyline fill="none" stroke="black" points="209,-76 398,-76 "/>
<text text-anchor="start" x="217" y="-60.8" font-family="Times,serif" font-size="14.00">load_model(file_model)</text>
<text text-anchor="start" x="217" y="-45.8" font-family="Times,serif" font-size="14.00">score(m)</text>
</g>
<!-- 2 -->
<g id="node3" class="node"><title>2</title>
<polygon fill="none" stroke="black" points="416.5,-30.5 416.5,-144.5 694.5,-144.5 694.5,-30.5 416.5,-30.5"/>
<text text-anchor="middle" x="555.5" y="-129.3" font-family="Times,serif" font-size="14.00">npfc.draw.ColorMap</text>
<polyline fill="none" stroke="black" points="416.5,-121.5 694.5,-121.5 "/>
<text text-anchor="start" x="424.5" y="-106.3" font-family="Times,serif" font-size="14.00">atoms : dict</text>
<text text-anchor="start" x="424.5" y="-91.3" font-family="Times,serif" font-size="14.00">bonds : dict</text>
<text text-anchor="start" x="424.5" y="-76.3" font-family="Times,serif" font-size="14.00">fragments : dict</text>
<text text-anchor="start" x="424.5" y="-61.3" font-family="Times,serif" font-size="14.00">palette : NoneType, OrderedDict, _ColorPalette</text>
<polyline fill="none" stroke="black" points="416.5,-53.5 694.5,-53.5 "/>
<text text-anchor="start" x="424.5" y="-38.3" font-family="Times,serif" font-size="14.00">blend()</text>
</g>
<!-- 3 -->
<g id="node4" class="node"><title>3</title>
<polygon fill="none" stroke="black" points="712.5,-0.5 712.5,-174.5 1066.5,-174.5 1066.5,-0.5 712.5,-0.5"/>
<text text-anchor="middle" x="889.5" y="-159.3" font-family="Times,serif" font-size="14.00">npfc.draw.DepictionValidator</text>
<polyline fill="none" stroke="black" points="712.5,-151.5 1066.5,-151.5 "/>
<text text-anchor="start" x="720.5" y="-136.3" font-family="Times,serif" font-size="14.00">bonds</text>
<text text-anchor="start" x="720.5" y="-121.3" font-family="Times,serif" font-size="14.00">conformer</text>
<text text-anchor="start" x="720.5" y="-106.3" font-family="Times,serif" font-size="14.00">kd_tree : KDTree</text>
<text text-anchor="start" x="720.5" y="-91.3" font-family="Times,serif" font-size="14.00">mol</text>
<polyline fill="none" stroke="black" points="712.5,-83.5 1066.5,-83.5 "/>
<text text-anchor="start" x="720.5" y="-68.3" font-family="Times,serif" font-size="14.00">count_bond_collisions()</text>
<text text-anchor="start" x="720.5" y="-53.3" font-family="Times,serif" font-size="14.00">count_suboptimal_atom_positions(lowerBound, upperBound)</text>
<text text-anchor="start" x="720.5" y="-38.3" font-family="Times,serif" font-size="14.00">depiction_score()</text>
<text text-anchor="start" x="720.5" y="-23.3" font-family="Times,serif" font-size="14.00">has_bond_crossing()</text>
<text text-anchor="start" x="720.5" y="-8.3" font-family="Times,serif" font-size="14.00">has_degenerated_atom_positions(threshold)</text>
</g>
<!-- 4 -->
<g id="node5" class="node"><title>4</title>
<polygon fill="none" stroke="black" points="1085,-30.5 1085,-144.5 1264,-144.5 1264,-30.5 1085,-30.5"/>
<text text-anchor="middle" x="1174.5" y="-129.3" font-family="Times,serif" font-size="14.00">npfc.draw.FragmentHighlight</text>
<polyline fill="none" stroke="black" points="1085,-121.5 1264,-121.5 "/>
<text text-anchor="start" x="1093" y="-106.3" font-family="Times,serif" font-size="14.00">atoms</text>
<text text-anchor="start" x="1093" y="-91.3" font-family="Times,serif" font-size="14.00">bonds : dict</text>
<text text-anchor="start" x="1093" y="-76.3" font-family="Times,serif" font-size="14.00">fragments</text>
<text text-anchor="start" x="1093" y="-61.3" font-family="Times,serif" font-size="14.00">num_fragments</text>
<polyline fill="none" stroke="black" points="1085,-53.5 1264,-53.5 "/>
<text text-anchor="middle" x="1174.5" y="-38.3" font-family="Times,serif" font-size="14.00"> </text>
</g>
<!-- 5 -->
<g id="node6" class="node"><title>5</title>
<polygon fill="none" stroke="black" points="1282,-38 1282,-137 1527,-137 1527,-38 1282,-38"/>
<text text-anchor="middle" x="1404.5" y="-121.8" font-family="Times,serif" font-size="14.00">npfc.draw.Palette</text>
<polyline fill="none" stroke="black" points="1282,-114 1527,-114 "/>
<text text-anchor="start" x="1290" y="-98.8" font-family="Times,serif" font-size="14.00">colors</text>
<text text-anchor="start" x="1290" y="-83.8" font-family="Times,serif" font-size="14.00">colors_ini : _ColorPalette, NoneType, list</text>
<text text-anchor="start" x="1290" y="-68.8" font-family="Times,serif" font-size="14.00">num_colors</text>
<polyline fill="none" stroke="black" points="1282,-61 1527,-61 "/>
<text text-anchor="start" x="1290" y="-45.8" font-family="Times,serif" font-size="14.00">show()</text>
</g>
<!-- 6 -->
<g id="node7" class="node"><title>6</title>
<polygon fill="none" stroke="black" points="1345,-678.5 1345,-777.5 1572,-777.5 1572,-678.5 1345,-678.5"/>
<text text-anchor="middle" x="1458.5" y="-762.3" font-family="Times,serif" font-size="14.00">npfc.filter.Filter</text>
<polyline fill="none" stroke="black" points="1345,-754.5 1572,-754.5 "/>
<text text-anchor="start" x="1353" y="-739.3" font-family="Times,serif" font-size="14.00">descriptors : dict</text>
<polyline fill="none" stroke="black" points="1345,-731.5 1572,-731.5 "/>
<text text-anchor="start" x="1353" y="-716.3" font-family="Times,serif" font-size="14.00">compute_descriptors(mol, descriptors)</text>
<text text-anchor="start" x="1353" y="-701.3" font-family="Times,serif" font-size="14.00">filter_mol(mol, expr)</text>
<text text-anchor="start" x="1353" y="-686.3" font-family="Times,serif" font-size="14.00">get_possible_descriptors()</text>
</g>
<!-- 7 -->
<g id="node8" class="node"><title>7</title>
<polygon fill="none" stroke="black" points="1752,-52.5 1752,-122.5 2003,-122.5 2003,-52.5 1752,-52.5"/>
<text text-anchor="middle" x="1877.5" y="-107.3" font-family="Times,serif" font-size="14.00">npfc.report.ReporterFragmentCombination</text>
<polyline fill="none" stroke="black" points="1752,-99.5 2003,-99.5 "/>
<polyline fill="none" stroke="black" points="1752,-75.5 2003,-75.5 "/>
<text text-anchor="middle" x="1877.5" y="-60.3" font-family="Times,serif" font-size="14.00"> </text>
</g>
<!-- 8 -->
<g id="node9" class="node"><title>8</title>
<polygon fill="none" stroke="black" points="2021,-52.5 2021,-122.5 2306,-122.5 2306,-52.5 2021,-52.5"/>
<text text-anchor="middle" x="2163.5" y="-107.3" font-family="Times,serif" font-size="14.00">npfc.report.ReporterFragmentCombinationGraph</text>
<polyline fill="none" stroke="black" points="2021,-99.5 2306,-99.5 "/>
<polyline fill="none" stroke="black" points="2021,-75.5 2306,-75.5 "/>
<text text-anchor="middle" x="2163.5" y="-60.3" font-family="Times,serif" font-size="14.00"> </text>
</g>
<!-- 9 -->
<g id="node10" class="node"><title>9</title>
<polygon fill="none" stroke="black" points="2324,-52.5 2324,-122.5 2541,-122.5 2541,-52.5 2324,-52.5"/>
<text text-anchor="middle" x="2432.5" y="-107.3" font-family="Times,serif" font-size="14.00">npfc.report.ReporterFragmentSearch</text>
<polyline fill="none" stroke="black" points="2324,-99.5 2541,-99.5 "/>
<polyline fill="none" stroke="black" points="2324,-75.5 2541,-75.5 "/>
<text text-anchor="middle" x="2432.5" y="-60.3" font-family="Times,serif" font-size="14.00"> </text>
</g>
<!-- 10 -->
<g id="node11" class="node"><title>10</title>
<polygon fill="none" stroke="black" points="2559.5,-52.5 2559.5,-122.5 2711.5,-122.5 2711.5,-52.5 2559.5,-52.5"/>
<text text-anchor="middle" x="2635.5" y="-107.3" font-family="Times,serif" font-size="14.00">npfc.report.ReporterPNP</text>
<polyline fill="none" stroke="black" points="2559.5,-99.5 2711.5,-99.5 "/>
<polyline fill="none" stroke="black" points="2559.5,-75.5 2711.5,-75.5 "/>
<text text-anchor="middle" x="2635.5" y="-60.3" font-family="Times,serif" font-size="14.00"> </text>
</g>
<!-- 11 -->
<g id="node12" class="node"><title>11</title>
<polygon fill="none" stroke="black" points="2730,-52.5 2730,-122.5 2899,-122.5 2899,-52.5 2730,-52.5"/>
<text text-anchor="middle" x="2814.5" y="-107.3" font-family="Times,serif" font-size="14.00">npfc.report.ReporterProcess</text>
<polyline fill="none" stroke="black" points="2730,-99.5 2899,-99.5 "/>
<polyline fill="none" stroke="black" points="2730,-75.5 2899,-75.5 "/>
<text text-anchor="middle" x="2814.5" y="-60.3" font-family="Times,serif" font-size="14.00"> </text>
</g>
<!-- 12 -->
<g id="node13" class="node"><title>12</title>
<polygon fill="none" stroke="black" points="2916.5,-52.5 2916.5,-122.5 3074.5,-122.5 3074.5,-52.5 2916.5,-52.5"/>
<text text-anchor="middle" x="2995.5" y="-107.3" font-family="Times,serif" font-size="14.00">npfc.save.SafeHDF5Store</text>
<polyline fill="none" stroke="black" points="2916.5,-99.5 3074.5,-99.5 "/>
<polyline fill="none" stroke="black" points="2916.5,-75.5 3074.5,-75.5 "/>
<text text-anchor="middle" x="2995.5" y="-60.3" font-family="Times,serif" font-size="14.00"> </text>
</g>
<!-- 15 -->
<g id="node16" class="node"><title>15</title>
<polygon fill="none" stroke="black" points="2519.5,-226.5 2519.5,-640.5 3471.5,-640.5 3471.5,-226.5 2519.5,-226.5"/>
<text text-anchor="middle" x="2995.5" y="-625.3" font-family="Times,serif" font-size="14.00">pandas.io.pytables.HDFStore</text>
<polyline fill="none" stroke="black" points="2519.5,-617.5 3471.5,-617.5 "/>
<text text-anchor="start" x="2527.5" y="-602.3" font-family="Times,serif" font-size="14.00">filename</text>
<text text-anchor="start" x="2527.5" y="-587.3" font-family="Times,serif" font-size="14.00">is_open</text>
<text text-anchor="start" x="2527.5" y="-572.3" font-family="Times,serif" font-size="14.00">iteritems</text>
<text text-anchor="start" x="2527.5" y="-557.3" font-family="Times,serif" font-size="14.00">root</text>
<polyline fill="none" stroke="black" points="2519.5,-549.5 3471.5,-549.5 "/>
<text text-anchor="start" x="2527.5" y="-534.3" font-family="Times,serif" font-size="14.00">append(key, value, format, axes, index, append, complib, complevel, columns, min_itemsize, nan_rep, chunksize, expectedrows, dropna, data_columns, encoding, errors)</text>
<text text-anchor="start" x="2527.5" y="-519.3" font-family="Times,serif" font-size="14.00">append_to_multiple(d, value, selector, data_columns, axes, dropna)</text>
<text text-anchor="start" x="2527.5" y="-504.3" font-family="Times,serif" font-size="14.00">close()</text>
<text text-anchor="start" x="2527.5" y="-489.3" font-family="Times,serif" font-size="14.00">copy(file, mode, propindexes, keys, complib, complevel, fletcher32, overwrite)</text>
<text text-anchor="start" x="2527.5" y="-474.3" font-family="Times,serif" font-size="14.00">create_table_index(key, columns, optlevel, kind)</text>
<text text-anchor="start" x="2527.5" y="-459.3" font-family="Times,serif" font-size="14.00">flush(fsync)</text>
<text text-anchor="start" x="2527.5" y="-444.3" font-family="Times,serif" font-size="14.00">get(key)</text>
<text text-anchor="start" x="2527.5" y="-429.3" font-family="Times,serif" font-size="14.00">get_node(key)</text>
<text text-anchor="start" x="2527.5" y="-414.3" font-family="Times,serif" font-size="14.00">get_storer(key)</text>
<text text-anchor="start" x="2527.5" y="-399.3" font-family="Times,serif" font-size="14.00">groups()</text>
<text text-anchor="start" x="2527.5" y="-384.3" font-family="Times,serif" font-size="14.00">info()</text>
<text text-anchor="start" x="2527.5" y="-369.3" font-family="Times,serif" font-size="14.00">items()</text>
<text text-anchor="start" x="2527.5" y="-354.3" font-family="Times,serif" font-size="14.00">keys()</text>
<text text-anchor="start" x="2527.5" y="-339.3" font-family="Times,serif" font-size="14.00">open(mode)</text>
<text text-anchor="start" x="2527.5" y="-324.3" font-family="Times,serif" font-size="14.00">put(key, value, format, index, append, complib, complevel, min_itemsize, nan_rep, data_columns, encoding, errors)</text>
<text text-anchor="start" x="2527.5" y="-309.3" font-family="Times,serif" font-size="14.00">remove(key, where, start, stop)</text>
<text text-anchor="start" x="2527.5" y="-294.3" font-family="Times,serif" font-size="14.00">select(key, where, start, stop, columns, iterator, chunksize, auto_close)</text>
<text text-anchor="start" x="2527.5" y="-279.3" font-family="Times,serif" font-size="14.00">select_as_coordinates(key, where, start, stop)</text>
<text text-anchor="start" x="2527.5" y="-264.3" font-family="Times,serif" font-size="14.00">select_as_multiple(keys, where, selector, columns, start, stop, iterator, chunksize, auto_close)</text>
<text text-anchor="start" x="2527.5" y="-249.3" font-family="Times,serif" font-size="14.00">select_column(key, column, start, stop)</text>
<text text-anchor="start" x="2527.5" y="-234.3" font-family="Times,serif" font-size="14.00">walk(where)</text>
</g>
<!-- 12&#45;&gt;15 -->
<g id="edge1" class="edge"><title>12&#45;&gt;15</title>
<path fill="none" stroke="black" d="M2995.5,-122.742C2995.5,-146.275 2995.5,-179.739 2995.5,-216.039"/>
<polygon fill="none" stroke="black" points="2992,-216.347 2995.5,-226.347 2999,-216.347 2992,-216.347"/>
</g>
<!-- 13 -->
<g id="node14" class="node"><title>13</title>
<polygon fill="none" stroke="black" points="1545.5,-30.5 1545.5,-144.5 1733.5,-144.5 1733.5,-30.5 1545.5,-30.5"/>
<text text-anchor="middle" x="1639.5" y="-129.3" font-family="Times,serif" font-size="14.00">npfc.standardize.FullUncharger</text>
<polyline fill="none" stroke="black" points="1545.5,-121.5 1733.5,-121.5 "/>
<text text-anchor="start" x="1553.5" y="-106.3" font-family="Times,serif" font-size="14.00">q_neg_1</text>
<text text-anchor="start" x="1553.5" y="-91.3" font-family="Times,serif" font-size="14.00">q_neg_2</text>
<text text-anchor="start" x="1553.5" y="-76.3" font-family="Times,serif" font-size="14.00">q_pos_1</text>
<text text-anchor="start" x="1553.5" y="-61.3" font-family="Times,serif" font-size="14.00">q_pos_2</text>
<polyline fill="none" stroke="black" points="1545.5,-53.5 1733.5,-53.5 "/>
<text text-anchor="start" x="1553.5" y="-38.3" font-family="Times,serif" font-size="14.00">full_uncharge(mol)</text>
</g>
<!-- 14 -->
<g id="node15" class="node"><title>14</title>
<polygon fill="none" stroke="black" points="1339,-294 1339,-573 1578,-573 1578,-294 1339,-294"/>
<text text-anchor="middle" x="1458.5" y="-557.8" font-family="Times,serif" font-size="14.00">npfc.standardize.Standardizer</text>
<polyline fill="none" stroke="black" points="1339,-550 1578,-550 "/>
<text text-anchor="start" x="1347" y="-534.8" font-family="Times,serif" font-size="14.00">canonicalizer : TautomerCanonicalizer</text>
<text text-anchor="start" x="1347" y="-519.8" font-family="Times,serif" font-size="14.00">col_id</text>
<text text-anchor="start" x="1347" y="-504.8" font-family="Times,serif" font-size="14.00">col_mol</text>
<text text-anchor="start" x="1347" y="-489.8" font-family="Times,serif" font-size="14.00">elements_medchem</text>
<text text-anchor="start" x="1347" y="-474.8" font-family="Times,serif" font-size="14.00">full_uncharger</text>
<text text-anchor="start" x="1347" y="-459.8" font-family="Times,serif" font-size="14.00">metal_disconnector : MetalDisconnector</text>
<text text-anchor="start" x="1347" y="-444.8" font-family="Times,serif" font-size="14.00">normalizer : Normalizer</text>
<text text-anchor="start" x="1347" y="-429.8" font-family="Times,serif" font-size="14.00">protocol</text>
<text text-anchor="start" x="1347" y="-414.8" font-family="Times,serif" font-size="14.00">timeout</text>
<polyline fill="none" stroke="black" points="1339,-407 1578,-407 "/>
<text text-anchor="start" x="1347" y="-391.8" font-family="Times,serif" font-size="14.00">clear_isotopes(mol)</text>
<text text-anchor="start" x="1347" y="-376.8" font-family="Times,serif" font-size="14.00">clear_mixtures(mol)</text>
<text text-anchor="start" x="1347" y="-361.8" font-family="Times,serif" font-size="14.00">clear_side_chains(mol, debug)</text>
<text text-anchor="start" x="1347" y="-346.8" font-family="Times,serif" font-size="14.00">deglycosylate(mol, mode)</text>
<text text-anchor="start" x="1347" y="-331.8" font-family="Times,serif" font-size="14.00">describe()</text>
<text text-anchor="start" x="1347" y="-316.8" font-family="Times,serif" font-size="14.00">run(mol, timeout)</text>
<text text-anchor="start" x="1347" y="-301.8" font-family="Times,serif" font-size="14.00">run_df(df)</text>
</g>
<!-- 13&#45;&gt;14 -->
<g id="edge4" class="edge"><title>13&#45;&gt;14</title>
<path fill="none" stroke="black" d="M1610.02,-144.535C1590.18,-182.226 1563.04,-233.823 1537.19,-282.938"/>
<polygon fill="black" stroke="black" points="1537.12,-283.083 1537.86,-290.255 1531.53,-293.702 1530.78,-286.53 1537.12,-283.083"/>
<text text-anchor="middle" x="1620.5" y="-196.8" font-family="Times,serif" font-size="14.00" fill="green">full_uncharger</text>
</g>
<!-- 16 -->
<g id="node17" class="node"><title>16</title>
<polygon fill="none" stroke="black" points="1596.5,-398.5 1596.5,-468.5 1866.5,-468.5 1866.5,-398.5 1596.5,-398.5"/>
<text text-anchor="middle" x="1731.5" y="-453.3" font-family="Times,serif" font-size="14.00">rdkit.Chem.MolStandardize.charge.Uncharger</text>
<polyline fill="none" stroke="black" points="1596.5,-445.5 1866.5,-445.5 "/>
<polyline fill="none" stroke="black" points="1596.5,-421.5 1866.5,-421.5 "/>
<text text-anchor="start" x="1604.5" y="-406.3" font-family="Times,serif" font-size="14.00">uncharge(mol)</text>
</g>
<!-- 13&#45;&gt;16 -->
<g id="edge2" class="edge"><title>13&#45;&gt;16</title>
<path fill="none" stroke="black" d="M1654.49,-144.535C1672.72,-212.705 1703.12,-326.366 1719.75,-388.549"/>
<polygon fill="none" stroke="black" points="1716.43,-389.683 1722.39,-398.439 1723.19,-387.874 1716.43,-389.683"/>
</g>
<!-- 14&#45;&gt;6 -->
<g id="edge3" class="edge"><title>14&#45;&gt;6</title>
<path fill="none" stroke="black" d="M1458.5,-573.041C1458.5,-606.56 1458.5,-640.62 1458.5,-668.153"/>
<polygon fill="none" stroke="black" points="1455,-668.371 1458.5,-678.371 1462,-668.371 1455,-668.371"/>
</g>
</g>
</svg>
