<?xml version="1.0" encoding="UTF-8" standalone="no"?>
<!DOCTYPE svg PUBLIC "-//W3C//DTD SVG 1.1//EN"
 "http://www.w3.org/Graphics/SVG/1.1/DTD/svg11.dtd">
<!-- Generated by graphviz version 2.42.3 (20191010.1750)
 -->
<!-- Title: classes_npfc Pages: 1 -->
<svg width="3139pt" height="786pt"
 viewBox="0.00 0.00 3138.50 786.00" xmlns="http://www.w3.org/2000/svg" xmlns:xlink="http://www.w3.org/1999/xlink">
<g id="graph0" class="graph" transform="scale(1 1) rotate(0) translate(4 782)">
<title>classes_npfc</title>
<polygon fill="white" stroke="transparent" points="-4,4 -4,-782 3134.5,-782 3134.5,4 -4,4"/>
<!-- 0 -->
<g id="node1" class="node">
<title>0</title>
<polygon fill="none" stroke="black" points="0,-45.5 0,-129.5 191,-129.5 191,-45.5 0,-45.5"/>
<text text-anchor="middle" x="95.5" y="-114.3" font-family="Times,serif" font-size="14.00">npfc.contrib.np_score.NPScorer</text>
<polyline fill="none" stroke="black" points="0,-106.5 191,-106.5 "/>
<text text-anchor="start" x="8" y="-91.3" font-family="Times,serif" font-size="14.00">file_model</text>
<text text-anchor="start" x="8" y="-76.3" font-family="Times,serif" font-size="14.00">fscores</text>
<polyline fill="none" stroke="black" points="0,-68.5 191,-68.5 "/>
<text text-anchor="start" x="8" y="-53.3" font-family="Times,serif" font-size="14.00">score(mol, confidence)</text>
</g>
<!-- 1 -->
<g id="node2" class="node">
<title>1</title>
<polygon fill="none" stroke="black" points="209,-38 209,-137 398,-137 398,-38 209,-38"/>
<text text-anchor="middle" x="303.5" y="-121.8" font-family="Times,serif" font-size="14.00">npfc.contrib.sa_score.SAScorer</text>
<polyline fill="none" stroke="black" points="209,-114 398,-114 "/>
<text text-anchor="start" x="217" y="-98.8" font-family="Times,serif" font-size="14.00">file_model</text>
<text text-anchor="start" x="217" y="-83.8" font-family="Times,serif" font-size="14.00">fscores : dict</text>
<polyline fill="none" stroke="black" points="209,-76 398,-76 "/>
<text text-anchor="start" x="217" y="-60.8" font-family="Times,serif" font-size="14.00">load_model(file_model)</text>
<text text-anchor="start" x="217" y="-45.8" font-family="Times,serif" font-size="14.00">score(m)</text>
</g>
<!-- 2 -->
<g id="node3" class="node">
<title>2</title>
<polygon fill="none" stroke="black" points="416.5,-30.5 416.5,-144.5 814.5,-144.5 814.5,-30.5 416.5,-30.5"/>
<text text-anchor="middle" x="615.5" y="-129.3" font-family="Times,serif" font-size="14.00">npfc.draw.ColorMap</text>
<polyline fill="none" stroke="black" points="416.5,-121.5 814.5,-121.5 "/>
<text text-anchor="start" x="424.5" y="-106.3" font-family="Times,serif" font-size="14.00">atoms : dict</text>
<text text-anchor="start" x="424.5" y="-91.3" font-family="Times,serif" font-size="14.00">bonds : dict</text>
<text text-anchor="start" x="424.5" y="-76.3" font-family="Times,serif" font-size="14.00">fragments : dict</text>
<text text-anchor="start" x="424.5" y="-61.3" font-family="Times,serif" font-size="14.00">palette : OrderedDict, NoneType, _ColorPalette, ListedColormap, list</text>
<polyline fill="none" stroke="black" points="416.5,-53.5 814.5,-53.5 "/>
<text text-anchor="start" x="424.5" y="-38.3" font-family="Times,serif" font-size="14.00">blend()</text>
</g>
<!-- 3 -->
<g id="node4" class="node">
<title>3</title>
<polygon fill="none" stroke="black" points="832.5,-0.5 832.5,-174.5 1186.5,-174.5 1186.5,-0.5 832.5,-0.5"/>
<text text-anchor="middle" x="1009.5" y="-159.3" font-family="Times,serif" font-size="14.00">npfc.draw.DepictionValidator</text>
<polyline fill="none" stroke="black" points="832.5,-151.5 1186.5,-151.5 "/>
<text text-anchor="start" x="840.5" y="-136.3" font-family="Times,serif" font-size="14.00">bonds</text>
<text text-anchor="start" x="840.5" y="-121.3" font-family="Times,serif" font-size="14.00">conformer</text>
<text text-anchor="start" x="840.5" y="-106.3" font-family="Times,serif" font-size="14.00">kd_tree : KDTree</text>
<text text-anchor="start" x="840.5" y="-91.3" font-family="Times,serif" font-size="14.00">mol</text>
<polyline fill="none" stroke="black" points="832.5,-83.5 1186.5,-83.5 "/>
<text text-anchor="start" x="840.5" y="-68.3" font-family="Times,serif" font-size="14.00">count_bond_collisions()</text>
<text text-anchor="start" x="840.5" y="-53.3" font-family="Times,serif" font-size="14.00">count_suboptimal_atom_positions(lowerBound, upperBound)</text>
<text text-anchor="start" x="840.5" y="-38.3" font-family="Times,serif" font-size="14.00">depiction_score()</text>
<text text-anchor="start" x="840.5" y="-23.3" font-family="Times,serif" font-size="14.00">has_bond_crossing()</text>
<text text-anchor="start" x="840.5" y="-8.3" font-family="Times,serif" font-size="14.00">has_degenerated_atom_positions(threshold)</text>
</g>
<!-- 4 -->
<g id="node5" class="node">
<title>4</title>
<polygon fill="none" stroke="black" points="1004,-678.5 1004,-777.5 1231,-777.5 1231,-678.5 1004,-678.5"/>
<text text-anchor="middle" x="1117.5" y="-762.3" font-family="Times,serif" font-size="14.00">npfc.filter.Filter</text>
<polyline fill="none" stroke="black" points="1004,-754.5 1231,-754.5 "/>
<text text-anchor="start" x="1012" y="-739.3" font-family="Times,serif" font-size="14.00">descriptors : dict</text>
<polyline fill="none" stroke="black" points="1004,-731.5 1231,-731.5 "/>
<text text-anchor="start" x="1012" y="-716.3" font-family="Times,serif" font-size="14.00">compute_descriptors(mol, descriptors)</text>
<text text-anchor="start" x="1012" y="-701.3" font-family="Times,serif" font-size="14.00">filter_mol(mol, expr)</text>
<text text-anchor="start" x="1012" y="-686.3" font-family="Times,serif" font-size="14.00">get_possible_descriptors()</text>
</g>
<!-- 5 -->
<g id="node6" class="node">
<title>5</title>
<polygon fill="none" stroke="black" points="1411,-52.5 1411,-122.5 1662,-122.5 1662,-52.5 1411,-52.5"/>
<text text-anchor="middle" x="1536.5" y="-107.3" font-family="Times,serif" font-size="14.00">npfc.report.ReporterFragmentCombination</text>
<polyline fill="none" stroke="black" points="1411,-99.5 1662,-99.5 "/>
<polyline fill="none" stroke="black" points="1411,-75.5 1662,-75.5 "/>
<text text-anchor="middle" x="1536.5" y="-60.3" font-family="Times,serif" font-size="14.00"> </text>
</g>
<!-- 6 -->
<g id="node7" class="node">
<title>6</title>
<polygon fill="none" stroke="black" points="1680,-52.5 1680,-122.5 1965,-122.5 1965,-52.5 1680,-52.5"/>
<text text-anchor="middle" x="1822.5" y="-107.3" font-family="Times,serif" font-size="14.00">npfc.report.ReporterFragmentCombinationGraph</text>
<polyline fill="none" stroke="black" points="1680,-99.5 1965,-99.5 "/>
<polyline fill="none" stroke="black" points="1680,-75.5 1965,-75.5 "/>
<text text-anchor="middle" x="1822.5" y="-60.3" font-family="Times,serif" font-size="14.00"> </text>
</g>
<!-- 7 -->
<g id="node8" class="node">
<title>7</title>
<polygon fill="none" stroke="black" points="1983,-52.5 1983,-122.5 2200,-122.5 2200,-52.5 1983,-52.5"/>
<text text-anchor="middle" x="2091.5" y="-107.3" font-family="Times,serif" font-size="14.00">npfc.report.ReporterFragmentSearch</text>
<polyline fill="none" stroke="black" points="1983,-99.5 2200,-99.5 "/>
<polyline fill="none" stroke="black" points="1983,-75.5 2200,-75.5 "/>
<text text-anchor="middle" x="2091.5" y="-60.3" font-family="Times,serif" font-size="14.00"> </text>
</g>
<!-- 8 -->
<g id="node9" class="node">
<title>8</title>
<polygon fill="none" stroke="black" points="2218.5,-52.5 2218.5,-122.5 2370.5,-122.5 2370.5,-52.5 2218.5,-52.5"/>
<text text-anchor="middle" x="2294.5" y="-107.3" font-family="Times,serif" font-size="14.00">npfc.report.ReporterPNP</text>
<polyline fill="none" stroke="black" points="2218.5,-99.5 2370.5,-99.5 "/>
<polyline fill="none" stroke="black" points="2218.5,-75.5 2370.5,-75.5 "/>
<text text-anchor="middle" x="2294.5" y="-60.3" font-family="Times,serif" font-size="14.00"> </text>
</g>
<!-- 9 -->
<g id="node10" class="node">
<title>9</title>
<polygon fill="none" stroke="black" points="2389,-52.5 2389,-122.5 2558,-122.5 2558,-52.5 2389,-52.5"/>
<text text-anchor="middle" x="2473.5" y="-107.3" font-family="Times,serif" font-size="14.00">npfc.report.ReporterProcess</text>
<polyline fill="none" stroke="black" points="2389,-99.5 2558,-99.5 "/>
<polyline fill="none" stroke="black" points="2389,-75.5 2558,-75.5 "/>
<text text-anchor="middle" x="2473.5" y="-60.3" font-family="Times,serif" font-size="14.00"> </text>
</g>
<!-- 10 -->
<g id="node11" class="node">
<title>10</title>
<polygon fill="none" stroke="black" points="2575.5,-52.5 2575.5,-122.5 2733.5,-122.5 2733.5,-52.5 2575.5,-52.5"/>
<text text-anchor="middle" x="2654.5" y="-107.3" font-family="Times,serif" font-size="14.00">npfc.save.SafeHDF5Store</text>
<polyline fill="none" stroke="black" points="2575.5,-99.5 2733.5,-99.5 "/>
<polyline fill="none" stroke="black" points="2575.5,-75.5 2733.5,-75.5 "/>
<text text-anchor="middle" x="2654.5" y="-60.3" font-family="Times,serif" font-size="14.00"> </text>
</g>
<!-- 13 -->
<g id="node14" class="node">
<title>13</title>
<polygon fill="none" stroke="black" points="2178.5,-226.5 2178.5,-640.5 3130.5,-640.5 3130.5,-226.5 2178.5,-226.5"/>
<text text-anchor="middle" x="2654.5" y="-625.3" font-family="Times,serif" font-size="14.00">pandas.io.pytables.HDFStore</text>
<polyline fill="none" stroke="black" points="2178.5,-617.5 3130.5,-617.5 "/>
<text text-anchor="start" x="2186.5" y="-602.3" font-family="Times,serif" font-size="14.00">filename</text>
<text text-anchor="start" x="2186.5" y="-587.3" font-family="Times,serif" font-size="14.00">is_open</text>
<text text-anchor="start" x="2186.5" y="-572.3" font-family="Times,serif" font-size="14.00">iteritems</text>
<text text-anchor="start" x="2186.5" y="-557.3" font-family="Times,serif" font-size="14.00">root</text>
<polyline fill="none" stroke="black" points="2178.5,-549.5 3130.5,-549.5 "/>
<text text-anchor="start" x="2186.5" y="-534.3" font-family="Times,serif" font-size="14.00">append(key, value, format, axes, index, append, complib, complevel, columns, min_itemsize, nan_rep, chunksize, expectedrows, dropna, data_columns, encoding, errors)</text>
<text text-anchor="start" x="2186.5" y="-519.3" font-family="Times,serif" font-size="14.00">append_to_multiple(d, value, selector, data_columns, axes, dropna)</text>
<text text-anchor="start" x="2186.5" y="-504.3" font-family="Times,serif" font-size="14.00">close()</text>
<text text-anchor="start" x="2186.5" y="-489.3" font-family="Times,serif" font-size="14.00">copy(file, mode, propindexes, keys, complib, complevel, fletcher32, overwrite)</text>
<text text-anchor="start" x="2186.5" y="-474.3" font-family="Times,serif" font-size="14.00">create_table_index(key, columns, optlevel, kind)</text>
<text text-anchor="start" x="2186.5" y="-459.3" font-family="Times,serif" font-size="14.00">flush(fsync)</text>
<text text-anchor="start" x="2186.5" y="-444.3" font-family="Times,serif" font-size="14.00">get(key)</text>
<text text-anchor="start" x="2186.5" y="-429.3" font-family="Times,serif" font-size="14.00">get_node(key)</text>
<text text-anchor="start" x="2186.5" y="-414.3" font-family="Times,serif" font-size="14.00">get_storer(key)</text>
<text text-anchor="start" x="2186.5" y="-399.3" font-family="Times,serif" font-size="14.00">groups()</text>
<text text-anchor="start" x="2186.5" y="-384.3" font-family="Times,serif" font-size="14.00">info()</text>
<text text-anchor="start" x="2186.5" y="-369.3" font-family="Times,serif" font-size="14.00">items()</text>
<text text-anchor="start" x="2186.5" y="-354.3" font-family="Times,serif" font-size="14.00">keys(include)</text>
<text text-anchor="start" x="2186.5" y="-339.3" font-family="Times,serif" font-size="14.00">open(mode)</text>
<text text-anchor="start" x="2186.5" y="-324.3" font-family="Times,serif" font-size="14.00">put(key, value, format, index, append, complib, complevel, min_itemsize, nan_rep, data_columns, encoding, errors, track_times)</text>
<text text-anchor="start" x="2186.5" y="-309.3" font-family="Times,serif" font-size="14.00">remove(key, where, start, stop)</text>
<text text-anchor="start" x="2186.5" y="-294.3" font-family="Times,serif" font-size="14.00">select(key, where, start, stop, columns, iterator, chunksize, auto_close)</text>
<text text-anchor="start" x="2186.5" y="-279.3" font-family="Times,serif" font-size="14.00">select_as_coordinates(key, where, start, stop)</text>
<text text-anchor="start" x="2186.5" y="-264.3" font-family="Times,serif" font-size="14.00">select_as_multiple(keys, where, selector, columns, start, stop, iterator, chunksize, auto_close)</text>
<text text-anchor="start" x="2186.5" y="-249.3" font-family="Times,serif" font-size="14.00">select_column(key, column, start, stop)</text>
<text text-anchor="start" x="2186.5" y="-234.3" font-family="Times,serif" font-size="14.00">walk(where)</text>
</g>
<!-- 10&#45;&gt;13 -->
<g id="edge1" class="edge">
<title>10&#45;&gt;13</title>
<path fill="none" stroke="black" d="M2654.5,-122.74C2654.5,-146.28 2654.5,-179.74 2654.5,-216.04"/>
<polygon fill="none" stroke="black" points="2651,-216.35 2654.5,-226.35 2658,-216.35 2651,-216.35"/>
</g>
<!-- 11 -->
<g id="node12" class="node">
<title>11</title>
<polygon fill="none" stroke="black" points="1204.5,-30.5 1204.5,-144.5 1392.5,-144.5 1392.5,-30.5 1204.5,-30.5"/>
<text text-anchor="middle" x="1298.5" y="-129.3" font-family="Times,serif" font-size="14.00">npfc.standardize.FullUncharger</text>
<polyline fill="none" stroke="black" points="1204.5,-121.5 1392.5,-121.5 "/>
<text text-anchor="start" x="1212.5" y="-106.3" font-family="Times,serif" font-size="14.00">q_neg_1</text>
<text text-anchor="start" x="1212.5" y="-91.3" font-family="Times,serif" font-size="14.00">q_neg_2</text>
<text text-anchor="start" x="1212.5" y="-76.3" font-family="Times,serif" font-size="14.00">q_pos_1</text>
<text text-anchor="start" x="1212.5" y="-61.3" font-family="Times,serif" font-size="14.00">q_pos_2</text>
<polyline fill="none" stroke="black" points="1204.5,-53.5 1392.5,-53.5 "/>
<text text-anchor="start" x="1212.5" y="-38.3" font-family="Times,serif" font-size="14.00">full_uncharge(mol)</text>
</g>
<!-- 12 -->
<g id="node13" class="node">
<title>12</title>
<polygon fill="none" stroke="black" points="998,-301.5 998,-565.5 1237,-565.5 1237,-301.5 998,-301.5"/>
<text text-anchor="middle" x="1117.5" y="-550.3" font-family="Times,serif" font-size="14.00">npfc.standardize.Standardizer</text>
<polyline fill="none" stroke="black" points="998,-542.5 1237,-542.5 "/>
<text text-anchor="start" x="1006" y="-527.3" font-family="Times,serif" font-size="14.00">canonicalizer : TautomerCanonicalizer</text>
<text text-anchor="start" x="1006" y="-512.3" font-family="Times,serif" font-size="14.00">col_id</text>
<text text-anchor="start" x="1006" y="-497.3" font-family="Times,serif" font-size="14.00">col_mol</text>
<text text-anchor="start" x="1006" y="-482.3" font-family="Times,serif" font-size="14.00">elements_medchem</text>
<text text-anchor="start" x="1006" y="-467.3" font-family="Times,serif" font-size="14.00">full_uncharger</text>
<text text-anchor="start" x="1006" y="-452.3" font-family="Times,serif" font-size="14.00">metal_disconnector : MetalDisconnector</text>
<text text-anchor="start" x="1006" y="-437.3" font-family="Times,serif" font-size="14.00">normalizer : Normalizer</text>
<text text-anchor="start" x="1006" y="-422.3" font-family="Times,serif" font-size="14.00">protocol</text>
<text text-anchor="start" x="1006" y="-407.3" font-family="Times,serif" font-size="14.00">timeout</text>
<polyline fill="none" stroke="black" points="998,-399.5 1237,-399.5 "/>
<text text-anchor="start" x="1006" y="-384.3" font-family="Times,serif" font-size="14.00">clear_isotopes(mol)</text>
<text text-anchor="start" x="1006" y="-369.3" font-family="Times,serif" font-size="14.00">clear_side_chains(mol, debug)</text>
<text text-anchor="start" x="1006" y="-354.3" font-family="Times,serif" font-size="14.00">deglycosylate(mol, mode)</text>
<text text-anchor="start" x="1006" y="-339.3" font-family="Times,serif" font-size="14.00">keep_best(mol)</text>
<text text-anchor="start" x="1006" y="-324.3" font-family="Times,serif" font-size="14.00">run(mol, timeout)</text>
<text text-anchor="start" x="1006" y="-309.3" font-family="Times,serif" font-size="14.00">run_df(df)</text>
</g>
<!-- 11&#45;&gt;12 -->
<g id="edge4" class="edge">
<title>11&#45;&gt;12</title>
<path fill="none" stroke="black" d="M1269.02,-144.54C1248.16,-184.17 1219.21,-239.19 1192.2,-290.52"/>
<polygon fill="black" stroke="black" points="1192.06,-290.79 1192.81,-297.96 1186.47,-301.41 1185.73,-294.24 1192.06,-290.79"/>
<text text-anchor="middle" x="1280.5" y="-196.8" font-family="Times,serif" font-size="14.00" fill="green">full_uncharger</text>
</g>
<!-- 14 -->
<g id="node15" class="node">
<title>14</title>
<polygon fill="none" stroke="black" points="1255.5,-398.5 1255.5,-468.5 1525.5,-468.5 1525.5,-398.5 1255.5,-398.5"/>
<text text-anchor="middle" x="1390.5" y="-453.3" font-family="Times,serif" font-size="14.00">rdkit.Chem.MolStandardize.charge.Uncharger</text>
<polyline fill="none" stroke="black" points="1255.5,-445.5 1525.5,-445.5 "/>
<polyline fill="none" stroke="black" points="1255.5,-421.5 1525.5,-421.5 "/>
<text text-anchor="start" x="1263.5" y="-406.3" font-family="Times,serif" font-size="14.00">uncharge(mol)</text>
</g>
<!-- 11&#45;&gt;14 -->
<g id="edge2" class="edge">
<title>11&#45;&gt;14</title>
<path fill="none" stroke="black" d="M1313.49,-144.54C1331.72,-212.71 1362.12,-326.37 1378.75,-388.55"/>
<polygon fill="none" stroke="black" points="1375.43,-389.68 1381.39,-398.44 1382.19,-387.87 1375.43,-389.68"/>
</g>
<!-- 12&#45;&gt;4 -->
<g id="edge3" class="edge">
<title>12&#45;&gt;4</title>
<path fill="none" stroke="black" d="M1117.5,-565.78C1117.5,-601.64 1117.5,-638.72 1117.5,-668.27"/>
<polygon fill="none" stroke="black" points="1114,-668.39 1117.5,-678.39 1121,-668.39 1114,-668.39"/>
</g>
</g>
</svg>
