<?xml version="1.0" encoding="UTF-8" standalone="no"?>
<!DOCTYPE svg PUBLIC "-//W3C//DTD SVG 1.1//EN"
 "http://www.w3.org/Graphics/SVG/1.1/DTD/svg11.dtd">
<!-- Generated by graphviz version 2.38.0 (20140413.2041)
 -->
<!-- Title: classes_npfc Pages: 1 -->
<svg width="2812pt" height="756pt"
 viewBox="0.00 0.00 2811.50 756.00" xmlns="http://www.w3.org/2000/svg" xmlns:xlink="http://www.w3.org/1999/xlink">
<g id="graph0" class="graph" transform="scale(1 1) rotate(0) translate(4 752)">
<title>classes_npfc</title>
<polygon fill="white" stroke="none" points="-4,4 -4,-752 2807.5,-752 2807.5,4 -4,4"/>
<!-- 0 -->
<g id="node1" class="node"><title>0</title>
<polygon fill="none" stroke="black" points="0,-53 0,-122 191,-122 191,-53 0,-53"/>
<text text-anchor="middle" x="95.5" y="-106.8" font-family="Times,serif" font-size="14.00">npfc.contrib.np_score.NPScorer</text>
<polyline fill="none" stroke="black" points="0,-99 191,-99 "/>
<text text-anchor="start" x="8" y="-83.8" font-family="Times,serif" font-size="14.00">fscores</text>
<polyline fill="none" stroke="black" points="0,-76 191,-76 "/>
<text text-anchor="start" x="8" y="-60.8" font-family="Times,serif" font-size="14.00">score(mol)</text>
</g>
<!-- 1 -->
<g id="node2" class="node"><title>1</title>
<polygon fill="none" stroke="black" points="209.5,-30.5 209.5,-144.5 487.5,-144.5 487.5,-30.5 209.5,-30.5"/>
<text text-anchor="middle" x="348.5" y="-129.3" font-family="Times,serif" font-size="14.00">npfc.draw.ColorMap</text>
<polyline fill="none" stroke="black" points="209.5,-121.5 487.5,-121.5 "/>
<text text-anchor="start" x="217.5" y="-106.3" font-family="Times,serif" font-size="14.00">atoms : dict</text>
<text text-anchor="start" x="217.5" y="-91.3" font-family="Times,serif" font-size="14.00">bonds : dict</text>
<text text-anchor="start" x="217.5" y="-76.3" font-family="Times,serif" font-size="14.00">fragments : dict</text>
<text text-anchor="start" x="217.5" y="-61.3" font-family="Times,serif" font-size="14.00">palette : OrderedDict, _ColorPalette, NoneType</text>
<polyline fill="none" stroke="black" points="209.5,-53.5 487.5,-53.5 "/>
<text text-anchor="start" x="217.5" y="-38.3" font-family="Times,serif" font-size="14.00">blend()</text>
</g>
<!-- 2 -->
<g id="node3" class="node"><title>2</title>
<polygon fill="none" stroke="black" points="505.5,-0.5 505.5,-174.5 859.5,-174.5 859.5,-0.5 505.5,-0.5"/>
<text text-anchor="middle" x="682.5" y="-159.3" font-family="Times,serif" font-size="14.00">npfc.draw.DepictionValidator</text>
<polyline fill="none" stroke="black" points="505.5,-151.5 859.5,-151.5 "/>
<text text-anchor="start" x="513.5" y="-136.3" font-family="Times,serif" font-size="14.00">bonds</text>
<text text-anchor="start" x="513.5" y="-121.3" font-family="Times,serif" font-size="14.00">conformer</text>
<text text-anchor="start" x="513.5" y="-106.3" font-family="Times,serif" font-size="14.00">kd_tree : KDTree</text>
<text text-anchor="start" x="513.5" y="-91.3" font-family="Times,serif" font-size="14.00">mol</text>
<polyline fill="none" stroke="black" points="505.5,-83.5 859.5,-83.5 "/>
<text text-anchor="start" x="513.5" y="-68.3" font-family="Times,serif" font-size="14.00">count_bond_collisions()</text>
<text text-anchor="start" x="513.5" y="-53.3" font-family="Times,serif" font-size="14.00">count_suboptimal_atom_positions(lowerBound, upperBound)</text>
<text text-anchor="start" x="513.5" y="-38.3" font-family="Times,serif" font-size="14.00">depiction_score()</text>
<text text-anchor="start" x="513.5" y="-23.3" font-family="Times,serif" font-size="14.00">has_bond_crossing()</text>
<text text-anchor="start" x="513.5" y="-8.3" font-family="Times,serif" font-size="14.00">has_degenerated_atom_positions(threshold)</text>
</g>
<!-- 3 -->
<g id="node4" class="node"><title>3</title>
<polygon fill="none" stroke="black" points="723.5,-678.5 723.5,-747.5 857.5,-747.5 857.5,-678.5 723.5,-678.5"/>
<text text-anchor="middle" x="790.5" y="-732.3" font-family="Times,serif" font-size="14.00">npfc.filter.Filter</text>
<polyline fill="none" stroke="black" points="723.5,-724.5 857.5,-724.5 "/>
<text text-anchor="start" x="731.5" y="-709.3" font-family="Times,serif" font-size="14.00">descriptors : dict</text>
<polyline fill="none" stroke="black" points="723.5,-701.5 857.5,-701.5 "/>
<text text-anchor="start" x="731.5" y="-686.3" font-family="Times,serif" font-size="14.00">filter_mol(mol, expr)</text>
</g>
<!-- 4 -->
<g id="node5" class="node"><title>4</title>
<polygon fill="none" stroke="black" points="1084,-52.5 1084,-122.5 1335,-122.5 1335,-52.5 1084,-52.5"/>
<text text-anchor="middle" x="1209.5" y="-107.3" font-family="Times,serif" font-size="14.00">npfc.report.ReporterFragmentCombination</text>
<polyline fill="none" stroke="black" points="1084,-99.5 1335,-99.5 "/>
<polyline fill="none" stroke="black" points="1084,-75.5 1335,-75.5 "/>
<text text-anchor="middle" x="1209.5" y="-60.3" font-family="Times,serif" font-size="14.00"> </text>
</g>
<!-- 5 -->
<g id="node6" class="node"><title>5</title>
<polygon fill="none" stroke="black" points="1353,-52.5 1353,-122.5 1638,-122.5 1638,-52.5 1353,-52.5"/>
<text text-anchor="middle" x="1495.5" y="-107.3" font-family="Times,serif" font-size="14.00">npfc.report.ReporterFragmentCombinationGraph</text>
<polyline fill="none" stroke="black" points="1353,-99.5 1638,-99.5 "/>
<polyline fill="none" stroke="black" points="1353,-75.5 1638,-75.5 "/>
<text text-anchor="middle" x="1495.5" y="-60.3" font-family="Times,serif" font-size="14.00"> </text>
</g>
<!-- 6 -->
<g id="node7" class="node"><title>6</title>
<polygon fill="none" stroke="black" points="1656,-52.5 1656,-122.5 1873,-122.5 1873,-52.5 1656,-52.5"/>
<text text-anchor="middle" x="1764.5" y="-107.3" font-family="Times,serif" font-size="14.00">npfc.report.ReporterFragmentSearch</text>
<polyline fill="none" stroke="black" points="1656,-99.5 1873,-99.5 "/>
<polyline fill="none" stroke="black" points="1656,-75.5 1873,-75.5 "/>
<text text-anchor="middle" x="1764.5" y="-60.3" font-family="Times,serif" font-size="14.00"> </text>
</g>
<!-- 7 -->
<g id="node8" class="node"><title>7</title>
<polygon fill="none" stroke="black" points="1891.5,-52.5 1891.5,-122.5 2043.5,-122.5 2043.5,-52.5 1891.5,-52.5"/>
<text text-anchor="middle" x="1967.5" y="-107.3" font-family="Times,serif" font-size="14.00">npfc.report.ReporterPNP</text>
<polyline fill="none" stroke="black" points="1891.5,-99.5 2043.5,-99.5 "/>
<polyline fill="none" stroke="black" points="1891.5,-75.5 2043.5,-75.5 "/>
<text text-anchor="middle" x="1967.5" y="-60.3" font-family="Times,serif" font-size="14.00"> </text>
</g>
<!-- 8 -->
<g id="node9" class="node"><title>8</title>
<polygon fill="none" stroke="black" points="2062,-52.5 2062,-122.5 2231,-122.5 2231,-52.5 2062,-52.5"/>
<text text-anchor="middle" x="2146.5" y="-107.3" font-family="Times,serif" font-size="14.00">npfc.report.ReporterProcess</text>
<polyline fill="none" stroke="black" points="2062,-99.5 2231,-99.5 "/>
<polyline fill="none" stroke="black" points="2062,-75.5 2231,-75.5 "/>
<text text-anchor="middle" x="2146.5" y="-60.3" font-family="Times,serif" font-size="14.00"> </text>
</g>
<!-- 9 -->
<g id="node10" class="node"><title>9</title>
<polygon fill="none" stroke="black" points="2248.5,-52.5 2248.5,-122.5 2406.5,-122.5 2406.5,-52.5 2248.5,-52.5"/>
<text text-anchor="middle" x="2327.5" y="-107.3" font-family="Times,serif" font-size="14.00">npfc.save.SafeHDF5Store</text>
<polyline fill="none" stroke="black" points="2248.5,-99.5 2406.5,-99.5 "/>
<polyline fill="none" stroke="black" points="2248.5,-75.5 2406.5,-75.5 "/>
<text text-anchor="middle" x="2327.5" y="-60.3" font-family="Times,serif" font-size="14.00"> </text>
</g>
<!-- 12 -->
<g id="node13" class="node"><title>12</title>
<polygon fill="none" stroke="black" points="1851.5,-226.5 1851.5,-640.5 2803.5,-640.5 2803.5,-226.5 1851.5,-226.5"/>
<text text-anchor="middle" x="2327.5" y="-625.3" font-family="Times,serif" font-size="14.00">pandas.io.pytables.HDFStore</text>
<polyline fill="none" stroke="black" points="1851.5,-617.5 2803.5,-617.5 "/>
<text text-anchor="start" x="1859.5" y="-602.3" font-family="Times,serif" font-size="14.00">filename</text>
<text text-anchor="start" x="1859.5" y="-587.3" font-family="Times,serif" font-size="14.00">is_open</text>
<text text-anchor="start" x="1859.5" y="-572.3" font-family="Times,serif" font-size="14.00">iteritems</text>
<text text-anchor="start" x="1859.5" y="-557.3" font-family="Times,serif" font-size="14.00">root</text>
<polyline fill="none" stroke="black" points="1851.5,-549.5 2803.5,-549.5 "/>
<text text-anchor="start" x="1859.5" y="-534.3" font-family="Times,serif" font-size="14.00">append(key, value, format, axes, index, append, complib, complevel, columns, min_itemsize, nan_rep, chunksize, expectedrows, dropna, data_columns, encoding, errors)</text>
<text text-anchor="start" x="1859.5" y="-519.3" font-family="Times,serif" font-size="14.00">append_to_multiple(d, value, selector, data_columns, axes, dropna)</text>
<text text-anchor="start" x="1859.5" y="-504.3" font-family="Times,serif" font-size="14.00">close()</text>
<text text-anchor="start" x="1859.5" y="-489.3" font-family="Times,serif" font-size="14.00">copy(file, mode, propindexes, keys, complib, complevel, fletcher32, overwrite)</text>
<text text-anchor="start" x="1859.5" y="-474.3" font-family="Times,serif" font-size="14.00">create_table_index(key, columns, optlevel, kind)</text>
<text text-anchor="start" x="1859.5" y="-459.3" font-family="Times,serif" font-size="14.00">flush(fsync)</text>
<text text-anchor="start" x="1859.5" y="-444.3" font-family="Times,serif" font-size="14.00">get(key)</text>
<text text-anchor="start" x="1859.5" y="-429.3" font-family="Times,serif" font-size="14.00">get_node(key)</text>
<text text-anchor="start" x="1859.5" y="-414.3" font-family="Times,serif" font-size="14.00">get_storer(key)</text>
<text text-anchor="start" x="1859.5" y="-399.3" font-family="Times,serif" font-size="14.00">groups()</text>
<text text-anchor="start" x="1859.5" y="-384.3" font-family="Times,serif" font-size="14.00">info()</text>
<text text-anchor="start" x="1859.5" y="-369.3" font-family="Times,serif" font-size="14.00">items()</text>
<text text-anchor="start" x="1859.5" y="-354.3" font-family="Times,serif" font-size="14.00">keys()</text>
<text text-anchor="start" x="1859.5" y="-339.3" font-family="Times,serif" font-size="14.00">open(mode)</text>
<text text-anchor="start" x="1859.5" y="-324.3" font-family="Times,serif" font-size="14.00">put(key, value, format, index, append, complib, complevel, min_itemsize, nan_rep, data_columns, encoding, errors)</text>
<text text-anchor="start" x="1859.5" y="-309.3" font-family="Times,serif" font-size="14.00">remove(key, where, start, stop)</text>
<text text-anchor="start" x="1859.5" y="-294.3" font-family="Times,serif" font-size="14.00">select(key, where, start, stop, columns, iterator, chunksize, auto_close)</text>
<text text-anchor="start" x="1859.5" y="-279.3" font-family="Times,serif" font-size="14.00">select_as_coordinates(key, where, start, stop)</text>
<text text-anchor="start" x="1859.5" y="-264.3" font-family="Times,serif" font-size="14.00">select_as_multiple(keys, where, selector, columns, start, stop, iterator, chunksize, auto_close)</text>
<text text-anchor="start" x="1859.5" y="-249.3" font-family="Times,serif" font-size="14.00">select_column(key, column, start, stop)</text>
<text text-anchor="start" x="1859.5" y="-234.3" font-family="Times,serif" font-size="14.00">walk(where)</text>
</g>
<!-- 9&#45;&gt;12 -->
<g id="edge1" class="edge"><title>9&#45;&gt;12</title>
<path fill="none" stroke="black" d="M2327.5,-122.742C2327.5,-146.275 2327.5,-179.739 2327.5,-216.039"/>
<polygon fill="none" stroke="black" points="2324,-216.347 2327.5,-226.347 2331,-216.347 2324,-216.347"/>
</g>
<!-- 10 -->
<g id="node11" class="node"><title>10</title>
<polygon fill="none" stroke="black" points="877.5,-30.5 877.5,-144.5 1065.5,-144.5 1065.5,-30.5 877.5,-30.5"/>
<text text-anchor="middle" x="971.5" y="-129.3" font-family="Times,serif" font-size="14.00">npfc.standardize.FullUncharger</text>
<polyline fill="none" stroke="black" points="877.5,-121.5 1065.5,-121.5 "/>
<text text-anchor="start" x="885.5" y="-106.3" font-family="Times,serif" font-size="14.00">q_neg_1</text>
<text text-anchor="start" x="885.5" y="-91.3" font-family="Times,serif" font-size="14.00">q_neg_2</text>
<text text-anchor="start" x="885.5" y="-76.3" font-family="Times,serif" font-size="14.00">q_pos_1</text>
<text text-anchor="start" x="885.5" y="-61.3" font-family="Times,serif" font-size="14.00">q_pos_2</text>
<polyline fill="none" stroke="black" points="877.5,-53.5 1065.5,-53.5 "/>
<text text-anchor="start" x="885.5" y="-38.3" font-family="Times,serif" font-size="14.00">full_uncharge(mol)</text>
</g>
<!-- 11 -->
<g id="node12" class="node"><title>11</title>
<polygon fill="none" stroke="black" points="671,-301.5 671,-565.5 910,-565.5 910,-301.5 671,-301.5"/>
<text text-anchor="middle" x="790.5" y="-550.3" font-family="Times,serif" font-size="14.00">npfc.standardize.Standardizer</text>
<polyline fill="none" stroke="black" points="671,-542.5 910,-542.5 "/>
<text text-anchor="start" x="679" y="-527.3" font-family="Times,serif" font-size="14.00">canonicalizer : TautomerCanonicalizer</text>
<text text-anchor="start" x="679" y="-512.3" font-family="Times,serif" font-size="14.00">col_id</text>
<text text-anchor="start" x="679" y="-497.3" font-family="Times,serif" font-size="14.00">col_mol</text>
<text text-anchor="start" x="679" y="-482.3" font-family="Times,serif" font-size="14.00">elements_medchem</text>
<text text-anchor="start" x="679" y="-467.3" font-family="Times,serif" font-size="14.00">full_uncharger</text>
<text text-anchor="start" x="679" y="-452.3" font-family="Times,serif" font-size="14.00">metal_disconnector : MetalDisconnector</text>
<text text-anchor="start" x="679" y="-437.3" font-family="Times,serif" font-size="14.00">normalizer : Normalizer</text>
<text text-anchor="start" x="679" y="-422.3" font-family="Times,serif" font-size="14.00">protocol</text>
<text text-anchor="start" x="679" y="-407.3" font-family="Times,serif" font-size="14.00">timeout</text>
<polyline fill="none" stroke="black" points="671,-399.5 910,-399.5 "/>
<text text-anchor="start" x="679" y="-384.3" font-family="Times,serif" font-size="14.00">clear_isotopes(mol)</text>
<text text-anchor="start" x="679" y="-369.3" font-family="Times,serif" font-size="14.00">clear_side_chains(mol, debug)</text>
<text text-anchor="start" x="679" y="-354.3" font-family="Times,serif" font-size="14.00">deglycosylate(mol, mode)</text>
<text text-anchor="start" x="679" y="-339.3" font-family="Times,serif" font-size="14.00">keep_best(mol)</text>
<text text-anchor="start" x="679" y="-324.3" font-family="Times,serif" font-size="14.00">run(mol, timeout)</text>
<text text-anchor="start" x="679" y="-309.3" font-family="Times,serif" font-size="14.00">run_df(df)</text>
</g>
<!-- 10&#45;&gt;11 -->
<g id="edge4" class="edge"><title>10&#45;&gt;11</title>
<path fill="none" stroke="black" d="M942.016,-144.535C921.161,-184.171 892.214,-239.187 865.205,-290.52"/>
<polygon fill="black" stroke="black" points="865.062,-290.792 865.808,-297.964 859.474,-301.411 858.728,-294.239 865.062,-290.792"/>
<text text-anchor="middle" x="953.5" y="-196.8" font-family="Times,serif" font-size="14.00" fill="green">full_uncharger</text>
</g>
<!-- 13 -->
<g id="node14" class="node"><title>13</title>
<polygon fill="none" stroke="black" points="928.5,-398.5 928.5,-468.5 1198.5,-468.5 1198.5,-398.5 928.5,-398.5"/>
<text text-anchor="middle" x="1063.5" y="-453.3" font-family="Times,serif" font-size="14.00">rdkit.Chem.MolStandardize.charge.Uncharger</text>
<polyline fill="none" stroke="black" points="928.5,-445.5 1198.5,-445.5 "/>
<polyline fill="none" stroke="black" points="928.5,-421.5 1198.5,-421.5 "/>
<text text-anchor="start" x="936.5" y="-406.3" font-family="Times,serif" font-size="14.00">uncharge(mol)</text>
</g>
<!-- 10&#45;&gt;13 -->
<g id="edge2" class="edge"><title>10&#45;&gt;13</title>
<path fill="none" stroke="black" d="M986.486,-144.535C1004.72,-212.705 1035.12,-326.366 1051.75,-388.549"/>
<polygon fill="none" stroke="black" points="1048.43,-389.683 1054.39,-398.439 1055.19,-387.874 1048.43,-389.683"/>
</g>
<!-- 11&#45;&gt;3 -->
<g id="edge3" class="edge"><title>11&#45;&gt;3</title>
<path fill="none" stroke="black" d="M790.5,-565.53C790.5,-602.488 790.5,-640.178 790.5,-668.069"/>
<polygon fill="none" stroke="black" points="787,-668.256 790.5,-678.256 794,-668.256 787,-668.256"/>
</g>
</g>
</svg>
