<?xml version="1.0" encoding="UTF-8" standalone="no"?>
<!DOCTYPE svg PUBLIC "-//W3C//DTD SVG 1.1//EN"
 "http://www.w3.org/Graphics/SVG/1.1/DTD/svg11.dtd">
<!-- Generated by graphviz version 2.38.0 (20140413.2041)
 -->
<!-- Title: classes_npfc Pages: 1 -->
<svg width="2602pt" height="756pt"
 viewBox="0.00 0.00 2602.00 756.00" xmlns="http://www.w3.org/2000/svg" xmlns:xlink="http://www.w3.org/1999/xlink">
<g id="graph0" class="graph" transform="scale(1 1) rotate(0) translate(4 752)">
<title>classes_npfc</title>
<polygon fill="white" stroke="none" points="-4,4 -4,-752 2598,-752 2598,4 -4,4"/>
<!-- 0 -->
<g id="node1" class="node"><title>0</title>
<polygon fill="none" stroke="black" points="0,-30.5 0,-144.5 278,-144.5 278,-30.5 0,-30.5"/>
<text text-anchor="middle" x="139" y="-129.3" font-family="Times,serif" font-size="14.00">npfc.draw.ColorMap</text>
<polyline fill="none" stroke="black" points="0,-121.5 278,-121.5 "/>
<text text-anchor="start" x="8" y="-106.3" font-family="Times,serif" font-size="14.00">atoms : dict</text>
<text text-anchor="start" x="8" y="-91.3" font-family="Times,serif" font-size="14.00">bonds : dict</text>
<text text-anchor="start" x="8" y="-76.3" font-family="Times,serif" font-size="14.00">fragments : dict</text>
<text text-anchor="start" x="8" y="-61.3" font-family="Times,serif" font-size="14.00">palette : _ColorPalette, NoneType, OrderedDict</text>
<polyline fill="none" stroke="black" points="0,-53.5 278,-53.5 "/>
<text text-anchor="start" x="8" y="-38.3" font-family="Times,serif" font-size="14.00">blend()</text>
</g>
<!-- 1 -->
<g id="node2" class="node"><title>1</title>
<polygon fill="none" stroke="black" points="296,-0.5 296,-174.5 650,-174.5 650,-0.5 296,-0.5"/>
<text text-anchor="middle" x="473" y="-159.3" font-family="Times,serif" font-size="14.00">npfc.draw.DepictionValidator</text>
<polyline fill="none" stroke="black" points="296,-151.5 650,-151.5 "/>
<text text-anchor="start" x="304" y="-136.3" font-family="Times,serif" font-size="14.00">bonds</text>
<text text-anchor="start" x="304" y="-121.3" font-family="Times,serif" font-size="14.00">conformer</text>
<text text-anchor="start" x="304" y="-106.3" font-family="Times,serif" font-size="14.00">kd_tree : KDTree</text>
<text text-anchor="start" x="304" y="-91.3" font-family="Times,serif" font-size="14.00">mol</text>
<polyline fill="none" stroke="black" points="296,-83.5 650,-83.5 "/>
<text text-anchor="start" x="304" y="-68.3" font-family="Times,serif" font-size="14.00">count_bond_collisions()</text>
<text text-anchor="start" x="304" y="-53.3" font-family="Times,serif" font-size="14.00">count_suboptimal_atom_positions(lowerBound, upperBound)</text>
<text text-anchor="start" x="304" y="-38.3" font-family="Times,serif" font-size="14.00">depiction_score()</text>
<text text-anchor="start" x="304" y="-23.3" font-family="Times,serif" font-size="14.00">has_bond_crossing()</text>
<text text-anchor="start" x="304" y="-8.3" font-family="Times,serif" font-size="14.00">has_degenerated_atom_positions(threshold)</text>
</g>
<!-- 2 -->
<g id="node3" class="node"><title>2</title>
<polygon fill="none" stroke="black" points="514,-678.5 514,-747.5 648,-747.5 648,-678.5 514,-678.5"/>
<text text-anchor="middle" x="581" y="-732.3" font-family="Times,serif" font-size="14.00">npfc.filter.Filter</text>
<polyline fill="none" stroke="black" points="514,-724.5 648,-724.5 "/>
<text text-anchor="start" x="522" y="-709.3" font-family="Times,serif" font-size="14.00">descriptors : dict</text>
<polyline fill="none" stroke="black" points="514,-701.5 648,-701.5 "/>
<text text-anchor="start" x="522" y="-686.3" font-family="Times,serif" font-size="14.00">filter_mol(mol, expr)</text>
</g>
<!-- 3 -->
<g id="node4" class="node"><title>3</title>
<polygon fill="none" stroke="black" points="874.5,-52.5 874.5,-122.5 1125.5,-122.5 1125.5,-52.5 874.5,-52.5"/>
<text text-anchor="middle" x="1000" y="-107.3" font-family="Times,serif" font-size="14.00">npfc.report.ReporterFragmentCombination</text>
<polyline fill="none" stroke="black" points="874.5,-99.5 1125.5,-99.5 "/>
<polyline fill="none" stroke="black" points="874.5,-75.5 1125.5,-75.5 "/>
<text text-anchor="middle" x="1000" y="-60.3" font-family="Times,serif" font-size="14.00"> </text>
</g>
<!-- 4 -->
<g id="node5" class="node"><title>4</title>
<polygon fill="none" stroke="black" points="1143.5,-52.5 1143.5,-122.5 1428.5,-122.5 1428.5,-52.5 1143.5,-52.5"/>
<text text-anchor="middle" x="1286" y="-107.3" font-family="Times,serif" font-size="14.00">npfc.report.ReporterFragmentCombinationGraph</text>
<polyline fill="none" stroke="black" points="1143.5,-99.5 1428.5,-99.5 "/>
<polyline fill="none" stroke="black" points="1143.5,-75.5 1428.5,-75.5 "/>
<text text-anchor="middle" x="1286" y="-60.3" font-family="Times,serif" font-size="14.00"> </text>
</g>
<!-- 5 -->
<g id="node6" class="node"><title>5</title>
<polygon fill="none" stroke="black" points="1446.5,-52.5 1446.5,-122.5 1663.5,-122.5 1663.5,-52.5 1446.5,-52.5"/>
<text text-anchor="middle" x="1555" y="-107.3" font-family="Times,serif" font-size="14.00">npfc.report.ReporterFragmentSearch</text>
<polyline fill="none" stroke="black" points="1446.5,-99.5 1663.5,-99.5 "/>
<polyline fill="none" stroke="black" points="1446.5,-75.5 1663.5,-75.5 "/>
<text text-anchor="middle" x="1555" y="-60.3" font-family="Times,serif" font-size="14.00"> </text>
</g>
<!-- 6 -->
<g id="node7" class="node"><title>6</title>
<polygon fill="none" stroke="black" points="1682,-52.5 1682,-122.5 1834,-122.5 1834,-52.5 1682,-52.5"/>
<text text-anchor="middle" x="1758" y="-107.3" font-family="Times,serif" font-size="14.00">npfc.report.ReporterPNP</text>
<polyline fill="none" stroke="black" points="1682,-99.5 1834,-99.5 "/>
<polyline fill="none" stroke="black" points="1682,-75.5 1834,-75.5 "/>
<text text-anchor="middle" x="1758" y="-60.3" font-family="Times,serif" font-size="14.00"> </text>
</g>
<!-- 7 -->
<g id="node8" class="node"><title>7</title>
<polygon fill="none" stroke="black" points="1852.5,-52.5 1852.5,-122.5 2021.5,-122.5 2021.5,-52.5 1852.5,-52.5"/>
<text text-anchor="middle" x="1937" y="-107.3" font-family="Times,serif" font-size="14.00">npfc.report.ReporterProcess</text>
<polyline fill="none" stroke="black" points="1852.5,-99.5 2021.5,-99.5 "/>
<polyline fill="none" stroke="black" points="1852.5,-75.5 2021.5,-75.5 "/>
<text text-anchor="middle" x="1937" y="-60.3" font-family="Times,serif" font-size="14.00"> </text>
</g>
<!-- 8 -->
<g id="node9" class="node"><title>8</title>
<polygon fill="none" stroke="black" points="2039,-52.5 2039,-122.5 2197,-122.5 2197,-52.5 2039,-52.5"/>
<text text-anchor="middle" x="2118" y="-107.3" font-family="Times,serif" font-size="14.00">npfc.save.SafeHDF5Store</text>
<polyline fill="none" stroke="black" points="2039,-99.5 2197,-99.5 "/>
<polyline fill="none" stroke="black" points="2039,-75.5 2197,-75.5 "/>
<text text-anchor="middle" x="2118" y="-60.3" font-family="Times,serif" font-size="14.00"> </text>
</g>
<!-- 11 -->
<g id="node12" class="node"><title>11</title>
<polygon fill="none" stroke="black" points="1642,-226.5 1642,-640.5 2594,-640.5 2594,-226.5 1642,-226.5"/>
<text text-anchor="middle" x="2118" y="-625.3" font-family="Times,serif" font-size="14.00">pandas.io.pytables.HDFStore</text>
<polyline fill="none" stroke="black" points="1642,-617.5 2594,-617.5 "/>
<text text-anchor="start" x="1650" y="-602.3" font-family="Times,serif" font-size="14.00">filename</text>
<text text-anchor="start" x="1650" y="-587.3" font-family="Times,serif" font-size="14.00">is_open</text>
<text text-anchor="start" x="1650" y="-572.3" font-family="Times,serif" font-size="14.00">iteritems</text>
<text text-anchor="start" x="1650" y="-557.3" font-family="Times,serif" font-size="14.00">root</text>
<polyline fill="none" stroke="black" points="1642,-549.5 2594,-549.5 "/>
<text text-anchor="start" x="1650" y="-534.3" font-family="Times,serif" font-size="14.00">append(key, value, format, axes, index, append, complib, complevel, columns, min_itemsize, nan_rep, chunksize, expectedrows, dropna, data_columns, encoding, errors)</text>
<text text-anchor="start" x="1650" y="-519.3" font-family="Times,serif" font-size="14.00">append_to_multiple(d, value, selector, data_columns, axes, dropna)</text>
<text text-anchor="start" x="1650" y="-504.3" font-family="Times,serif" font-size="14.00">close()</text>
<text text-anchor="start" x="1650" y="-489.3" font-family="Times,serif" font-size="14.00">copy(file, mode, propindexes, keys, complib, complevel, fletcher32, overwrite)</text>
<text text-anchor="start" x="1650" y="-474.3" font-family="Times,serif" font-size="14.00">create_table_index(key, columns, optlevel, kind)</text>
<text text-anchor="start" x="1650" y="-459.3" font-family="Times,serif" font-size="14.00">flush(fsync)</text>
<text text-anchor="start" x="1650" y="-444.3" font-family="Times,serif" font-size="14.00">get(key)</text>
<text text-anchor="start" x="1650" y="-429.3" font-family="Times,serif" font-size="14.00">get_node(key)</text>
<text text-anchor="start" x="1650" y="-414.3" font-family="Times,serif" font-size="14.00">get_storer(key)</text>
<text text-anchor="start" x="1650" y="-399.3" font-family="Times,serif" font-size="14.00">groups()</text>
<text text-anchor="start" x="1650" y="-384.3" font-family="Times,serif" font-size="14.00">info()</text>
<text text-anchor="start" x="1650" y="-369.3" font-family="Times,serif" font-size="14.00">items()</text>
<text text-anchor="start" x="1650" y="-354.3" font-family="Times,serif" font-size="14.00">keys()</text>
<text text-anchor="start" x="1650" y="-339.3" font-family="Times,serif" font-size="14.00">open(mode)</text>
<text text-anchor="start" x="1650" y="-324.3" font-family="Times,serif" font-size="14.00">put(key, value, format, index, append, complib, complevel, min_itemsize, nan_rep, data_columns, encoding, errors)</text>
<text text-anchor="start" x="1650" y="-309.3" font-family="Times,serif" font-size="14.00">remove(key, where, start, stop)</text>
<text text-anchor="start" x="1650" y="-294.3" font-family="Times,serif" font-size="14.00">select(key, where, start, stop, columns, iterator, chunksize, auto_close)</text>
<text text-anchor="start" x="1650" y="-279.3" font-family="Times,serif" font-size="14.00">select_as_coordinates(key, where, start, stop)</text>
<text text-anchor="start" x="1650" y="-264.3" font-family="Times,serif" font-size="14.00">select_as_multiple(keys, where, selector, columns, start, stop, iterator, chunksize, auto_close)</text>
<text text-anchor="start" x="1650" y="-249.3" font-family="Times,serif" font-size="14.00">select_column(key, column, start, stop)</text>
<text text-anchor="start" x="1650" y="-234.3" font-family="Times,serif" font-size="14.00">walk(where)</text>
</g>
<!-- 8&#45;&gt;11 -->
<g id="edge1" class="edge"><title>8&#45;&gt;11</title>
<path fill="none" stroke="black" d="M2118,-122.742C2118,-146.275 2118,-179.739 2118,-216.039"/>
<polygon fill="none" stroke="black" points="2114.5,-216.347 2118,-226.347 2121.5,-216.347 2114.5,-216.347"/>
</g>
<!-- 9 -->
<g id="node10" class="node"><title>9</title>
<polygon fill="none" stroke="black" points="668,-30.5 668,-144.5 856,-144.5 856,-30.5 668,-30.5"/>
<text text-anchor="middle" x="762" y="-129.3" font-family="Times,serif" font-size="14.00">npfc.standardize.FullUncharger</text>
<polyline fill="none" stroke="black" points="668,-121.5 856,-121.5 "/>
<text text-anchor="start" x="676" y="-106.3" font-family="Times,serif" font-size="14.00">q_neg_1</text>
<text text-anchor="start" x="676" y="-91.3" font-family="Times,serif" font-size="14.00">q_neg_2</text>
<text text-anchor="start" x="676" y="-76.3" font-family="Times,serif" font-size="14.00">q_pos_1</text>
<text text-anchor="start" x="676" y="-61.3" font-family="Times,serif" font-size="14.00">q_pos_2</text>
<polyline fill="none" stroke="black" points="668,-53.5 856,-53.5 "/>
<text text-anchor="start" x="676" y="-38.3" font-family="Times,serif" font-size="14.00">full_uncharge(mol)</text>
</g>
<!-- 10 -->
<g id="node11" class="node"><title>10</title>
<polygon fill="none" stroke="black" points="461.5,-301.5 461.5,-565.5 700.5,-565.5 700.5,-301.5 461.5,-301.5"/>
<text text-anchor="middle" x="581" y="-550.3" font-family="Times,serif" font-size="14.00">npfc.standardize.Standardizer</text>
<polyline fill="none" stroke="black" points="461.5,-542.5 700.5,-542.5 "/>
<text text-anchor="start" x="469.5" y="-527.3" font-family="Times,serif" font-size="14.00">canonicalizer : TautomerCanonicalizer</text>
<text text-anchor="start" x="469.5" y="-512.3" font-family="Times,serif" font-size="14.00">col_id</text>
<text text-anchor="start" x="469.5" y="-497.3" font-family="Times,serif" font-size="14.00">col_mol</text>
<text text-anchor="start" x="469.5" y="-482.3" font-family="Times,serif" font-size="14.00">elements_medchem</text>
<text text-anchor="start" x="469.5" y="-467.3" font-family="Times,serif" font-size="14.00">full_uncharger</text>
<text text-anchor="start" x="469.5" y="-452.3" font-family="Times,serif" font-size="14.00">metal_disconnector : MetalDisconnector</text>
<text text-anchor="start" x="469.5" y="-437.3" font-family="Times,serif" font-size="14.00">normalizer : Normalizer</text>
<text text-anchor="start" x="469.5" y="-422.3" font-family="Times,serif" font-size="14.00">protocol</text>
<text text-anchor="start" x="469.5" y="-407.3" font-family="Times,serif" font-size="14.00">timeout</text>
<polyline fill="none" stroke="black" points="461.5,-399.5 700.5,-399.5 "/>
<text text-anchor="start" x="469.5" y="-384.3" font-family="Times,serif" font-size="14.00">clear_isotopes(mol)</text>
<text text-anchor="start" x="469.5" y="-369.3" font-family="Times,serif" font-size="14.00">clear_side_chains(mol, debug)</text>
<text text-anchor="start" x="469.5" y="-354.3" font-family="Times,serif" font-size="14.00">deglycosylate(mol, mode)</text>
<text text-anchor="start" x="469.5" y="-339.3" font-family="Times,serif" font-size="14.00">keep_best(mol)</text>
<text text-anchor="start" x="469.5" y="-324.3" font-family="Times,serif" font-size="14.00">run(mol, timeout)</text>
<text text-anchor="start" x="469.5" y="-309.3" font-family="Times,serif" font-size="14.00">run_df(df)</text>
</g>
<!-- 9&#45;&gt;10 -->
<g id="edge4" class="edge"><title>9&#45;&gt;10</title>
<path fill="none" stroke="black" d="M732.516,-144.535C711.661,-184.171 682.714,-239.187 655.705,-290.52"/>
<polygon fill="black" stroke="black" points="655.562,-290.792 656.308,-297.964 649.974,-301.411 649.228,-294.239 655.562,-290.792"/>
<text text-anchor="middle" x="744" y="-196.8" font-family="Times,serif" font-size="14.00" fill="green">full_uncharger</text>
</g>
<!-- 12 -->
<g id="node13" class="node"><title>12</title>
<polygon fill="none" stroke="black" points="719,-398.5 719,-468.5 989,-468.5 989,-398.5 719,-398.5"/>
<text text-anchor="middle" x="854" y="-453.3" font-family="Times,serif" font-size="14.00">rdkit.Chem.MolStandardize.charge.Uncharger</text>
<polyline fill="none" stroke="black" points="719,-445.5 989,-445.5 "/>
<polyline fill="none" stroke="black" points="719,-421.5 989,-421.5 "/>
<text text-anchor="start" x="727" y="-406.3" font-family="Times,serif" font-size="14.00">uncharge(mol)</text>
</g>
<!-- 9&#45;&gt;12 -->
<g id="edge2" class="edge"><title>9&#45;&gt;12</title>
<path fill="none" stroke="black" d="M776.986,-144.535C795.218,-212.705 825.615,-326.366 842.246,-388.549"/>
<polygon fill="none" stroke="black" points="838.926,-389.683 844.891,-398.439 845.688,-387.874 838.926,-389.683"/>
</g>
<!-- 10&#45;&gt;2 -->
<g id="edge3" class="edge"><title>10&#45;&gt;2</title>
<path fill="none" stroke="black" d="M581,-565.53C581,-602.488 581,-640.178 581,-668.069"/>
<polygon fill="none" stroke="black" points="577.5,-668.256 581,-678.256 584.5,-668.256 577.5,-668.256"/>
</g>
</g>
</svg>
