<?xml version="1.0" encoding="UTF-8" standalone="no"?>
<!DOCTYPE svg PUBLIC "-//W3C//DTD SVG 1.1//EN"
 "http://www.w3.org/Graphics/SVG/1.1/DTD/svg11.dtd">
<!-- Generated by graphviz version 2.40.1 (20161225.0304)
 -->
<!-- Title: classes_npfc Pages: 1 -->
<svg width="939pt" height="696pt"
 viewBox="0.00 0.00 939.00 696.00" xmlns="http://www.w3.org/2000/svg" xmlns:xlink="http://www.w3.org/1999/xlink">
<g id="graph0" class="graph" transform="scale(1 1) rotate(0) translate(4 692)">
<title>classes_npfc</title>
<polygon fill="#ffffff" stroke="transparent" points="-4,4 -4,-692 935,-692 935,4 -4,4"/>
<!-- 0 -->
<g id="node1" class="node">
<title>0</title>
<polygon fill="none" stroke="#000000" points="0,-.5 0,-114.5 230,-114.5 230,-.5 0,-.5"/>
<text text-anchor="middle" x="115" y="-99.3" font-family="Times,serif" font-size="14.00" fill="#000000">npfc.draw.ColorMap</text>
<polyline fill="none" stroke="#000000" points="0,-91.5 230,-91.5 "/>
<text text-anchor="start" x="8" y="-76.3" font-family="Times,serif" font-size="14.00" fill="#000000">atoms : dict</text>
<text text-anchor="start" x="8" y="-61.3" font-family="Times,serif" font-size="14.00" fill="#000000">bonds : dict</text>
<text text-anchor="start" x="8" y="-46.3" font-family="Times,serif" font-size="14.00" fill="#000000">fragments : dict</text>
<text text-anchor="start" x="8" y="-31.3" font-family="Times,serif" font-size="14.00" fill="#000000">palette : NoneType, dict, _ColorPalette</text>
<polyline fill="none" stroke="#000000" points="0,-23.5 230,-23.5 "/>
<text text-anchor="start" x="8" y="-8.3" font-family="Times,serif" font-size="14.00" fill="#000000">blend()</text>
</g>
<!-- 1 -->
<g id="node2" class="node">
<title>1</title>
<polygon fill="none" stroke="#000000" points="248,-8 248,-107 398,-107 398,-8 248,-8"/>
<text text-anchor="middle" x="323" y="-91.8" font-family="Times,serif" font-size="14.00" fill="#000000">npfc.draw0.ColorMap</text>
<polyline fill="none" stroke="#000000" points="248,-84 398,-84 "/>
<text text-anchor="start" x="256" y="-68.8" font-family="Times,serif" font-size="14.00" fill="#000000">atoms</text>
<text text-anchor="start" x="256" y="-53.8" font-family="Times,serif" font-size="14.00" fill="#000000">bonds</text>
<text text-anchor="start" x="256" y="-38.8" font-family="Times,serif" font-size="14.00" fill="#000000">fragments : OrderedDict</text>
<polyline fill="none" stroke="#000000" points="248,-31 398,-31 "/>
<text text-anchor="middle" x="323" y="-15.8" font-family="Times,serif" font-size="14.00" fill="#000000"> </text>
</g>
<!-- 2 -->
<g id="node3" class="node">
<title>2</title>
<polygon fill="none" stroke="#000000" points="275.5,-618.5 275.5,-687.5 382.5,-687.5 382.5,-618.5 275.5,-618.5"/>
<text text-anchor="middle" x="329" y="-672.3" font-family="Times,serif" font-size="14.00" fill="#000000">npfc.filter.Filter</text>
<polyline fill="none" stroke="#000000" points="275.5,-664.5 382.5,-664.5 "/>
<text text-anchor="start" x="283.5" y="-649.3" font-family="Times,serif" font-size="14.00" fill="#000000">descriptors : dict</text>
<polyline fill="none" stroke="#000000" points="275.5,-641.5 382.5,-641.5 "/>
<text text-anchor="start" x="283.5" y="-626.3" font-family="Times,serif" font-size="14.00" fill="#000000">filter_mol()</text>
</g>
<!-- 3 -->
<g id="node4" class="node">
<title>3</title>
<polygon fill="none" stroke="#000000" points="764,-22.5 764,-92.5 922,-92.5 922,-22.5 764,-22.5"/>
<text text-anchor="middle" x="843" y="-77.3" font-family="Times,serif" font-size="14.00" fill="#000000">npfc.save.SafeHDF5Store</text>
<polyline fill="none" stroke="#000000" points="764,-69.5 922,-69.5 "/>
<polyline fill="none" stroke="#000000" points="764,-45.5 922,-45.5 "/>
<text text-anchor="middle" x="843" y="-30.3" font-family="Times,serif" font-size="14.00" fill="#000000"> </text>
</g>
<!-- 6 -->
<g id="node7" class="node">
<title>6</title>
<polygon fill="none" stroke="#000000" points="755,-166.5 755,-580.5 931,-580.5 931,-166.5 755,-166.5"/>
<text text-anchor="middle" x="843" y="-565.3" font-family="Times,serif" font-size="14.00" fill="#000000">pandas.io.pytables.HDFStore</text>
<polyline fill="none" stroke="#000000" points="755,-557.5 931,-557.5 "/>
<text text-anchor="start" x="763" y="-542.3" font-family="Times,serif" font-size="14.00" fill="#000000">filename</text>
<text text-anchor="start" x="763" y="-527.3" font-family="Times,serif" font-size="14.00" fill="#000000">is_open</text>
<text text-anchor="start" x="763" y="-512.3" font-family="Times,serif" font-size="14.00" fill="#000000">iteritems</text>
<text text-anchor="start" x="763" y="-497.3" font-family="Times,serif" font-size="14.00" fill="#000000">root</text>
<polyline fill="none" stroke="#000000" points="755,-489.5 931,-489.5 "/>
<text text-anchor="start" x="763" y="-474.3" font-family="Times,serif" font-size="14.00" fill="#000000">append()</text>
<text text-anchor="start" x="763" y="-459.3" font-family="Times,serif" font-size="14.00" fill="#000000">append_to_multiple()</text>
<text text-anchor="start" x="763" y="-444.3" font-family="Times,serif" font-size="14.00" fill="#000000">close()</text>
<text text-anchor="start" x="763" y="-429.3" font-family="Times,serif" font-size="14.00" fill="#000000">copy()</text>
<text text-anchor="start" x="763" y="-414.3" font-family="Times,serif" font-size="14.00" fill="#000000">create_table_index()</text>
<text text-anchor="start" x="763" y="-399.3" font-family="Times,serif" font-size="14.00" fill="#000000">flush()</text>
<text text-anchor="start" x="763" y="-384.3" font-family="Times,serif" font-size="14.00" fill="#000000">get()</text>
<text text-anchor="start" x="763" y="-369.3" font-family="Times,serif" font-size="14.00" fill="#000000">get_node()</text>
<text text-anchor="start" x="763" y="-354.3" font-family="Times,serif" font-size="14.00" fill="#000000">get_storer()</text>
<text text-anchor="start" x="763" y="-339.3" font-family="Times,serif" font-size="14.00" fill="#000000">groups()</text>
<text text-anchor="start" x="763" y="-324.3" font-family="Times,serif" font-size="14.00" fill="#000000">info()</text>
<text text-anchor="start" x="763" y="-309.3" font-family="Times,serif" font-size="14.00" fill="#000000">items()</text>
<text text-anchor="start" x="763" y="-294.3" font-family="Times,serif" font-size="14.00" fill="#000000">keys()</text>
<text text-anchor="start" x="763" y="-279.3" font-family="Times,serif" font-size="14.00" fill="#000000">open()</text>
<text text-anchor="start" x="763" y="-264.3" font-family="Times,serif" font-size="14.00" fill="#000000">put()</text>
<text text-anchor="start" x="763" y="-249.3" font-family="Times,serif" font-size="14.00" fill="#000000">remove()</text>
<text text-anchor="start" x="763" y="-234.3" font-family="Times,serif" font-size="14.00" fill="#000000">select()</text>
<text text-anchor="start" x="763" y="-219.3" font-family="Times,serif" font-size="14.00" fill="#000000">select_as_coordinates()</text>
<text text-anchor="start" x="763" y="-204.3" font-family="Times,serif" font-size="14.00" fill="#000000">select_as_multiple()</text>
<text text-anchor="start" x="763" y="-189.3" font-family="Times,serif" font-size="14.00" fill="#000000">select_column()</text>
<text text-anchor="start" x="763" y="-174.3" font-family="Times,serif" font-size="14.00" fill="#000000">walk()</text>
</g>
<!-- 3&#45;&gt;6 -->
<g id="edge1" class="edge">
<title>3&#45;&gt;6</title>
<path fill="none" stroke="#000000" d="M843,-92.5249C843,-109.6142 843,-131.7264 843,-156.0378"/>
<polygon fill="none" stroke="#000000" points="839.5001,-156.2043 843,-166.2044 846.5001,-156.2044 839.5001,-156.2043"/>
</g>
<!-- 4 -->
<g id="node5" class="node">
<title>4</title>
<polygon fill="none" stroke="#000000" points="416,-.5 416,-114.5 604,-114.5 604,-.5 416,-.5"/>
<text text-anchor="middle" x="510" y="-99.3" font-family="Times,serif" font-size="14.00" fill="#000000">npfc.standardize.FullUncharger</text>
<polyline fill="none" stroke="#000000" points="416,-91.5 604,-91.5 "/>
<text text-anchor="start" x="424" y="-76.3" font-family="Times,serif" font-size="14.00" fill="#000000">q_neg_1</text>
<text text-anchor="start" x="424" y="-61.3" font-family="Times,serif" font-size="14.00" fill="#000000">q_neg_2</text>
<text text-anchor="start" x="424" y="-46.3" font-family="Times,serif" font-size="14.00" fill="#000000">q_pos_1</text>
<text text-anchor="start" x="424" y="-31.3" font-family="Times,serif" font-size="14.00" fill="#000000">q_pos_2</text>
<polyline fill="none" stroke="#000000" points="416,-23.5 604,-23.5 "/>
<text text-anchor="start" x="424" y="-8.3" font-family="Times,serif" font-size="14.00" fill="#000000">full_uncharge()</text>
</g>
<!-- 5 -->
<g id="node6" class="node">
<title>5</title>
<polygon fill="none" stroke="#000000" points="209.5,-241.5 209.5,-505.5 448.5,-505.5 448.5,-241.5 209.5,-241.5"/>
<text text-anchor="middle" x="329" y="-490.3" font-family="Times,serif" font-size="14.00" fill="#000000">npfc.standardize.Standardizer</text>
<polyline fill="none" stroke="#000000" points="209.5,-482.5 448.5,-482.5 "/>
<text text-anchor="start" x="217.5" y="-467.3" font-family="Times,serif" font-size="14.00" fill="#000000">canonicalizer : TautomerCanonicalizer</text>
<text text-anchor="start" x="217.5" y="-452.3" font-family="Times,serif" font-size="14.00" fill="#000000">col_id</text>
<text text-anchor="start" x="217.5" y="-437.3" font-family="Times,serif" font-size="14.00" fill="#000000">col_mol</text>
<text text-anchor="start" x="217.5" y="-422.3" font-family="Times,serif" font-size="14.00" fill="#000000">elements_medchem</text>
<text text-anchor="start" x="217.5" y="-407.3" font-family="Times,serif" font-size="14.00" fill="#000000">full_uncharger</text>
<text text-anchor="start" x="217.5" y="-392.3" font-family="Times,serif" font-size="14.00" fill="#000000">metal_disconnector : MetalDisconnector</text>
<text text-anchor="start" x="217.5" y="-377.3" font-family="Times,serif" font-size="14.00" fill="#000000">normalizer : Normalizer</text>
<text text-anchor="start" x="217.5" y="-362.3" font-family="Times,serif" font-size="14.00" fill="#000000">protocol</text>
<text text-anchor="start" x="217.5" y="-347.3" font-family="Times,serif" font-size="14.00" fill="#000000">timeout</text>
<polyline fill="none" stroke="#000000" points="209.5,-339.5 448.5,-339.5 "/>
<text text-anchor="start" x="217.5" y="-324.3" font-family="Times,serif" font-size="14.00" fill="#000000">clear_isotopes()</text>
<text text-anchor="start" x="217.5" y="-309.3" font-family="Times,serif" font-size="14.00" fill="#000000">clear_side_chains()</text>
<text text-anchor="start" x="217.5" y="-294.3" font-family="Times,serif" font-size="14.00" fill="#000000">deglycosylate()</text>
<text text-anchor="start" x="217.5" y="-279.3" font-family="Times,serif" font-size="14.00" fill="#000000">keep_best()</text>
<text text-anchor="start" x="217.5" y="-264.3" font-family="Times,serif" font-size="14.00" fill="#000000">run()</text>
<text text-anchor="start" x="217.5" y="-249.3" font-family="Times,serif" font-size="14.00" fill="#000000">run_df()</text>
</g>
<!-- 4&#45;&gt;5 -->
<g id="edge4" class="edge">
<title>4&#45;&gt;5</title>
<path fill="none" stroke="#000000" d="M461.7208,-114.6653C457.2399,-120.7261 452.9175,-126.9042 449,-133 429.3946,-163.507 410.6338,-197.6555 394.0114,-230.4232"/>
<polygon fill="#000000" stroke="#000000" points="393.8458,-230.7529 394.7262,-237.9101 388.4582,-241.4755 387.5778,-234.3183 393.8458,-230.7529"/>
<text text-anchor="middle" x="489" y="-136.8" font-family="Times,serif" font-size="14.00" fill="#00ff00">full_uncharger</text>
</g>
<!-- 7 -->
<g id="node8" class="node">
<title>7</title>
<polygon fill="none" stroke="#000000" points="467,-338.5 467,-408.5 737,-408.5 737,-338.5 467,-338.5"/>
<text text-anchor="middle" x="602" y="-393.3" font-family="Times,serif" font-size="14.00" fill="#000000">rdkit.Chem.MolStandardize.charge.Uncharger</text>
<polyline fill="none" stroke="#000000" points="467,-385.5 737,-385.5 "/>
<polyline fill="none" stroke="#000000" points="467,-361.5 737,-361.5 "/>
<text text-anchor="start" x="475" y="-346.3" font-family="Times,serif" font-size="14.00" fill="#000000">uncharge()</text>
</g>
<!-- 4&#45;&gt;7 -->
<g id="edge2" class="edge">
<title>4&#45;&gt;7</title>
<path fill="none" stroke="#000000" d="M526.6605,-114.7252C544.5389,-176.1336 572.5655,-272.3988 588.923,-328.5834"/>
<polygon fill="none" stroke="#000000" points="585.5826,-329.631 591.7385,-338.254 592.3036,-327.6742 585.5826,-329.631"/>
</g>
<!-- 5&#45;&gt;2 -->
<g id="edge3" class="edge">
<title>5&#45;&gt;2</title>
<path fill="none" stroke="#000000" d="M329,-505.8834C329,-542.667 329,-580.133 329,-608.0502"/>
<polygon fill="none" stroke="#000000" points="325.5001,-608.2608 329,-618.2608 332.5001,-608.2609 325.5001,-608.2608"/>
</g>
</g>
</svg>
