<?xml version="1.0" encoding="UTF-8" standalone="no"?>
<!DOCTYPE svg PUBLIC "-//W3C//DTD SVG 1.1//EN"
 "http://www.w3.org/Graphics/SVG/1.1/DTD/svg11.dtd">
<!-- Generated by graphviz version 2.40.1 (20161225.0304)
 -->
<!-- Title: classes_npfc Pages: 1 -->
<svg width="989pt" height="712pt"
 viewBox="0.00 0.00 988.50 712.00" xmlns="http://www.w3.org/2000/svg" xmlns:xlink="http://www.w3.org/1999/xlink">
<g id="graph0" class="graph" transform="scale(1 1) rotate(0) translate(4 708)">
<title>classes_npfc</title>
<polygon fill="#ffffff" stroke="transparent" points="-4,4 -4,-708 984.5,-708 984.5,4 -4,4"/>
<!-- 0 -->
<g id="node1" class="node">
<title>0</title>
<polygon fill="none" stroke="#000000" points="38.5,-23.5 38.5,-122.5 188.5,-122.5 188.5,-23.5 38.5,-23.5"/>
<text text-anchor="middle" x="113.5" y="-107.3" font-family="Times,serif" font-size="14.00" fill="#000000">npfc.draw.ColorMap</text>
<polyline fill="none" stroke="#000000" points="38.5,-99.5 188.5,-99.5 "/>
<text text-anchor="start" x="46.5" y="-84.3" font-family="Times,serif" font-size="14.00" fill="#000000">atoms</text>
<text text-anchor="start" x="46.5" y="-69.3" font-family="Times,serif" font-size="14.00" fill="#000000">bonds</text>
<text text-anchor="start" x="46.5" y="-54.3" font-family="Times,serif" font-size="14.00" fill="#000000">fragments : OrderedDict</text>
<polyline fill="none" stroke="#000000" points="38.5,-46.5 188.5,-46.5 "/>
<text text-anchor="middle" x="113.5" y="-31.3" font-family="Times,serif" font-size="14.00" fill="#000000"> </text>
</g>
<!-- 1 -->
<g id="node2" class="node">
<title>1</title>
<polygon fill="none" stroke="#000000" points="66,-634.5 66,-703.5 173,-703.5 173,-634.5 66,-634.5"/>
<text text-anchor="middle" x="119.5" y="-688.3" font-family="Times,serif" font-size="14.00" fill="#000000">npfc.filter.Filter</text>
<polyline fill="none" stroke="#000000" points="66,-680.5 173,-680.5 "/>
<text text-anchor="start" x="74" y="-665.3" font-family="Times,serif" font-size="14.00" fill="#000000">descriptors : dict</text>
<polyline fill="none" stroke="#000000" points="66,-657.5 173,-657.5 "/>
<text text-anchor="start" x="74" y="-642.3" font-family="Times,serif" font-size="14.00" fill="#000000">filter_mol()</text>
</g>
<!-- 2 -->
<g id="node3" class="node">
<title>2</title>
<polygon fill="none" stroke="#000000" points="413,-.5 413,-145.5 634,-145.5 634,-.5 413,-.5"/>
<text text-anchor="middle" x="523.5" y="-130.3" font-family="Times,serif" font-size="14.00" fill="#000000">npfc.fragment.CombinationClassifier</text>
<polyline fill="none" stroke="#000000" points="413,-122.5 634,-122.5 "/>
<polyline fill="none" stroke="#000000" points="413,-98.5 634,-98.5 "/>
<text text-anchor="start" x="421" y="-83.3" font-family="Times,serif" font-size="14.00" fill="#000000">classify_fragment_combination()</text>
<text text-anchor="start" x="421" y="-68.3" font-family="Times,serif" font-size="14.00" fill="#000000">classify_fragment_combinations()</text>
<text text-anchor="start" x="421" y="-53.3" font-family="Times,serif" font-size="14.00" fill="#000000">clean()</text>
<text text-anchor="start" x="421" y="-38.3" font-family="Times,serif" font-size="14.00" fill="#000000">get_rings_between_two_fragments()</text>
<text text-anchor="start" x="421" y="-23.3" font-family="Times,serif" font-size="14.00" fill="#000000">get_shortest_path_between_frags()</text>
<text text-anchor="start" x="421" y="-8.3" font-family="Times,serif" font-size="14.00" fill="#000000">map_frags()</text>
</g>
<!-- 3 -->
<g id="node4" class="node">
<title>3</title>
<polygon fill="none" stroke="#000000" points="652,-38 652,-108 795,-108 795,-38 652,-38"/>
<text text-anchor="middle" x="723.5" y="-92.8" font-family="Times,serif" font-size="14.00" fill="#000000">npfc.fragment.Matcher</text>
<polyline fill="none" stroke="#000000" points="652,-85 795,-85 "/>
<polyline fill="none" stroke="#000000" points="652,-61 795,-61 "/>
<text text-anchor="start" x="660" y="-45.8" font-family="Times,serif" font-size="14.00" fill="#000000">run()</text>
</g>
<!-- 4 -->
<g id="node5" class="node">
<title>4</title>
<polygon fill="none" stroke="#000000" points="206.5,-16 206.5,-130 394.5,-130 394.5,-16 206.5,-16"/>
<text text-anchor="middle" x="300.5" y="-114.8" font-family="Times,serif" font-size="14.00" fill="#000000">npfc.standardize.FullUncharger</text>
<polyline fill="none" stroke="#000000" points="206.5,-107 394.5,-107 "/>
<text text-anchor="start" x="214.5" y="-91.8" font-family="Times,serif" font-size="14.00" fill="#000000">q_neg_1</text>
<text text-anchor="start" x="214.5" y="-76.8" font-family="Times,serif" font-size="14.00" fill="#000000">q_neg_2</text>
<text text-anchor="start" x="214.5" y="-61.8" font-family="Times,serif" font-size="14.00" fill="#000000">q_pos_1</text>
<text text-anchor="start" x="214.5" y="-46.8" font-family="Times,serif" font-size="14.00" fill="#000000">q_pos_2</text>
<polyline fill="none" stroke="#000000" points="206.5,-39 394.5,-39 "/>
<text text-anchor="start" x="214.5" y="-23.8" font-family="Times,serif" font-size="14.00" fill="#000000">full_uncharge()</text>
</g>
<!-- 5 -->
<g id="node6" class="node">
<title>5</title>
<polygon fill="none" stroke="#000000" points="0,-250 0,-544 239,-544 239,-250 0,-250"/>
<text text-anchor="middle" x="119.5" y="-528.8" font-family="Times,serif" font-size="14.00" fill="#000000">npfc.standardize.Standardizer</text>
<polyline fill="none" stroke="#000000" points="0,-521 239,-521 "/>
<text text-anchor="start" x="8" y="-505.8" font-family="Times,serif" font-size="14.00" fill="#000000">canonicalizer : TautomerCanonicalizer</text>
<text text-anchor="start" x="8" y="-490.8" font-family="Times,serif" font-size="14.00" fill="#000000">col_id</text>
<text text-anchor="start" x="8" y="-475.8" font-family="Times,serif" font-size="14.00" fill="#000000">col_mol</text>
<text text-anchor="start" x="8" y="-460.8" font-family="Times,serif" font-size="14.00" fill="#000000">compute_2D</text>
<text text-anchor="start" x="8" y="-445.8" font-family="Times,serif" font-size="14.00" fill="#000000">elements_medchem</text>
<text text-anchor="start" x="8" y="-430.8" font-family="Times,serif" font-size="14.00" fill="#000000">filter_duplicates</text>
<text text-anchor="start" x="8" y="-415.8" font-family="Times,serif" font-size="14.00" fill="#000000">full_uncharger</text>
<text text-anchor="start" x="8" y="-400.8" font-family="Times,serif" font-size="14.00" fill="#000000">metal_disconnector : MetalDisconnector</text>
<text text-anchor="start" x="8" y="-385.8" font-family="Times,serif" font-size="14.00" fill="#000000">normalizer : Normalizer</text>
<text text-anchor="start" x="8" y="-370.8" font-family="Times,serif" font-size="14.00" fill="#000000">on</text>
<text text-anchor="start" x="8" y="-355.8" font-family="Times,serif" font-size="14.00" fill="#000000">protocol</text>
<text text-anchor="start" x="8" y="-340.8" font-family="Times,serif" font-size="14.00" fill="#000000">ref_file</text>
<text text-anchor="start" x="8" y="-325.8" font-family="Times,serif" font-size="14.00" fill="#000000">suffix</text>
<polyline fill="none" stroke="#000000" points="0,-318 239,-318 "/>
<text text-anchor="start" x="8" y="-302.8" font-family="Times,serif" font-size="14.00" fill="#000000">keep_best()</text>
<text text-anchor="start" x="8" y="-287.8" font-family="Times,serif" font-size="14.00" fill="#000000">remove_isotopes()</text>
<text text-anchor="start" x="8" y="-272.8" font-family="Times,serif" font-size="14.00" fill="#000000">run()</text>
<text text-anchor="start" x="8" y="-257.8" font-family="Times,serif" font-size="14.00" fill="#000000">run_df()</text>
</g>
<!-- 4&#45;&gt;5 -->
<g id="edge4" class="edge">
<title>4&#45;&gt;5</title>
<path fill="none" stroke="#000000" d="M264.4312,-130.4584C257.6896,-141.5198 250.79,-153.0658 244.5,-164 230.63,-188.1108 216.3229,-213.8614 202.5627,-239.1248"/>
<polygon fill="#000000" stroke="#000000" points="202.4291,-239.3709 203.0805,-246.5525 196.7018,-249.916 196.0504,-242.7343 202.4291,-239.3709"/>
<text text-anchor="middle" x="284.5" y="-167.8" font-family="Times,serif" font-size="14.00" fill="#00ff00">full_uncharger</text>
</g>
<!-- 8 -->
<g id="node9" class="node">
<title>8</title>
<polygon fill="none" stroke="#000000" points="257.5,-362 257.5,-432 527.5,-432 527.5,-362 257.5,-362"/>
<text text-anchor="middle" x="392.5" y="-416.8" font-family="Times,serif" font-size="14.00" fill="#000000">rdkit.Chem.MolStandardize.charge.Uncharger</text>
<polyline fill="none" stroke="#000000" points="257.5,-409 527.5,-409 "/>
<polyline fill="none" stroke="#000000" points="257.5,-385 527.5,-385 "/>
<text text-anchor="start" x="265.5" y="-369.8" font-family="Times,serif" font-size="14.00" fill="#000000">uncharge()</text>
</g>
<!-- 4&#45;&gt;8 -->
<g id="edge1" class="edge">
<title>4&#45;&gt;8</title>
<path fill="none" stroke="#000000" d="M316.736,-130.1789C334.6926,-193.4174 363.2536,-294.0017 379.6992,-351.919"/>
<polygon fill="none" stroke="#000000" points="376.4271,-353.2089 382.5256,-361.8726 383.1609,-351.2968 376.4271,-353.2089"/>
</g>
<!-- 5&#45;&gt;1 -->
<g id="edge2" class="edge">
<title>5&#45;&gt;1</title>
<path fill="none" stroke="#000000" d="M119.5,-544.1451C119.5,-573.3214 119.5,-601.8089 119.5,-624.1881"/>
<polygon fill="none" stroke="#000000" points="116.0001,-624.3395 119.5,-634.3396 123.0001,-624.3396 116.0001,-624.3395"/>
</g>
<!-- 6 -->
<g id="node7" class="node">
<title>6</title>
<polygon fill="none" stroke="#000000" points="813.5,-38 813.5,-108 971.5,-108 971.5,-38 813.5,-38"/>
<text text-anchor="middle" x="892.5" y="-92.8" font-family="Times,serif" font-size="14.00" fill="#000000">npfc.utils.SafeHDF5Store</text>
<polyline fill="none" stroke="#000000" points="813.5,-85 971.5,-85 "/>
<polyline fill="none" stroke="#000000" points="813.5,-61 971.5,-61 "/>
<text text-anchor="middle" x="892.5" y="-45.8" font-family="Times,serif" font-size="14.00" fill="#000000"> </text>
</g>
<!-- 7 -->
<g id="node8" class="node">
<title>7</title>
<polygon fill="none" stroke="#000000" points="804.5,-197.5 804.5,-596.5 980.5,-596.5 980.5,-197.5 804.5,-197.5"/>
<text text-anchor="middle" x="892.5" y="-581.3" font-family="Times,serif" font-size="14.00" fill="#000000">pandas.io.pytables.HDFStore</text>
<polyline fill="none" stroke="#000000" points="804.5,-573.5 980.5,-573.5 "/>
<text text-anchor="start" x="812.5" y="-558.3" font-family="Times,serif" font-size="14.00" fill="#000000">filename</text>
<text text-anchor="start" x="812.5" y="-543.3" font-family="Times,serif" font-size="14.00" fill="#000000">is_open</text>
<text text-anchor="start" x="812.5" y="-528.3" font-family="Times,serif" font-size="14.00" fill="#000000">iteritems</text>
<text text-anchor="start" x="812.5" y="-513.3" font-family="Times,serif" font-size="14.00" fill="#000000">root</text>
<polyline fill="none" stroke="#000000" points="804.5,-505.5 980.5,-505.5 "/>
<text text-anchor="start" x="812.5" y="-490.3" font-family="Times,serif" font-size="14.00" fill="#000000">append()</text>
<text text-anchor="start" x="812.5" y="-475.3" font-family="Times,serif" font-size="14.00" fill="#000000">append_to_multiple()</text>
<text text-anchor="start" x="812.5" y="-460.3" font-family="Times,serif" font-size="14.00" fill="#000000">close()</text>
<text text-anchor="start" x="812.5" y="-445.3" font-family="Times,serif" font-size="14.00" fill="#000000">copy()</text>
<text text-anchor="start" x="812.5" y="-430.3" font-family="Times,serif" font-size="14.00" fill="#000000">create_table_index()</text>
<text text-anchor="start" x="812.5" y="-415.3" font-family="Times,serif" font-size="14.00" fill="#000000">flush()</text>
<text text-anchor="start" x="812.5" y="-400.3" font-family="Times,serif" font-size="14.00" fill="#000000">get()</text>
<text text-anchor="start" x="812.5" y="-385.3" font-family="Times,serif" font-size="14.00" fill="#000000">get_node()</text>
<text text-anchor="start" x="812.5" y="-370.3" font-family="Times,serif" font-size="14.00" fill="#000000">get_storer()</text>
<text text-anchor="start" x="812.5" y="-355.3" font-family="Times,serif" font-size="14.00" fill="#000000">groups()</text>
<text text-anchor="start" x="812.5" y="-340.3" font-family="Times,serif" font-size="14.00" fill="#000000">info()</text>
<text text-anchor="start" x="812.5" y="-325.3" font-family="Times,serif" font-size="14.00" fill="#000000">items()</text>
<text text-anchor="start" x="812.5" y="-310.3" font-family="Times,serif" font-size="14.00" fill="#000000">keys()</text>
<text text-anchor="start" x="812.5" y="-295.3" font-family="Times,serif" font-size="14.00" fill="#000000">open()</text>
<text text-anchor="start" x="812.5" y="-280.3" font-family="Times,serif" font-size="14.00" fill="#000000">put()</text>
<text text-anchor="start" x="812.5" y="-265.3" font-family="Times,serif" font-size="14.00" fill="#000000">remove()</text>
<text text-anchor="start" x="812.5" y="-250.3" font-family="Times,serif" font-size="14.00" fill="#000000">select()</text>
<text text-anchor="start" x="812.5" y="-235.3" font-family="Times,serif" font-size="14.00" fill="#000000">select_as_coordinates()</text>
<text text-anchor="start" x="812.5" y="-220.3" font-family="Times,serif" font-size="14.00" fill="#000000">select_as_multiple()</text>
<text text-anchor="start" x="812.5" y="-205.3" font-family="Times,serif" font-size="14.00" fill="#000000">select_column()</text>
</g>
<!-- 6&#45;&gt;7 -->
<g id="edge3" class="edge">
<title>6&#45;&gt;7</title>
<path fill="none" stroke="#000000" d="M892.5,-108.2905C892.5,-128.8463 892.5,-156.6384 892.5,-186.8924"/>
<polygon fill="none" stroke="#000000" points="889.0001,-187.2398 892.5,-197.2399 896.0001,-187.2399 889.0001,-187.2398"/>
</g>
</g>
</svg>
