<?xml version="1.0" encoding="UTF-8" standalone="no"?>
<!DOCTYPE svg PUBLIC "-//W3C//DTD SVG 1.1//EN"
 "http://www.w3.org/Graphics/SVG/1.1/DTD/svg11.dtd">
<!-- Generated by graphviz version 2.38.0 (20140413.2041)
 -->
<!-- Title: classes_npfc Pages: 1 -->
<svg width="3019pt" height="786pt"
 viewBox="0.00 0.00 3018.50 786.00" xmlns="http://www.w3.org/2000/svg" xmlns:xlink="http://www.w3.org/1999/xlink">
<g id="graph0" class="graph" transform="scale(1 1) rotate(0) translate(4 782)">
<title>classes_npfc</title>
<polygon fill="white" stroke="none" points="-4,4 -4,-782 3014.5,-782 3014.5,4 -4,4"/>
<!-- 0 -->
<g id="node1" class="node"><title>0</title>
<polygon fill="none" stroke="black" points="0,-45.5 0,-129.5 191,-129.5 191,-45.5 0,-45.5"/>
<text text-anchor="middle" x="95.5" y="-114.3" font-family="Times,serif" font-size="14.00">npfc.contrib.np_score.NPScorer</text>
<polyline fill="none" stroke="black" points="0,-106.5 191,-106.5 "/>
<text text-anchor="start" x="8" y="-91.3" font-family="Times,serif" font-size="14.00">file_model</text>
<text text-anchor="start" x="8" y="-76.3" font-family="Times,serif" font-size="14.00">fscores</text>
<polyline fill="none" stroke="black" points="0,-68.5 191,-68.5 "/>
<text text-anchor="start" x="8" y="-53.3" font-family="Times,serif" font-size="14.00">score(mol, confidence)</text>
</g>
<!-- 1 -->
<g id="node2" class="node"><title>1</title>
<polygon fill="none" stroke="black" points="209,-38 209,-137 398,-137 398,-38 209,-38"/>
<text text-anchor="middle" x="303.5" y="-121.8" font-family="Times,serif" font-size="14.00">npfc.contrib.sa_score.SAScorer</text>
<polyline fill="none" stroke="black" points="209,-114 398,-114 "/>
<text text-anchor="start" x="217" y="-98.8" font-family="Times,serif" font-size="14.00">file_model</text>
<text text-anchor="start" x="217" y="-83.8" font-family="Times,serif" font-size="14.00">fscores : dict</text>
<polyline fill="none" stroke="black" points="209,-76 398,-76 "/>
<text text-anchor="start" x="217" y="-60.8" font-family="Times,serif" font-size="14.00">load_model(file_model)</text>
<text text-anchor="start" x="217" y="-45.8" font-family="Times,serif" font-size="14.00">score(m)</text>
</g>
<!-- 2 -->
<g id="node3" class="node"><title>2</title>
<polygon fill="none" stroke="black" points="416.5,-30.5 416.5,-144.5 694.5,-144.5 694.5,-30.5 416.5,-30.5"/>
<text text-anchor="middle" x="555.5" y="-129.3" font-family="Times,serif" font-size="14.00">npfc.draw.ColorMap</text>
<polyline fill="none" stroke="black" points="416.5,-121.5 694.5,-121.5 "/>
<text text-anchor="start" x="424.5" y="-106.3" font-family="Times,serif" font-size="14.00">atoms : dict</text>
<text text-anchor="start" x="424.5" y="-91.3" font-family="Times,serif" font-size="14.00">bonds : dict</text>
<text text-anchor="start" x="424.5" y="-76.3" font-family="Times,serif" font-size="14.00">fragments : dict</text>
<text text-anchor="start" x="424.5" y="-61.3" font-family="Times,serif" font-size="14.00">palette : NoneType, _ColorPalette, OrderedDict</text>
<polyline fill="none" stroke="black" points="416.5,-53.5 694.5,-53.5 "/>
<text text-anchor="start" x="424.5" y="-38.3" font-family="Times,serif" font-size="14.00">blend()</text>
</g>
<!-- 3 -->
<g id="node4" class="node"><title>3</title>
<polygon fill="none" stroke="black" points="712.5,-0.5 712.5,-174.5 1066.5,-174.5 1066.5,-0.5 712.5,-0.5"/>
<text text-anchor="middle" x="889.5" y="-159.3" font-family="Times,serif" font-size="14.00">npfc.draw.DepictionValidator</text>
<polyline fill="none" stroke="black" points="712.5,-151.5 1066.5,-151.5 "/>
<text text-anchor="start" x="720.5" y="-136.3" font-family="Times,serif" font-size="14.00">bonds</text>
<text text-anchor="start" x="720.5" y="-121.3" font-family="Times,serif" font-size="14.00">conformer</text>
<text text-anchor="start" x="720.5" y="-106.3" font-family="Times,serif" font-size="14.00">kd_tree : KDTree</text>
<text text-anchor="start" x="720.5" y="-91.3" font-family="Times,serif" font-size="14.00">mol</text>
<polyline fill="none" stroke="black" points="712.5,-83.5 1066.5,-83.5 "/>
<text text-anchor="start" x="720.5" y="-68.3" font-family="Times,serif" font-size="14.00">count_bond_collisions()</text>
<text text-anchor="start" x="720.5" y="-53.3" font-family="Times,serif" font-size="14.00">count_suboptimal_atom_positions(lowerBound, upperBound)</text>
<text text-anchor="start" x="720.5" y="-38.3" font-family="Times,serif" font-size="14.00">depiction_score()</text>
<text text-anchor="start" x="720.5" y="-23.3" font-family="Times,serif" font-size="14.00">has_bond_crossing()</text>
<text text-anchor="start" x="720.5" y="-8.3" font-family="Times,serif" font-size="14.00">has_degenerated_atom_positions(threshold)</text>
</g>
<!-- 4 -->
<g id="node5" class="node"><title>4</title>
<polygon fill="none" stroke="black" points="884,-678.5 884,-777.5 1111,-777.5 1111,-678.5 884,-678.5"/>
<text text-anchor="middle" x="997.5" y="-762.3" font-family="Times,serif" font-size="14.00">npfc.filter.Filter</text>
<polyline fill="none" stroke="black" points="884,-754.5 1111,-754.5 "/>
<text text-anchor="start" x="892" y="-739.3" font-family="Times,serif" font-size="14.00">descriptors : dict</text>
<polyline fill="none" stroke="black" points="884,-731.5 1111,-731.5 "/>
<text text-anchor="start" x="892" y="-716.3" font-family="Times,serif" font-size="14.00">compute_descriptors(mol, descriptors)</text>
<text text-anchor="start" x="892" y="-701.3" font-family="Times,serif" font-size="14.00">filter_mol(mol, expr)</text>
<text text-anchor="start" x="892" y="-686.3" font-family="Times,serif" font-size="14.00">get_possible_descriptors()</text>
</g>
<!-- 5 -->
<g id="node6" class="node"><title>5</title>
<polygon fill="none" stroke="black" points="1291,-52.5 1291,-122.5 1542,-122.5 1542,-52.5 1291,-52.5"/>
<text text-anchor="middle" x="1416.5" y="-107.3" font-family="Times,serif" font-size="14.00">npfc.report.ReporterFragmentCombination</text>
<polyline fill="none" stroke="black" points="1291,-99.5 1542,-99.5 "/>
<polyline fill="none" stroke="black" points="1291,-75.5 1542,-75.5 "/>
<text text-anchor="middle" x="1416.5" y="-60.3" font-family="Times,serif" font-size="14.00"> </text>
</g>
<!-- 6 -->
<g id="node7" class="node"><title>6</title>
<polygon fill="none" stroke="black" points="1560,-52.5 1560,-122.5 1845,-122.5 1845,-52.5 1560,-52.5"/>
<text text-anchor="middle" x="1702.5" y="-107.3" font-family="Times,serif" font-size="14.00">npfc.report.ReporterFragmentCombinationGraph</text>
<polyline fill="none" stroke="black" points="1560,-99.5 1845,-99.5 "/>
<polyline fill="none" stroke="black" points="1560,-75.5 1845,-75.5 "/>
<text text-anchor="middle" x="1702.5" y="-60.3" font-family="Times,serif" font-size="14.00"> </text>
</g>
<!-- 7 -->
<g id="node8" class="node"><title>7</title>
<polygon fill="none" stroke="black" points="1863,-52.5 1863,-122.5 2080,-122.5 2080,-52.5 1863,-52.5"/>
<text text-anchor="middle" x="1971.5" y="-107.3" font-family="Times,serif" font-size="14.00">npfc.report.ReporterFragmentSearch</text>
<polyline fill="none" stroke="black" points="1863,-99.5 2080,-99.5 "/>
<polyline fill="none" stroke="black" points="1863,-75.5 2080,-75.5 "/>
<text text-anchor="middle" x="1971.5" y="-60.3" font-family="Times,serif" font-size="14.00"> </text>
</g>
<!-- 8 -->
<g id="node9" class="node"><title>8</title>
<polygon fill="none" stroke="black" points="2098.5,-52.5 2098.5,-122.5 2250.5,-122.5 2250.5,-52.5 2098.5,-52.5"/>
<text text-anchor="middle" x="2174.5" y="-107.3" font-family="Times,serif" font-size="14.00">npfc.report.ReporterPNP</text>
<polyline fill="none" stroke="black" points="2098.5,-99.5 2250.5,-99.5 "/>
<polyline fill="none" stroke="black" points="2098.5,-75.5 2250.5,-75.5 "/>
<text text-anchor="middle" x="2174.5" y="-60.3" font-family="Times,serif" font-size="14.00"> </text>
</g>
<!-- 9 -->
<g id="node10" class="node"><title>9</title>
<polygon fill="none" stroke="black" points="2269,-52.5 2269,-122.5 2438,-122.5 2438,-52.5 2269,-52.5"/>
<text text-anchor="middle" x="2353.5" y="-107.3" font-family="Times,serif" font-size="14.00">npfc.report.ReporterProcess</text>
<polyline fill="none" stroke="black" points="2269,-99.5 2438,-99.5 "/>
<polyline fill="none" stroke="black" points="2269,-75.5 2438,-75.5 "/>
<text text-anchor="middle" x="2353.5" y="-60.3" font-family="Times,serif" font-size="14.00"> </text>
</g>
<!-- 10 -->
<g id="node11" class="node"><title>10</title>
<polygon fill="none" stroke="black" points="2455.5,-52.5 2455.5,-122.5 2613.5,-122.5 2613.5,-52.5 2455.5,-52.5"/>
<text text-anchor="middle" x="2534.5" y="-107.3" font-family="Times,serif" font-size="14.00">npfc.save.SafeHDF5Store</text>
<polyline fill="none" stroke="black" points="2455.5,-99.5 2613.5,-99.5 "/>
<polyline fill="none" stroke="black" points="2455.5,-75.5 2613.5,-75.5 "/>
<text text-anchor="middle" x="2534.5" y="-60.3" font-family="Times,serif" font-size="14.00"> </text>
</g>
<!-- 13 -->
<g id="node14" class="node"><title>13</title>
<polygon fill="none" stroke="black" points="2058.5,-226.5 2058.5,-640.5 3010.5,-640.5 3010.5,-226.5 2058.5,-226.5"/>
<text text-anchor="middle" x="2534.5" y="-625.3" font-family="Times,serif" font-size="14.00">pandas.io.pytables.HDFStore</text>
<polyline fill="none" stroke="black" points="2058.5,-617.5 3010.5,-617.5 "/>
<text text-anchor="start" x="2066.5" y="-602.3" font-family="Times,serif" font-size="14.00">filename</text>
<text text-anchor="start" x="2066.5" y="-587.3" font-family="Times,serif" font-size="14.00">is_open</text>
<text text-anchor="start" x="2066.5" y="-572.3" font-family="Times,serif" font-size="14.00">iteritems</text>
<text text-anchor="start" x="2066.5" y="-557.3" font-family="Times,serif" font-size="14.00">root</text>
<polyline fill="none" stroke="black" points="2058.5,-549.5 3010.5,-549.5 "/>
<text text-anchor="start" x="2066.5" y="-534.3" font-family="Times,serif" font-size="14.00">append(key, value, format, axes, index, append, complib, complevel, columns, min_itemsize, nan_rep, chunksize, expectedrows, dropna, data_columns, encoding, errors)</text>
<text text-anchor="start" x="2066.5" y="-519.3" font-family="Times,serif" font-size="14.00">append_to_multiple(d, value, selector, data_columns, axes, dropna)</text>
<text text-anchor="start" x="2066.5" y="-504.3" font-family="Times,serif" font-size="14.00">close()</text>
<text text-anchor="start" x="2066.5" y="-489.3" font-family="Times,serif" font-size="14.00">copy(file, mode, propindexes, keys, complib, complevel, fletcher32, overwrite)</text>
<text text-anchor="start" x="2066.5" y="-474.3" font-family="Times,serif" font-size="14.00">create_table_index(key, columns, optlevel, kind)</text>
<text text-anchor="start" x="2066.5" y="-459.3" font-family="Times,serif" font-size="14.00">flush(fsync)</text>
<text text-anchor="start" x="2066.5" y="-444.3" font-family="Times,serif" font-size="14.00">get(key)</text>
<text text-anchor="start" x="2066.5" y="-429.3" font-family="Times,serif" font-size="14.00">get_node(key)</text>
<text text-anchor="start" x="2066.5" y="-414.3" font-family="Times,serif" font-size="14.00">get_storer(key)</text>
<text text-anchor="start" x="2066.5" y="-399.3" font-family="Times,serif" font-size="14.00">groups()</text>
<text text-anchor="start" x="2066.5" y="-384.3" font-family="Times,serif" font-size="14.00">info()</text>
<text text-anchor="start" x="2066.5" y="-369.3" font-family="Times,serif" font-size="14.00">items()</text>
<text text-anchor="start" x="2066.5" y="-354.3" font-family="Times,serif" font-size="14.00">keys()</text>
<text text-anchor="start" x="2066.5" y="-339.3" font-family="Times,serif" font-size="14.00">open(mode)</text>
<text text-anchor="start" x="2066.5" y="-324.3" font-family="Times,serif" font-size="14.00">put(key, value, format, index, append, complib, complevel, min_itemsize, nan_rep, data_columns, encoding, errors)</text>
<text text-anchor="start" x="2066.5" y="-309.3" font-family="Times,serif" font-size="14.00">remove(key, where, start, stop)</text>
<text text-anchor="start" x="2066.5" y="-294.3" font-family="Times,serif" font-size="14.00">select(key, where, start, stop, columns, iterator, chunksize, auto_close)</text>
<text text-anchor="start" x="2066.5" y="-279.3" font-family="Times,serif" font-size="14.00">select_as_coordinates(key, where, start, stop)</text>
<text text-anchor="start" x="2066.5" y="-264.3" font-family="Times,serif" font-size="14.00">select_as_multiple(keys, where, selector, columns, start, stop, iterator, chunksize, auto_close)</text>
<text text-anchor="start" x="2066.5" y="-249.3" font-family="Times,serif" font-size="14.00">select_column(key, column, start, stop)</text>
<text text-anchor="start" x="2066.5" y="-234.3" font-family="Times,serif" font-size="14.00">walk(where)</text>
</g>
<!-- 10&#45;&gt;13 -->
<g id="edge1" class="edge"><title>10&#45;&gt;13</title>
<path fill="none" stroke="black" d="M2534.5,-122.742C2534.5,-146.275 2534.5,-179.739 2534.5,-216.039"/>
<polygon fill="none" stroke="black" points="2531,-216.347 2534.5,-226.347 2538,-216.347 2531,-216.347"/>
</g>
<!-- 11 -->
<g id="node12" class="node"><title>11</title>
<polygon fill="none" stroke="black" points="1084.5,-30.5 1084.5,-144.5 1272.5,-144.5 1272.5,-30.5 1084.5,-30.5"/>
<text text-anchor="middle" x="1178.5" y="-129.3" font-family="Times,serif" font-size="14.00">npfc.standardize.FullUncharger</text>
<polyline fill="none" stroke="black" points="1084.5,-121.5 1272.5,-121.5 "/>
<text text-anchor="start" x="1092.5" y="-106.3" font-family="Times,serif" font-size="14.00">q_neg_1</text>
<text text-anchor="start" x="1092.5" y="-91.3" font-family="Times,serif" font-size="14.00">q_neg_2</text>
<text text-anchor="start" x="1092.5" y="-76.3" font-family="Times,serif" font-size="14.00">q_pos_1</text>
<text text-anchor="start" x="1092.5" y="-61.3" font-family="Times,serif" font-size="14.00">q_pos_2</text>
<polyline fill="none" stroke="black" points="1084.5,-53.5 1272.5,-53.5 "/>
<text text-anchor="start" x="1092.5" y="-38.3" font-family="Times,serif" font-size="14.00">full_uncharge(mol)</text>
</g>
<!-- 12 -->
<g id="node13" class="node"><title>12</title>
<polygon fill="none" stroke="black" points="878,-301.5 878,-565.5 1117,-565.5 1117,-301.5 878,-301.5"/>
<text text-anchor="middle" x="997.5" y="-550.3" font-family="Times,serif" font-size="14.00">npfc.standardize.Standardizer</text>
<polyline fill="none" stroke="black" points="878,-542.5 1117,-542.5 "/>
<text text-anchor="start" x="886" y="-527.3" font-family="Times,serif" font-size="14.00">canonicalizer : TautomerCanonicalizer</text>
<text text-anchor="start" x="886" y="-512.3" font-family="Times,serif" font-size="14.00">col_id</text>
<text text-anchor="start" x="886" y="-497.3" font-family="Times,serif" font-size="14.00">col_mol</text>
<text text-anchor="start" x="886" y="-482.3" font-family="Times,serif" font-size="14.00">elements_medchem</text>
<text text-anchor="start" x="886" y="-467.3" font-family="Times,serif" font-size="14.00">full_uncharger</text>
<text text-anchor="start" x="886" y="-452.3" font-family="Times,serif" font-size="14.00">metal_disconnector : MetalDisconnector</text>
<text text-anchor="start" x="886" y="-437.3" font-family="Times,serif" font-size="14.00">normalizer : Normalizer</text>
<text text-anchor="start" x="886" y="-422.3" font-family="Times,serif" font-size="14.00">protocol</text>
<text text-anchor="start" x="886" y="-407.3" font-family="Times,serif" font-size="14.00">timeout</text>
<polyline fill="none" stroke="black" points="878,-399.5 1117,-399.5 "/>
<text text-anchor="start" x="886" y="-384.3" font-family="Times,serif" font-size="14.00">clear_isotopes(mol)</text>
<text text-anchor="start" x="886" y="-369.3" font-family="Times,serif" font-size="14.00">clear_side_chains(mol, debug)</text>
<text text-anchor="start" x="886" y="-354.3" font-family="Times,serif" font-size="14.00">deglycosylate(mol, mode)</text>
<text text-anchor="start" x="886" y="-339.3" font-family="Times,serif" font-size="14.00">keep_best(mol)</text>
<text text-anchor="start" x="886" y="-324.3" font-family="Times,serif" font-size="14.00">run(mol, timeout)</text>
<text text-anchor="start" x="886" y="-309.3" font-family="Times,serif" font-size="14.00">run_df(df)</text>
</g>
<!-- 11&#45;&gt;12 -->
<g id="edge4" class="edge"><title>11&#45;&gt;12</title>
<path fill="none" stroke="black" d="M1149.02,-144.535C1128.16,-184.171 1099.21,-239.187 1072.2,-290.52"/>
<polygon fill="black" stroke="black" points="1072.06,-290.792 1072.81,-297.964 1066.47,-301.411 1065.73,-294.239 1072.06,-290.792"/>
<text text-anchor="middle" x="1160.5" y="-196.8" font-family="Times,serif" font-size="14.00" fill="green">full_uncharger</text>
</g>
<!-- 14 -->
<g id="node15" class="node"><title>14</title>
<polygon fill="none" stroke="black" points="1135.5,-398.5 1135.5,-468.5 1405.5,-468.5 1405.5,-398.5 1135.5,-398.5"/>
<text text-anchor="middle" x="1270.5" y="-453.3" font-family="Times,serif" font-size="14.00">rdkit.Chem.MolStandardize.charge.Uncharger</text>
<polyline fill="none" stroke="black" points="1135.5,-445.5 1405.5,-445.5 "/>
<polyline fill="none" stroke="black" points="1135.5,-421.5 1405.5,-421.5 "/>
<text text-anchor="start" x="1143.5" y="-406.3" font-family="Times,serif" font-size="14.00">uncharge(mol)</text>
</g>
<!-- 11&#45;&gt;14 -->
<g id="edge2" class="edge"><title>11&#45;&gt;14</title>
<path fill="none" stroke="black" d="M1193.49,-144.535C1211.72,-212.705 1242.12,-326.366 1258.75,-388.549"/>
<polygon fill="none" stroke="black" points="1255.43,-389.683 1261.39,-398.439 1262.19,-387.874 1255.43,-389.683"/>
</g>
<!-- 12&#45;&gt;4 -->
<g id="edge3" class="edge"><title>12&#45;&gt;4</title>
<path fill="none" stroke="black" d="M997.5,-565.777C997.5,-601.643 997.5,-638.722 997.5,-668.265"/>
<polygon fill="none" stroke="black" points="994,-668.387 997.5,-678.387 1001,-668.387 994,-668.387"/>
</g>
</g>
</svg>
