<?xml version="1.0" encoding="UTF-8" standalone="no"?>
<!DOCTYPE svg PUBLIC "-//W3C//DTD SVG 1.1//EN"
 "http://www.w3.org/Graphics/SVG/1.1/DTD/svg11.dtd">
<!-- Generated by graphviz version 2.40.1 (20161225.0304)
 -->
<!-- Title: classes_npfc Pages: 1 -->
<svg width="803pt" height="607pt"
 viewBox="0.00 0.00 803.00 607.00" xmlns="http://www.w3.org/2000/svg" xmlns:xlink="http://www.w3.org/1999/xlink">
<g id="graph0" class="graph" transform="scale(1 1) rotate(0) translate(4 603)">
<title>classes_npfc</title>
<polygon fill="#ffffff" stroke="transparent" points="-4,4 -4,-603 799,-603 799,4 -4,4"/>
<!-- 0 -->
<g id="node1" class="node">
<title>0</title>
<polygon fill="none" stroke="#000000" points="38.5,-23.5 38.5,-122.5 188.5,-122.5 188.5,-23.5 38.5,-23.5"/>
<text text-anchor="middle" x="113.5" y="-107.3" font-family="Times,serif" font-size="14.00" fill="#000000">npfc.draw.ColorMap</text>
<polyline fill="none" stroke="#000000" points="38.5,-99.5 188.5,-99.5 "/>
<text text-anchor="start" x="46.5" y="-84.3" font-family="Times,serif" font-size="14.00" fill="#000000">atoms</text>
<text text-anchor="start" x="46.5" y="-69.3" font-family="Times,serif" font-size="14.00" fill="#000000">bonds</text>
<text text-anchor="start" x="46.5" y="-54.3" font-family="Times,serif" font-size="14.00" fill="#000000">fragments : OrderedDict</text>
<polyline fill="none" stroke="#000000" points="38.5,-46.5 188.5,-46.5 "/>
<text text-anchor="middle" x="113.5" y="-31.3" font-family="Times,serif" font-size="14.00" fill="#000000"> </text>
</g>
<!-- 1 -->
<g id="node2" class="node">
<title>1</title>
<polygon fill="none" stroke="#000000" points="66,-529.5 66,-598.5 173,-598.5 173,-529.5 66,-529.5"/>
<text text-anchor="middle" x="119.5" y="-583.3" font-family="Times,serif" font-size="14.00" fill="#000000">npfc.filter.Filter</text>
<polyline fill="none" stroke="#000000" points="66,-575.5 173,-575.5 "/>
<text text-anchor="start" x="74" y="-560.3" font-family="Times,serif" font-size="14.00" fill="#000000">descriptors : dict</text>
<polyline fill="none" stroke="#000000" points="66,-552.5 173,-552.5 "/>
<text text-anchor="start" x="74" y="-537.3" font-family="Times,serif" font-size="14.00" fill="#000000">filter_mol()</text>
</g>
<!-- 2 -->
<g id="node3" class="node">
<title>2</title>
<polygon fill="none" stroke="#000000" points="413,-.5 413,-145.5 634,-145.5 634,-.5 413,-.5"/>
<text text-anchor="middle" x="523.5" y="-130.3" font-family="Times,serif" font-size="14.00" fill="#000000">npfc.fragment.CombinationClassifier</text>
<polyline fill="none" stroke="#000000" points="413,-122.5 634,-122.5 "/>
<polyline fill="none" stroke="#000000" points="413,-98.5 634,-98.5 "/>
<text text-anchor="start" x="421" y="-83.3" font-family="Times,serif" font-size="14.00" fill="#000000">classify_fragment_combination()</text>
<text text-anchor="start" x="421" y="-68.3" font-family="Times,serif" font-size="14.00" fill="#000000">classify_fragment_combinations()</text>
<text text-anchor="start" x="421" y="-53.3" font-family="Times,serif" font-size="14.00" fill="#000000">clean()</text>
<text text-anchor="start" x="421" y="-38.3" font-family="Times,serif" font-size="14.00" fill="#000000">get_rings_between_two_fragments()</text>
<text text-anchor="start" x="421" y="-23.3" font-family="Times,serif" font-size="14.00" fill="#000000">get_shortest_path_between_frags()</text>
<text text-anchor="start" x="421" y="-8.3" font-family="Times,serif" font-size="14.00" fill="#000000">map_frags()</text>
</g>
<!-- 3 -->
<g id="node4" class="node">
<title>3</title>
<polygon fill="none" stroke="#000000" points="652,-38 652,-108 795,-108 795,-38 652,-38"/>
<text text-anchor="middle" x="723.5" y="-92.8" font-family="Times,serif" font-size="14.00" fill="#000000">npfc.fragment.Matcher</text>
<polyline fill="none" stroke="#000000" points="652,-85 795,-85 "/>
<polyline fill="none" stroke="#000000" points="652,-61 795,-61 "/>
<text text-anchor="start" x="660" y="-45.8" font-family="Times,serif" font-size="14.00" fill="#000000">run()</text>
</g>
<!-- 4 -->
<g id="node5" class="node">
<title>4</title>
<polygon fill="none" stroke="#000000" points="206.5,-16 206.5,-130 394.5,-130 394.5,-16 206.5,-16"/>
<text text-anchor="middle" x="300.5" y="-114.8" font-family="Times,serif" font-size="14.00" fill="#000000">npfc.standardize.FullUncharger</text>
<polyline fill="none" stroke="#000000" points="206.5,-107 394.5,-107 "/>
<text text-anchor="start" x="214.5" y="-91.8" font-family="Times,serif" font-size="14.00" fill="#000000">q_neg_1</text>
<text text-anchor="start" x="214.5" y="-76.8" font-family="Times,serif" font-size="14.00" fill="#000000">q_neg_2</text>
<text text-anchor="start" x="214.5" y="-61.8" font-family="Times,serif" font-size="14.00" fill="#000000">q_pos_1</text>
<text text-anchor="start" x="214.5" y="-46.8" font-family="Times,serif" font-size="14.00" fill="#000000">q_pos_2</text>
<polyline fill="none" stroke="#000000" points="206.5,-39 394.5,-39 "/>
<text text-anchor="start" x="214.5" y="-23.8" font-family="Times,serif" font-size="14.00" fill="#000000">full_uncharge()</text>
</g>
<!-- 5 -->
<g id="node6" class="node">
<title>5</title>
<polygon fill="none" stroke="#000000" points="0,-197.5 0,-491.5 239,-491.5 239,-197.5 0,-197.5"/>
<text text-anchor="middle" x="119.5" y="-476.3" font-family="Times,serif" font-size="14.00" fill="#000000">npfc.standardize.Standardizer</text>
<polyline fill="none" stroke="#000000" points="0,-468.5 239,-468.5 "/>
<text text-anchor="start" x="8" y="-453.3" font-family="Times,serif" font-size="14.00" fill="#000000">canonicalizer : TautomerCanonicalizer</text>
<text text-anchor="start" x="8" y="-438.3" font-family="Times,serif" font-size="14.00" fill="#000000">col_id</text>
<text text-anchor="start" x="8" y="-423.3" font-family="Times,serif" font-size="14.00" fill="#000000">col_mol</text>
<text text-anchor="start" x="8" y="-408.3" font-family="Times,serif" font-size="14.00" fill="#000000">compute_2D</text>
<text text-anchor="start" x="8" y="-393.3" font-family="Times,serif" font-size="14.00" fill="#000000">elements_medchem</text>
<text text-anchor="start" x="8" y="-378.3" font-family="Times,serif" font-size="14.00" fill="#000000">filter_duplicates</text>
<text text-anchor="start" x="8" y="-363.3" font-family="Times,serif" font-size="14.00" fill="#000000">full_uncharger</text>
<text text-anchor="start" x="8" y="-348.3" font-family="Times,serif" font-size="14.00" fill="#000000">metal_disconnector : MetalDisconnector</text>
<text text-anchor="start" x="8" y="-333.3" font-family="Times,serif" font-size="14.00" fill="#000000">normalizer : Normalizer</text>
<text text-anchor="start" x="8" y="-318.3" font-family="Times,serif" font-size="14.00" fill="#000000">on</text>
<text text-anchor="start" x="8" y="-303.3" font-family="Times,serif" font-size="14.00" fill="#000000">protocol</text>
<text text-anchor="start" x="8" y="-288.3" font-family="Times,serif" font-size="14.00" fill="#000000">ref_file</text>
<text text-anchor="start" x="8" y="-273.3" font-family="Times,serif" font-size="14.00" fill="#000000">suffix</text>
<polyline fill="none" stroke="#000000" points="0,-265.5 239,-265.5 "/>
<text text-anchor="start" x="8" y="-250.3" font-family="Times,serif" font-size="14.00" fill="#000000">keep_best()</text>
<text text-anchor="start" x="8" y="-235.3" font-family="Times,serif" font-size="14.00" fill="#000000">remove_isotopes()</text>
<text text-anchor="start" x="8" y="-220.3" font-family="Times,serif" font-size="14.00" fill="#000000">run()</text>
<text text-anchor="start" x="8" y="-205.3" font-family="Times,serif" font-size="14.00" fill="#000000">run_df()</text>
</g>
<!-- 4&#45;&gt;5 -->
<g id="edge3" class="edge">
<title>4&#45;&gt;5</title>
<path fill="none" stroke="#000000" d="M262.3357,-130.2464C250.9268,-147.3598 237.8272,-167.0093 224.2899,-187.3152"/>
<polygon fill="#000000" stroke="#000000" points="224.2711,-187.3434 224.2711,-194.5545 217.6147,-197.328 217.6147,-190.1169 224.2711,-187.3434"/>
<text text-anchor="middle" x="277.5" y="-167.8" font-family="Times,serif" font-size="14.00" fill="#00ff00">full_uncharger</text>
</g>
<!-- 6 -->
<g id="node7" class="node">
<title>6</title>
<polygon fill="none" stroke="#000000" points="257.5,-309.5 257.5,-379.5 527.5,-379.5 527.5,-309.5 257.5,-309.5"/>
<text text-anchor="middle" x="392.5" y="-364.3" font-family="Times,serif" font-size="14.00" fill="#000000">rdkit.Chem.MolStandardize.charge.Uncharger</text>
<polyline fill="none" stroke="#000000" points="257.5,-356.5 527.5,-356.5 "/>
<polyline fill="none" stroke="#000000" points="257.5,-332.5 527.5,-332.5 "/>
<text text-anchor="start" x="265.5" y="-317.3" font-family="Times,serif" font-size="14.00" fill="#000000">uncharge()</text>
</g>
<!-- 4&#45;&gt;6 -->
<g id="edge1" class="edge">
<title>4&#45;&gt;6</title>
<path fill="none" stroke="#000000" d="M319.8984,-130.2464C337.0261,-180.7917 361.6504,-253.4603 377.3608,-299.823"/>
<polygon fill="none" stroke="#000000" points="374.0478,-300.9519 380.5721,-309.2997 380.6775,-298.7053 374.0478,-300.9519"/>
</g>
<!-- 5&#45;&gt;1 -->
<g id="edge2" class="edge">
<title>5&#45;&gt;1</title>
<path fill="none" stroke="#000000" d="M119.5,-491.5192C119.5,-501.4019 119.5,-510.8272 119.5,-519.4174"/>
<polygon fill="none" stroke="#000000" points="116.0001,-519.456 119.5,-529.456 123.0001,-519.456 116.0001,-519.456"/>
</g>
</g>
</svg>
