<?xml version="1.0" encoding="UTF-8" standalone="no"?>
<!DOCTYPE svg PUBLIC "-//W3C//DTD SVG 1.1//EN"
 "http://www.w3.org/Graphics/SVG/1.1/DTD/svg11.dtd">
<!-- Generated by graphviz version 2.40.1 (20161225.0304)
 -->
<!-- Title: classes_npfc Pages: 1 -->
<svg width="730pt" height="696pt"
 viewBox="0.00 0.00 729.50 696.00" xmlns="http://www.w3.org/2000/svg" xmlns:xlink="http://www.w3.org/1999/xlink">
<g id="graph0" class="graph" transform="scale(1 1) rotate(0) translate(4 692)">
<title>classes_npfc</title>
<polygon fill="#ffffff" stroke="transparent" points="-4,4 -4,-692 725.5,-692 725.5,4 -4,4"/>
<!-- 0 -->
<g id="node1" class="node">
<title>0</title>
<polygon fill="none" stroke="#000000" points="38.5,-8 38.5,-107 188.5,-107 188.5,-8 38.5,-8"/>
<text text-anchor="middle" x="113.5" y="-91.8" font-family="Times,serif" font-size="14.00" fill="#000000">npfc.draw.ColorMap</text>
<polyline fill="none" stroke="#000000" points="38.5,-84 188.5,-84 "/>
<text text-anchor="start" x="46.5" y="-68.8" font-family="Times,serif" font-size="14.00" fill="#000000">atoms</text>
<text text-anchor="start" x="46.5" y="-53.8" font-family="Times,serif" font-size="14.00" fill="#000000">bonds</text>
<text text-anchor="start" x="46.5" y="-38.8" font-family="Times,serif" font-size="14.00" fill="#000000">fragments : OrderedDict</text>
<polyline fill="none" stroke="#000000" points="38.5,-31 188.5,-31 "/>
<text text-anchor="middle" x="113.5" y="-15.8" font-family="Times,serif" font-size="14.00" fill="#000000"> </text>
</g>
<!-- 1 -->
<g id="node2" class="node">
<title>1</title>
<polygon fill="none" stroke="#000000" points="66,-618.5 66,-687.5 173,-687.5 173,-618.5 66,-618.5"/>
<text text-anchor="middle" x="119.5" y="-672.3" font-family="Times,serif" font-size="14.00" fill="#000000">npfc.filter.Filter</text>
<polyline fill="none" stroke="#000000" points="66,-664.5 173,-664.5 "/>
<text text-anchor="start" x="74" y="-649.3" font-family="Times,serif" font-size="14.00" fill="#000000">descriptors : dict</text>
<polyline fill="none" stroke="#000000" points="66,-641.5 173,-641.5 "/>
<text text-anchor="start" x="74" y="-626.3" font-family="Times,serif" font-size="14.00" fill="#000000">filter_mol()</text>
</g>
<!-- 2 -->
<g id="node3" class="node">
<title>2</title>
<polygon fill="none" stroke="#000000" points="554.5,-22.5 554.5,-92.5 712.5,-92.5 712.5,-22.5 554.5,-22.5"/>
<text text-anchor="middle" x="633.5" y="-77.3" font-family="Times,serif" font-size="14.00" fill="#000000">npfc.save.SafeHDF5Store</text>
<polyline fill="none" stroke="#000000" points="554.5,-69.5 712.5,-69.5 "/>
<polyline fill="none" stroke="#000000" points="554.5,-45.5 712.5,-45.5 "/>
<text text-anchor="middle" x="633.5" y="-30.3" font-family="Times,serif" font-size="14.00" fill="#000000"> </text>
</g>
<!-- 5 -->
<g id="node6" class="node">
<title>5</title>
<polygon fill="none" stroke="#000000" points="545.5,-166.5 545.5,-580.5 721.5,-580.5 721.5,-166.5 545.5,-166.5"/>
<text text-anchor="middle" x="633.5" y="-565.3" font-family="Times,serif" font-size="14.00" fill="#000000">pandas.io.pytables.HDFStore</text>
<polyline fill="none" stroke="#000000" points="545.5,-557.5 721.5,-557.5 "/>
<text text-anchor="start" x="553.5" y="-542.3" font-family="Times,serif" font-size="14.00" fill="#000000">filename</text>
<text text-anchor="start" x="553.5" y="-527.3" font-family="Times,serif" font-size="14.00" fill="#000000">is_open</text>
<text text-anchor="start" x="553.5" y="-512.3" font-family="Times,serif" font-size="14.00" fill="#000000">iteritems</text>
<text text-anchor="start" x="553.5" y="-497.3" font-family="Times,serif" font-size="14.00" fill="#000000">root</text>
<polyline fill="none" stroke="#000000" points="545.5,-489.5 721.5,-489.5 "/>
<text text-anchor="start" x="553.5" y="-474.3" font-family="Times,serif" font-size="14.00" fill="#000000">append()</text>
<text text-anchor="start" x="553.5" y="-459.3" font-family="Times,serif" font-size="14.00" fill="#000000">append_to_multiple()</text>
<text text-anchor="start" x="553.5" y="-444.3" font-family="Times,serif" font-size="14.00" fill="#000000">close()</text>
<text text-anchor="start" x="553.5" y="-429.3" font-family="Times,serif" font-size="14.00" fill="#000000">copy()</text>
<text text-anchor="start" x="553.5" y="-414.3" font-family="Times,serif" font-size="14.00" fill="#000000">create_table_index()</text>
<text text-anchor="start" x="553.5" y="-399.3" font-family="Times,serif" font-size="14.00" fill="#000000">flush()</text>
<text text-anchor="start" x="553.5" y="-384.3" font-family="Times,serif" font-size="14.00" fill="#000000">get()</text>
<text text-anchor="start" x="553.5" y="-369.3" font-family="Times,serif" font-size="14.00" fill="#000000">get_node()</text>
<text text-anchor="start" x="553.5" y="-354.3" font-family="Times,serif" font-size="14.00" fill="#000000">get_storer()</text>
<text text-anchor="start" x="553.5" y="-339.3" font-family="Times,serif" font-size="14.00" fill="#000000">groups()</text>
<text text-anchor="start" x="553.5" y="-324.3" font-family="Times,serif" font-size="14.00" fill="#000000">info()</text>
<text text-anchor="start" x="553.5" y="-309.3" font-family="Times,serif" font-size="14.00" fill="#000000">items()</text>
<text text-anchor="start" x="553.5" y="-294.3" font-family="Times,serif" font-size="14.00" fill="#000000">keys()</text>
<text text-anchor="start" x="553.5" y="-279.3" font-family="Times,serif" font-size="14.00" fill="#000000">open()</text>
<text text-anchor="start" x="553.5" y="-264.3" font-family="Times,serif" font-size="14.00" fill="#000000">put()</text>
<text text-anchor="start" x="553.5" y="-249.3" font-family="Times,serif" font-size="14.00" fill="#000000">remove()</text>
<text text-anchor="start" x="553.5" y="-234.3" font-family="Times,serif" font-size="14.00" fill="#000000">select()</text>
<text text-anchor="start" x="553.5" y="-219.3" font-family="Times,serif" font-size="14.00" fill="#000000">select_as_coordinates()</text>
<text text-anchor="start" x="553.5" y="-204.3" font-family="Times,serif" font-size="14.00" fill="#000000">select_as_multiple()</text>
<text text-anchor="start" x="553.5" y="-189.3" font-family="Times,serif" font-size="14.00" fill="#000000">select_column()</text>
<text text-anchor="start" x="553.5" y="-174.3" font-family="Times,serif" font-size="14.00" fill="#000000">walk()</text>
</g>
<!-- 2&#45;&gt;5 -->
<g id="edge1" class="edge">
<title>2&#45;&gt;5</title>
<path fill="none" stroke="#000000" d="M633.5,-92.5249C633.5,-109.6142 633.5,-131.7264 633.5,-156.0378"/>
<polygon fill="none" stroke="#000000" points="630.0001,-156.2043 633.5,-166.2044 637.0001,-156.2044 630.0001,-156.2043"/>
</g>
<!-- 3 -->
<g id="node4" class="node">
<title>3</title>
<polygon fill="none" stroke="#000000" points="206.5,-.5 206.5,-114.5 394.5,-114.5 394.5,-.5 206.5,-.5"/>
<text text-anchor="middle" x="300.5" y="-99.3" font-family="Times,serif" font-size="14.00" fill="#000000">npfc.standardize.FullUncharger</text>
<polyline fill="none" stroke="#000000" points="206.5,-91.5 394.5,-91.5 "/>
<text text-anchor="start" x="214.5" y="-76.3" font-family="Times,serif" font-size="14.00" fill="#000000">q_neg_1</text>
<text text-anchor="start" x="214.5" y="-61.3" font-family="Times,serif" font-size="14.00" fill="#000000">q_neg_2</text>
<text text-anchor="start" x="214.5" y="-46.3" font-family="Times,serif" font-size="14.00" fill="#000000">q_pos_1</text>
<text text-anchor="start" x="214.5" y="-31.3" font-family="Times,serif" font-size="14.00" fill="#000000">q_pos_2</text>
<polyline fill="none" stroke="#000000" points="206.5,-23.5 394.5,-23.5 "/>
<text text-anchor="start" x="214.5" y="-8.3" font-family="Times,serif" font-size="14.00" fill="#000000">full_uncharge()</text>
</g>
<!-- 4 -->
<g id="node5" class="node">
<title>4</title>
<polygon fill="none" stroke="#000000" points="0,-226.5 0,-520.5 239,-520.5 239,-226.5 0,-226.5"/>
<text text-anchor="middle" x="119.5" y="-505.3" font-family="Times,serif" font-size="14.00" fill="#000000">npfc.standardize.Standardizer</text>
<polyline fill="none" stroke="#000000" points="0,-497.5 239,-497.5 "/>
<text text-anchor="start" x="8" y="-482.3" font-family="Times,serif" font-size="14.00" fill="#000000">canonicalizer : TautomerCanonicalizer</text>
<text text-anchor="start" x="8" y="-467.3" font-family="Times,serif" font-size="14.00" fill="#000000">col_id</text>
<text text-anchor="start" x="8" y="-452.3" font-family="Times,serif" font-size="14.00" fill="#000000">col_mol</text>
<text text-anchor="start" x="8" y="-437.3" font-family="Times,serif" font-size="14.00" fill="#000000">compute_2D</text>
<text text-anchor="start" x="8" y="-422.3" font-family="Times,serif" font-size="14.00" fill="#000000">elements_medchem</text>
<text text-anchor="start" x="8" y="-407.3" font-family="Times,serif" font-size="14.00" fill="#000000">filter_duplicates</text>
<text text-anchor="start" x="8" y="-392.3" font-family="Times,serif" font-size="14.00" fill="#000000">full_uncharger</text>
<text text-anchor="start" x="8" y="-377.3" font-family="Times,serif" font-size="14.00" fill="#000000">metal_disconnector : MetalDisconnector</text>
<text text-anchor="start" x="8" y="-362.3" font-family="Times,serif" font-size="14.00" fill="#000000">normalizer : Normalizer</text>
<text text-anchor="start" x="8" y="-347.3" font-family="Times,serif" font-size="14.00" fill="#000000">on</text>
<text text-anchor="start" x="8" y="-332.3" font-family="Times,serif" font-size="14.00" fill="#000000">protocol</text>
<text text-anchor="start" x="8" y="-317.3" font-family="Times,serif" font-size="14.00" fill="#000000">ref_file</text>
<text text-anchor="start" x="8" y="-302.3" font-family="Times,serif" font-size="14.00" fill="#000000">suffix</text>
<polyline fill="none" stroke="#000000" points="0,-294.5 239,-294.5 "/>
<text text-anchor="start" x="8" y="-279.3" font-family="Times,serif" font-size="14.00" fill="#000000">keep_best()</text>
<text text-anchor="start" x="8" y="-264.3" font-family="Times,serif" font-size="14.00" fill="#000000">remove_isotopes()</text>
<text text-anchor="start" x="8" y="-249.3" font-family="Times,serif" font-size="14.00" fill="#000000">run()</text>
<text text-anchor="start" x="8" y="-234.3" font-family="Times,serif" font-size="14.00" fill="#000000">run_df()</text>
</g>
<!-- 3&#45;&gt;4 -->
<g id="edge4" class="edge">
<title>3&#45;&gt;4</title>
<path fill="none" stroke="#000000" d="M252.2208,-114.6653C247.7399,-120.7261 243.4175,-126.9042 239.5,-133 222.8347,-158.9321 206.7796,-187.4955 192.1295,-215.6052"/>
<polygon fill="#000000" stroke="#000000" points="192.0879,-215.686 192.8912,-222.8522 186.5852,-226.3499 185.7819,-219.1837 192.0879,-215.686"/>
<text text-anchor="middle" x="279.5" y="-136.8" font-family="Times,serif" font-size="14.00" fill="#00ff00">full_uncharger</text>
</g>
<!-- 6 -->
<g id="node7" class="node">
<title>6</title>
<polygon fill="none" stroke="#000000" points="257.5,-338.5 257.5,-408.5 527.5,-408.5 527.5,-338.5 257.5,-338.5"/>
<text text-anchor="middle" x="392.5" y="-393.3" font-family="Times,serif" font-size="14.00" fill="#000000">rdkit.Chem.MolStandardize.charge.Uncharger</text>
<polyline fill="none" stroke="#000000" points="257.5,-385.5 527.5,-385.5 "/>
<polyline fill="none" stroke="#000000" points="257.5,-361.5 527.5,-361.5 "/>
<text text-anchor="start" x="265.5" y="-346.3" font-family="Times,serif" font-size="14.00" fill="#000000">uncharge()</text>
</g>
<!-- 3&#45;&gt;6 -->
<g id="edge2" class="edge">
<title>3&#45;&gt;6</title>
<path fill="none" stroke="#000000" d="M317.1605,-114.7252C335.0389,-176.1336 363.0655,-272.3988 379.423,-328.5834"/>
<polygon fill="none" stroke="#000000" points="376.0826,-329.631 382.2385,-338.254 382.8036,-327.6742 376.0826,-329.631"/>
</g>
<!-- 4&#45;&gt;1 -->
<g id="edge3" class="edge">
<title>4&#45;&gt;1</title>
<path fill="none" stroke="#000000" d="M119.5,-520.6166C119.5,-552.4645 119.5,-583.8009 119.5,-607.985"/>
<polygon fill="none" stroke="#000000" points="116.0001,-608.23 119.5,-618.2301 123.0001,-608.2301 116.0001,-608.23"/>
</g>
</g>
</svg>
