<?xml version="1.0" encoding="UTF-8" standalone="no"?>
<!DOCTYPE svg PUBLIC "-//W3C//DTD SVG 1.1//EN"
 "http://www.w3.org/Graphics/SVG/1.1/DTD/svg11.dtd">
<!-- Generated by graphviz version 2.49.0 (20210829.0051)
 -->
<!-- Title: classes_npfc Pages: 1 -->
<svg width="3405pt" height="786pt"
 viewBox="0.00 0.00 3404.50 786.00" xmlns="http://www.w3.org/2000/svg" xmlns:xlink="http://www.w3.org/1999/xlink">
<g id="graph0" class="graph" transform="scale(1 1) rotate(0) translate(4 782)">
<title>classes_npfc</title>
<polygon fill="white" stroke="transparent" points="-4,4 -4,-782 3400.5,-782 3400.5,4 -4,4"/>
<!-- 0 -->
<g id="node1" class="node">
<title>0</title>
<polygon fill="none" stroke="black" points="0,-45.5 0,-129.5 276,-129.5 276,-45.5 0,-45.5"/>
<text text-anchor="middle" x="138" y="-114.3" font-family="Times,serif" font-size="14.00">npfc.contrib.np_score.NPScorer</text>
<polyline fill="none" stroke="black" points="0,-106.5 276,-106.5 "/>
<text text-anchor="start" x="8" y="-91.3" font-family="Times,serif" font-size="14.00">file_model : str</text>
<text text-anchor="start" x="8" y="-76.3" font-family="Times,serif" font-size="14.00">fscores</text>
<polyline fill="none" stroke="black" points="0,-68.5 276,-68.5 "/>
<text text-anchor="start" x="8" y="-53.3" font-family="Times,serif" font-size="14.00">score(mol: Mol, confidence): Union[float, dict]</text>
</g>
<!-- 1 -->
<g id="node2" class="node">
<title>1</title>
<polygon fill="none" stroke="black" points="294.5,-38 294.5,-137 483.5,-137 483.5,-38 294.5,-38"/>
<text text-anchor="middle" x="389" y="-121.8" font-family="Times,serif" font-size="14.00">npfc.contrib.sa_score.SAScorer</text>
<polyline fill="none" stroke="black" points="294.5,-114 483.5,-114 "/>
<text text-anchor="start" x="302.5" y="-98.8" font-family="Times,serif" font-size="14.00">file_model : str</text>
<text text-anchor="start" x="302.5" y="-83.8" font-family="Times,serif" font-size="14.00">fscores : dict</text>
<polyline fill="none" stroke="black" points="294.5,-76 483.5,-76 "/>
<text text-anchor="start" x="302.5" y="-60.8" font-family="Times,serif" font-size="14.00">load_model(file_model: str)</text>
<text text-anchor="start" x="302.5" y="-45.8" font-family="Times,serif" font-size="14.00">score(m: Mol): float</text>
</g>
<!-- 2 -->
<g id="node3" class="node">
<title>2</title>
<polygon fill="none" stroke="black" points="502,-30.5 502,-144.5 636,-144.5 636,-30.5 502,-30.5"/>
<text text-anchor="middle" x="569" y="-129.3" font-family="Times,serif" font-size="14.00">npfc.draw.ColorMap</text>
<polyline fill="none" stroke="black" points="502,-121.5 636,-121.5 "/>
<text text-anchor="start" x="510" y="-106.3" font-family="Times,serif" font-size="14.00">atoms : dict</text>
<text text-anchor="start" x="510" y="-91.3" font-family="Times,serif" font-size="14.00">bonds : dict</text>
<text text-anchor="start" x="510" y="-76.3" font-family="Times,serif" font-size="14.00">fragments : dict</text>
<text text-anchor="start" x="510" y="-61.3" font-family="Times,serif" font-size="14.00">palette : Optional[str]</text>
<polyline fill="none" stroke="black" points="502,-53.5 636,-53.5 "/>
<text text-anchor="start" x="510" y="-38.3" font-family="Times,serif" font-size="14.00">blend()</text>
</g>
<!-- 3 -->
<g id="node4" class="node">
<title>3</title>
<polygon fill="none" stroke="black" points="654,-0.5 654,-174.5 1008,-174.5 1008,-0.5 654,-0.5"/>
<text text-anchor="middle" x="831" y="-159.3" font-family="Times,serif" font-size="14.00">npfc.draw.DepictionValidator</text>
<polyline fill="none" stroke="black" points="654,-151.5 1008,-151.5 "/>
<text text-anchor="start" x="662" y="-136.3" font-family="Times,serif" font-size="14.00">bonds</text>
<text text-anchor="start" x="662" y="-121.3" font-family="Times,serif" font-size="14.00">conformer</text>
<text text-anchor="start" x="662" y="-106.3" font-family="Times,serif" font-size="14.00">kd_tree : KDTree</text>
<text text-anchor="start" x="662" y="-91.3" font-family="Times,serif" font-size="14.00">mol</text>
<polyline fill="none" stroke="black" points="654,-83.5 1008,-83.5 "/>
<text text-anchor="start" x="662" y="-68.3" font-family="Times,serif" font-size="14.00">count_bond_collisions()</text>
<text text-anchor="start" x="662" y="-53.3" font-family="Times,serif" font-size="14.00">count_suboptimal_atom_positions(lowerBound, upperBound)</text>
<text text-anchor="start" x="662" y="-38.3" font-family="Times,serif" font-size="14.00">depiction_score()</text>
<text text-anchor="start" x="662" y="-23.3" font-family="Times,serif" font-size="14.00">has_bond_crossing()</text>
<text text-anchor="start" x="662" y="-8.3" font-family="Times,serif" font-size="14.00">has_degenerated_atom_positions(threshold)</text>
</g>
<!-- 4 -->
<g id="node5" class="node">
<title>4</title>
<polygon fill="none" stroke="black" points="1026.5,-30.5 1026.5,-144.5 1205.5,-144.5 1205.5,-30.5 1026.5,-30.5"/>
<text text-anchor="middle" x="1116" y="-129.3" font-family="Times,serif" font-size="14.00">npfc.draw.FragmentHighlight</text>
<polyline fill="none" stroke="black" points="1026.5,-121.5 1205.5,-121.5 "/>
<text text-anchor="start" x="1034.5" y="-106.3" font-family="Times,serif" font-size="14.00">atoms</text>
<text text-anchor="start" x="1034.5" y="-91.3" font-family="Times,serif" font-size="14.00">bonds : dict</text>
<text text-anchor="start" x="1034.5" y="-76.3" font-family="Times,serif" font-size="14.00">fragments</text>
<text text-anchor="start" x="1034.5" y="-61.3" font-family="Times,serif" font-size="14.00">num_fragments</text>
<polyline fill="none" stroke="black" points="1026.5,-53.5 1205.5,-53.5 "/>
<text text-anchor="middle" x="1116" y="-38.3" font-family="Times,serif" font-size="14.00"> </text>
</g>
<!-- 5 -->
<g id="node6" class="node">
<title>5</title>
<polygon fill="none" stroke="black" points="1223.5,-38 1223.5,-137 1386.5,-137 1386.5,-38 1223.5,-38"/>
<text text-anchor="middle" x="1305" y="-121.8" font-family="Times,serif" font-size="14.00">npfc.draw.Palette</text>
<polyline fill="none" stroke="black" points="1223.5,-114 1386.5,-114 "/>
<text text-anchor="start" x="1231.5" y="-98.8" font-family="Times,serif" font-size="14.00">colors</text>
<text text-anchor="start" x="1231.5" y="-83.8" font-family="Times,serif" font-size="14.00">colors_ini : list, NoneType</text>
<text text-anchor="start" x="1231.5" y="-68.8" font-family="Times,serif" font-size="14.00">num_colors</text>
<polyline fill="none" stroke="black" points="1223.5,-61 1386.5,-61 "/>
<text text-anchor="start" x="1231.5" y="-45.8" font-family="Times,serif" font-size="14.00">show()</text>
</g>
<!-- 6 -->
<g id="node7" class="node">
<title>6</title>
<polygon fill="none" stroke="black" points="1129,-678.5 1129,-777.5 1443,-777.5 1443,-678.5 1129,-678.5"/>
<text text-anchor="middle" x="1286" y="-762.3" font-family="Times,serif" font-size="14.00">npfc.filter.Filter</text>
<polyline fill="none" stroke="black" points="1129,-754.5 1443,-754.5 "/>
<text text-anchor="start" x="1137" y="-739.3" font-family="Times,serif" font-size="14.00">descriptors : list</text>
<polyline fill="none" stroke="black" points="1129,-731.5 1443,-731.5 "/>
<text text-anchor="start" x="1137" y="-716.3" font-family="Times,serif" font-size="14.00">compute_descriptors(mol: Mol, descriptors: List): dict</text>
<text text-anchor="start" x="1137" y="-701.3" font-family="Times,serif" font-size="14.00">filter_mol(mol: Mol, expr: str): bool</text>
<text text-anchor="start" x="1137" y="-686.3" font-family="Times,serif" font-size="14.00">get_possible_descriptors(): List</text>
</g>
<!-- 7 -->
<g id="node8" class="node">
<title>7</title>
<polygon fill="none" stroke="black" points="1611.5,-52.5 1611.5,-122.5 1862.5,-122.5 1862.5,-52.5 1611.5,-52.5"/>
<text text-anchor="middle" x="1737" y="-107.3" font-family="Times,serif" font-size="14.00">npfc.report.ReporterFragmentCombination</text>
<polyline fill="none" stroke="black" points="1611.5,-99.5 1862.5,-99.5 "/>
<polyline fill="none" stroke="black" points="1611.5,-75.5 1862.5,-75.5 "/>
<text text-anchor="middle" x="1737" y="-60.3" font-family="Times,serif" font-size="14.00"> </text>
</g>
<!-- 8 -->
<g id="node9" class="node">
<title>8</title>
<polygon fill="none" stroke="black" points="1880.5,-52.5 1880.5,-122.5 2165.5,-122.5 2165.5,-52.5 1880.5,-52.5"/>
<text text-anchor="middle" x="2023" y="-107.3" font-family="Times,serif" font-size="14.00">npfc.report.ReporterFragmentCombinationGraph</text>
<polyline fill="none" stroke="black" points="1880.5,-99.5 2165.5,-99.5 "/>
<polyline fill="none" stroke="black" points="1880.5,-75.5 2165.5,-75.5 "/>
<text text-anchor="middle" x="2023" y="-60.3" font-family="Times,serif" font-size="14.00"> </text>
</g>
<!-- 9 -->
<g id="node10" class="node">
<title>9</title>
<polygon fill="none" stroke="black" points="2183.5,-52.5 2183.5,-122.5 2400.5,-122.5 2400.5,-52.5 2183.5,-52.5"/>
<text text-anchor="middle" x="2292" y="-107.3" font-family="Times,serif" font-size="14.00">npfc.report.ReporterFragmentSearch</text>
<polyline fill="none" stroke="black" points="2183.5,-99.5 2400.5,-99.5 "/>
<polyline fill="none" stroke="black" points="2183.5,-75.5 2400.5,-75.5 "/>
<text text-anchor="middle" x="2292" y="-60.3" font-family="Times,serif" font-size="14.00"> </text>
</g>
<!-- 10 -->
<g id="node11" class="node">
<title>10</title>
<polygon fill="none" stroke="black" points="2419,-52.5 2419,-122.5 2571,-122.5 2571,-52.5 2419,-52.5"/>
<text text-anchor="middle" x="2495" y="-107.3" font-family="Times,serif" font-size="14.00">npfc.report.ReporterPNP</text>
<polyline fill="none" stroke="black" points="2419,-99.5 2571,-99.5 "/>
<polyline fill="none" stroke="black" points="2419,-75.5 2571,-75.5 "/>
<text text-anchor="middle" x="2495" y="-60.3" font-family="Times,serif" font-size="14.00"> </text>
</g>
<!-- 11 -->
<g id="node12" class="node">
<title>11</title>
<polygon fill="none" stroke="black" points="2589.5,-52.5 2589.5,-122.5 2758.5,-122.5 2758.5,-52.5 2589.5,-52.5"/>
<text text-anchor="middle" x="2674" y="-107.3" font-family="Times,serif" font-size="14.00">npfc.report.ReporterProcess</text>
<polyline fill="none" stroke="black" points="2589.5,-99.5 2758.5,-99.5 "/>
<polyline fill="none" stroke="black" points="2589.5,-75.5 2758.5,-75.5 "/>
<text text-anchor="middle" x="2674" y="-60.3" font-family="Times,serif" font-size="14.00"> </text>
</g>
<!-- 12 -->
<g id="node13" class="node">
<title>12</title>
<polygon fill="none" stroke="black" points="2776,-52.5 2776,-122.5 2934,-122.5 2934,-52.5 2776,-52.5"/>
<text text-anchor="middle" x="2855" y="-107.3" font-family="Times,serif" font-size="14.00">npfc.save.SafeHDF5Store</text>
<polyline fill="none" stroke="black" points="2776,-99.5 2934,-99.5 "/>
<polyline fill="none" stroke="black" points="2776,-75.5 2934,-75.5 "/>
<text text-anchor="middle" x="2855" y="-60.3" font-family="Times,serif" font-size="14.00"> </text>
</g>
<!-- 15 -->
<g id="node16" class="node">
<title>15</title>
<polygon fill="none" stroke="black" points="2313.5,-226.5 2313.5,-640.5 3396.5,-640.5 3396.5,-226.5 2313.5,-226.5"/>
<text text-anchor="middle" x="2855" y="-625.3" font-family="Times,serif" font-size="14.00">pandas.io.pytables.HDFStore</text>
<polyline fill="none" stroke="black" points="2313.5,-617.5 3396.5,-617.5 "/>
<text text-anchor="start" x="2321.5" y="-602.3" font-family="Times,serif" font-size="14.00">filename</text>
<text text-anchor="start" x="2321.5" y="-587.3" font-family="Times,serif" font-size="14.00">is_open</text>
<text text-anchor="start" x="2321.5" y="-572.3" font-family="Times,serif" font-size="14.00">iteritems</text>
<text text-anchor="start" x="2321.5" y="-557.3" font-family="Times,serif" font-size="14.00">root</text>
<polyline fill="none" stroke="black" points="2313.5,-549.5 3396.5,-549.5 "/>
<text text-anchor="start" x="2321.5" y="-534.3" font-family="Times,serif" font-size="14.00">append(key: str, value: FrameOrSeries, format, axes, index, append, complib, complevel, columns, min_itemsize, nan_rep, chunksize, expectedrows, dropna, data_columns, encoding, errors: str)</text>
<text text-anchor="start" x="2321.5" y="-519.3" font-family="Times,serif" font-size="14.00">append_to_multiple(d: dict, value, selector, data_columns, axes, dropna)</text>
<text text-anchor="start" x="2321.5" y="-504.3" font-family="Times,serif" font-size="14.00">close()</text>
<text text-anchor="start" x="2321.5" y="-489.3" font-family="Times,serif" font-size="14.00">copy(file, mode, propindexes: bool, keys, complib, complevel, fletcher32: bool, overwrite)</text>
<text text-anchor="start" x="2321.5" y="-474.3" font-family="Times,serif" font-size="14.00">create_table_index(key: str, columns, optlevel, kind)</text>
<text text-anchor="start" x="2321.5" y="-459.3" font-family="Times,serif" font-size="14.00">flush(fsync: bool)</text>
<text text-anchor="start" x="2321.5" y="-444.3" font-family="Times,serif" font-size="14.00">get(key: str)</text>
<text text-anchor="start" x="2321.5" y="-429.3" font-family="Times,serif" font-size="14.00">get_node(key: str): </text>
<text text-anchor="start" x="2321.5" y="-414.3" font-family="Times,serif" font-size="14.00">get_storer(key: str): </text>
<text text-anchor="start" x="2321.5" y="-399.3" font-family="Times,serif" font-size="14.00">groups()</text>
<text text-anchor="start" x="2321.5" y="-384.3" font-family="Times,serif" font-size="14.00">info(): str</text>
<text text-anchor="start" x="2321.5" y="-369.3" font-family="Times,serif" font-size="14.00">items()</text>
<text text-anchor="start" x="2321.5" y="-354.3" font-family="Times,serif" font-size="14.00">keys(include: str): list[str]</text>
<text text-anchor="start" x="2321.5" y="-339.3" font-family="Times,serif" font-size="14.00">open(mode: str)</text>
<text text-anchor="start" x="2321.5" y="-324.3" font-family="Times,serif" font-size="14.00">put(key: str, value: FrameOrSeries, format, index, append, complib, complevel, min_itemsize, nan_rep, data_columns, encoding, errors: str, track_times: bool, dropna: bool)</text>
<text text-anchor="start" x="2321.5" y="-309.3" font-family="Times,serif" font-size="14.00">remove(key: str, where, start, stop)</text>
<text text-anchor="start" x="2321.5" y="-294.3" font-family="Times,serif" font-size="14.00">select(key: str, where, start, stop, columns, iterator, chunksize, auto_close: bool)</text>
<text text-anchor="start" x="2321.5" y="-279.3" font-family="Times,serif" font-size="14.00">select_as_coordinates(key: str, where, start, stop)</text>
<text text-anchor="start" x="2321.5" y="-264.3" font-family="Times,serif" font-size="14.00">select_as_multiple(keys, where, selector, columns, start, stop, iterator, chunksize, auto_close: bool)</text>
<text text-anchor="start" x="2321.5" y="-249.3" font-family="Times,serif" font-size="14.00">select_column(key: str, column: str, start, stop)</text>
<text text-anchor="start" x="2321.5" y="-234.3" font-family="Times,serif" font-size="14.00">walk(where)</text>
</g>
<!-- 12&#45;&gt;15 -->
<g id="edge1" class="edge">
<title>12&#45;&gt;15</title>
<path fill="none" stroke="black" d="M2855,-122.74C2855,-146.28 2855,-179.74 2855,-216.04"/>
<polygon fill="none" stroke="black" points="2851.5,-216.35 2855,-226.35 2858.5,-216.35 2851.5,-216.35"/>
</g>
<!-- 13 -->
<g id="node14" class="node">
<title>13</title>
<polygon fill="none" stroke="black" points="1405,-30.5 1405,-144.5 1593,-144.5 1593,-30.5 1405,-30.5"/>
<text text-anchor="middle" x="1499" y="-129.3" font-family="Times,serif" font-size="14.00">npfc.standardize.FullUncharger</text>
<polyline fill="none" stroke="black" points="1405,-121.5 1593,-121.5 "/>
<text text-anchor="start" x="1413" y="-106.3" font-family="Times,serif" font-size="14.00">q_neg_1</text>
<text text-anchor="start" x="1413" y="-91.3" font-family="Times,serif" font-size="14.00">q_neg_2</text>
<text text-anchor="start" x="1413" y="-76.3" font-family="Times,serif" font-size="14.00">q_pos_1</text>
<text text-anchor="start" x="1413" y="-61.3" font-family="Times,serif" font-size="14.00">q_pos_2</text>
<polyline fill="none" stroke="black" points="1405,-53.5 1593,-53.5 "/>
<text text-anchor="start" x="1413" y="-38.3" font-family="Times,serif" font-size="14.00">full_uncharge(mol: Mol): Mol</text>
</g>
<!-- 14 -->
<g id="node15" class="node">
<title>14</title>
<polygon fill="none" stroke="black" points="1123,-294 1123,-573 1449,-573 1449,-294 1123,-294"/>
<text text-anchor="middle" x="1286" y="-557.8" font-family="Times,serif" font-size="14.00">npfc.standardize.Standardizer</text>
<polyline fill="none" stroke="black" points="1123,-550 1449,-550 "/>
<text text-anchor="start" x="1131" y="-534.8" font-family="Times,serif" font-size="14.00">canonicalizer : TautomerCanonicalizer</text>
<text text-anchor="start" x="1131" y="-519.8" font-family="Times,serif" font-size="14.00">col_id</text>
<text text-anchor="start" x="1131" y="-504.8" font-family="Times,serif" font-size="14.00">col_mol</text>
<text text-anchor="start" x="1131" y="-489.8" font-family="Times,serif" font-size="14.00">elements_medchem</text>
<text text-anchor="start" x="1131" y="-474.8" font-family="Times,serif" font-size="14.00">full_uncharger</text>
<text text-anchor="start" x="1131" y="-459.8" font-family="Times,serif" font-size="14.00">metal_disconnector : MetalDisconnector</text>
<text text-anchor="start" x="1131" y="-444.8" font-family="Times,serif" font-size="14.00">normalizer : Normalizer</text>
<text text-anchor="start" x="1131" y="-429.8" font-family="Times,serif" font-size="14.00">protocol</text>
<text text-anchor="start" x="1131" y="-414.8" font-family="Times,serif" font-size="14.00">timeout</text>
<polyline fill="none" stroke="black" points="1123,-407 1449,-407 "/>
<text text-anchor="start" x="1131" y="-391.8" font-family="Times,serif" font-size="14.00">clear_isotopes(mol: Mol): Mol</text>
<text text-anchor="start" x="1131" y="-376.8" font-family="Times,serif" font-size="14.00">clear_mixtures(mol: Mol): Mol</text>
<text text-anchor="start" x="1131" y="-361.8" font-family="Times,serif" font-size="14.00">clear_side_chains(mol: Mol, debug: bool): Mol</text>
<text text-anchor="start" x="1131" y="-346.8" font-family="Times,serif" font-size="14.00">deglycosylate(mol: Mol, mode: str): Union[Mol, Graph]</text>
<text text-anchor="start" x="1131" y="-331.8" font-family="Times,serif" font-size="14.00">describe()</text>
<text text-anchor="start" x="1131" y="-316.8" font-family="Times,serif" font-size="14.00">run(mol: Mol, timeout: int): tuple</text>
<text text-anchor="start" x="1131" y="-301.8" font-family="Times,serif" font-size="14.00">run_df(df: DataFrame): tuple</text>
</g>
<!-- 13&#45;&gt;14 -->
<g id="edge4" class="edge">
<title>13&#45;&gt;14</title>
<path fill="none" stroke="black" d="M1464.3,-144.54C1440.92,-182.31 1408.88,-234.04 1378.42,-283.25"/>
<polygon fill="black" stroke="black" points="1378.26,-283.5 1378.5,-290.71 1371.94,-293.7 1371.7,-286.5 1378.26,-283.5"/>
<text text-anchor="middle" x="1471" y="-196.8" font-family="Times,serif" font-size="14.00" fill="green">full_uncharger</text>
</g>
<!-- 16 -->
<g id="node17" class="node">
<title>16</title>
<polygon fill="none" stroke="black" points="1467,-398.5 1467,-468.5 1737,-468.5 1737,-398.5 1467,-398.5"/>
<text text-anchor="middle" x="1602" y="-453.3" font-family="Times,serif" font-size="14.00">rdkit.Chem.MolStandardize.charge.Uncharger</text>
<polyline fill="none" stroke="black" points="1467,-445.5 1737,-445.5 "/>
<polyline fill="none" stroke="black" points="1467,-421.5 1737,-421.5 "/>
<text text-anchor="start" x="1475" y="-406.3" font-family="Times,serif" font-size="14.00">uncharge(mol)</text>
</g>
<!-- 13&#45;&gt;16 -->
<g id="edge2" class="edge">
<title>13&#45;&gt;16</title>
<path fill="none" stroke="black" d="M1515.78,-144.54C1536.19,-212.71 1570.22,-326.37 1588.84,-388.55"/>
<polygon fill="none" stroke="black" points="1585.58,-389.86 1591.8,-398.44 1592.29,-387.86 1585.58,-389.86"/>
</g>
<!-- 14&#45;&gt;6 -->
<g id="edge3" class="edge">
<title>14&#45;&gt;6</title>
<path fill="none" stroke="black" d="M1286,-573.04C1286,-606.56 1286,-640.62 1286,-668.15"/>
<polygon fill="none" stroke="black" points="1282.5,-668.37 1286,-678.37 1289.5,-668.37 1282.5,-668.37"/>
</g>
</g>
</svg>
