<?xml version="1.0" encoding="UTF-8" standalone="no"?>
<!DOCTYPE svg PUBLIC "-//W3C//DTD SVG 1.1//EN"
 "http://www.w3.org/Graphics/SVG/1.1/DTD/svg11.dtd">
<!-- Generated by graphviz version 2.40.1 (20161225.0304)
 -->
<!-- Title: classes_npfc Pages: 1 -->
<svg width="1003pt" height="756pt"
 viewBox="0.00 0.00 1003.00 756.00" xmlns="http://www.w3.org/2000/svg" xmlns:xlink="http://www.w3.org/1999/xlink">
<g id="graph0" class="graph" transform="scale(1 1) rotate(0) translate(4 752)">
<title>classes_npfc</title>
<polygon fill="#ffffff" stroke="transparent" points="-4,4 -4,-752 999,-752 999,4 -4,4"/>
<!-- 0 -->
<g id="node1" class="node">
<title>0</title>
<polygon fill="none" stroke="#000000" points="0,-30.5 0,-144.5 230,-144.5 230,-30.5 0,-30.5"/>
<text text-anchor="middle" x="115" y="-129.3" font-family="Times,serif" font-size="14.00" fill="#000000">npfc.draw.ColorMap</text>
<polyline fill="none" stroke="#000000" points="0,-121.5 230,-121.5 "/>
<text text-anchor="start" x="8" y="-106.3" font-family="Times,serif" font-size="14.00" fill="#000000">atoms : dict</text>
<text text-anchor="start" x="8" y="-91.3" font-family="Times,serif" font-size="14.00" fill="#000000">bonds : dict</text>
<text text-anchor="start" x="8" y="-76.3" font-family="Times,serif" font-size="14.00" fill="#000000">fragments : dict</text>
<text text-anchor="start" x="8" y="-61.3" font-family="Times,serif" font-size="14.00" fill="#000000">palette : dict, _ColorPalette, NoneType</text>
<polyline fill="none" stroke="#000000" points="0,-53.5 230,-53.5 "/>
<text text-anchor="start" x="8" y="-38.3" font-family="Times,serif" font-size="14.00" fill="#000000">blend()</text>
</g>
<!-- 1 -->
<g id="node2" class="node">
<title>1</title>
<polygon fill="none" stroke="#000000" points="248.5,-.5 248.5,-174.5 461.5,-174.5 461.5,-.5 248.5,-.5"/>
<text text-anchor="middle" x="355" y="-159.3" font-family="Times,serif" font-size="14.00" fill="#000000">npfc.draw.DepictionValidator</text>
<polyline fill="none" stroke="#000000" points="248.5,-151.5 461.5,-151.5 "/>
<text text-anchor="start" x="256.5" y="-136.3" font-family="Times,serif" font-size="14.00" fill="#000000">bonds</text>
<text text-anchor="start" x="256.5" y="-121.3" font-family="Times,serif" font-size="14.00" fill="#000000">conformer</text>
<text text-anchor="start" x="256.5" y="-106.3" font-family="Times,serif" font-size="14.00" fill="#000000">kd_tree : KDTree</text>
<text text-anchor="start" x="256.5" y="-91.3" font-family="Times,serif" font-size="14.00" fill="#000000">mol</text>
<polyline fill="none" stroke="#000000" points="248.5,-83.5 461.5,-83.5 "/>
<text text-anchor="start" x="256.5" y="-68.3" font-family="Times,serif" font-size="14.00" fill="#000000">count_bond_collisions()</text>
<text text-anchor="start" x="256.5" y="-53.3" font-family="Times,serif" font-size="14.00" fill="#000000">count_suboptimal_atom_positions()</text>
<text text-anchor="start" x="256.5" y="-38.3" font-family="Times,serif" font-size="14.00" fill="#000000">depiction_score()</text>
<text text-anchor="start" x="256.5" y="-23.3" font-family="Times,serif" font-size="14.00" fill="#000000">has_bond_crossing()</text>
<text text-anchor="start" x="256.5" y="-8.3" font-family="Times,serif" font-size="14.00" fill="#000000">has_degenerated_atom_positions()</text>
</g>
<!-- 2 -->
<g id="node3" class="node">
<title>2</title>
<polygon fill="none" stroke="#000000" points="339.5,-678.5 339.5,-747.5 446.5,-747.5 446.5,-678.5 339.5,-678.5"/>
<text text-anchor="middle" x="393" y="-732.3" font-family="Times,serif" font-size="14.00" fill="#000000">npfc.filter.Filter</text>
<polyline fill="none" stroke="#000000" points="339.5,-724.5 446.5,-724.5 "/>
<text text-anchor="start" x="347.5" y="-709.3" font-family="Times,serif" font-size="14.00" fill="#000000">descriptors : dict</text>
<polyline fill="none" stroke="#000000" points="339.5,-701.5 446.5,-701.5 "/>
<text text-anchor="start" x="347.5" y="-686.3" font-family="Times,serif" font-size="14.00" fill="#000000">filter_mol()</text>
</g>
<!-- 3 -->
<g id="node4" class="node">
<title>3</title>
<polygon fill="none" stroke="#000000" points="828,-52.5 828,-122.5 986,-122.5 986,-52.5 828,-52.5"/>
<text text-anchor="middle" x="907" y="-107.3" font-family="Times,serif" font-size="14.00" fill="#000000">npfc.save.SafeHDF5Store</text>
<polyline fill="none" stroke="#000000" points="828,-99.5 986,-99.5 "/>
<polyline fill="none" stroke="#000000" points="828,-75.5 986,-75.5 "/>
<text text-anchor="middle" x="907" y="-60.3" font-family="Times,serif" font-size="14.00" fill="#000000"> </text>
</g>
<!-- 6 -->
<g id="node7" class="node">
<title>6</title>
<polygon fill="none" stroke="#000000" points="819,-226.5 819,-640.5 995,-640.5 995,-226.5 819,-226.5"/>
<text text-anchor="middle" x="907" y="-625.3" font-family="Times,serif" font-size="14.00" fill="#000000">pandas.io.pytables.HDFStore</text>
<polyline fill="none" stroke="#000000" points="819,-617.5 995,-617.5 "/>
<text text-anchor="start" x="827" y="-602.3" font-family="Times,serif" font-size="14.00" fill="#000000">filename</text>
<text text-anchor="start" x="827" y="-587.3" font-family="Times,serif" font-size="14.00" fill="#000000">is_open</text>
<text text-anchor="start" x="827" y="-572.3" font-family="Times,serif" font-size="14.00" fill="#000000">iteritems</text>
<text text-anchor="start" x="827" y="-557.3" font-family="Times,serif" font-size="14.00" fill="#000000">root</text>
<polyline fill="none" stroke="#000000" points="819,-549.5 995,-549.5 "/>
<text text-anchor="start" x="827" y="-534.3" font-family="Times,serif" font-size="14.00" fill="#000000">append()</text>
<text text-anchor="start" x="827" y="-519.3" font-family="Times,serif" font-size="14.00" fill="#000000">append_to_multiple()</text>
<text text-anchor="start" x="827" y="-504.3" font-family="Times,serif" font-size="14.00" fill="#000000">close()</text>
<text text-anchor="start" x="827" y="-489.3" font-family="Times,serif" font-size="14.00" fill="#000000">copy()</text>
<text text-anchor="start" x="827" y="-474.3" font-family="Times,serif" font-size="14.00" fill="#000000">create_table_index()</text>
<text text-anchor="start" x="827" y="-459.3" font-family="Times,serif" font-size="14.00" fill="#000000">flush()</text>
<text text-anchor="start" x="827" y="-444.3" font-family="Times,serif" font-size="14.00" fill="#000000">get()</text>
<text text-anchor="start" x="827" y="-429.3" font-family="Times,serif" font-size="14.00" fill="#000000">get_node()</text>
<text text-anchor="start" x="827" y="-414.3" font-family="Times,serif" font-size="14.00" fill="#000000">get_storer()</text>
<text text-anchor="start" x="827" y="-399.3" font-family="Times,serif" font-size="14.00" fill="#000000">groups()</text>
<text text-anchor="start" x="827" y="-384.3" font-family="Times,serif" font-size="14.00" fill="#000000">info()</text>
<text text-anchor="start" x="827" y="-369.3" font-family="Times,serif" font-size="14.00" fill="#000000">items()</text>
<text text-anchor="start" x="827" y="-354.3" font-family="Times,serif" font-size="14.00" fill="#000000">keys()</text>
<text text-anchor="start" x="827" y="-339.3" font-family="Times,serif" font-size="14.00" fill="#000000">open()</text>
<text text-anchor="start" x="827" y="-324.3" font-family="Times,serif" font-size="14.00" fill="#000000">put()</text>
<text text-anchor="start" x="827" y="-309.3" font-family="Times,serif" font-size="14.00" fill="#000000">remove()</text>
<text text-anchor="start" x="827" y="-294.3" font-family="Times,serif" font-size="14.00" fill="#000000">select()</text>
<text text-anchor="start" x="827" y="-279.3" font-family="Times,serif" font-size="14.00" fill="#000000">select_as_coordinates()</text>
<text text-anchor="start" x="827" y="-264.3" font-family="Times,serif" font-size="14.00" fill="#000000">select_as_multiple()</text>
<text text-anchor="start" x="827" y="-249.3" font-family="Times,serif" font-size="14.00" fill="#000000">select_column()</text>
<text text-anchor="start" x="827" y="-234.3" font-family="Times,serif" font-size="14.00" fill="#000000">walk()</text>
</g>
<!-- 3&#45;&gt;6 -->
<g id="edge1" class="edge">
<title>3&#45;&gt;6</title>
<path fill="none" stroke="#000000" d="M907,-122.5804C907,-146.2933 907,-179.8163 907,-216.1371"/>
<polygon fill="none" stroke="#000000" points="903.5001,-216.4498 907,-226.4498 910.5001,-216.4499 903.5001,-216.4498"/>
</g>
<!-- 4 -->
<g id="node5" class="node">
<title>4</title>
<polygon fill="none" stroke="#000000" points="480,-30.5 480,-144.5 668,-144.5 668,-30.5 480,-30.5"/>
<text text-anchor="middle" x="574" y="-129.3" font-family="Times,serif" font-size="14.00" fill="#000000">npfc.standardize.FullUncharger</text>
<polyline fill="none" stroke="#000000" points="480,-121.5 668,-121.5 "/>
<text text-anchor="start" x="488" y="-106.3" font-family="Times,serif" font-size="14.00" fill="#000000">q_neg_1</text>
<text text-anchor="start" x="488" y="-91.3" font-family="Times,serif" font-size="14.00" fill="#000000">q_neg_2</text>
<text text-anchor="start" x="488" y="-76.3" font-family="Times,serif" font-size="14.00" fill="#000000">q_pos_1</text>
<text text-anchor="start" x="488" y="-61.3" font-family="Times,serif" font-size="14.00" fill="#000000">q_pos_2</text>
<polyline fill="none" stroke="#000000" points="480,-53.5 668,-53.5 "/>
<text text-anchor="start" x="488" y="-38.3" font-family="Times,serif" font-size="14.00" fill="#000000">full_uncharge()</text>
</g>
<!-- 5 -->
<g id="node6" class="node">
<title>5</title>
<polygon fill="none" stroke="#000000" points="273.5,-301.5 273.5,-565.5 512.5,-565.5 512.5,-301.5 273.5,-301.5"/>
<text text-anchor="middle" x="393" y="-550.3" font-family="Times,serif" font-size="14.00" fill="#000000">npfc.standardize.Standardizer</text>
<polyline fill="none" stroke="#000000" points="273.5,-542.5 512.5,-542.5 "/>
<text text-anchor="start" x="281.5" y="-527.3" font-family="Times,serif" font-size="14.00" fill="#000000">canonicalizer : TautomerCanonicalizer</text>
<text text-anchor="start" x="281.5" y="-512.3" font-family="Times,serif" font-size="14.00" fill="#000000">col_id</text>
<text text-anchor="start" x="281.5" y="-497.3" font-family="Times,serif" font-size="14.00" fill="#000000">col_mol</text>
<text text-anchor="start" x="281.5" y="-482.3" font-family="Times,serif" font-size="14.00" fill="#000000">elements_medchem</text>
<text text-anchor="start" x="281.5" y="-467.3" font-family="Times,serif" font-size="14.00" fill="#000000">full_uncharger</text>
<text text-anchor="start" x="281.5" y="-452.3" font-family="Times,serif" font-size="14.00" fill="#000000">metal_disconnector : MetalDisconnector</text>
<text text-anchor="start" x="281.5" y="-437.3" font-family="Times,serif" font-size="14.00" fill="#000000">normalizer : Normalizer</text>
<text text-anchor="start" x="281.5" y="-422.3" font-family="Times,serif" font-size="14.00" fill="#000000">protocol</text>
<text text-anchor="start" x="281.5" y="-407.3" font-family="Times,serif" font-size="14.00" fill="#000000">timeout</text>
<polyline fill="none" stroke="#000000" points="273.5,-399.5 512.5,-399.5 "/>
<text text-anchor="start" x="281.5" y="-384.3" font-family="Times,serif" font-size="14.00" fill="#000000">clear_isotopes()</text>
<text text-anchor="start" x="281.5" y="-369.3" font-family="Times,serif" font-size="14.00" fill="#000000">clear_side_chains()</text>
<text text-anchor="start" x="281.5" y="-354.3" font-family="Times,serif" font-size="14.00" fill="#000000">deglycosylate()</text>
<text text-anchor="start" x="281.5" y="-339.3" font-family="Times,serif" font-size="14.00" fill="#000000">keep_best()</text>
<text text-anchor="start" x="281.5" y="-324.3" font-family="Times,serif" font-size="14.00" fill="#000000">run()</text>
<text text-anchor="start" x="281.5" y="-309.3" font-family="Times,serif" font-size="14.00" fill="#000000">run_df()</text>
</g>
<!-- 4&#45;&gt;5 -->
<g id="edge4" class="edge">
<title>4&#45;&gt;5</title>
<path fill="none" stroke="#000000" d="M544.1115,-144.6349C523.3011,-184.4161 494.5772,-239.3248 467.7566,-290.5951"/>
<polygon fill="#000000" stroke="#000000" points="467.6282,-290.8407 468.3913,-298.0113 462.0658,-301.4737 461.3027,-294.3031 467.6282,-290.8407"/>
<text text-anchor="middle" x="556" y="-196.8" font-family="Times,serif" font-size="14.00" fill="#00ff00">full_uncharger</text>
</g>
<!-- 7 -->
<g id="node8" class="node">
<title>7</title>
<polygon fill="none" stroke="#000000" points="531,-398.5 531,-468.5 801,-468.5 801,-398.5 531,-398.5"/>
<text text-anchor="middle" x="666" y="-453.3" font-family="Times,serif" font-size="14.00" fill="#000000">rdkit.Chem.MolStandardize.charge.Uncharger</text>
<polyline fill="none" stroke="#000000" points="531,-445.5 801,-445.5 "/>
<polyline fill="none" stroke="#000000" points="531,-421.5 801,-421.5 "/>
<text text-anchor="start" x="539" y="-406.3" font-family="Times,serif" font-size="14.00" fill="#000000">uncharge()</text>
</g>
<!-- 4&#45;&gt;7 -->
<g id="edge2" class="edge">
<title>4&#45;&gt;7</title>
<path fill="none" stroke="#000000" d="M589.1919,-144.6349C607.3696,-212.9988 637.4262,-326.0377 654.038,-388.5123"/>
<polygon fill="none" stroke="#000000" points="650.7307,-389.6949 656.6829,-398.4597 657.4957,-387.8961 650.7307,-389.6949"/>
</g>
<!-- 5&#45;&gt;2 -->
<g id="edge3" class="edge">
<title>5&#45;&gt;2</title>
<path fill="none" stroke="#000000" d="M393,-565.8834C393,-602.667 393,-640.133 393,-668.0502"/>
<polygon fill="none" stroke="#000000" points="389.5001,-668.2608 393,-678.2608 396.5001,-668.2609 389.5001,-668.2608"/>
</g>
</g>
</svg>
