<?xml version="1.0" encoding="UTF-8" standalone="no"?>
<!DOCTYPE svg PUBLIC "-//W3C//DTD SVG 1.1//EN"
 "http://www.w3.org/Graphics/SVG/1.1/DTD/svg11.dtd">
<!-- Generated by graphviz version 2.40.1 (20161225.0304)
 -->
<!-- Title: classes_npfc Pages: 1 -->
<svg width="1148pt" height="712pt"
 viewBox="0.00 0.00 1148.00 712.00" xmlns="http://www.w3.org/2000/svg" xmlns:xlink="http://www.w3.org/1999/xlink">
<g id="graph0" class="graph" transform="scale(1 1) rotate(0) translate(4 708)">
<title>classes_npfc</title>
<polygon fill="#ffffff" stroke="transparent" points="-4,4 -4,-708 1144,-708 1144,4 -4,4"/>
<!-- 0 -->
<g id="node1" class="node">
<title>0</title>
<polygon fill="none" stroke="#000000" points="0,-23.5 0,-122.5 150,-122.5 150,-23.5 0,-23.5"/>
<text text-anchor="middle" x="75" y="-107.3" font-family="Times,serif" font-size="14.00" fill="#000000">npfc.draw.ColorMap</text>
<polyline fill="none" stroke="#000000" points="0,-99.5 150,-99.5 "/>
<text text-anchor="start" x="8" y="-84.3" font-family="Times,serif" font-size="14.00" fill="#000000">atoms</text>
<text text-anchor="start" x="8" y="-69.3" font-family="Times,serif" font-size="14.00" fill="#000000">bonds</text>
<text text-anchor="start" x="8" y="-54.3" font-family="Times,serif" font-size="14.00" fill="#000000">fragments : OrderedDict</text>
<polyline fill="none" stroke="#000000" points="0,-46.5 150,-46.5 "/>
<text text-anchor="middle" x="75" y="-31.3" font-family="Times,serif" font-size="14.00" fill="#000000"> </text>
</g>
<!-- 1 -->
<g id="node2" class="node">
<title>1</title>
<polygon fill="none" stroke="#000000" points="168.5,-1 168.5,-145 347.5,-145 347.5,-1 168.5,-1"/>
<text text-anchor="middle" x="258" y="-129.8" font-family="Times,serif" font-size="14.00" fill="#000000">npfc.duplicate.DuplicateFilter</text>
<polyline fill="none" stroke="#000000" points="168.5,-122 347.5,-122 "/>
<text text-anchor="start" x="176.5" y="-106.8" font-family="Times,serif" font-size="14.00" fill="#000000">col_id</text>
<text text-anchor="start" x="176.5" y="-91.8" font-family="Times,serif" font-size="14.00" fill="#000000">col_mol</text>
<text text-anchor="start" x="176.5" y="-76.8" font-family="Times,serif" font-size="14.00" fill="#000000">on</text>
<text text-anchor="start" x="176.5" y="-61.8" font-family="Times,serif" font-size="14.00" fill="#000000">ref_file</text>
<polyline fill="none" stroke="#000000" points="168.5,-54 347.5,-54 "/>
<text text-anchor="start" x="176.5" y="-38.8" font-family="Times,serif" font-size="14.00" fill="#000000">find_synonyms()</text>
<text text-anchor="start" x="176.5" y="-23.8" font-family="Times,serif" font-size="14.00" fill="#000000">init_ref_file()</text>
<text text-anchor="start" x="176.5" y="-8.8" font-family="Times,serif" font-size="14.00" fill="#000000">mark_dupl()</text>
</g>
<!-- 2 -->
<g id="node3" class="node">
<title>2</title>
<polygon fill="none" stroke="#000000" points="225.5,-634.5 225.5,-703.5 332.5,-703.5 332.5,-634.5 225.5,-634.5"/>
<text text-anchor="middle" x="279" y="-688.3" font-family="Times,serif" font-size="14.00" fill="#000000">npfc.filter.Filter</text>
<polyline fill="none" stroke="#000000" points="225.5,-680.5 332.5,-680.5 "/>
<text text-anchor="start" x="233.5" y="-665.3" font-family="Times,serif" font-size="14.00" fill="#000000">descriptors : dict</text>
<polyline fill="none" stroke="#000000" points="225.5,-657.5 332.5,-657.5 "/>
<text text-anchor="start" x="233.5" y="-642.3" font-family="Times,serif" font-size="14.00" fill="#000000">filter_mol()</text>
</g>
<!-- 3 -->
<g id="node4" class="node">
<title>3</title>
<polygon fill="none" stroke="#000000" points="572.5,-.5 572.5,-145.5 793.5,-145.5 793.5,-.5 572.5,-.5"/>
<text text-anchor="middle" x="683" y="-130.3" font-family="Times,serif" font-size="14.00" fill="#000000">npfc.fragment.CombinationClassifier</text>
<polyline fill="none" stroke="#000000" points="572.5,-122.5 793.5,-122.5 "/>
<polyline fill="none" stroke="#000000" points="572.5,-98.5 793.5,-98.5 "/>
<text text-anchor="start" x="580.5" y="-83.3" font-family="Times,serif" font-size="14.00" fill="#000000">classify_fragment_combination()</text>
<text text-anchor="start" x="580.5" y="-68.3" font-family="Times,serif" font-size="14.00" fill="#000000">classify_fragment_combinations()</text>
<text text-anchor="start" x="580.5" y="-53.3" font-family="Times,serif" font-size="14.00" fill="#000000">clean()</text>
<text text-anchor="start" x="580.5" y="-38.3" font-family="Times,serif" font-size="14.00" fill="#000000">get_rings_between_two_fragments()</text>
<text text-anchor="start" x="580.5" y="-23.3" font-family="Times,serif" font-size="14.00" fill="#000000">get_shortest_path_between_frags()</text>
<text text-anchor="start" x="580.5" y="-8.3" font-family="Times,serif" font-size="14.00" fill="#000000">map_frags()</text>
</g>
<!-- 4 -->
<g id="node5" class="node">
<title>4</title>
<polygon fill="none" stroke="#000000" points="811.5,-38 811.5,-108 954.5,-108 954.5,-38 811.5,-38"/>
<text text-anchor="middle" x="883" y="-92.8" font-family="Times,serif" font-size="14.00" fill="#000000">npfc.fragment.Matcher</text>
<polyline fill="none" stroke="#000000" points="811.5,-85 954.5,-85 "/>
<polyline fill="none" stroke="#000000" points="811.5,-61 954.5,-61 "/>
<text text-anchor="start" x="819.5" y="-45.8" font-family="Times,serif" font-size="14.00" fill="#000000">run()</text>
</g>
<!-- 5 -->
<g id="node6" class="node">
<title>5</title>
<polygon fill="none" stroke="#000000" points="366,-16 366,-130 554,-130 554,-16 366,-16"/>
<text text-anchor="middle" x="460" y="-114.8" font-family="Times,serif" font-size="14.00" fill="#000000">npfc.standardize.FullUncharger</text>
<polyline fill="none" stroke="#000000" points="366,-107 554,-107 "/>
<text text-anchor="start" x="374" y="-91.8" font-family="Times,serif" font-size="14.00" fill="#000000">q_neg_1</text>
<text text-anchor="start" x="374" y="-76.8" font-family="Times,serif" font-size="14.00" fill="#000000">q_neg_2</text>
<text text-anchor="start" x="374" y="-61.8" font-family="Times,serif" font-size="14.00" fill="#000000">q_pos_1</text>
<text text-anchor="start" x="374" y="-46.8" font-family="Times,serif" font-size="14.00" fill="#000000">q_pos_2</text>
<polyline fill="none" stroke="#000000" points="366,-39 554,-39 "/>
<text text-anchor="start" x="374" y="-23.8" font-family="Times,serif" font-size="14.00" fill="#000000">full_uncharge()</text>
</g>
<!-- 6 -->
<g id="node7" class="node">
<title>6</title>
<polygon fill="none" stroke="#000000" points="159.5,-250 159.5,-544 398.5,-544 398.5,-250 159.5,-250"/>
<text text-anchor="middle" x="279" y="-528.8" font-family="Times,serif" font-size="14.00" fill="#000000">npfc.standardize.Standardizer</text>
<polyline fill="none" stroke="#000000" points="159.5,-521 398.5,-521 "/>
<text text-anchor="start" x="167.5" y="-505.8" font-family="Times,serif" font-size="14.00" fill="#000000">canonicalizer : TautomerCanonicalizer</text>
<text text-anchor="start" x="167.5" y="-490.8" font-family="Times,serif" font-size="14.00" fill="#000000">col_id</text>
<text text-anchor="start" x="167.5" y="-475.8" font-family="Times,serif" font-size="14.00" fill="#000000">col_mol</text>
<text text-anchor="start" x="167.5" y="-460.8" font-family="Times,serif" font-size="14.00" fill="#000000">compute_2D</text>
<text text-anchor="start" x="167.5" y="-445.8" font-family="Times,serif" font-size="14.00" fill="#000000">elements_medchem</text>
<text text-anchor="start" x="167.5" y="-430.8" font-family="Times,serif" font-size="14.00" fill="#000000">filter_duplicates</text>
<text text-anchor="start" x="167.5" y="-415.8" font-family="Times,serif" font-size="14.00" fill="#000000">full_uncharger</text>
<text text-anchor="start" x="167.5" y="-400.8" font-family="Times,serif" font-size="14.00" fill="#000000">metal_disconnector : MetalDisconnector</text>
<text text-anchor="start" x="167.5" y="-385.8" font-family="Times,serif" font-size="14.00" fill="#000000">normalizer : Normalizer</text>
<text text-anchor="start" x="167.5" y="-370.8" font-family="Times,serif" font-size="14.00" fill="#000000">on</text>
<text text-anchor="start" x="167.5" y="-355.8" font-family="Times,serif" font-size="14.00" fill="#000000">protocol</text>
<text text-anchor="start" x="167.5" y="-340.8" font-family="Times,serif" font-size="14.00" fill="#000000">ref_file</text>
<text text-anchor="start" x="167.5" y="-325.8" font-family="Times,serif" font-size="14.00" fill="#000000">suffix</text>
<polyline fill="none" stroke="#000000" points="159.5,-318 398.5,-318 "/>
<text text-anchor="start" x="167.5" y="-302.8" font-family="Times,serif" font-size="14.00" fill="#000000">keep_best()</text>
<text text-anchor="start" x="167.5" y="-287.8" font-family="Times,serif" font-size="14.00" fill="#000000">remove_isotopes()</text>
<text text-anchor="start" x="167.5" y="-272.8" font-family="Times,serif" font-size="14.00" fill="#000000">run()</text>
<text text-anchor="start" x="167.5" y="-257.8" font-family="Times,serif" font-size="14.00" fill="#000000">run_df()</text>
</g>
<!-- 5&#45;&gt;6 -->
<g id="edge4" class="edge">
<title>5&#45;&gt;6</title>
<path fill="none" stroke="#000000" d="M423.9312,-130.4584C417.1896,-141.5198 410.29,-153.0658 404,-164 390.13,-188.1108 375.8229,-213.8614 362.0627,-239.1248"/>
<polygon fill="#000000" stroke="#000000" points="361.9291,-239.3709 362.5805,-246.5525 356.2018,-249.916 355.5504,-242.7343 361.9291,-239.3709"/>
<text text-anchor="middle" x="444" y="-167.8" font-family="Times,serif" font-size="14.00" fill="#00ff00">full_uncharger</text>
</g>
<!-- 9 -->
<g id="node10" class="node">
<title>9</title>
<polygon fill="none" stroke="#000000" points="417,-362 417,-432 687,-432 687,-362 417,-362"/>
<text text-anchor="middle" x="552" y="-416.8" font-family="Times,serif" font-size="14.00" fill="#000000">rdkit.Chem.MolStandardize.charge.Uncharger</text>
<polyline fill="none" stroke="#000000" points="417,-409 687,-409 "/>
<polyline fill="none" stroke="#000000" points="417,-385 687,-385 "/>
<text text-anchor="start" x="425" y="-369.8" font-family="Times,serif" font-size="14.00" fill="#000000">uncharge()</text>
</g>
<!-- 5&#45;&gt;9 -->
<g id="edge1" class="edge">
<title>5&#45;&gt;9</title>
<path fill="none" stroke="#000000" d="M476.236,-130.1789C494.1926,-193.4174 522.7536,-294.0017 539.1992,-351.919"/>
<polygon fill="none" stroke="#000000" points="535.9271,-353.2089 542.0256,-361.8726 542.6609,-351.2968 535.9271,-353.2089"/>
</g>
<!-- 6&#45;&gt;2 -->
<g id="edge2" class="edge">
<title>6&#45;&gt;2</title>
<path fill="none" stroke="#000000" d="M279,-544.1451C279,-573.3214 279,-601.8089 279,-624.1881"/>
<polygon fill="none" stroke="#000000" points="275.5001,-624.3395 279,-634.3396 282.5001,-624.3396 275.5001,-624.3395"/>
</g>
<!-- 7 -->
<g id="node8" class="node">
<title>7</title>
<polygon fill="none" stroke="#000000" points="973,-38 973,-108 1131,-108 1131,-38 973,-38"/>
<text text-anchor="middle" x="1052" y="-92.8" font-family="Times,serif" font-size="14.00" fill="#000000">npfc.utils.SafeHDF5Store</text>
<polyline fill="none" stroke="#000000" points="973,-85 1131,-85 "/>
<polyline fill="none" stroke="#000000" points="973,-61 1131,-61 "/>
<text text-anchor="middle" x="1052" y="-45.8" font-family="Times,serif" font-size="14.00" fill="#000000"> </text>
</g>
<!-- 8 -->
<g id="node9" class="node">
<title>8</title>
<polygon fill="none" stroke="#000000" points="964,-197.5 964,-596.5 1140,-596.5 1140,-197.5 964,-197.5"/>
<text text-anchor="middle" x="1052" y="-581.3" font-family="Times,serif" font-size="14.00" fill="#000000">pandas.io.pytables.HDFStore</text>
<polyline fill="none" stroke="#000000" points="964,-573.5 1140,-573.5 "/>
<text text-anchor="start" x="972" y="-558.3" font-family="Times,serif" font-size="14.00" fill="#000000">filename</text>
<text text-anchor="start" x="972" y="-543.3" font-family="Times,serif" font-size="14.00" fill="#000000">is_open</text>
<text text-anchor="start" x="972" y="-528.3" font-family="Times,serif" font-size="14.00" fill="#000000">iteritems</text>
<text text-anchor="start" x="972" y="-513.3" font-family="Times,serif" font-size="14.00" fill="#000000">root</text>
<polyline fill="none" stroke="#000000" points="964,-505.5 1140,-505.5 "/>
<text text-anchor="start" x="972" y="-490.3" font-family="Times,serif" font-size="14.00" fill="#000000">append()</text>
<text text-anchor="start" x="972" y="-475.3" font-family="Times,serif" font-size="14.00" fill="#000000">append_to_multiple()</text>
<text text-anchor="start" x="972" y="-460.3" font-family="Times,serif" font-size="14.00" fill="#000000">close()</text>
<text text-anchor="start" x="972" y="-445.3" font-family="Times,serif" font-size="14.00" fill="#000000">copy()</text>
<text text-anchor="start" x="972" y="-430.3" font-family="Times,serif" font-size="14.00" fill="#000000">create_table_index()</text>
<text text-anchor="start" x="972" y="-415.3" font-family="Times,serif" font-size="14.00" fill="#000000">flush()</text>
<text text-anchor="start" x="972" y="-400.3" font-family="Times,serif" font-size="14.00" fill="#000000">get()</text>
<text text-anchor="start" x="972" y="-385.3" font-family="Times,serif" font-size="14.00" fill="#000000">get_node()</text>
<text text-anchor="start" x="972" y="-370.3" font-family="Times,serif" font-size="14.00" fill="#000000">get_storer()</text>
<text text-anchor="start" x="972" y="-355.3" font-family="Times,serif" font-size="14.00" fill="#000000">groups()</text>
<text text-anchor="start" x="972" y="-340.3" font-family="Times,serif" font-size="14.00" fill="#000000">info()</text>
<text text-anchor="start" x="972" y="-325.3" font-family="Times,serif" font-size="14.00" fill="#000000">items()</text>
<text text-anchor="start" x="972" y="-310.3" font-family="Times,serif" font-size="14.00" fill="#000000">keys()</text>
<text text-anchor="start" x="972" y="-295.3" font-family="Times,serif" font-size="14.00" fill="#000000">open()</text>
<text text-anchor="start" x="972" y="-280.3" font-family="Times,serif" font-size="14.00" fill="#000000">put()</text>
<text text-anchor="start" x="972" y="-265.3" font-family="Times,serif" font-size="14.00" fill="#000000">remove()</text>
<text text-anchor="start" x="972" y="-250.3" font-family="Times,serif" font-size="14.00" fill="#000000">select()</text>
<text text-anchor="start" x="972" y="-235.3" font-family="Times,serif" font-size="14.00" fill="#000000">select_as_coordinates()</text>
<text text-anchor="start" x="972" y="-220.3" font-family="Times,serif" font-size="14.00" fill="#000000">select_as_multiple()</text>
<text text-anchor="start" x="972" y="-205.3" font-family="Times,serif" font-size="14.00" fill="#000000">select_column()</text>
</g>
<!-- 7&#45;&gt;8 -->
<g id="edge3" class="edge">
<title>7&#45;&gt;8</title>
<path fill="none" stroke="#000000" d="M1052,-108.2905C1052,-128.8463 1052,-156.6384 1052,-186.8924"/>
<polygon fill="none" stroke="#000000" points="1048.5001,-187.2398 1052,-197.2399 1055.5001,-187.2399 1048.5001,-187.2398"/>
</g>
</g>
</svg>
