<?xml version="1.0" encoding="UTF-8" standalone="no"?>
<svg
   xmlns:dc="http://purl.org/dc/elements/1.1/"
   xmlns:cc="http://creativecommons.org/ns#"
   xmlns:rdf="http://www.w3.org/1999/02/22-rdf-syntax-ns#"
   xmlns:svg="http://www.w3.org/2000/svg"
   xmlns="http://www.w3.org/2000/svg"
   xmlns:sodipodi="http://sodipodi.sourceforge.net/DTD/sodipodi-0.dtd"
   xmlns:inkscape="http://www.inkscape.org/namespaces/inkscape"
   version="1.1"
   xml:space="preserve"
   width="352.54236"
   height="211.01695"
   viewBox="0 0 352.54236 211.01695"
   id="svg114"
   sodipodi:docname="fragment_search_example.svg"
   inkscape:version="0.92.5 (2060ec1f9f, 2020-04-08)"><metadata
   id="metadata120"><rdf:RDF><cc:Work
       rdf:about=""><dc:format>image/svg+xml</dc:format><dc:type
         rdf:resource="http://purl.org/dc/dcmitype/StillImage" /><dc:title></dc:title></cc:Work></rdf:RDF></metadata><defs
   id="defs118" /><sodipodi:namedview
   pagecolor="#ffffff"
   bordercolor="#666666"
   borderopacity="1"
   objecttolerance="10"
   gridtolerance="10"
   guidetolerance="10"
   inkscape:pageopacity="0"
   inkscape:pageshadow="2"
   inkscape:window-width="1920"
   inkscape:window-height="1015"
   id="namedview116"
   showgrid="false"
   fit-margin-top="0"
   fit-margin-left="0"
   fit-margin-right="0"
   fit-margin-bottom="0"
   inkscape:zoom="1.18"
   inkscape:cx="396.61475"
   inkscape:cy="127.85953"
   inkscape:window-x="0"
   inkscape:window-y="0"
   inkscape:window-maximized="1"
   inkscape:current-layer="svg114" />
<!-- END OF HEADER -->
<rect
   style="opacity:1;fill:#ffffff;stroke:none"
   width="400"
   height="400"
   x="-24.576271"
   y="-91.525421"
   id="rect2"> </rect>
<path
   d="m 180.09973,144.15658 39.554,24.969 6.992,-11.076 -39.555,-24.968 z"
   style="fill:#ff9999;fill-opacity:1;fill-rule:evenodd;stroke:#ff9999;stroke-width:2px;stroke-linecap:butt;stroke-linejoin:miter;stroke-opacity:1"
   id="path4"
   inkscape:connector-curvature="0" />
<path
   d="m 227.33573,168.62358 35.97,-29.904 -8.373,-10.071 -35.969,29.903 z"
   style="fill:#ff9999;fill-opacity:1;fill-rule:evenodd;stroke:#ff9999;stroke-width:2px;stroke-linecap:butt;stroke-linejoin:miter;stroke-opacity:1"
   id="path6"
   inkscape:connector-curvature="0" />
<path
   d="m 241.36773,83.700579 -46.677,3.05 0.854,13.069 46.677,-3.05 z"
   style="fill:#ff9999;fill-opacity:1;fill-rule:evenodd;stroke:#ff9999;stroke-width:2px;stroke-linecap:butt;stroke-linejoin:miter;stroke-opacity:1"
   id="path8"
   inkscape:connector-curvature="0" />
<path
   d="m 188.77173,91.671579 -11.524,45.335001 12.694,3.226 11.523,-45.334001 z"
   style="fill:#ff9999;fill-opacity:1;fill-rule:evenodd;stroke:#ff9999;stroke-width:2px;stroke-linecap:butt;stroke-linejoin:miter;stroke-opacity:1"
   id="path10"
   inkscape:connector-curvature="0" />
<path
   d="m 235.71173,92.660579 17.324,43.449001 12.166,-4.851 -17.324,-43.449001 z"
   style="fill:#ff9999;fill-opacity:1;fill-rule:evenodd;stroke:#ff9999;stroke-width:2px;stroke-linecap:butt;stroke-linejoin:miter;stroke-opacity:1"
   id="path12"
   inkscape:connector-curvature="0" />
<circle
   cx="183.59473"
   cy="138.61958"
   style="fill:#ff9999;fill-rule:evenodd;stroke:#ff9999;stroke-width:1px;stroke-linecap:butt;stroke-linejoin:miter;stroke-opacity:1"
   id="ellipse14"
   r="9.3551702" />
<circle
   cx="223.14972"
   cy="163.58759"
   style="fill:#ff9999;fill-rule:evenodd;stroke:#ff9999;stroke-width:1px;stroke-linecap:butt;stroke-linejoin:miter;stroke-opacity:1"
   id="ellipse16"
   r="9.3551702" />
<circle
   cx="259.11874"
   cy="133.68459"
   style="fill:#ff9999;fill-rule:evenodd;stroke:#ff9999;stroke-width:1px;stroke-linecap:butt;stroke-linejoin:miter;stroke-opacity:1"
   id="ellipse18"
   r="9.3551702" />
<circle
   cx="241.79474"
   cy="90.234573"
   style="fill:#ff9999;fill-rule:evenodd;stroke:#ff9999;stroke-width:1px;stroke-linecap:butt;stroke-linejoin:miter;stroke-opacity:1"
   id="ellipse20"
   r="9.3551702" />
<ellipse
   cx="189.15872"
   cy="93.284576"
   rx="15.5323"
   ry="9.3669901"
   style="fill:#ff9999;fill-rule:evenodd;stroke:#ff9999;stroke-width:1px;stroke-linecap:butt;stroke-linejoin:miter;stroke-opacity:1"
   id="ellipse22" />
<path
   class="bond-0 atom-0 atom-1"
   d="m 140.14573,155.94358 43.449,-17.324"
   style="fill:none;fill-rule:evenodd;stroke:#000000;stroke-width:2px;stroke-linecap:butt;stroke-linejoin:miter;stroke-opacity:1"
   id="path24"
   inkscape:connector-curvature="0" />
<path
   class="bond-9 atom-0 atom-10"
   d="m 140.14573,155.94358 -36.728,-28.966"
   style="fill:none;fill-rule:evenodd;stroke:#000000;stroke-width:2px;stroke-linecap:butt;stroke-linejoin:miter;stroke-opacity:1"
   id="path26"
   inkscape:connector-curvature="0" />
<path
   class="bond-1 atom-1 atom-2"
   d="m 183.59473,138.61958 39.555,24.968"
   style="fill:none;fill-rule:evenodd;stroke:#000000;stroke-width:2px;stroke-linecap:butt;stroke-linejoin:miter;stroke-opacity:1"
   id="path28"
   inkscape:connector-curvature="0" />
<path
   class="bond-15 atom-9 atom-1"
   d="m 193.13773,101.07758 -9.543,37.542"
   style="fill:none;fill-rule:evenodd;stroke:#000000;stroke-width:2px;stroke-linecap:butt;stroke-linejoin:miter;stroke-opacity:1"
   id="path30"
   inkscape:connector-curvature="0" />
<path
   class="bond-2 atom-2 atom-3"
   d="m 223.14973,163.58758 35.969,-29.903"
   style="fill:none;fill-rule:evenodd;stroke:#000000;stroke-width:2px;stroke-linecap:butt;stroke-linejoin:miter;stroke-opacity:1"
   id="path32"
   inkscape:connector-curvature="0" />
<path
   class="bond-3 atom-3 atom-4"
   d="m 259.11873,133.68458 46.291,6.721"
   style="fill:none;fill-rule:evenodd;stroke:#000000;stroke-width:2px;stroke-linecap:butt;stroke-linejoin:miter;stroke-opacity:1"
   id="path34"
   inkscape:connector-curvature="0" />
<path
   class="bond-17 atom-8 atom-3"
   d="m 241.79473,90.234579 17.324,43.450001"
   style="fill:none;fill-rule:evenodd;stroke:#000000;stroke-width:2px;stroke-linecap:butt;stroke-linejoin:miter;stroke-opacity:1"
   id="path36"
   inkscape:connector-curvature="0" />
<path
   class="bond-4 atom-4 atom-5"
   d="m 305.40973,140.40558 28.966,-36.728"
   style="fill:none;fill-rule:evenodd;stroke:#000000;stroke-width:2px;stroke-linecap:butt;stroke-linejoin:miter;stroke-opacity:1"
   id="path38"
   inkscape:connector-curvature="0" />
<path
   class="bond-5 atom-5 atom-6"
   d="m 334.37573,103.67758 -17.325,-43.449001"
   style="fill:none;fill-rule:evenodd;stroke:#000000;stroke-width:2px;stroke-linecap:butt;stroke-linejoin:miter;stroke-opacity:1"
   id="path40"
   inkscape:connector-curvature="0" />
<path
   class="bond-6 atom-6 atom-7"
   d="m 317.05073,60.228579 -46.29,-6.722"
   style="fill:none;fill-rule:evenodd;stroke:#000000;stroke-width:2px;stroke-linecap:butt;stroke-linejoin:miter;stroke-opacity:1"
   id="path42"
   inkscape:connector-curvature="0" />
<path
   class="bond-7 atom-7 atom-8"
   d="m 270.76073,53.506579 -28.966,36.728"
   style="fill:none;fill-rule:evenodd;stroke:#000000;stroke-width:2px;stroke-linecap:butt;stroke-linejoin:miter;stroke-opacity:1"
   id="path44"
   inkscape:connector-curvature="0" />
<path
   class="bond-8 atom-8 atom-9"
   d="m 241.79473,90.234579 -40.484,2.646"
   style="fill:none;fill-rule:evenodd;stroke:#000000;stroke-width:2px;stroke-linecap:butt;stroke-linejoin:miter;stroke-opacity:1"
   id="path46"
   inkscape:connector-curvature="0" />
<path
   class="bond-10 atom-10 atom-11"
   d="m 103.41773,126.97758 6.721,-46.290001"
   style="fill:none;fill-rule:evenodd;stroke:#000000;stroke-width:2px;stroke-linecap:butt;stroke-linejoin:miter;stroke-opacity:1"
   id="path48"
   inkscape:connector-curvature="0" />
<path
   class="bond-16 atom-15 atom-10"
   d="m 59.968329,144.30258 43.449401,-17.325"
   style="fill:none;fill-rule:evenodd;stroke:#000000;stroke-width:2px;stroke-linecap:butt;stroke-linejoin:miter;stroke-opacity:1"
   id="path50"
   inkscape:connector-curvature="0" />
<path
   class="bond-11 atom-11 atom-12"
   d="m 110.13873,80.687579 -36.728101,-28.966"
   style="fill:none;fill-rule:evenodd;stroke:#000000;stroke-width:2px;stroke-linecap:butt;stroke-linejoin:miter;stroke-opacity:1"
   id="path52"
   inkscape:connector-curvature="0" />
<path
   class="bond-12 atom-12 atom-13"
   d="m 73.410629,51.721579 -43.4493,17.324"
   style="fill:none;fill-rule:evenodd;stroke:#000000;stroke-width:2px;stroke-linecap:butt;stroke-linejoin:miter;stroke-opacity:1"
   id="path54"
   inkscape:connector-curvature="0" />
<path
   class="bond-13 atom-13 atom-14"
   d="m 29.961329,69.045579 -2.7894,19.212"
   style="fill:none;fill-rule:evenodd;stroke:#000000;stroke-width:2px;stroke-linecap:butt;stroke-linejoin:miter;stroke-opacity:1"
   id="path56"
   inkscape:connector-curvature="0" />
<path
   class="bond-13 atom-13 atom-14"
   d="m 27.171929,88.257579 -2.7894,19.211001"
   style="fill:none;fill-rule:evenodd;stroke:#ff0000;stroke-width:2px;stroke-linecap:butt;stroke-linejoin:miter;stroke-opacity:1"
   id="path58"
   inkscape:connector-curvature="0" />
<path
   class="bond-14 atom-14 atom-15"
   d="m 30.490429,121.05458 14.7389,11.624"
   style="fill:none;fill-rule:evenodd;stroke:#ff0000;stroke-width:2px;stroke-linecap:butt;stroke-linejoin:miter;stroke-opacity:1"
   id="path60"
   inkscape:connector-curvature="0" />
<path
   class="bond-14 atom-14 atom-15"
   d="m 45.229329,132.67858 14.739,11.624"
   style="fill:none;fill-rule:evenodd;stroke:#000000;stroke-width:2px;stroke-linecap:butt;stroke-linejoin:miter;stroke-opacity:1"
   id="path62"
   inkscape:connector-curvature="0" />
<path
   class="atom-9"
   d="m 178.17573,86.661579 h 1.796 v 5.632 h 6.773 v -5.632 h 1.797 v 13.247 h -1.797 v -6.118 h -6.773 v 6.118 h -1.796 v -13.247"
   id="path64"
   inkscape:connector-curvature="0"
   style="fill:#0000ff" />
<path
   class="atom-9"
   d="m 192.18973,86.661579 4.341,7.016 q 0.43,0.693 1.123,1.946 0.692,1.254 0.729,1.329 v -10.291 h 1.759 v 13.247 h -1.815 l -4.659,-7.671 q -0.542,-0.898 -1.122,-1.927 -0.562,-1.03 -0.73,-1.348 v 10.946 h -1.721 v -13.247 h 2.095"
   id="path66"
   inkscape:connector-curvature="0"
   style="fill:#0000ff" />
<path
   class="atom-14"
   d="m 17.159329,115.37358 q 0,-3.18 1.5716,-4.958 1.5717,-1.777 4.5092,-1.777 2.9376,0 4.5092,1.777 1.5717,1.778 1.5717,4.958 0,3.219 -1.5904,5.052 -1.5904,1.815 -4.4905,1.815 -2.9188,0 -4.5092,-1.815 -1.5716,-1.815 -1.5716,-5.052 m 6.0808,5.37 q 2.0208,0 3.106,-1.347 1.1039,-1.366 1.1039,-4.023 0,-2.6 -1.1039,-3.91 -1.0852,-1.329 -3.106,-1.329 -2.0207,0 -3.1246,1.31 -1.0852,1.31 -1.0852,3.929 0,2.676 1.0852,4.023 1.1039,1.347 3.1246,1.347"
   id="path68"
   inkscape:connector-curvature="0"
   style="fill:#ff0000" />
<path
   class="note"
   d="m 139.02573,167.08258 q -1.216,0 -1.824,-0.898 -0.599,-0.898 -0.599,-2.498 0,-1.599 0.599,-2.488 0.598,-0.889 1.824,-0.889 1.225,0 1.824,0.889 0.599,0.889 0.599,2.488 0,1.6 -0.608,2.498 -0.599,0.898 -1.815,0.898 m 0,-0.748 q 0.72,0 1.104,-0.664 0.383,-0.674 0.383,-1.984 0,-1.3 -0.383,-1.964 -0.384,-0.664 -1.104,-0.664 -0.711,0 -1.104,0.664 -0.384,0.664 -0.384,1.964 0,1.31 0.384,1.984 0.393,0.664 1.104,0.664"
   id="path70"
   inkscape:connector-curvature="0"
   style="fill:#000000" />
<path
   class="note"
   d="m 181.24773,148.96458 h 1.45 v -4.949 l -1.6,0.496 -0.215,-0.552 2.03,-0.907 0.664,0.112 v 5.8 h 1.301 v 0.748 h -3.63 v -0.748"
   id="path72"
   inkscape:connector-curvature="0"
   style="fill:#000000" />
<path
   class="note"
   d="m 221.44573,169.34658 q 0.243,-0.627 0.823,-0.973 0.58,-0.356 1.385,-0.356 1.001,0 1.562,0.543 0.561,0.542 0.561,1.506 0,0.982 -0.729,1.899 -0.721,0.917 -2.218,2.002 h 3.06 v 0.748 h -4.463 v -0.626 q 1.235,-0.88 1.965,-1.535 0.739,-0.654 1.094,-1.244 0.356,-0.589 0.356,-1.197 0,-0.636 -0.318,-0.992 -0.318,-0.355 -0.87,-0.355 -0.534,0 -0.889,0.215 -0.356,0.215 -0.608,0.692 l -0.711,-0.327"
   id="path74"
   inkscape:connector-curvature="0"
   style="fill:#000000" />
<path
   class="note"
   d="m 262.18773,141.04758 q 0.646,0.187 0.954,0.608 0.318,0.412 0.318,1.067 0,0.561 -0.28,1.001 -0.281,0.43 -0.795,0.673 -0.515,0.234 -1.189,0.234 -0.711,0 -1.244,-0.243 -0.524,-0.253 -0.945,-0.758 l 0.534,-0.542 q 0.411,0.449 0.757,0.626 0.346,0.169 0.898,0.169 0.599,0 0.964,-0.318 0.365,-0.328 0.365,-0.852 0,-0.673 -0.384,-0.973 -0.374,-0.308 -1.188,-0.308 h -0.477 v -0.674 h 0.421 q 0.72,-0.009 1.104,-0.318 0.384,-0.318 0.384,-0.907 0,-0.431 -0.319,-0.683 -0.318,-0.262 -0.86,-0.262 -0.552,0 -0.898,0.196 -0.337,0.197 -0.599,0.692 l -0.646,-0.346 q 0.234,-0.552 0.796,-0.916 0.561,-0.375 1.347,-0.375 0.973,0 1.543,0.459 0.571,0.458 0.571,1.235 0,0.533 -0.29,0.916 -0.29,0.384 -0.842,0.599"
   id="path76"
   inkscape:connector-curvature="0"
   style="fill:#000000" />
<path
   class="note"
   d="m 310.05073,148.68558 h 0.795 v 0.748 h -0.795 v 1.525 h -0.879 v -1.525 h -3.424 v -0.589 l 2.9,-4.509 h 1.403 v 4.35 m -3.218,0 h 2.339 v -3.751 l -2.339,3.751"
   id="path78"
   inkscape:connector-curvature="0"
   style="fill:#000000" />
<path
   class="note"
   d="m 342.25373,103.96458 q 0.58,0 1.058,0.253 0.477,0.243 0.748,0.711 0.271,0.458 0.271,1.085 0,0.683 -0.337,1.179 -0.327,0.486 -0.87,0.739 -0.542,0.253 -1.16,0.253 -0.608,0 -1.169,-0.225 -0.561,-0.224 -0.945,-0.655 l 0.561,-0.58 q 0.309,0.337 0.73,0.524 0.421,0.178 0.851,0.178 0.59,0 0.992,-0.365 0.412,-0.365 0.412,-1.029 0,-0.702 -0.412,-1.029 -0.402,-0.337 -1.048,-0.337 -0.58,0 -1.225,0.253 l -0.515,-0.244 0.318,-3.19 h 3.406 l -0.094,0.749 h -2.545 l -0.196,1.964 q 0.589,-0.234 1.169,-0.234"
   id="path80"
   inkscape:connector-curvature="0"
   style="fill:#000000" />
<path
   class="note"
   d="m 322.17273,53.320579 q 0.58,0 1.039,0.253 0.458,0.253 0.711,0.711 0.252,0.458 0.252,1.038 0,0.646 -0.29,1.151 -0.28,0.496 -0.785,0.777 -0.506,0.28 -1.151,0.28 -1.179,0 -1.778,-0.795 -0.589,-0.805 -0.589,-2.395 0,-1.759 0.73,-2.666 0.739,-0.917 2.151,-0.917 0.412,0 0.758,0.094 0.356,0.093 0.692,0.29 l -0.364,0.626 q -0.487,-0.262 -1.076,-0.262 -0.936,0 -1.413,0.609 -0.477,0.598 -0.533,1.843 0.337,-0.309 0.758,-0.468 0.43,-0.169 0.888,-0.169 m -0.215,3.443 q 0.356,0 0.646,-0.187 0.299,-0.187 0.468,-0.515 0.168,-0.327 0.168,-0.729 0,-0.59 -0.328,-0.926 -0.327,-0.337 -0.907,-0.337 -0.402,0 -0.805,0.168 -0.392,0.159 -0.673,0.44 0.037,1.094 0.383,1.59 0.347,0.496 1.048,0.496"
   id="path82"
   inkscape:connector-curvature="0"
   style="fill:#000000" />
<path
   class="note"
   d="m 269.14573,43.701579 h -3.471 v -0.748 h 4.397 v 0.664 l -2.676,5.96 h -0.898 l 2.648,-5.876"
   id="path84"
   inkscape:connector-curvature="0"
   style="fill:#000000" />
<path
   class="note"
   d="m 239.20473,83.175579 q 0.608,0.262 0.954,0.655 0.346,0.384 0.346,1.039 0,0.561 -0.29,1.001 -0.29,0.43 -0.814,0.673 -0.515,0.234 -1.197,0.234 -1.104,0 -1.741,-0.505 -0.636,-0.515 -0.636,-1.403 0,-0.543 0.281,-0.945 0.281,-0.412 0.861,-0.721 -0.431,-0.243 -0.665,-0.598 -0.233,-0.365 -0.233,-0.926 0,-0.777 0.561,-1.235 0.571,-0.459 1.534,-0.459 0.964,0 1.525,0.459 0.571,0.458 0.571,1.235 0,0.486 -0.272,0.851 -0.262,0.355 -0.785,0.645 m -1.039,-2.488 q -0.552,0 -0.861,0.262 -0.299,0.262 -0.299,0.73 0,0.346 0.206,0.58 0.206,0.224 0.496,0.355 0.299,0.131 0.87,0.328 0.402,-0.281 0.57,-0.581 0.178,-0.299 0.178,-0.682 0,-0.468 -0.309,-0.73 -0.299,-0.262 -0.851,-0.262 m 0.038,5.388 q 0.617,0 0.991,-0.327 0.374,-0.337 0.374,-0.889 0,-0.355 -0.196,-0.58 -0.197,-0.224 -0.496,-0.355 -0.29,-0.131 -0.814,-0.3 l -0.421,-0.14 q -0.468,0.281 -0.673,0.618 -0.206,0.327 -0.206,0.757 0,0.552 0.393,0.889 0.393,0.327 1.048,0.327"
   id="path86"
   inkscape:connector-curvature="0"
   style="fill:#000000" />
<path
   class="note"
   d="m 205.01573,101.92558 q 1.179,0 1.768,0.805 0.599,0.795 0.599,2.385 0,1.759 -0.739,2.676 -0.73,0.907 -2.143,0.907 -0.411,0 -0.767,-0.093 -0.346,-0.094 -0.683,-0.29 l 0.365,-0.627 q 0.487,0.262 1.076,0.262 0.936,0 1.413,-0.599 0.477,-0.608 0.533,-1.852 -0.337,0.308 -0.767,0.477 -0.421,0.159 -0.88,0.159 -0.58,0 -1.038,-0.253 -0.458,-0.252 -0.711,-0.711 -0.253,-0.458 -0.253,-1.038 0,-0.646 0.281,-1.141 0.29,-0.506 0.795,-0.786 0.505,-0.281 1.151,-0.281 m -1.291,2.199 q 0,0.589 0.327,0.926 0.328,0.336 0.908,0.336 0.402,0 0.795,-0.159 0.402,-0.168 0.683,-0.449 -0.038,-1.094 -0.384,-1.59 -0.346,-0.496 -1.047,-0.496 -0.356,0 -0.655,0.187 -0.29,0.187 -0.459,0.515 -0.168,0.327 -0.168,0.73"
   id="path88"
   inkscape:connector-curvature="0"
   style="fill:#000000" />
<path
   class="note"
   d="m 90.957729,124.75058 h 1.45 v -4.948 l -1.599,0.495 -0.215,-0.552 2.03,-0.907 0.664,0.112 v 5.8 h 1.3 v 0.749 h -3.63 v -0.749"
   id="path90"
   inkscape:connector-curvature="0"
   style="fill:#000000" />
<path
   class="note"
   d="m 97.581729,125.57458 q -1.216,0 -1.824,-0.898 -0.599,-0.898 -0.599,-2.498 0,-1.6 0.599,-2.489 0.598,-0.888 1.824,-0.888 1.225,0 1.824,0.888 0.599001,0.889 0.599001,2.489 0,1.6 -0.608001,2.498 -0.599,0.898 -1.815,0.898 m 0,-0.749 q 0.72,0 1.104,-0.664 0.383,-0.674 0.383,-1.983 0,-1.301 -0.383,-1.965 -0.384,-0.664 -1.104,-0.664 -0.711,0 -1.104,0.664 -0.384,0.664 -0.384,1.965 0,1.309 0.384,1.983 0.393,0.664 1.104,0.664"
   id="path92"
   inkscape:connector-curvature="0"
   style="fill:#000000" />
<path
   class="note"
   d="m 97.017729,86.156579 h 1.45 v -4.949 l -1.6,0.496 -0.215,-0.552 2.03,-0.907 0.664,0.112 v 5.8 h 1.301001 v 0.749 h -3.630001 v -0.749"
   id="path94"
   inkscape:connector-curvature="0"
   style="fill:#000000" />
<path
   class="note"
   d="m 101.51773,86.156579 h 1.45 v -4.949 l -1.6,0.496 -0.215,-0.552 2.03,-0.907 0.664,0.112 v 5.8 h 1.3 v 0.749 h -3.629 v -0.749"
   id="path96"
   inkscape:connector-curvature="0"
   style="fill:#000000" />
<path
   class="note"
   d="m 68.435929,46.607579 h 1.4501 v -4.949 l -1.5997,0.496 -0.2152,-0.552 2.0301,-0.908 0.6642,0.112 v 5.801 h 1.3004 v 0.748 h -3.6299 v -0.748"
   id="path98"
   inkscape:connector-curvature="0"
   style="fill:#000000" />
<path
   class="note"
   d="m 72.552229,41.985579 q 0.2433,-0.627 0.8233,-0.973 0.58,-0.355 1.3845,-0.355 1.0007,0 1.5627,0.542 0.561,0.543 0.561,1.507 0,0.982 -0.73,1.899 -0.72,0.916 -2.2169,2.002 h 3.0589 v 0.748 h -4.4622 v -0.627 q 1.2349,-0.879 1.9646,-1.534 0.7391,-0.655 1.0946,-1.244 0.355,-0.59 0.355,-1.198 0,-0.636 -0.318,-0.991 -0.3177,-0.356 -0.8697,-0.356 -0.5332,0 -0.8887,0.215 -0.3555,0.215 -0.6081,0.693 l -0.711,-0.328"
   id="path100"
   inkscape:connector-curvature="0"
   style="fill:#000000" />
<path
   class="note"
   d="m 17.787229,66.819579 h 1.45 v -4.949 l -1.5997,0.495 -0.2152,-0.551 2.0301,-0.908 0.6642,0.112 v 5.801 h 1.3004 v 0.748 h -3.6298 v -0.748"
   id="path102"
   inkscape:connector-curvature="0"
   style="fill:#000000" />
<path
   class="note"
   d="m 24.990729,64.077579 q 0.6455,0.188 0.9542,0.609 0.3181,0.411 0.3181,1.066 0,0.561 -0.2807,1.001 -0.2806,0.43 -0.7952,0.674 -0.5145,0.233 -1.1881,0.233 -0.711,0 -1.2442,-0.243 -0.5239,-0.252 -0.9449,-0.758 l 0.5333,-0.542 q 0.4116,0.449 0.7577,0.627 0.3462,0.168 0.8981,0.168 0.5987,0 0.9636,-0.318 0.3649,-0.327 0.3649,-0.851 0,-0.674 -0.3836,-0.973 -0.3742,-0.309 -1.1881,-0.309 h -0.4771 v -0.674 h 0.421 q 0.7203,-0.009 1.1039,-0.318 0.3835,-0.318 0.3835,-0.907 0,-0.43 -0.3181,-0.683 -0.318,-0.262 -0.8606,-0.262 -0.552,0 -0.8981,0.197 -0.3368,0.196 -0.5988,0.692 l -0.6455,-0.346 q 0.2339,-0.552 0.7952,-0.917 0.5613,-0.374 1.3472,-0.374 0.9729,0 1.5436,0.458 0.5706,0.458 0.5706,1.235 0,0.533 -0.29,0.917 -0.29,0.383 -0.8419,0.598"
   id="path104"
   inkscape:connector-curvature="0"
   style="fill:#000000" />
<path
   class="note"
   d="m 2.4376289,123.69358 h 1.4501 v -4.949 l -1.5998,0.496 -0.2151,-0.552 2.03,-0.908 0.6643,0.113 v 5.8 h 1.3003 v 0.748 h -3.6298 v -0.748"
   id="path106"
   inkscape:connector-curvature="0"
   style="fill:#000000" />
<path
   class="note"
   d="m 10.651529,122.16858 h 0.7951 v 0.748 h -0.7951 v 1.525 H 9.7721289 v -1.525 h -3.424 v -0.589 l 2.9001,-4.509 h 1.4033001 v 4.35 m -3.2182001,0 h 2.3388 v -3.752 l -2.3388,3.752"
   id="path108"
   inkscape:connector-curvature="0"
   style="fill:#000000" />
<path
   class="note"
   d="m 52.762529,154.59958 h 1.4501 v -4.949 l -1.5998,0.496 -0.2151,-0.552 2.03,-0.907 0.6643,0.112 v 5.8 h 1.3003 v 0.748 h -3.6298 v -0.748"
   id="path110"
   inkscape:connector-curvature="0"
   style="fill:#000000" />
<path
   class="note"
   d="m 59.226929,151.20358 q 0.5801,0 1.0572,0.253 0.4771,0.243 0.7484,0.711 0.2713,0.458 0.2713,1.085 0,0.683 -0.3368,1.179 -0.3274,0.486 -0.87,0.739 -0.5426,0.252 -1.1601,0.252 -0.6081,0 -1.1694,-0.224 -0.5613,-0.225 -0.9448,-0.655 l 0.5613,-0.58 q 0.3087,0.337 0.7297,0.524 0.421,0.177 0.8513,0.177 0.5894,0 0.9916,-0.364 0.4117,-0.365 0.4117,-1.029 0,-0.702 -0.4117,-1.03 -0.4022,-0.336 -1.0477,-0.336 -0.5801,0 -1.2256,0.252 l -0.5145,-0.243 0.3181,-3.19 h 3.4053 l -0.0936,0.748 h -2.5446 l -0.1965,1.965 q 0.5894,-0.234 1.1694,-0.234"
   id="path112"
   inkscape:connector-curvature="0"
   style="fill:#000000" />
<rect
   style="opacity:0.3;fill:none"
   id="rect927"
   width="352.54236"
   height="211.01695"
   x="0"
   y="0"
   ry="0.423729" /></svg>