<svg width="169" height="91" xmlns="http://www.w3.org/2000/svg" xmlns:xlink="http://www.w3.org/1999/xlink" overflow="hidden"><defs><clipPath id="clip0"><rect x="370" y="848" width="169" height="91"/></clipPath></defs><g clip-path="url(#clip0)" transform="translate(-370 -848)"><path d="M0 0 169 0 169 169 0 169Z" fill="#FFFFFF" transform="matrix(1 0 0 1.00403 370 805.303)"/><path d="M38.4167 108.615 23.6018 82.9547 16.4169 87.1029 31.2319 112.764Z" stroke="#33FF33" stroke-width="0.676" fill="#33FF33" fill-rule="evenodd" transform="matrix(1 0 0 1.00403 370 805.303)"/><path d="M23.6018 87.1029 38.4167 61.4427 31.2319 57.2944 16.4169 82.9547Z" stroke="#33FF33" stroke-width="0.676" fill="#33FF33" fill-rule="evenodd" transform="matrix(1 0 0 1.00403 370 805.303)"/><path d="M34.8245 63.5166 64.4546 63.5166 64.4546 55.2204 34.8245 55.2204Z" stroke="#33FF33" stroke-width="0.676" fill="#33FF33" fill-rule="evenodd" transform="matrix(1 0 0 1.00403 370 805.303)"/><path d="M60.862 61.4427 75.6772 87.1029 82.8621 82.9547 68.0468 57.2944Z" stroke="#33FF33" stroke-width="0.676" fill="#33FF33" fill-rule="evenodd" transform="matrix(1 0 0 1.00403 370 805.303)"/><path d="M75.6772 82.9547 60.862 108.615 68.0468 112.764 82.8621 87.1029Z" stroke="#33FF33" stroke-width="0.676" fill="#33FF33" fill-rule="evenodd" transform="matrix(1 0 0 1.00403 370 805.303)"/><path d="M75.6772 87.1029 90.4921 112.764 97.6773 108.615 82.8621 82.9547Z" stroke="#FF9999" stroke-width="0.676" fill="#FF9999" fill-rule="evenodd" transform="matrix(1 0 0 1.00403 370 805.303)"/><path d="M94.0847 114.838 123.715 114.838 123.715 106.541 94.0847 106.541Z" stroke="#FF9999" stroke-width="0.676" fill="#FF9999" fill-rule="evenodd" transform="matrix(1 0 0 1.00403 370 805.303)"/><path d="M127.307 112.764 142.122 87.1029 134.937 82.9547 120.122 108.615Z" stroke="#FF9999" stroke-width="0.676" fill="#FF9999" fill-rule="evenodd" transform="matrix(1 0 0 1.00403 370 805.303)"/><path d="M142.122 82.9547 127.307 57.2944 120.122 61.4427 134.937 87.1029Z" stroke="#FF9999" stroke-width="0.676" fill="#FF9999" fill-rule="evenodd" transform="matrix(1 0 0 1.00403 370 805.303)"/><path d="M123.715 55.2204 94.0847 55.2204 94.0847 63.5166 123.715 63.5166Z" stroke="#FF9999" stroke-width="0.676" fill="#FF9999" fill-rule="evenodd" transform="matrix(1 0 0 1.00403 370 805.303)"/><path d="M64.4546 106.541 34.8245 106.541 34.8245 114.838 64.4546 114.838Z" stroke="#33FF33" stroke-width="0.676" fill="#33FF33" fill-rule="evenodd" transform="matrix(1 0 0 1.00403 370 805.303)"/><path d="M90.4921 57.2944 75.6772 82.9547 82.8621 87.1029 97.6773 61.4427Z" stroke="#FF9999" stroke-width="0.676" fill="#FF9999" fill-rule="evenodd" transform="matrix(1 0 0 1.00403 370 805.303)"/><path d="M40.7505 110.689C40.7505 113.962 38.0973 116.615 34.8245 116.615 31.5516 116.615 28.8985 113.962 28.8985 110.689 28.8985 107.416 31.5516 104.763 34.8245 104.763 38.0973 104.763 40.7505 107.416 40.7505 110.689Z" stroke="#33FF33" stroke-width="0.676" fill="#33FF33" fill-rule="evenodd" transform="matrix(1 0 0 1.00403 370 805.303)"/><path d="M25.9354 85.029C25.9354 88.3018 23.2822 90.955 20.0094 90.955 16.7365 90.955 14.0833 88.3018 14.0833 85.029 14.0833 81.7561 16.7365 79.103 20.0094 79.103 23.2822 79.103 25.9354 81.7561 25.9354 85.029Z" stroke="#33FF33" stroke-width="0.676" fill="#33FF33" fill-rule="evenodd" transform="matrix(1 0 0 1.00403 370 805.303)"/><path d="M41.3472 59.3683C41.3472 63.2254 38.4269 66.3522 34.8245 66.3522 31.2221 66.3522 28.3017 63.2254 28.3017 59.3683 28.3017 55.5112 31.2221 52.3845 34.8245 52.3845 38.4269 52.3845 41.3472 55.5112 41.3472 59.3683Z" stroke="#33FF33" stroke-width="0.676" fill="#33FF33" fill-rule="evenodd" transform="matrix(1 0 0 1.00403 370 805.303)"/><path d="M70.3806 59.3683C70.3806 62.6412 67.7274 65.2944 64.4546 65.2944 61.1817 65.2944 58.5286 62.6412 58.5286 59.3683 58.5286 56.0955 61.1817 53.4423 64.4546 53.4423 67.7274 53.4423 70.3806 56.0955 70.3806 59.3683Z" stroke="#33FF33" stroke-width="0.676" fill="#33FF33" fill-rule="evenodd" transform="matrix(1 0 0 1.00403 370 805.303)"/><path d="M79.2694 79.1028 78.7672 79.1241 78.268 79.188 77.7765 79.2941 77.2955 79.4415 76.8288 79.6291 76.3796 79.8555 75.9513 80.1192 75.5467 80.4183 75.1692 80.7506 74.821 81.1139 74.505 81.505 74.2234 81.9217 73.9781 82.3611 73.7709 82.8195 73.6032 83.2937 73.4765 83.7804 73.3916 84.2762 73.349 84.7775 73.349 85.2804 73.3916 85.7817 73.4765 86.2775 73.6032 86.7643 73.7709 87.2385 73.9781 87.6968 74.2234 88.1359 74.505 88.5526 74.821 88.944 75.1692 89.3074 75.5467 89.6396 75.9513 89.9388 76.3796 90.2024 76.8288 90.4289 77.2955 90.6164 77.7765 90.7638 78.268 90.8696 78.7672 90.9335 79.2694 90.9551 79.2694 85.029Z" stroke="#FF9999" stroke-width="0.676" fill="#FF9999" fill-rule="evenodd" transform="matrix(1 0 0 1.00403 370 805.303)"/><path d="M79.2694 90.9551 79.7721 90.9335 80.2709 90.8696 80.7627 90.7638 81.2437 90.6164 81.7105 90.4289 82.1597 90.2024 82.5879 89.9388 82.9925 89.6396 83.3701 89.3074 83.7182 88.944 84.0342 88.5526 84.3158 88.1359 84.5612 87.6968 84.7684 87.2385 84.936 86.7643 85.0628 86.2775 85.1476 85.7817 85.1902 85.2804 85.1902 84.7775 85.1476 84.2762 85.0628 83.7804 84.936 83.2937 84.7684 82.8195 84.5612 82.3611 84.3158 81.9217 84.0342 81.505 83.7182 81.1139 83.3701 80.7506 82.9925 80.4183 82.5879 80.1192 82.1597 79.8555 81.7105 79.6291 81.2437 79.4415 80.7627 79.2941 80.2709 79.188 79.7721 79.1241 79.2694 79.1028 79.2694 85.029Z" stroke="#33FF33" stroke-width="0.676" fill="#33FF33" fill-rule="evenodd" transform="matrix(1 0 0 1.00403 370 805.303)"/><path d="M70.3806 110.689C70.3806 113.962 67.7274 116.615 64.4546 116.615 61.1817 116.615 58.5286 113.962 58.5286 110.689 58.5286 107.416 61.1817 104.763 64.4546 104.763 67.7274 104.763 70.3806 107.416 70.3806 110.689Z" stroke="#33FF33" stroke-width="0.676" fill="#33FF33" fill-rule="evenodd" transform="matrix(1 0 0 1.00403 370 805.303)"/><path d="M100.011 110.689C100.011 113.962 97.3575 116.615 94.0847 116.615 90.8118 116.615 88.1586 113.962 88.1586 110.689 88.1586 107.416 90.8118 104.763 94.0847 104.763 97.3575 104.763 100.011 107.416 100.011 110.689Z" stroke="#FF9999" stroke-width="0.676" fill="#FF9999" fill-rule="evenodd" transform="matrix(1 0 0 1.00403 370 805.303)"/><path d="M129.641 110.689C129.641 113.962 126.988 116.615 123.715 116.615 120.442 116.615 117.789 113.962 117.789 110.689 117.789 107.416 120.442 104.763 123.715 104.763 126.988 104.763 129.641 107.416 129.641 110.689Z" stroke="#FF9999" stroke-width="0.676" fill="#FF9999" fill-rule="evenodd" transform="matrix(1 0 0 1.00403 370 805.303)"/><path d="M154.917 85.029C154.917 88.8861 149.496 92.0129 142.81 92.0129 136.124 92.0129 130.704 88.8861 130.704 85.029 130.704 81.1719 136.124 78.0451 142.81 78.0451 149.496 78.0451 154.917 81.1719 154.917 85.029Z" stroke="#FF9999" stroke-width="0.676" fill="#FF9999" fill-rule="evenodd" transform="matrix(1 0 0 1.00403 370 805.303)"/><path d="M129.641 59.3683C129.641 62.6412 126.988 65.2944 123.715 65.2944 120.442 65.2944 117.789 62.6412 117.789 59.3683 117.789 56.0955 120.442 53.4423 123.715 53.4423 126.988 53.4423 129.641 56.0955 129.641 59.3683Z" stroke="#FF9999" stroke-width="0.676" fill="#FF9999" fill-rule="evenodd" transform="matrix(1 0 0 1.00403 370 805.303)"/><path d="M100.011 59.3683C100.011 62.6412 97.3575 65.2944 94.0847 65.2944 90.8118 65.2944 88.1586 62.6412 88.1586 59.3683 88.1586 56.0955 90.8118 53.4423 94.0847 53.4423 97.3575 53.4423 100.011 56.0955 100.011 59.3683Z" stroke="#FF9999" stroke-width="0.676" fill="#FF9999" fill-rule="evenodd" transform="matrix(1 0 0 1.00403 370 805.303)"/><path d="M34.8245 110.689 20.0094 85.029" stroke="#000000" stroke-width="0.676" fill="none" fill-rule="evenodd" transform="matrix(1 0 0 1.00403 370 805.303)"/><path d="M34.8245 110.689 64.4546 110.689" stroke="#000000" stroke-width="0.676" fill="none" fill-rule="evenodd" transform="matrix(1 0 0 1.00403 370 805.303)"/><path d="M20.0094 85.029 31.9732 64.3069" stroke="#000000" stroke-width="0.676" fill="none" fill-rule="evenodd" transform="matrix(1 0 0 1.00403 370 805.303)"/><path d="M39.4368 59.3683 64.4546 59.3683" stroke="#000000" stroke-width="0.676" fill="none" fill-rule="evenodd" transform="matrix(1 0 0 1.00403 370 805.303)"/><path d="M64.4546 59.3683 79.2694 85.029" stroke="#000000" stroke-width="0.676" fill="none" fill-rule="evenodd" transform="matrix(1 0 0 1.00403 370 805.303)"/><path d="M79.2694 85.029 64.4546 110.689" stroke="#000000" stroke-width="0.676" fill="none" fill-rule="evenodd" transform="matrix(1 0 0 1.00403 370 805.303)"/><path d="M79.2694 85.029 94.0847 110.689" stroke="#000000" stroke-width="0.676" fill="none" fill-rule="evenodd" transform="matrix(1 0 0 1.00403 370 805.303)"/><path d="M79.2694 85.029 94.0847 59.3683" stroke="#000000" stroke-width="0.676" fill="none" fill-rule="evenodd" transform="matrix(1 0 0 1.00403 370 805.303)"/><path d="M94.0847 110.689 123.715 110.689" stroke="#000000" stroke-width="0.676" fill="none" fill-rule="evenodd" transform="matrix(1 0 0 1.00403 370 805.303)"/><path d="M123.715 110.689 135.679 89.9671" stroke="#000000" stroke-width="0.676" fill="none" fill-rule="evenodd" transform="matrix(1 0 0 1.00403 370 805.303)"/><path d="M135.679 80.0904 123.715 59.3683" stroke="#000000" stroke-width="0.676" fill="none" fill-rule="evenodd" transform="matrix(1 0 0 1.00403 370 805.303)"/><path d="M123.715 59.3683 94.0847 59.3683" stroke="#000000" stroke-width="0.676" fill="none" fill-rule="evenodd" transform="matrix(1 0 0 1.00403 370 805.303)"/><text fill="#FF0000" font-family="Arial,Arial_MSFontService,sans-serif" font-weight="400" font-size="29" transform="matrix(0.338 0 0 0.339362 400.675 866)">O<tspan fill="#0000FF" font-size="29" x="309.355" y="76.6143">NH</tspan><tspan fill="#000000" font-size="24" x="149.745" y="294.67">fs</tspan></text></g></svg>