<?xml version="1.0" encoding="UTF-8" standalone="no"?>
<!DOCTYPE svg PUBLIC "-//W3C//DTD SVG 1.1//EN"
 "http://www.w3.org/Graphics/SVG/1.1/DTD/svg11.dtd">
<!-- Generated by graphviz version 2.40.1 (20161225.0304)
 -->
<!-- Title: packages_npfc Pages: 1 -->
<svg width="617pt" height="188pt"
 viewBox="0.00 0.00 616.50 188.00" xmlns="http://www.w3.org/2000/svg" xmlns:xlink="http://www.w3.org/1999/xlink">
<g id="graph0" class="graph" transform="scale(1 1) rotate(0) translate(4 184)">
<title>packages_npfc</title>
<polygon fill="#ffffff" stroke="transparent" points="-4,4 -4,-184 612.5,-184 612.5,4 -4,4"/>
<!-- 1 -->
<g id="node1" class="node">
<title>1</title>
<polygon fill="none" stroke="#000000" points="294.5,-108 223.5,-108 223.5,-72 294.5,-72 294.5,-108"/>
<text text-anchor="middle" x="259" y="-86.3" font-family="Times,serif" font-size="14.00" fill="#000000">npfc.draw</text>
</g>
<!-- 10 -->
<g id="node10" class="node">
<title>10</title>
<polygon fill="none" stroke="#000000" points="249,-180 181,-180 181,-144 249,-144 249,-180"/>
<text text-anchor="middle" x="215" y="-158.3" font-family="Times,serif" font-size="14.00" fill="#000000">npfc.utils</text>
</g>
<!-- 1&#45;&gt;10 -->
<g id="edge1" class="edge">
<title>1&#45;&gt;10</title>
<path fill="none" stroke="#000000" d="M247.8969,-108.1686C242.9326,-116.2921 236.9778,-126.0363 231.5072,-134.9882"/>
<polygon fill="#000000" stroke="#000000" points="226.2526,-143.5867 227.6273,-132.7074 228.8598,-139.3203 231.4671,-135.0539 231.4671,-135.0539 231.4671,-135.0539 228.8598,-139.3203 235.3069,-137.4004 226.2526,-143.5867 226.2526,-143.5867"/>
</g>
<!-- 2 -->
<g id="node2" class="node">
<title>2</title>
<polygon fill="none" stroke="#000000" points="94,-36 0,-36 0,0 94,0 94,-36"/>
<text text-anchor="middle" x="47" y="-14.3" font-family="Times,serif" font-size="14.00" fill="#000000">npfc.duplicate</text>
</g>
<!-- 8 -->
<g id="node8" class="node">
<title>8</title>
<polygon fill="none" stroke="#000000" points="81,-108 13,-108 13,-72 81,-72 81,-108"/>
<text text-anchor="middle" x="47" y="-86.3" font-family="Times,serif" font-size="14.00" fill="#000000">npfc.save</text>
</g>
<!-- 2&#45;&gt;8 -->
<g id="edge2" class="edge">
<title>2&#45;&gt;8</title>
<path fill="none" stroke="#000000" d="M47,-36.1686C47,-43.869 47,-53.0257 47,-61.5834"/>
<polygon fill="#000000" stroke="#000000" points="47,-71.5867 42.5001,-61.5867 47,-66.5867 47.0001,-61.5867 47.0001,-61.5867 47.0001,-61.5867 47,-66.5867 51.5001,-61.5868 47,-71.5867 47,-71.5867"/>
</g>
<!-- 3 -->
<g id="node3" class="node">
<title>3</title>
<polygon fill="none" stroke="#000000" points="608.5,-108 537.5,-108 537.5,-72 608.5,-72 608.5,-108"/>
<text text-anchor="middle" x="573" y="-86.3" font-family="Times,serif" font-size="14.00" fill="#000000">npfc.filter</text>
</g>
<!-- 4 -->
<g id="node4" class="node">
<title>4</title>
<polygon fill="none" stroke="#000000" points="519.5,-108 350.5,-108 350.5,-72 519.5,-72 519.5,-108"/>
<text text-anchor="middle" x="435" y="-86.3" font-family="Times,serif" font-size="14.00" fill="#000000">npfc.fragment_combination</text>
</g>
<!-- 4&#45;&gt;10 -->
<g id="edge3" class="edge">
<title>4&#45;&gt;10</title>
<path fill="none" stroke="#000000" d="M379.7687,-108.0757C342.4662,-120.2838 293.8821,-136.184 259.1537,-147.5497"/>
<polygon fill="#000000" stroke="#000000" points="249.2986,-150.775 257.4028,-143.3878 254.0505,-149.2198 258.8025,-147.6646 258.8025,-147.6646 258.8025,-147.6646 254.0505,-149.2198 260.2022,-151.9414 249.2986,-150.775 249.2986,-150.775"/>
</g>
<!-- 5 -->
<g id="node5" class="node">
<title>5</title>
<polygon fill="none" stroke="#000000" points="247.5,-36 116.5,-36 116.5,0 247.5,0 247.5,-36"/>
<text text-anchor="middle" x="182" y="-14.3" font-family="Times,serif" font-size="14.00" fill="#000000">npfc.fragment_graph</text>
</g>
<!-- 5&#45;&gt;1 -->
<g id="edge4" class="edge">
<title>5&#45;&gt;1</title>
<path fill="none" stroke="#000000" d="M201.4304,-36.1686C210.732,-44.8663 222.0204,-55.4217 232.1286,-64.8735"/>
<polygon fill="#000000" stroke="#000000" points="239.5759,-71.8372 229.1981,-68.2941 235.9237,-68.4222 232.2716,-65.0072 232.2716,-65.0072 232.2716,-65.0072 235.9237,-68.4222 235.3451,-61.7203 239.5759,-71.8372 239.5759,-71.8372"/>
</g>
<!-- 5&#45;&gt;10 -->
<g id="edge5" class="edge">
<title>5&#45;&gt;10</title>
<path fill="none" stroke="#000000" d="M156.4948,-36.0373C145.5247,-45.3716 133.8855,-57.7911 128,-72 121.8771,-86.7821 120.222,-94.0178 128,-108 137.4791,-125.0402 154.807,-137.3916 171.5177,-145.9439"/>
<polygon fill="#000000" stroke="#000000" points="180.6841,-150.31 169.7208,-150.0724 176.17,-148.1598 171.6559,-146.0097 171.6559,-146.0097 171.6559,-146.0097 176.17,-148.1598 173.591,-141.947 180.6841,-150.31 180.6841,-150.31"/>
</g>
<!-- 6 -->
<g id="node6" class="node">
<title>6</title>
<polygon fill="none" stroke="#000000" points="529.5,-36 394.5,-36 394.5,0 529.5,0 529.5,-36"/>
<text text-anchor="middle" x="462" y="-14.3" font-family="Times,serif" font-size="14.00" fill="#000000">npfc.fragment_search</text>
</g>
<!-- 7 -->
<g id="node7" class="node">
<title>7</title>
<polygon fill="none" stroke="#000000" points="205,-108 137,-108 137,-72 205,-72 205,-108"/>
<text text-anchor="middle" x="171" y="-86.3" font-family="Times,serif" font-size="14.00" fill="#000000">npfc.load</text>
</g>
<!-- 7&#45;&gt;10 -->
<g id="edge6" class="edge">
<title>7&#45;&gt;10</title>
<path fill="none" stroke="#000000" d="M182.1031,-108.1686C187.0674,-116.2921 193.0222,-126.0363 198.4928,-134.9882"/>
<polygon fill="#000000" stroke="#000000" points="203.7474,-143.5867 194.6931,-137.4004 201.1402,-139.3203 198.5329,-135.0539 198.5329,-135.0539 198.5329,-135.0539 201.1402,-139.3203 202.3727,-132.7074 203.7474,-143.5867 203.7474,-143.5867"/>
</g>
<!-- 8&#45;&gt;10 -->
<g id="edge7" class="edge">
<title>8&#45;&gt;10</title>
<path fill="none" stroke="#000000" d="M81.4027,-104.744C107.5357,-115.9439 143.6468,-131.4201 171.7377,-143.459"/>
<polygon fill="#000000" stroke="#000000" points="180.9308,-147.3989 169.9666,-147.5958 176.335,-145.4293 171.7393,-143.4596 171.7393,-143.4596 171.7393,-143.4596 176.335,-145.4293 173.512,-139.3235 180.9308,-147.3989 180.9308,-147.3989"/>
</g>
<!-- 9 -->
<g id="node9" class="node">
<title>9</title>
<polygon fill="none" stroke="#000000" points="376,-36 270,-36 270,0 376,0 376,-36"/>
<text text-anchor="middle" x="323" y="-14.3" font-family="Times,serif" font-size="14.00" fill="#000000">npfc.standardize</text>
</g>
<!-- 9&#45;&gt;1 -->
<g id="edge8" class="edge">
<title>9&#45;&gt;1</title>
<path fill="none" stroke="#000000" d="M306.8501,-36.1686C299.3283,-44.6306 290.2435,-54.8511 282.0196,-64.1029"/>
<polygon fill="#000000" stroke="#000000" points="275.3673,-71.5867 278.6477,-61.123 278.6892,-67.8497 282.011,-64.1126 282.011,-64.1126 282.011,-64.1126 278.6892,-67.8497 285.3744,-67.1023 275.3673,-71.5867 275.3673,-71.5867"/>
</g>
<!-- 9&#45;&gt;3 -->
<g id="edge9" class="edge">
<title>9&#45;&gt;3</title>
<path fill="none" stroke="#000000" d="M376.243,-33.3405C379.5417,-34.2511 382.8142,-35.1441 386,-36 446.3273,-52.2075 465.0005,-51.6378 527.5755,-71.7262"/>
<polygon fill="#000000" stroke="#000000" points="537.1366,-74.8444 526.2342,-76.022 532.3831,-73.2941 527.6295,-71.7437 527.6295,-71.7437 527.6295,-71.7437 532.3831,-73.2941 529.0248,-67.4655 537.1366,-74.8444 537.1366,-74.8444"/>
</g>
<!-- 9&#45;&gt;10 -->
<g id="edge10" class="edge">
<title>9&#45;&gt;10</title>
<path fill="none" stroke="#000000" d="M323.0132,-36.2358C322.1635,-55.7033 318.2424,-86.6286 303,-108 291.7591,-123.7609 274.3406,-135.8344 257.9575,-144.5266"/>
<polygon fill="#000000" stroke="#000000" points="249.0081,-149.0097 255.9335,-140.5074 253.4785,-146.7703 257.949,-144.5308 257.949,-144.5308 257.949,-144.5308 253.4785,-146.7703 259.9645,-148.5542 249.0081,-149.0097 249.0081,-149.0097"/>
</g>
</g>
</svg>
