<?xml version="1.0" encoding="UTF-8" standalone="no"?>
<!DOCTYPE svg PUBLIC "-//W3C//DTD SVG 1.1//EN"
 "http://www.w3.org/Graphics/SVG/1.1/DTD/svg11.dtd">
<!-- Generated by graphviz version 2.38.0 (20140413.2041)
 -->
<!-- Title: packages_npfc Pages: 1 -->
<svg width="780pt" height="260pt"
 viewBox="0.00 0.00 779.92 260.00" xmlns="http://www.w3.org/2000/svg" xmlns:xlink="http://www.w3.org/1999/xlink">
<g id="graph0" class="graph" transform="scale(1 1) rotate(0) translate(4 256)">
<title>packages_npfc</title>
<polygon fill="white" stroke="none" points="-4,4 -4,-256 775.925,-256 775.925,4 -4,4"/>
<!-- 1 -->
<g id="node1" class="node"><title>1</title>
<polygon fill="none" stroke="black" points="179.925,-36 96.9249,-36 96.9249,-0 179.925,-0 179.925,-36"/>
<text text-anchor="middle" x="138.425" y="-14.3" font-family="Times,serif" font-size="14.00">npfc.contrib</text>
</g>
<!-- 2 -->
<g id="node2" class="node"><title>2</title>
<polygon fill="none" stroke="black" points="332.925,-36 197.925,-36 197.925,-0 332.925,-0 332.925,-36"/>
<text text-anchor="middle" x="265.425" y="-14.3" font-family="Times,serif" font-size="14.00">npfc.contrib.np_score</text>
</g>
<!-- 3 -->
<g id="node3" class="node"><title>3</title>
<polygon fill="none" stroke="black" points="483.925,-36 350.925,-36 350.925,-0 483.925,-0 483.925,-36"/>
<text text-anchor="middle" x="417.425" y="-14.3" font-family="Times,serif" font-size="14.00">npfc.contrib.sa_score</text>
</g>
<!-- 4 -->
<g id="node4" class="node"><title>4</title>
<polygon fill="none" stroke="black" points="590.925,-108 519.925,-108 519.925,-72 590.925,-72 590.925,-108"/>
<text text-anchor="middle" x="555.425" y="-86.3" font-family="Times,serif" font-size="14.00">npfc.draw</text>
</g>
<!-- 8 -->
<g id="node8" class="node"><title>8</title>
<polygon fill="none" stroke="black" points="658.425,-180 452.425,-180 452.425,-144 658.425,-144 658.425,-180"/>
<text text-anchor="middle" x="555.425" y="-158.3" font-family="Times,serif" font-size="14.00">npfc.fragment_combination_graph</text>
</g>
<!-- 4&#45;&gt;8 -->
<g id="edge1" class="edge"><title>4&#45;&gt;8</title>
<path fill="none" stroke="black" d="M549.509,-108.303C548.713,-116.017 548.487,-125.288 548.83,-133.888"/>
<polygon fill="black" stroke="black" points="549.53,-143.896 544.343,-134.234 549.181,-138.908 548.832,-133.92 548.832,-133.92 548.832,-133.92 549.181,-138.908 553.321,-133.606 549.53,-143.896 549.53,-143.896"/>
</g>
<!-- 12 -->
<g id="node12" class="node"><title>12</title>
<polygon fill="none" stroke="black" points="771.925,-180 676.925,-180 676.925,-144 771.925,-144 771.925,-180"/>
<text text-anchor="middle" x="724.425" y="-158.3" font-family="Times,serif" font-size="14.00">npfc.notebook</text>
</g>
<!-- 4&#45;&gt;12 -->
<g id="edge2" class="edge"><title>4&#45;&gt;12</title>
<path fill="none" stroke="black" d="M591.265,-105.845C615.255,-115.782 647.182,-129.006 673.76,-140.015"/>
<polygon fill="black" stroke="black" points="683.285,-143.96 672.325,-144.291 678.666,-142.047 674.047,-140.133 674.047,-140.133 674.047,-140.133 678.666,-142.047 675.769,-135.976 683.285,-143.96 683.285,-143.96"/>
</g>
<!-- 16 -->
<g id="node16" class="node"><title>16</title>
<polygon fill="none" stroke="black" points="358.425,-252 290.425,-252 290.425,-216 358.425,-216 358.425,-252"/>
<text text-anchor="middle" x="324.425" y="-230.3" font-family="Times,serif" font-size="14.00">npfc.utils</text>
</g>
<!-- 4&#45;&gt;16 -->
<g id="edge3" class="edge"><title>4&#45;&gt;16</title>
<path fill="none" stroke="black" d="M519.9,-105.048C497.25,-114.664 467.701,-128.457 443.425,-144 422.434,-157.44 420.222,-164.857 400.425,-180 387.009,-190.262 371.814,-201.022 358.555,-210.145"/>
<polygon fill="black" stroke="black" points="350.159,-215.882 355.877,-206.525 354.287,-213.061 358.416,-210.24 358.416,-210.24 358.416,-210.24 354.287,-213.061 360.955,-213.955 350.159,-215.882 350.159,-215.882"/>
</g>
<!-- 5 -->
<g id="node5" class="node"><title>5</title>
<polygon fill="none" stroke="black" points="358.425,-108 264.425,-108 264.425,-72 358.425,-72 358.425,-108"/>
<text text-anchor="middle" x="311.425" y="-86.3" font-family="Times,serif" font-size="14.00">npfc.duplicate</text>
</g>
<!-- 14 -->
<g id="node14" class="node"><title>14</title>
<polygon fill="none" stroke="black" points="358.425,-180 290.425,-180 290.425,-144 358.425,-144 358.425,-180"/>
<text text-anchor="middle" x="324.425" y="-158.3" font-family="Times,serif" font-size="14.00">npfc.save</text>
</g>
<!-- 5&#45;&gt;14 -->
<g id="edge4" class="edge"><title>5&#45;&gt;14</title>
<path fill="none" stroke="black" d="M314.638,-108.303C316.071,-116.017 317.793,-125.288 319.39,-133.888"/>
<polygon fill="black" stroke="black" points="321.248,-143.896 314.998,-134.885 320.335,-138.98 319.422,-134.064 319.422,-134.064 319.422,-134.064 320.335,-138.98 323.847,-133.242 321.248,-143.896 321.248,-143.896"/>
</g>
<!-- 6 -->
<g id="node6" class="node"><title>6</title>
<polygon fill="none" stroke="black" points="679.925,-108 608.925,-108 608.925,-72 679.925,-72 679.925,-108"/>
<text text-anchor="middle" x="644.425" y="-86.3" font-family="Times,serif" font-size="14.00">npfc.filter</text>
</g>
<!-- 7 -->
<g id="node7" class="node"><title>7</title>
<polygon fill="none" stroke="black" points="185.925,-180 16.9249,-180 16.9249,-144 185.925,-144 185.925,-180"/>
<text text-anchor="middle" x="101.425" y="-158.3" font-family="Times,serif" font-size="14.00">npfc.fragment_combination</text>
</g>
<!-- 7&#45;&gt;16 -->
<g id="edge5" class="edge"><title>7&#45;&gt;16</title>
<path fill="none" stroke="black" d="M155.692,-180.034C193.991,-192.057 244.651,-207.959 280.434,-219.191"/>
<polygon fill="black" stroke="black" points="290.109,-222.228 279.221,-223.527 285.339,-220.731 280.568,-219.233 280.568,-219.233 280.568,-219.233 285.339,-220.731 281.916,-214.94 290.109,-222.228 290.109,-222.228"/>
</g>
<!-- 8&#45;&gt;4 -->
<g id="edge6" class="edge"><title>8&#45;&gt;4</title>
<path fill="none" stroke="black" d="M561.32,-143.896C562.125,-136.209 562.362,-126.946 562.029,-118.335"/>
<polygon fill="black" stroke="black" points="561.341,-108.303 566.515,-117.972 561.683,-113.292 562.025,-118.28 562.025,-118.28 562.025,-118.28 561.683,-113.292 557.536,-118.588 561.341,-108.303 561.341,-108.303"/>
</g>
<!-- 9 -->
<g id="node9" class="node"><title>9</title>
<polygon fill="none" stroke="black" points="656.925,-252 453.925,-252 453.925,-216 656.925,-216 656.925,-252"/>
<text text-anchor="middle" x="555.425" y="-230.3" font-family="Times,serif" font-size="14.00">npfc.fragment_combination_point</text>
</g>
<!-- 8&#45;&gt;9 -->
<g id="edge7" class="edge"><title>8&#45;&gt;9</title>
<path fill="none" stroke="black" d="M555.425,-180.303C555.425,-188.017 555.425,-197.288 555.425,-205.888"/>
<polygon fill="black" stroke="black" points="555.425,-215.896 550.925,-205.896 555.425,-210.896 555.425,-205.896 555.425,-205.896 555.425,-205.896 555.425,-210.896 559.925,-205.896 555.425,-215.896 555.425,-215.896"/>
</g>
<!-- 8&#45;&gt;16 -->
<g id="edge8" class="edge"><title>8&#45;&gt;16</title>
<path fill="none" stroke="black" d="M499.211,-180.034C459.05,-192.205 405.767,-208.351 368.633,-219.604"/>
<polygon fill="black" stroke="black" points="358.611,-222.641 366.876,-215.434 363.396,-221.19 368.181,-219.74 368.181,-219.74 368.181,-219.74 363.396,-221.19 369.487,-224.047 358.611,-222.641 358.611,-222.641"/>
</g>
<!-- 10 -->
<g id="node10" class="node"><title>10</title>
<polygon fill="none" stroke="black" points="761.925,-36 626.925,-36 626.925,-0 761.925,-0 761.925,-36"/>
<text text-anchor="middle" x="694.425" y="-14.3" font-family="Times,serif" font-size="14.00">npfc.fragment_search</text>
</g>
<!-- 11 -->
<g id="node11" class="node"><title>11</title>
<polygon fill="none" stroke="black" points="272.425,-180 204.425,-180 204.425,-144 272.425,-144 272.425,-180"/>
<text text-anchor="middle" x="238.425" y="-158.3" font-family="Times,serif" font-size="14.00">npfc.load</text>
</g>
<!-- 11&#45;&gt;16 -->
<g id="edge9" class="edge"><title>11&#45;&gt;16</title>
<path fill="none" stroke="black" d="M259.683,-180.303C270.514,-189.119 283.843,-199.968 295.585,-209.526"/>
<polygon fill="black" stroke="black" points="303.411,-215.896 292.815,-213.073 299.533,-212.739 295.655,-209.583 295.655,-209.583 295.655,-209.583 299.533,-212.739 298.496,-206.093 303.411,-215.896 303.411,-215.896"/>
</g>
<!-- 13 -->
<g id="node13" class="node"><title>13</title>
<polygon fill="none" stroke="black" points="192.925,-108 115.925,-108 115.925,-72 192.925,-72 192.925,-108"/>
<text text-anchor="middle" x="154.425" y="-86.3" font-family="Times,serif" font-size="14.00">npfc.report</text>
</g>
<!-- 13&#45;&gt;7 -->
<g id="edge10" class="edge"><title>13&#45;&gt;7</title>
<path fill="none" stroke="black" d="M141.324,-108.303C135.034,-116.611 127.378,-126.723 120.46,-135.859"/>
<polygon fill="black" stroke="black" points="114.375,-143.896 116.824,-133.207 117.394,-139.909 120.412,-135.923 120.412,-135.923 120.412,-135.923 117.394,-139.909 123.999,-138.639 114.375,-143.896 114.375,-143.896"/>
</g>
<!-- 13&#45;&gt;11 -->
<g id="edge11" class="edge"><title>13&#45;&gt;11</title>
<path fill="none" stroke="black" d="M175.189,-108.303C185.666,-117.035 198.536,-127.76 209.925,-137.25"/>
<polygon fill="black" stroke="black" points="217.9,-143.896 207.337,-140.951 214.059,-140.695 210.217,-137.494 210.217,-137.494 210.217,-137.494 214.059,-140.695 213.098,-134.037 217.9,-143.896 217.9,-143.896"/>
</g>
<!-- 13&#45;&gt;14 -->
<g id="edge12" class="edge"><title>13&#45;&gt;14</title>
<path fill="none" stroke="black" d="M193.001,-106.884C219.202,-117.673 253.894,-131.958 281.055,-143.142"/>
<polygon fill="black" stroke="black" points="290.321,-146.957 279.361,-147.311 285.698,-145.054 281.075,-143.15 281.075,-143.15 281.075,-143.15 285.698,-145.054 282.788,-138.989 290.321,-146.957 290.321,-146.957"/>
</g>
<!-- 13&#45;&gt;16 -->
<g id="edge13" class="edge"><title>13&#45;&gt;16</title>
<path fill="none" stroke="black" d="M115.684,-98.7757C61.5555,-111.325 -26.3801,-138.871 8.42491,-180 42.7292,-220.537 201.635,-230.089 280.202,-232.325"/>
<polygon fill="black" stroke="black" points="290.28,-232.584 280.168,-236.826 285.282,-232.456 280.283,-232.327 280.283,-232.327 280.283,-232.327 285.282,-232.456 280.399,-227.829 290.28,-232.584 290.28,-232.584"/>
</g>
<!-- 14&#45;&gt;16 -->
<g id="edge14" class="edge"><title>14&#45;&gt;16</title>
<path fill="none" stroke="black" d="M324.425,-180.303C324.425,-188.017 324.425,-197.288 324.425,-205.888"/>
<polygon fill="black" stroke="black" points="324.425,-215.896 319.925,-205.896 324.425,-210.896 324.425,-205.896 324.425,-205.896 324.425,-205.896 324.425,-210.896 328.925,-205.896 324.425,-215.896 324.425,-215.896"/>
</g>
<!-- 15 -->
<g id="node15" class="node"><title>15</title>
<polygon fill="none" stroke="black" points="608.425,-36 502.425,-36 502.425,-0 608.425,-0 608.425,-36"/>
<text text-anchor="middle" x="555.425" y="-14.3" font-family="Times,serif" font-size="14.00">npfc.standardize</text>
</g>
<!-- 15&#45;&gt;4 -->
<g id="edge15" class="edge"><title>15&#45;&gt;4</title>
<path fill="none" stroke="black" d="M555.425,-36.3034C555.425,-44.0173 555.425,-53.2875 555.425,-61.8876"/>
<polygon fill="black" stroke="black" points="555.425,-71.8957 550.925,-61.8956 555.425,-66.8957 555.425,-61.8957 555.425,-61.8957 555.425,-61.8957 555.425,-66.8957 559.925,-61.8957 555.425,-71.8957 555.425,-71.8957"/>
</g>
<!-- 15&#45;&gt;6 -->
<g id="edge16" class="edge"><title>15&#45;&gt;6</title>
<path fill="none" stroke="black" d="M577.425,-36.3034C588.634,-45.1193 602.427,-55.9679 614.579,-65.5258"/>
<polygon fill="black" stroke="black" points="622.678,-71.8957 612.036,-69.2506 618.748,-68.8046 614.818,-65.7135 614.818,-65.7135 614.818,-65.7135 618.748,-68.8046 617.6,-62.1765 622.678,-71.8957 622.678,-71.8957"/>
</g>
<!-- 15&#45;&gt;16 -->
<g id="edge17" class="edge"><title>15&#45;&gt;16</title>
<path fill="none" stroke="black" d="M531.449,-36.1543C499.982,-59.1453 443.676,-101.948 400.425,-144 389.072,-155.038 363.372,-185.625 345.003,-207.866"/>
<polygon fill="black" stroke="black" points="338.607,-215.63 341.492,-205.051 341.786,-211.771 344.965,-207.912 344.965,-207.912 344.965,-207.912 341.786,-211.771 348.439,-210.773 338.607,-215.63 338.607,-215.63"/>
</g>
</g>
</svg>
