<?xml version="1.0" encoding="UTF-8" standalone="no"?>
<!DOCTYPE svg PUBLIC "-//W3C//DTD SVG 1.1//EN"
 "http://www.w3.org/Graphics/SVG/1.1/DTD/svg11.dtd">
<!-- Generated by graphviz version 2.38.0 (20140413.2041)
 -->
<!-- Title: packages_npfc Pages: 1 -->
<svg width="666pt" height="188pt"
 viewBox="0.00 0.00 665.50 188.00" xmlns="http://www.w3.org/2000/svg" xmlns:xlink="http://www.w3.org/1999/xlink">
<g id="graph0" class="graph" transform="scale(1 1) rotate(0) translate(4 184)">
<title>packages_npfc</title>
<polygon fill="white" stroke="none" points="-4,4 -4,-184 661.5,-184 661.5,4 -4,4"/>
<!-- 1 -->
<g id="node1" class="node"><title>1</title>
<polygon fill="none" stroke="black" points="343.5,-108 272.5,-108 272.5,-72 343.5,-72 343.5,-108"/>
<text text-anchor="middle" x="308" y="-86.3" font-family="Times,serif" font-size="14.00">npfc.draw</text>
</g>
<!-- 10 -->
<g id="node10" class="node"><title>10</title>
<polygon fill="none" stroke="black" points="298,-180 230,-180 230,-144 298,-144 298,-180"/>
<text text-anchor="middle" x="264" y="-158.3" font-family="Times,serif" font-size="14.00">npfc.utils</text>
</g>
<!-- 1&#45;&gt;10 -->
<g id="edge1" class="edge"><title>1&#45;&gt;10</title>
<path fill="none" stroke="black" d="M297.124,-108.303C292.008,-116.441 285.805,-126.311 280.155,-135.299"/>
<polygon fill="black" stroke="black" points="274.751,-143.896 276.263,-133.034 277.412,-139.662 280.073,-135.429 280.073,-135.429 280.073,-135.429 277.412,-139.662 283.883,-137.824 274.751,-143.896 274.751,-143.896"/>
</g>
<!-- 2 -->
<g id="node2" class="node"><title>2</title>
<polygon fill="none" stroke="black" points="94,-36 -7.10543e-15,-36 -7.10543e-15,-0 94,-0 94,-36"/>
<text text-anchor="middle" x="47" y="-14.3" font-family="Times,serif" font-size="14.00">npfc.duplicate</text>
</g>
<!-- 8 -->
<g id="node8" class="node"><title>8</title>
<polygon fill="none" stroke="black" points="97,-108 29,-108 29,-72 97,-72 97,-108"/>
<text text-anchor="middle" x="63" y="-86.3" font-family="Times,serif" font-size="14.00">npfc.save</text>
</g>
<!-- 2&#45;&gt;8 -->
<g id="edge2" class="edge"><title>2&#45;&gt;8</title>
<path fill="none" stroke="black" d="M50.9551,-36.3034C52.7182,-44.0173 54.8372,-53.2875 56.8029,-61.8876"/>
<polygon fill="black" stroke="black" points="59.0904,-71.8957 52.4752,-63.1498 57.9763,-67.0214 56.8621,-62.1471 56.8621,-62.1471 56.8621,-62.1471 57.9763,-67.0214 61.249,-61.1443 59.0904,-71.8957 59.0904,-71.8957"/>
</g>
<!-- 3 -->
<g id="node3" class="node"><title>3</title>
<polygon fill="none" stroke="black" points="657.5,-108 586.5,-108 586.5,-72 657.5,-72 657.5,-108"/>
<text text-anchor="middle" x="622" y="-86.3" font-family="Times,serif" font-size="14.00">npfc.filter</text>
</g>
<!-- 4 -->
<g id="node4" class="node"><title>4</title>
<polygon fill="none" stroke="black" points="568.5,-108 399.5,-108 399.5,-72 568.5,-72 568.5,-108"/>
<text text-anchor="middle" x="484" y="-86.3" font-family="Times,serif" font-size="14.00">npfc.fragment_combination</text>
</g>
<!-- 4&#45;&gt;10 -->
<g id="edge3" class="edge"><title>4&#45;&gt;10</title>
<path fill="none" stroke="black" d="M430.463,-108.034C392.796,-120.02 343.009,-135.861 307.726,-147.087"/>
<polygon fill="black" stroke="black" points="298.181,-150.124 306.346,-142.804 302.945,-148.608 307.71,-147.092 307.71,-147.092 307.71,-147.092 302.945,-148.608 309.074,-151.38 298.181,-150.124 298.181,-150.124"/>
</g>
<!-- 5 -->
<g id="node5" class="node"><title>5</title>
<polygon fill="none" stroke="black" points="318,-36 112,-36 112,-0 318,-0 318,-36"/>
<text text-anchor="middle" x="215" y="-14.3" font-family="Times,serif" font-size="14.00">npfc.fragment_combination_graph</text>
</g>
<!-- 5&#45;&gt;1 -->
<g id="edge4" class="edge"><title>5&#45;&gt;1</title>
<path fill="none" stroke="black" d="M237.989,-36.3034C249.814,-45.204 264.392,-56.1768 277.179,-65.8011"/>
<polygon fill="black" stroke="black" points="285.276,-71.8957 274.58,-69.4773 281.281,-68.8888 277.286,-65.8819 277.286,-65.8819 277.286,-65.8819 281.281,-68.8888 279.992,-62.2865 285.276,-71.8957 285.276,-71.8957"/>
</g>
<!-- 5&#45;&gt;10 -->
<g id="edge5" class="edge"><title>5&#45;&gt;10</title>
<path fill="none" stroke="black" d="M198.288,-36.2499C182.661,-54.571 163.588,-84.1239 177,-108 186.501,-124.914 203.832,-137.063 220.539,-145.426"/>
<polygon fill="black" stroke="black" points="229.703,-149.689 218.738,-149.551 225.17,-147.58 220.636,-145.471 220.636,-145.471 220.636,-145.471 225.17,-147.58 222.534,-141.391 229.703,-149.689 229.703,-149.689"/>
</g>
<!-- 6 -->
<g id="node6" class="node"><title>6</title>
<polygon fill="none" stroke="black" points="595.5,-36 460.5,-36 460.5,-0 595.5,-0 595.5,-36"/>
<text text-anchor="middle" x="528" y="-14.3" font-family="Times,serif" font-size="14.00">npfc.fragment_search</text>
</g>
<!-- 7 -->
<g id="node7" class="node"><title>7</title>
<polygon fill="none" stroke="black" points="254,-108 186,-108 186,-72 254,-72 254,-108"/>
<text text-anchor="middle" x="220" y="-86.3" font-family="Times,serif" font-size="14.00">npfc.load</text>
</g>
<!-- 7&#45;&gt;10 -->
<g id="edge6" class="edge"><title>7&#45;&gt;10</title>
<path fill="none" stroke="black" d="M230.876,-108.303C235.992,-116.441 242.195,-126.311 247.845,-135.299"/>
<polygon fill="black" stroke="black" points="253.249,-143.896 244.117,-137.824 250.588,-139.662 247.927,-135.429 247.927,-135.429 247.927,-135.429 250.588,-139.662 251.737,-133.034 253.249,-143.896 253.249,-143.896"/>
</g>
<!-- 8&#45;&gt;10 -->
<g id="edge7" class="edge"><title>8&#45;&gt;10</title>
<path fill="none" stroke="black" d="M97.0969,-102.875C131.026,-114.691 183.233,-132.872 220.211,-145.75"/>
<polygon fill="black" stroke="black" points="229.736,-149.067 218.812,-150.028 225.014,-147.423 220.292,-145.778 220.292,-145.778 220.292,-145.778 225.014,-147.423 221.772,-141.529 229.736,-149.067 229.736,-149.067"/>
</g>
<!-- 9 -->
<g id="node9" class="node"><title>9</title>
<polygon fill="none" stroke="black" points="442,-36 336,-36 336,-0 442,-0 442,-36"/>
<text text-anchor="middle" x="389" y="-14.3" font-family="Times,serif" font-size="14.00">npfc.standardize</text>
</g>
<!-- 9&#45;&gt;1 -->
<g id="edge8" class="edge"><title>9&#45;&gt;1</title>
<path fill="none" stroke="black" d="M368.978,-36.3034C358.874,-45.0345 346.464,-55.7595 335.482,-65.2497"/>
<polygon fill="black" stroke="black" points="327.792,-71.8957 332.416,-61.9522 331.575,-68.6263 335.358,-65.357 335.358,-65.357 335.358,-65.357 331.575,-68.6263 338.301,-68.7618 327.792,-71.8957 327.792,-71.8957"/>
</g>
<!-- 9&#45;&gt;3 -->
<g id="edge9" class="edge"><title>9&#45;&gt;3</title>
<path fill="none" stroke="black" d="M442.388,-33.6908C487.386,-46.1133 547.989,-62.9487 576.331,-71.6851"/>
<polygon fill="black" stroke="black" points="586.083,-74.8022 575.187,-76.0439 581.32,-73.2799 576.558,-71.7576 576.558,-71.7576 576.558,-71.7576 581.32,-73.2799 577.928,-67.4712 586.083,-74.8022 586.083,-74.8022"/>
</g>
<!-- 9&#45;&gt;10 -->
<g id="edge10" class="edge"><title>9&#45;&gt;10</title>
<path fill="none" stroke="black" d="M385.309,-36.1162C380.431,-55.4077 370.244,-86.8323 352,-108 339.833,-122.116 322.938,-133.539 307.201,-142.115"/>
<polygon fill="black" stroke="black" points="298.113,-146.834 304.914,-138.232 302.55,-144.53 306.988,-142.225 306.988,-142.225 306.988,-142.225 302.55,-144.53 309.062,-146.219 298.113,-146.834 298.113,-146.834"/>
</g>
</g>
</svg>
