<?xml version="1.0" encoding="UTF-8" standalone="no"?>
<!DOCTYPE svg PUBLIC "-//W3C//DTD SVG 1.1//EN"
 "http://www.w3.org/Graphics/SVG/1.1/DTD/svg11.dtd">
<!-- Generated by graphviz version 2.40.1 (20161225.0304)
 -->
<!-- Title: packages_npfc Pages: 1 -->
<svg width="666pt" height="188pt"
 viewBox="0.00 0.00 665.50 188.00" xmlns="http://www.w3.org/2000/svg" xmlns:xlink="http://www.w3.org/1999/xlink">
<g id="graph0" class="graph" transform="scale(1 1) rotate(0) translate(4 184)">
<title>packages_npfc</title>
<polygon fill="#ffffff" stroke="transparent" points="-4,4 -4,-184 661.5,-184 661.5,4 -4,4"/>
<!-- 1 -->
<g id="node1" class="node">
<title>1</title>
<polygon fill="none" stroke="#000000" points="343.5,-108 272.5,-108 272.5,-72 343.5,-72 343.5,-108"/>
<text text-anchor="middle" x="308" y="-86.3" font-family="Times,serif" font-size="14.00" fill="#000000">npfc.draw</text>
</g>
<!-- 10 -->
<g id="node10" class="node">
<title>10</title>
<polygon fill="none" stroke="#000000" points="298,-180 230,-180 230,-144 298,-144 298,-180"/>
<text text-anchor="middle" x="264" y="-158.3" font-family="Times,serif" font-size="14.00" fill="#000000">npfc.utils</text>
</g>
<!-- 1&#45;&gt;10 -->
<g id="edge1" class="edge">
<title>1&#45;&gt;10</title>
<path fill="none" stroke="#000000" d="M296.8969,-108.1686C291.9326,-116.2921 285.9778,-126.0363 280.5072,-134.9882"/>
<polygon fill="#000000" stroke="#000000" points="275.2526,-143.5867 276.6273,-132.7074 277.8598,-139.3203 280.4671,-135.0539 280.4671,-135.0539 280.4671,-135.0539 277.8598,-139.3203 284.3069,-137.4004 275.2526,-143.5867 275.2526,-143.5867"/>
</g>
<!-- 2 -->
<g id="node2" class="node">
<title>2</title>
<polygon fill="none" stroke="#000000" points="94,-36 0,-36 0,0 94,0 94,-36"/>
<text text-anchor="middle" x="47" y="-14.3" font-family="Times,serif" font-size="14.00" fill="#000000">npfc.duplicate</text>
</g>
<!-- 8 -->
<g id="node8" class="node">
<title>8</title>
<polygon fill="none" stroke="#000000" points="114,-108 46,-108 46,-72 114,-72 114,-108"/>
<text text-anchor="middle" x="80" y="-86.3" font-family="Times,serif" font-size="14.00" fill="#000000">npfc.save</text>
</g>
<!-- 2&#45;&gt;8 -->
<g id="edge2" class="edge">
<title>2&#45;&gt;8</title>
<path fill="none" stroke="#000000" d="M55.3273,-36.1686C58.973,-44.1229 63.3309,-53.631 67.3627,-62.4277"/>
<polygon fill="#000000" stroke="#000000" points="71.5606,-71.5867 63.3032,-64.371 69.4773,-67.0414 67.394,-62.4961 67.394,-62.4961 67.394,-62.4961 69.4773,-67.0414 71.4848,-60.6211 71.5606,-71.5867 71.5606,-71.5867"/>
</g>
<!-- 3 -->
<g id="node3" class="node">
<title>3</title>
<polygon fill="none" stroke="#000000" points="657.5,-108 586.5,-108 586.5,-72 657.5,-72 657.5,-108"/>
<text text-anchor="middle" x="622" y="-86.3" font-family="Times,serif" font-size="14.00" fill="#000000">npfc.filter</text>
</g>
<!-- 4 -->
<g id="node4" class="node">
<title>4</title>
<polygon fill="none" stroke="#000000" points="568.5,-108 399.5,-108 399.5,-72 568.5,-72 568.5,-108"/>
<text text-anchor="middle" x="484" y="-86.3" font-family="Times,serif" font-size="14.00" fill="#000000">npfc.fragment_combination</text>
</g>
<!-- 4&#45;&gt;10 -->
<g id="edge3" class="edge">
<title>4&#45;&gt;10</title>
<path fill="none" stroke="#000000" d="M428.7687,-108.0757C391.4662,-120.2838 342.8821,-136.184 308.1537,-147.5497"/>
<polygon fill="#000000" stroke="#000000" points="298.2986,-150.775 306.4028,-143.3878 303.0505,-149.2198 307.8025,-147.6646 307.8025,-147.6646 307.8025,-147.6646 303.0505,-149.2198 309.2022,-151.9414 298.2986,-150.775 298.2986,-150.775"/>
</g>
<!-- 5 -->
<g id="node5" class="node">
<title>5</title>
<polygon fill="none" stroke="#000000" points="318,-36 112,-36 112,0 318,0 318,-36"/>
<text text-anchor="middle" x="215" y="-14.3" font-family="Times,serif" font-size="14.00" fill="#000000">npfc.fragment_combination_graph</text>
</g>
<!-- 5&#45;&gt;1 -->
<g id="edge4" class="edge">
<title>5&#45;&gt;1</title>
<path fill="none" stroke="#000000" d="M238.4678,-36.1686C250.0327,-45.1221 264.1404,-56.0442 276.6183,-65.7045"/>
<polygon fill="#000000" stroke="#000000" points="284.5397,-71.8372 273.8776,-69.2737 280.5861,-68.7763 276.6324,-65.7154 276.6324,-65.7154 276.6324,-65.7154 280.5861,-68.7763 279.3872,-62.1571 284.5397,-71.8372 284.5397,-71.8372"/>
</g>
<!-- 5&#45;&gt;10 -->
<g id="edge5" class="edge">
<title>5&#45;&gt;10</title>
<path fill="none" stroke="#000000" d="M197.7008,-36.1247C182.1777,-54.6921 163.7255,-84.137 177,-108 186.4791,-125.0402 203.807,-137.3916 220.5177,-145.9439"/>
<polygon fill="#000000" stroke="#000000" points="229.6841,-150.31 218.7208,-150.0724 225.17,-148.1598 220.6559,-146.0097 220.6559,-146.0097 220.6559,-146.0097 225.17,-148.1598 222.591,-141.947 229.6841,-150.31 229.6841,-150.31"/>
</g>
<!-- 6 -->
<g id="node6" class="node">
<title>6</title>
<polygon fill="none" stroke="#000000" points="595.5,-36 460.5,-36 460.5,0 595.5,0 595.5,-36"/>
<text text-anchor="middle" x="528" y="-14.3" font-family="Times,serif" font-size="14.00" fill="#000000">npfc.fragment_search</text>
</g>
<!-- 7 -->
<g id="node7" class="node">
<title>7</title>
<polygon fill="none" stroke="#000000" points="254,-108 186,-108 186,-72 254,-72 254,-108"/>
<text text-anchor="middle" x="220" y="-86.3" font-family="Times,serif" font-size="14.00" fill="#000000">npfc.load</text>
</g>
<!-- 7&#45;&gt;10 -->
<g id="edge6" class="edge">
<title>7&#45;&gt;10</title>
<path fill="none" stroke="#000000" d="M231.1031,-108.1686C236.0674,-116.2921 242.0222,-126.0363 247.4928,-134.9882"/>
<polygon fill="#000000" stroke="#000000" points="252.7474,-143.5867 243.6931,-137.4004 250.1402,-139.3203 247.5329,-135.0539 247.5329,-135.0539 247.5329,-135.0539 250.1402,-139.3203 251.3727,-132.7074 252.7474,-143.5867 252.7474,-143.5867"/>
</g>
<!-- 8&#45;&gt;10 -->
<g id="edge7" class="edge">
<title>8&#45;&gt;10</title>
<path fill="none" stroke="#000000" d="M114.1778,-103.3739C144.0345,-115.057 187.5546,-132.0866 220.0054,-144.7847"/>
<polygon fill="#000000" stroke="#000000" points="229.6936,-148.5757 218.7413,-149.1223 225.0373,-146.7537 220.3811,-144.9317 220.3811,-144.9317 220.3811,-144.9317 225.0373,-146.7537 222.021,-140.7411 229.6936,-148.5757 229.6936,-148.5757"/>
</g>
<!-- 9 -->
<g id="node9" class="node">
<title>9</title>
<polygon fill="none" stroke="#000000" points="442,-36 336,-36 336,0 442,0 442,-36"/>
<text text-anchor="middle" x="389" y="-14.3" font-family="Times,serif" font-size="14.00" fill="#000000">npfc.standardize</text>
</g>
<!-- 9&#45;&gt;1 -->
<g id="edge8" class="edge">
<title>9&#45;&gt;1</title>
<path fill="none" stroke="#000000" d="M368.5603,-36.1686C358.6795,-44.9515 346.6676,-55.6288 335.955,-65.1511"/>
<polygon fill="#000000" stroke="#000000" points="328.4332,-71.8372 332.9176,-61.8301 332.1702,-68.5153 335.9073,-65.1935 335.9073,-65.1935 335.9073,-65.1935 332.1702,-68.5153 338.897,-68.5569 328.4332,-71.8372 328.4332,-71.8372"/>
</g>
<!-- 9&#45;&gt;3 -->
<g id="edge9" class="edge">
<title>9&#45;&gt;3</title>
<path fill="none" stroke="#000000" d="M442.0731,-33.1591C488.5269,-46.4281 551.6324,-64.455 576.3103,-71.8715"/>
<polygon fill="#000000" stroke="#000000" points="586.1046,-74.9394 575.2166,-76.2444 581.3332,-73.4448 576.5618,-71.9502 576.5618,-71.9502 576.5618,-71.9502 581.3332,-73.4448 577.907,-67.6559 586.1046,-74.9394 586.1046,-74.9394"/>
</g>
<!-- 9&#45;&gt;10 -->
<g id="edge10" class="edge">
<title>9&#45;&gt;10</title>
<path fill="none" stroke="#000000" d="M385.0572,-36.3421C380.093,-55.9004 369.9592,-86.9029 352,-108 339.859,-122.2623 322.968,-133.8783 307.2274,-142.6321"/>
<polygon fill="#000000" stroke="#000000" points="298.1371,-147.4539 304.8626,-138.7925 302.5542,-145.1109 306.9713,-142.7679 306.9713,-142.7679 306.9713,-142.7679 302.5542,-145.1109 309.08,-146.7433 298.1371,-147.4539 298.1371,-147.4539"/>
</g>
</g>
</svg>
