<?xml version="1.0" encoding="UTF-8" standalone="no"?>
<!DOCTYPE svg PUBLIC "-//W3C//DTD SVG 1.1//EN"
 "http://www.w3.org/Graphics/SVG/1.1/DTD/svg11.dtd">
<!-- Generated by graphviz version 2.40.1 (20161225.0304)
 -->
<!-- Title: packages_npfc Pages: 1 -->
<svg width="639pt" height="188pt"
 viewBox="0.00 0.00 638.50 188.00" xmlns="http://www.w3.org/2000/svg" xmlns:xlink="http://www.w3.org/1999/xlink">
<g id="graph0" class="graph" transform="scale(1 1) rotate(0) translate(4 184)">
<title>packages_npfc</title>
<polygon fill="#ffffff" stroke="transparent" points="-4,4 -4,-184 634.5,-184 634.5,4 -4,4"/>
<!-- 1 -->
<g id="node1" class="node">
<title>1</title>
<polygon fill="none" stroke="#000000" points="243.5,-108 172.5,-108 172.5,-72 243.5,-72 243.5,-108"/>
<text text-anchor="middle" x="208" y="-86.3" font-family="Times,serif" font-size="14.00" fill="#000000">npfc.draw</text>
</g>
<!-- 10 -->
<g id="node10" class="node">
<title>10</title>
<polygon fill="none" stroke="#000000" points="198,-180 130,-180 130,-144 198,-144 198,-180"/>
<text text-anchor="middle" x="164" y="-158.3" font-family="Times,serif" font-size="14.00" fill="#000000">npfc.utils</text>
</g>
<!-- 1&#45;&gt;10 -->
<g id="edge1" class="edge">
<title>1&#45;&gt;10</title>
<path fill="none" stroke="#000000" d="M196.8969,-108.1686C191.9326,-116.2921 185.9778,-126.0363 180.5072,-134.9882"/>
<polygon fill="#000000" stroke="#000000" points="175.2526,-143.5867 176.6273,-132.7074 177.8598,-139.3203 180.4671,-135.0539 180.4671,-135.0539 180.4671,-135.0539 177.8598,-139.3203 184.3069,-137.4004 175.2526,-143.5867 175.2526,-143.5867"/>
</g>
<!-- 2 -->
<g id="node2" class="node">
<title>2</title>
<polygon fill="none" stroke="#000000" points="147,-36 53,-36 53,0 147,0 147,-36"/>
<text text-anchor="middle" x="100" y="-14.3" font-family="Times,serif" font-size="14.00" fill="#000000">npfc.duplicate</text>
</g>
<!-- 8 -->
<g id="node8" class="node">
<title>8</title>
<polygon fill="none" stroke="#000000" points="154,-108 86,-108 86,-72 154,-72 154,-108"/>
<text text-anchor="middle" x="120" y="-86.3" font-family="Times,serif" font-size="14.00" fill="#000000">npfc.save</text>
</g>
<!-- 2&#45;&gt;8 -->
<g id="edge2" class="edge">
<title>2&#45;&gt;8</title>
<path fill="none" stroke="#000000" d="M105.0468,-36.1686C107.2094,-43.9537 109.7853,-53.2271 112.1848,-61.8653"/>
<polygon fill="#000000" stroke="#000000" points="114.8852,-71.5867 107.8729,-63.156 113.5469,-66.7691 112.2087,-61.9516 112.2087,-61.9516 112.2087,-61.9516 113.5469,-66.7691 116.5445,-60.7471 114.8852,-71.5867 114.8852,-71.5867"/>
</g>
<!-- 3 -->
<g id="node3" class="node">
<title>3</title>
<polygon fill="none" stroke="#000000" points="350.5,-180 279.5,-180 279.5,-144 350.5,-144 350.5,-180"/>
<text text-anchor="middle" x="315" y="-158.3" font-family="Times,serif" font-size="14.00" fill="#000000">npfc.filter</text>
</g>
<!-- 4 -->
<g id="node4" class="node">
<title>4</title>
<polygon fill="none" stroke="#000000" points="477.5,-36 308.5,-36 308.5,0 477.5,0 477.5,-36"/>
<text text-anchor="middle" x="393" y="-14.3" font-family="Times,serif" font-size="14.00" fill="#000000">npfc.fragment_combination</text>
</g>
<!-- 5 -->
<g id="node5" class="node">
<title>5</title>
<polygon fill="none" stroke="#000000" points="290.5,-36 165.5,-36 165.5,0 290.5,0 290.5,-36"/>
<text text-anchor="middle" x="228" y="-14.3" font-family="Times,serif" font-size="14.00" fill="#000000">npfc.fragment_map</text>
</g>
<!-- 5&#45;&gt;1 -->
<g id="edge3" class="edge">
<title>5&#45;&gt;1</title>
<path fill="none" stroke="#000000" d="M222.9532,-36.1686C220.7906,-43.9537 218.2147,-53.2271 215.8152,-61.8653"/>
<polygon fill="#000000" stroke="#000000" points="213.1148,-71.5867 211.4555,-60.7471 214.4531,-66.7691 215.7913,-61.9516 215.7913,-61.9516 215.7913,-61.9516 214.4531,-66.7691 220.1271,-63.156 213.1148,-71.5867 213.1148,-71.5867"/>
</g>
<!-- 6 -->
<g id="node6" class="node">
<title>6</title>
<polygon fill="none" stroke="#000000" points="630.5,-36 495.5,-36 495.5,0 630.5,0 630.5,-36"/>
<text text-anchor="middle" x="563" y="-14.3" font-family="Times,serif" font-size="14.00" fill="#000000">npfc.fragment_search</text>
</g>
<!-- 7 -->
<g id="node7" class="node">
<title>7</title>
<polygon fill="none" stroke="#000000" points="68,-108 0,-108 0,-72 68,-72 68,-108"/>
<text text-anchor="middle" x="34" y="-86.3" font-family="Times,serif" font-size="14.00" fill="#000000">npfc.load</text>
</g>
<!-- 7&#45;&gt;10 -->
<g id="edge4" class="edge">
<title>7&#45;&gt;10</title>
<path fill="none" stroke="#000000" d="M66.8045,-108.1686C83.5862,-117.4632 104.1985,-128.8792 122.1163,-138.8029"/>
<polygon fill="#000000" stroke="#000000" points="131.206,-143.8372 120.2778,-142.9287 126.832,-141.4146 122.4581,-138.9921 122.4581,-138.9921 122.4581,-138.9921 126.832,-141.4146 124.6384,-135.0556 131.206,-143.8372 131.206,-143.8372"/>
</g>
<!-- 8&#45;&gt;10 -->
<g id="edge5" class="edge">
<title>8&#45;&gt;10</title>
<path fill="none" stroke="#000000" d="M131.1031,-108.1686C136.0674,-116.2921 142.0222,-126.0363 147.4928,-134.9882"/>
<polygon fill="#000000" stroke="#000000" points="152.7474,-143.5867 143.6931,-137.4004 150.1402,-139.3203 147.5329,-135.0539 147.5329,-135.0539 147.5329,-135.0539 150.1402,-139.3203 151.3727,-132.7074 152.7474,-143.5867 152.7474,-143.5867"/>
</g>
<!-- 9 -->
<g id="node9" class="node">
<title>9</title>
<polygon fill="none" stroke="#000000" points="368,-108 262,-108 262,-72 368,-72 368,-108"/>
<text text-anchor="middle" x="315" y="-86.3" font-family="Times,serif" font-size="14.00" fill="#000000">npfc.standardize</text>
</g>
<!-- 9&#45;&gt;3 -->
<g id="edge6" class="edge">
<title>9&#45;&gt;3</title>
<path fill="none" stroke="#000000" d="M315,-108.1686C315,-115.869 315,-125.0257 315,-133.5834"/>
<polygon fill="#000000" stroke="#000000" points="315,-143.5867 310.5001,-133.5867 315,-138.5867 315.0001,-133.5867 315.0001,-133.5867 315.0001,-133.5867 315,-138.5867 319.5001,-133.5868 315,-143.5867 315,-143.5867"/>
</g>
<!-- 9&#45;&gt;10 -->
<g id="edge7" class="edge">
<title>9&#45;&gt;10</title>
<path fill="none" stroke="#000000" d="M276.8963,-108.1686C255.7205,-118.2657 229.2937,-130.8666 207.333,-141.3379"/>
<polygon fill="#000000" stroke="#000000" points="198.223,-145.6818 205.3125,-137.3159 202.7362,-143.5298 207.2494,-141.3777 207.2494,-141.3777 207.2494,-141.3777 202.7362,-143.5298 209.1862,-145.4396 198.223,-145.6818 198.223,-145.6818"/>
</g>
</g>
</svg>
