<?xml version="1.0" encoding="UTF-8" standalone="no"?>
<!DOCTYPE svg PUBLIC "-//W3C//DTD SVG 1.1//EN"
 "http://www.w3.org/Graphics/SVG/1.1/DTD/svg11.dtd">
<!-- Generated by graphviz version 2.40.1 (20161225.0304)
 -->
<!-- Title: packages_npfc Pages: 1 -->
<svg width="643pt" height="188pt"
 viewBox="0.00 0.00 643.00 188.00" xmlns="http://www.w3.org/2000/svg" xmlns:xlink="http://www.w3.org/1999/xlink">
<g id="graph0" class="graph" transform="scale(1 1) rotate(0) translate(4 184)">
<title>packages_npfc</title>
<polygon fill="#ffffff" stroke="transparent" points="-4,4 -4,-184 639,-184 639,4 -4,4"/>
<!-- 1 -->
<g id="node1" class="node">
<title>1</title>
<polygon fill="none" stroke="#000000" points="71,-108 0,-108 0,-72 71,-72 71,-108"/>
<text text-anchor="middle" x="35.5" y="-86.3" font-family="Times,serif" font-size="14.00" fill="#000000">npfc.draw</text>
</g>
<!-- 10 -->
<g id="node10" class="node">
<title>10</title>
<polygon fill="none" stroke="#000000" points="195.5,-180 127.5,-180 127.5,-144 195.5,-144 195.5,-180"/>
<text text-anchor="middle" x="161.5" y="-158.3" font-family="Times,serif" font-size="14.00" fill="#000000">npfc.utils</text>
</g>
<!-- 1&#45;&gt;10 -->
<g id="edge1" class="edge">
<title>1&#45;&gt;10</title>
<path fill="none" stroke="#000000" d="M67.2951,-108.1686C83.5605,-117.4632 103.5386,-128.8792 120.9051,-138.8029"/>
<polygon fill="#000000" stroke="#000000" points="129.7151,-143.8372 118.8,-142.7828 125.3738,-141.3565 121.0326,-138.8757 121.0326,-138.8757 121.0326,-138.8757 125.3738,-141.3565 123.2653,-134.9686 129.7151,-143.8372 129.7151,-143.8372"/>
</g>
<!-- 2 -->
<g id="node2" class="node">
<title>2</title>
<polygon fill="none" stroke="#000000" points="294.5,-36 200.5,-36 200.5,0 294.5,0 294.5,-36"/>
<text text-anchor="middle" x="247.5" y="-14.3" font-family="Times,serif" font-size="14.00" fill="#000000">npfc.duplicate</text>
</g>
<!-- 8 -->
<g id="node8" class="node">
<title>8</title>
<polygon fill="none" stroke="#000000" points="281.5,-108 213.5,-108 213.5,-72 281.5,-72 281.5,-108"/>
<text text-anchor="middle" x="247.5" y="-86.3" font-family="Times,serif" font-size="14.00" fill="#000000">npfc.save</text>
</g>
<!-- 2&#45;&gt;8 -->
<g id="edge2" class="edge">
<title>2&#45;&gt;8</title>
<path fill="none" stroke="#000000" d="M247.5,-36.1686C247.5,-43.869 247.5,-53.0257 247.5,-61.5834"/>
<polygon fill="#000000" stroke="#000000" points="247.5,-71.5867 243.0001,-61.5867 247.5,-66.5867 247.5001,-61.5867 247.5001,-61.5867 247.5001,-61.5867 247.5,-66.5867 252.0001,-61.5868 247.5,-71.5867 247.5,-71.5867"/>
</g>
<!-- 3 -->
<g id="node3" class="node">
<title>3</title>
<polygon fill="none" stroke="#000000" points="388,-180 317,-180 317,-144 388,-144 388,-180"/>
<text text-anchor="middle" x="352.5" y="-158.3" font-family="Times,serif" font-size="14.00" fill="#000000">npfc.filter</text>
</g>
<!-- 4 -->
<g id="node4" class="node">
<title>4</title>
<polygon fill="none" stroke="#000000" points="482,-36 313,-36 313,0 482,0 482,-36"/>
<text text-anchor="middle" x="397.5" y="-14.3" font-family="Times,serif" font-size="14.00" fill="#000000">npfc.fragment_combination</text>
</g>
<!-- 5 -->
<g id="node5" class="node">
<title>5</title>
<polygon fill="none" stroke="#000000" points="133,-36 2,-36 2,0 133,0 133,-36"/>
<text text-anchor="middle" x="67.5" y="-14.3" font-family="Times,serif" font-size="14.00" fill="#000000">npfc.fragment_graph</text>
</g>
<!-- 5&#45;&gt;1 -->
<g id="edge3" class="edge">
<title>5&#45;&gt;1</title>
<path fill="none" stroke="#000000" d="M59.425,-36.1686C55.8898,-44.1229 51.664,-53.631 47.7544,-62.4277"/>
<polygon fill="#000000" stroke="#000000" points="43.6837,-71.5867 43.633,-60.621 45.7144,-67.0177 47.7451,-62.4486 47.7451,-62.4486 47.7451,-62.4486 45.7144,-67.0177 51.8573,-64.2763 43.6837,-71.5867 43.6837,-71.5867"/>
</g>
<!-- 5&#45;&gt;10 -->
<g id="edge4" class="edge">
<title>5&#45;&gt;10</title>
<path fill="none" stroke="#000000" d="M76.6714,-36.084C86.3174,-54.619 102.3168,-84.0385 118.5,-108 124.8029,-117.3323 132.2724,-127.0893 139.2027,-135.7018"/>
<polygon fill="#000000" stroke="#000000" points="145.6264,-143.5572 135.8125,-138.6646 142.4612,-139.6866 139.296,-135.8159 139.296,-135.8159 139.296,-135.8159 142.4612,-139.6866 142.7796,-132.9673 145.6264,-143.5572 145.6264,-143.5572"/>
</g>
<!-- 6 -->
<g id="node6" class="node">
<title>6</title>
<polygon fill="none" stroke="#000000" points="635,-36 500,-36 500,0 635,0 635,-36"/>
<text text-anchor="middle" x="567.5" y="-14.3" font-family="Times,serif" font-size="14.00" fill="#000000">npfc.fragment_search</text>
</g>
<!-- 7 -->
<g id="node7" class="node">
<title>7</title>
<polygon fill="none" stroke="#000000" points="195.5,-108 127.5,-108 127.5,-72 195.5,-72 195.5,-108"/>
<text text-anchor="middle" x="161.5" y="-86.3" font-family="Times,serif" font-size="14.00" fill="#000000">npfc.load</text>
</g>
<!-- 7&#45;&gt;10 -->
<g id="edge5" class="edge">
<title>7&#45;&gt;10</title>
<path fill="none" stroke="#000000" d="M161.5,-108.1686C161.5,-115.869 161.5,-125.0257 161.5,-133.5834"/>
<polygon fill="#000000" stroke="#000000" points="161.5,-143.5867 157.0001,-133.5867 161.5,-138.5867 161.5001,-133.5867 161.5001,-133.5867 161.5001,-133.5867 161.5,-138.5867 166.0001,-133.5868 161.5,-143.5867 161.5,-143.5867"/>
</g>
<!-- 8&#45;&gt;10 -->
<g id="edge6" class="edge">
<title>8&#45;&gt;10</title>
<path fill="none" stroke="#000000" d="M225.7986,-108.1686C215.3079,-116.9515 202.5545,-127.6288 191.1806,-137.1511"/>
<polygon fill="#000000" stroke="#000000" points="183.1945,-143.8372 187.9734,-133.9674 187.0283,-140.6275 190.8621,-137.4178 190.8621,-137.4178 190.8621,-137.4178 187.0283,-140.6275 193.7508,-140.8682 183.1945,-143.8372 183.1945,-143.8372"/>
</g>
<!-- 9 -->
<g id="node9" class="node">
<title>9</title>
<polygon fill="none" stroke="#000000" points="405.5,-108 299.5,-108 299.5,-72 405.5,-72 405.5,-108"/>
<text text-anchor="middle" x="352.5" y="-86.3" font-family="Times,serif" font-size="14.00" fill="#000000">npfc.standardize</text>
</g>
<!-- 9&#45;&gt;3 -->
<g id="edge7" class="edge">
<title>9&#45;&gt;3</title>
<path fill="none" stroke="#000000" d="M352.5,-108.1686C352.5,-115.869 352.5,-125.0257 352.5,-133.5834"/>
<polygon fill="#000000" stroke="#000000" points="352.5,-143.5867 348.0001,-133.5867 352.5,-138.5867 352.5001,-133.5867 352.5001,-133.5867 352.5001,-133.5867 352.5,-138.5867 357.0001,-133.5868 352.5,-143.5867 352.5,-143.5867"/>
</g>
<!-- 9&#45;&gt;10 -->
<g id="edge8" class="edge">
<title>9&#45;&gt;10</title>
<path fill="none" stroke="#000000" d="M304.3026,-108.1686C273.8212,-119.659 234.7384,-134.3918 205.1675,-145.5389"/>
<polygon fill="#000000" stroke="#000000" points="195.53,-149.1719 203.2999,-141.4338 200.2086,-147.4082 204.8872,-145.6445 204.8872,-145.6445 204.8872,-145.6445 200.2086,-147.4082 206.4746,-149.8553 195.53,-149.1719 195.53,-149.1719"/>
</g>
</g>
</svg>
