<?xml version="1.0" encoding="UTF-8" standalone="no"?>
<!DOCTYPE svg PUBLIC "-//W3C//DTD SVG 1.1//EN"
 "http://www.w3.org/Graphics/SVG/1.1/DTD/svg11.dtd">
<!-- Generated by graphviz version 2.43.0 (0)
 -->
<!-- Title: packages_npfc Pages: 1 -->
<svg width="1290pt" height="260pt"
 viewBox="0.00 0.00 1290.08 260.00" xmlns="http://www.w3.org/2000/svg" xmlns:xlink="http://www.w3.org/1999/xlink">
<g id="graph0" class="graph" transform="scale(1 1) rotate(0) translate(4 256)">
<title>packages_npfc</title>
<polygon fill="white" stroke="transparent" points="-4,4 -4,-256 1286.08,-256 1286.08,4 -4,4"/>
<!-- npfc -->
<g id="node1" class="node">
<title>npfc</title>
<polygon fill="none" stroke="black" points="246.58,-252 192.58,-252 192.58,-216 246.58,-216 246.58,-252"/>
<text text-anchor="middle" x="219.58" y="-230.3" font-family="Times,serif" font-size="14.00">npfc</text>
</g>
<!-- npfc.contrib -->
<g id="node2" class="node">
<title>npfc.contrib</title>
<polygon fill="none" stroke="black" points="825.08,-36 742.08,-36 742.08,0 825.08,0 825.08,-36"/>
<text text-anchor="middle" x="783.58" y="-14.3" font-family="Times,serif" font-size="14.00">npfc.contrib</text>
</g>
<!-- npfc.contrib.np_score -->
<g id="node3" class="node">
<title>npfc.contrib.np_score</title>
<polygon fill="none" stroke="black" points="978.08,-36 843.08,-36 843.08,0 978.08,0 978.08,-36"/>
<text text-anchor="middle" x="910.58" y="-14.3" font-family="Times,serif" font-size="14.00">npfc.contrib.np_score</text>
</g>
<!-- npfc.contrib.sa_score -->
<g id="node4" class="node">
<title>npfc.contrib.sa_score</title>
<polygon fill="none" stroke="black" points="1129.08,-36 996.08,-36 996.08,0 1129.08,0 1129.08,-36"/>
<text text-anchor="middle" x="1062.58" y="-14.3" font-family="Times,serif" font-size="14.00">npfc.contrib.sa_score</text>
</g>
<!-- npfc.deduplicate -->
<g id="node5" class="node">
<title>npfc.deduplicate</title>
<polygon fill="none" stroke="black" points="122.08,-108 15.08,-108 15.08,-72 122.08,-72 122.08,-108"/>
<text text-anchor="middle" x="68.58" y="-86.3" font-family="Times,serif" font-size="14.00">npfc.deduplicate</text>
</g>
<!-- npfc.deduplicate&#45;&gt;npfc -->
<g id="edge1" class="edge">
<title>npfc.deduplicate&#45;&gt;npfc</title>
<path fill="none" stroke="black" d="M60.57,-108.17C52.85,-127.51 44.4,-158.97 59.58,-180 87.46,-218.6 144.53,-229.54 182.42,-232.39"/>
<polygon fill="black" stroke="black" points="192.56,-233 182.31,-236.89 187.57,-232.7 182.58,-232.4 182.58,-232.4 182.58,-232.4 187.57,-232.7 182.85,-227.91 192.56,-233 192.56,-233"/>
</g>
<!-- npfc.save -->
<g id="node15" class="node">
<title>npfc.save</title>
<polygon fill="none" stroke="black" points="136.58,-180 68.58,-180 68.58,-144 136.58,-144 136.58,-180"/>
<text text-anchor="middle" x="102.58" y="-158.3" font-family="Times,serif" font-size="14.00">npfc.save</text>
</g>
<!-- npfc.deduplicate&#45;&gt;npfc.save -->
<g id="edge2" class="edge">
<title>npfc.deduplicate&#45;&gt;npfc.save</title>
<path fill="none" stroke="black" d="M76.99,-108.3C80.86,-116.27 85.53,-125.9 89.82,-134.74"/>
<polygon fill="black" stroke="black" points="94.27,-143.9 85.86,-136.87 92.09,-139.4 89.9,-134.9 89.9,-134.9 89.9,-134.9 92.09,-139.4 93.95,-132.93 94.27,-143.9 94.27,-143.9"/>
</g>
<!-- npfc.draw -->
<g id="node6" class="node">
<title>npfc.draw</title>
<polygon fill="none" stroke="black" points="662.08,-108 591.08,-108 591.08,-72 662.08,-72 662.08,-108"/>
<text text-anchor="middle" x="626.58" y="-86.3" font-family="Times,serif" font-size="14.00">npfc.draw</text>
</g>
<!-- npfc.draw&#45;&gt;npfc -->
<g id="edge3" class="edge">
<title>npfc.draw&#45;&gt;npfc</title>
<path fill="none" stroke="black" d="M596.07,-108.1C554.9,-130.96 483.48,-169.8 455.58,-180 387.56,-204.86 304.09,-220.28 256.85,-227.69"/>
<polygon fill="black" stroke="black" points="246.77,-229.24 255.97,-223.27 251.71,-228.48 256.66,-227.72 256.66,-227.72 256.66,-227.72 251.71,-228.48 257.34,-232.17 246.77,-229.24 246.77,-229.24"/>
</g>
<!-- npfc.fragment_combination_graph -->
<g id="node9" class="node">
<title>npfc.fragment_combination_graph</title>
<polygon fill="none" stroke="black" points="898.58,-180 692.58,-180 692.58,-144 898.58,-144 898.58,-180"/>
<text text-anchor="middle" x="795.58" y="-158.3" font-family="Times,serif" font-size="14.00">npfc.fragment_combination_graph</text>
</g>
<!-- npfc.draw&#45;&gt;npfc.fragment_combination_graph -->
<g id="edge4" class="edge">
<title>npfc.draw&#45;&gt;npfc.fragment_combination_graph</title>
<path fill="none" stroke="black" d="M662.03,-108.12C684.32,-117.78 713.51,-129.91 738.94,-140.12"/>
<polygon fill="black" stroke="black" points="748.48,-143.93 737.53,-144.4 743.84,-142.08 739.19,-140.22 739.19,-140.22 739.19,-140.22 743.84,-142.08 740.86,-136.04 748.48,-143.93 748.48,-143.93"/>
</g>
<!-- npfc.notebook -->
<g id="node13" class="node">
<title>npfc.notebook</title>
<polygon fill="none" stroke="black" points="636.08,-180 541.08,-180 541.08,-144 636.08,-144 636.08,-180"/>
<text text-anchor="middle" x="588.58" y="-158.3" font-family="Times,serif" font-size="14.00">npfc.notebook</text>
</g>
<!-- npfc.draw&#45;&gt;npfc.notebook -->
<g id="edge5" class="edge">
<title>npfc.draw&#45;&gt;npfc.notebook</title>
<path fill="none" stroke="black" d="M617.19,-108.3C612.82,-116.36 607.52,-126.11 602.69,-135.02"/>
<polygon fill="black" stroke="black" points="597.87,-143.9 598.68,-132.96 600.25,-139.5 602.64,-135.11 602.64,-135.11 602.64,-135.11 600.25,-139.5 606.59,-137.25 597.87,-143.9 597.87,-143.9"/>
</g>
<!-- npfc.utils -->
<g id="node17" class="node">
<title>npfc.utils</title>
<polygon fill="none" stroke="black" points="546.58,-252 478.58,-252 478.58,-216 546.58,-216 546.58,-252"/>
<text text-anchor="middle" x="512.58" y="-230.3" font-family="Times,serif" font-size="14.00">npfc.utils</text>
</g>
<!-- npfc.draw&#45;&gt;npfc.utils -->
<g id="edge6" class="edge">
<title>npfc.draw&#45;&gt;npfc.utils</title>
<path fill="none" stroke="black" d="M637.13,-108.23C647.32,-127.34 659.24,-158.32 644.58,-180 625.07,-208.86 586.99,-222 556.72,-227.99"/>
<polygon fill="black" stroke="black" points="546.79,-229.76 555.85,-223.58 551.71,-228.88 556.64,-228.01 556.64,-228.01 556.64,-228.01 551.71,-228.88 557.43,-232.44 546.79,-229.76 546.79,-229.76"/>
</g>
<!-- npfc.filter -->
<g id="node7" class="node">
<title>npfc.filter</title>
<polygon fill="none" stroke="black" points="751.08,-108 680.08,-108 680.08,-72 751.08,-72 751.08,-108"/>
<text text-anchor="middle" x="715.58" y="-86.3" font-family="Times,serif" font-size="14.00">npfc.filter</text>
</g>
<!-- npfc.fragment_combination -->
<g id="node8" class="node">
<title>npfc.fragment_combination</title>
<polygon fill="none" stroke="black" points="447.08,-180 278.08,-180 278.08,-144 447.08,-144 447.08,-180"/>
<text text-anchor="middle" x="362.58" y="-158.3" font-family="Times,serif" font-size="14.00">npfc.fragment_combination</text>
</g>
<!-- npfc.fragment_combination&#45;&gt;npfc -->
<g id="edge7" class="edge">
<title>npfc.fragment_combination&#45;&gt;npfc</title>
<path fill="none" stroke="black" d="M327.6,-180.12C305.75,-190.82 277.68,-204.56 255.63,-215.35"/>
<polygon fill="black" stroke="black" points="246.59,-219.78 253.59,-211.34 251.08,-217.58 255.57,-215.38 255.57,-215.38 255.57,-215.38 251.08,-217.58 257.55,-219.43 246.59,-219.78 246.59,-219.78"/>
</g>
<!-- npfc.fragment_combination&#45;&gt;npfc.utils -->
<g id="edge8" class="edge">
<title>npfc.fragment_combination&#45;&gt;npfc.utils</title>
<path fill="none" stroke="black" d="M399.27,-180.12C420.45,-190 447.19,-202.48 469.38,-212.84"/>
<polygon fill="black" stroke="black" points="478.58,-217.13 467.61,-216.98 474.05,-215.02 469.51,-212.9 469.51,-212.9 469.51,-212.9 474.05,-215.02 471.42,-208.82 478.58,-217.13 478.58,-217.13"/>
</g>
<!-- npfc.fragment_combination_graph&#45;&gt;npfc -->
<g id="edge9" class="edge">
<title>npfc.fragment_combination_graph&#45;&gt;npfc</title>
<path fill="none" stroke="black" d="M692.27,-175.55C561.74,-191.42 343.67,-217.92 256.87,-228.47"/>
<polygon fill="black" stroke="black" points="246.71,-229.7 256.1,-224.03 251.67,-229.1 256.64,-228.5 256.64,-228.5 256.64,-228.5 251.67,-229.1 257.18,-232.96 246.71,-229.7 246.71,-229.7"/>
</g>
<!-- npfc.fragment_combination_graph&#45;&gt;npfc.draw -->
<g id="edge10" class="edge">
<title>npfc.fragment_combination_graph&#45;&gt;npfc.draw</title>
<path fill="none" stroke="black" d="M760.4,-143.99C734.6,-132.81 699.47,-118.28 671.63,-107.25"/>
<polygon fill="black" stroke="black" points="662.11,-103.51 673.06,-102.98 666.76,-105.34 671.42,-107.17 671.42,-107.17 671.42,-107.17 666.76,-105.34 669.77,-111.36 662.11,-103.51 662.11,-103.51"/>
</g>
<!-- npfc.fragment_combination_point -->
<g id="node10" class="node">
<title>npfc.fragment_combination_point</title>
<polygon fill="none" stroke="black" points="897.08,-252 694.08,-252 694.08,-216 897.08,-216 897.08,-252"/>
<text text-anchor="middle" x="795.58" y="-230.3" font-family="Times,serif" font-size="14.00">npfc.fragment_combination_point</text>
</g>
<!-- npfc.fragment_combination_graph&#45;&gt;npfc.fragment_combination_point -->
<g id="edge11" class="edge">
<title>npfc.fragment_combination_graph&#45;&gt;npfc.fragment_combination_point</title>
<path fill="none" stroke="black" d="M795.58,-180.3C795.58,-188.02 795.58,-197.29 795.58,-205.89"/>
<polygon fill="black" stroke="black" points="795.58,-215.9 791.08,-205.9 795.58,-210.9 795.58,-205.9 795.58,-205.9 795.58,-205.9 795.58,-210.9 800.08,-205.9 795.58,-215.9 795.58,-215.9"/>
</g>
<!-- npfc.fragment_combination_graph&#45;&gt;npfc.utils -->
<g id="edge12" class="edge">
<title>npfc.fragment_combination_graph&#45;&gt;npfc.utils</title>
<path fill="none" stroke="black" d="M726.71,-180.03C673.78,-193.13 602.24,-210.82 556.75,-222.08"/>
<polygon fill="black" stroke="black" points="546.89,-224.51 555.52,-217.74 551.74,-223.31 556.6,-222.11 556.6,-222.11 556.6,-222.11 551.74,-223.31 557.68,-226.48 546.89,-224.51 546.89,-224.51"/>
</g>
<!-- npfc.fragment_search -->
<g id="node11" class="node">
<title>npfc.fragment_search</title>
<polygon fill="none" stroke="black" points="1282.08,-36 1147.08,-36 1147.08,0 1282.08,0 1282.08,-36"/>
<text text-anchor="middle" x="1214.58" y="-14.3" font-family="Times,serif" font-size="14.00">npfc.fragment_search</text>
</g>
<!-- npfc.load -->
<g id="node12" class="node">
<title>npfc.load</title>
<polygon fill="none" stroke="black" points="222.58,-180 154.58,-180 154.58,-144 222.58,-144 222.58,-180"/>
<text text-anchor="middle" x="188.58" y="-158.3" font-family="Times,serif" font-size="14.00">npfc.load</text>
</g>
<!-- npfc.load&#45;&gt;npfc -->
<g id="edge13" class="edge">
<title>npfc.load&#45;&gt;npfc</title>
<path fill="none" stroke="black" d="M196.24,-180.3C199.77,-188.27 204.04,-197.9 207.95,-206.74"/>
<polygon fill="black" stroke="black" points="212.01,-215.9 203.84,-208.57 209.98,-211.32 207.96,-206.75 207.96,-206.75 207.96,-206.75 209.98,-211.32 212.07,-204.93 212.01,-215.9 212.01,-215.9"/>
</g>
<!-- npfc.load&#45;&gt;npfc.utils -->
<g id="edge14" class="edge">
<title>npfc.load&#45;&gt;npfc.utils</title>
<path fill="none" stroke="black" d="M222.64,-170.36C281.71,-183.12 403.08,-209.34 468.49,-223.47"/>
<polygon fill="black" stroke="black" points="478.49,-225.63 467.76,-227.92 473.6,-224.58 468.72,-223.52 468.72,-223.52 468.72,-223.52 473.6,-224.58 469.67,-219.12 478.49,-225.63 478.49,-225.63"/>
</g>
<!-- npfc.report -->
<g id="node14" class="node">
<title>npfc.report</title>
<polygon fill="none" stroke="black" points="246.08,-36 169.08,-36 169.08,0 246.08,0 246.08,-36"/>
<text text-anchor="middle" x="207.58" y="-14.3" font-family="Times,serif" font-size="14.00">npfc.report</text>
</g>
<!-- npfc.report&#45;&gt;npfc -->
<g id="edge15" class="edge">
<title>npfc.report&#45;&gt;npfc</title>
<path fill="none" stroke="black" d="M168.69,-23.59C115.76,-30.72 25.35,-46.38 5.58,-72 -4.19,-84.67 1.4,-92.55 5.58,-108 15.25,-143.76 18.56,-156.97 47.58,-180 86.96,-211.25 144.77,-224.15 182.29,-229.43"/>
<polygon fill="black" stroke="black" points="192.31,-230.72 181.81,-233.9 187.35,-230.08 182.39,-229.44 182.39,-229.44 182.39,-229.44 187.35,-230.08 182.97,-224.98 192.31,-230.72 192.31,-230.72"/>
</g>
<!-- npfc.report&#45;&gt;npfc.draw -->
<g id="edge16" class="edge">
<title>npfc.report&#45;&gt;npfc.draw</title>
<path fill="none" stroke="black" d="M246.38,-25.4C306.44,-35.31 425.54,-55.02 526.58,-72 544.27,-74.97 563.71,-78.27 580.72,-81.17"/>
<polygon fill="black" stroke="black" points="590.95,-82.91 580.34,-85.67 586.02,-82.07 581.09,-81.23 581.09,-81.23 581.09,-81.23 586.02,-82.07 581.85,-76.79 590.95,-82.91 590.95,-82.91"/>
</g>
<!-- npfc.report&#45;&gt;npfc.fragment_combination -->
<g id="edge17" class="edge">
<title>npfc.report&#45;&gt;npfc.fragment_combination</title>
<path fill="none" stroke="black" d="M226.28,-36.13C253.74,-61.29 305.11,-108.35 336.34,-136.96"/>
<polygon fill="black" stroke="black" points="343.82,-143.81 333.4,-140.37 340.13,-140.43 336.44,-137.06 336.44,-137.06 336.44,-137.06 340.13,-140.43 339.48,-133.74 343.82,-143.81 343.82,-143.81"/>
</g>
<!-- npfc.report&#45;&gt;npfc.load -->
<g id="edge18" class="edge">
<title>npfc.report&#45;&gt;npfc.load</title>
<path fill="none" stroke="black" d="M205.29,-36.13C202.05,-60.33 196.1,-104.79 192.25,-133.61"/>
<polygon fill="black" stroke="black" points="190.88,-143.81 187.75,-133.3 191.54,-138.85 192.21,-133.9 192.21,-133.9 192.21,-133.9 191.54,-138.85 196.67,-134.5 190.88,-143.81 190.88,-143.81"/>
</g>
<!-- npfc.report&#45;&gt;npfc.save -->
<g id="edge19" class="edge">
<title>npfc.report&#45;&gt;npfc.save</title>
<path fill="none" stroke="black" d="M194.92,-36.13C176.63,-60.86 142.69,-106.76 121.45,-135.49"/>
<polygon fill="black" stroke="black" points="115.29,-143.81 117.62,-133.09 118.26,-139.79 121.24,-135.77 121.24,-135.77 121.24,-135.77 118.26,-139.79 124.85,-138.45 115.29,-143.81 115.29,-143.81"/>
</g>
<!-- npfc.report&#45;&gt;npfc.utils -->
<g id="edge20" class="edge">
<title>npfc.report&#45;&gt;npfc.utils</title>
<path fill="none" stroke="black" d="M246.2,-31.18C298.45,-49.18 392.39,-86.99 455.58,-144 475.04,-161.56 490.54,-187.24 500.43,-206.5"/>
<polygon fill="black" stroke="black" points="504.95,-215.65 496.48,-208.68 502.74,-211.17 500.52,-206.69 500.52,-206.69 500.52,-206.69 502.74,-211.17 504.55,-204.69 504.95,-215.65 504.95,-215.65"/>
</g>
<!-- npfc.save&#45;&gt;npfc -->
<g id="edge21" class="edge">
<title>npfc.save&#45;&gt;npfc</title>
<path fill="none" stroke="black" d="M131.2,-180.12C146.96,-189.55 166.66,-201.34 183.47,-211.39"/>
<polygon fill="black" stroke="black" points="192.46,-216.77 181.57,-215.5 188.17,-214.21 183.88,-211.64 183.88,-211.64 183.88,-211.64 188.17,-214.21 186.19,-207.78 192.46,-216.77 192.46,-216.77"/>
</g>
<!-- npfc.save&#45;&gt;npfc.utils -->
<g id="edge22" class="edge">
<title>npfc.save&#45;&gt;npfc.utils</title>
<path fill="none" stroke="black" d="M136.61,-177.28C139.61,-178.29 142.63,-179.22 145.58,-180 259.64,-210.34 398.56,-224.4 468.23,-229.95"/>
<polygon fill="black" stroke="black" points="478.4,-230.73 468.08,-234.45 473.42,-230.35 468.43,-229.96 468.43,-229.96 468.43,-229.96 473.42,-230.35 468.78,-225.48 478.4,-230.73 478.4,-230.73"/>
</g>
<!-- npfc.standardize -->
<g id="node16" class="node">
<title>npfc.standardize</title>
<polygon fill="none" stroke="black" points="723.58,-36 617.58,-36 617.58,0 723.58,0 723.58,-36"/>
<text text-anchor="middle" x="670.58" y="-14.3" font-family="Times,serif" font-size="14.00">npfc.standardize</text>
</g>
<!-- npfc.standardize&#45;&gt;npfc -->
<g id="edge23" class="edge">
<title>npfc.standardize&#45;&gt;npfc</title>
<path fill="none" stroke="black" d="M617.46,-22.96C534.42,-31.67 372.63,-59.09 268.58,-144 248.82,-160.12 235.75,-186.42 228.12,-206.26"/>
<polygon fill="black" stroke="black" points="224.71,-215.68 223.88,-204.75 226.41,-210.98 228.11,-206.28 228.11,-206.28 228.11,-206.28 226.41,-210.98 232.35,-207.81 224.71,-215.68 224.71,-215.68"/>
</g>
<!-- npfc.standardize&#45;&gt;npfc.draw -->
<g id="edge24" class="edge">
<title>npfc.standardize&#45;&gt;npfc.draw</title>
<path fill="none" stroke="black" d="M659.7,-36.3C654.59,-44.44 648.39,-54.31 642.74,-63.3"/>
<polygon fill="black" stroke="black" points="637.33,-71.9 638.84,-61.03 639.99,-67.66 642.65,-63.43 642.65,-63.43 642.65,-63.43 639.99,-67.66 646.46,-65.82 637.33,-71.9 637.33,-71.9"/>
</g>
<!-- npfc.standardize&#45;&gt;npfc.filter -->
<g id="edge25" class="edge">
<title>npfc.standardize&#45;&gt;npfc.filter</title>
<path fill="none" stroke="black" d="M681.7,-36.3C686.94,-44.44 693.28,-54.31 699.06,-63.3"/>
<polygon fill="black" stroke="black" points="704.59,-71.9 695.39,-65.92 701.88,-67.69 699.18,-63.48 699.18,-63.48 699.18,-63.48 701.88,-67.69 702.96,-61.05 704.59,-71.9 704.59,-71.9"/>
</g>
<!-- npfc.standardize&#45;&gt;npfc.utils -->
<g id="edge26" class="edge">
<title>npfc.standardize&#45;&gt;npfc.utils</title>
<path fill="none" stroke="black" d="M715.13,-36.03C777.57,-60.92 885.96,-108.15 907.58,-144 915.84,-157.7 918.12,-167.96 907.58,-180 896.1,-193.12 657.7,-218.45 556.93,-228.62"/>
<polygon fill="black" stroke="black" points="546.77,-229.64 556.27,-224.16 551.74,-229.14 556.72,-228.64 556.72,-228.64 556.72,-228.64 551.74,-229.14 557.17,-233.12 546.77,-229.64 546.77,-229.64"/>
</g>
</g>
</svg>
