<?xml version="1.0" encoding="UTF-8" standalone="no"?>
<!DOCTYPE svg PUBLIC "-//W3C//DTD SVG 1.1//EN"
 "http://www.w3.org/Graphics/SVG/1.1/DTD/svg11.dtd">
<!-- Generated by graphviz version 2.38.0 (20140413.2041)
 -->
<!-- Title: packages_npfc Pages: 1 -->
<svg width="738pt" height="260pt"
 viewBox="0.00 0.00 737.50 260.00" xmlns="http://www.w3.org/2000/svg" xmlns:xlink="http://www.w3.org/1999/xlink">
<g id="graph0" class="graph" transform="scale(1 1) rotate(0) translate(4 256)">
<title>packages_npfc</title>
<polygon fill="white" stroke="none" points="-4,4 -4,-256 733.5,-256 733.5,4 -4,4"/>
<!-- 1 -->
<g id="node1" class="node"><title>1</title>
<polygon fill="none" stroke="black" points="558.5,-108 487.5,-108 487.5,-72 558.5,-72 558.5,-108"/>
<text text-anchor="middle" x="523" y="-86.3" font-family="Times,serif" font-size="14.00">npfc.draw</text>
</g>
<!-- 5 -->
<g id="node5" class="node"><title>5</title>
<polygon fill="none" stroke="black" points="679,-180 473,-180 473,-144 679,-144 679,-180"/>
<text text-anchor="middle" x="576" y="-158.3" font-family="Times,serif" font-size="14.00">npfc.fragment_combination_graph</text>
</g>
<!-- 1&#45;&gt;5 -->
<g id="edge1" class="edge"><title>1&#45;&gt;5</title>
<path fill="none" stroke="black" d="M530.185,-108.303C535.674,-116.695 543.23,-126.93 550.685,-136.139"/>
<polygon fill="black" stroke="black" points="557.155,-143.896 547.294,-139.099 553.952,-140.056 550.749,-136.216 550.749,-136.216 550.749,-136.216 553.952,-140.056 554.205,-133.334 557.155,-143.896 557.155,-143.896"/>
</g>
<!-- 12 -->
<g id="node12" class="node"><title>12</title>
<polygon fill="none" stroke="black" points="379,-252 311,-252 311,-216 379,-216 379,-252"/>
<text text-anchor="middle" x="345" y="-230.3" font-family="Times,serif" font-size="14.00">npfc.utils</text>
</g>
<!-- 1&#45;&gt;12 -->
<g id="edge2" class="edge"><title>1&#45;&gt;12</title>
<path fill="none" stroke="black" d="M503.694,-108.289C478.919,-130.399 437.205,-167.34 421,-180 407.794,-190.317 392.75,-201.014 379.551,-210.074"/>
<polygon fill="black" stroke="black" points="371.182,-215.77 376.917,-206.423 375.315,-212.957 379.449,-210.144 379.449,-210.144 379.449,-210.144 375.315,-212.957 381.981,-213.864 371.182,-215.77 371.182,-215.77"/>
</g>
<!-- 2 -->
<g id="node2" class="node"><title>2</title>
<polygon fill="none" stroke="black" points="379,-108 285,-108 285,-72 379,-72 379,-108"/>
<text text-anchor="middle" x="332" y="-86.3" font-family="Times,serif" font-size="14.00">npfc.duplicate</text>
</g>
<!-- 10 -->
<g id="node10" class="node"><title>10</title>
<polygon fill="none" stroke="black" points="379,-180 311,-180 311,-144 379,-144 379,-180"/>
<text text-anchor="middle" x="345" y="-158.3" font-family="Times,serif" font-size="14.00">npfc.save</text>
</g>
<!-- 2&#45;&gt;10 -->
<g id="edge3" class="edge"><title>2&#45;&gt;10</title>
<path fill="none" stroke="black" d="M335.213,-108.303C336.646,-116.017 338.368,-125.288 339.965,-133.888"/>
<polygon fill="black" stroke="black" points="341.823,-143.896 335.573,-134.885 340.91,-138.98 339.997,-134.064 339.997,-134.064 339.997,-134.064 340.91,-138.98 344.422,-133.242 341.823,-143.896 341.823,-143.896"/>
</g>
<!-- 3 -->
<g id="node3" class="node"><title>3</title>
<polygon fill="none" stroke="black" points="647.5,-108 576.5,-108 576.5,-72 647.5,-72 647.5,-108"/>
<text text-anchor="middle" x="612" y="-86.3" font-family="Times,serif" font-size="14.00">npfc.filter</text>
</g>
<!-- 4 -->
<g id="node4" class="node"><title>4</title>
<polygon fill="none" stroke="black" points="292.5,-180 123.5,-180 123.5,-144 292.5,-144 292.5,-180"/>
<text text-anchor="middle" x="208" y="-158.3" font-family="Times,serif" font-size="14.00">npfc.fragment_combination</text>
</g>
<!-- 4&#45;&gt;12 -->
<g id="edge4" class="edge"><title>4&#45;&gt;12</title>
<path fill="none" stroke="black" d="M241.514,-180.124C259.841,-189.488 282.736,-201.186 302.328,-211.197"/>
<polygon fill="black" stroke="black" points="311.357,-215.81 300.405,-215.267 306.905,-213.535 302.452,-211.26 302.452,-211.26 302.452,-211.26 306.905,-213.535 304.5,-207.253 311.357,-215.81 311.357,-215.81"/>
</g>
<!-- 5&#45;&gt;1 -->
<g id="edge5" class="edge"><title>5&#45;&gt;1</title>
<path fill="none" stroke="black" d="M568.945,-143.896C563.489,-135.533 555.948,-125.306 548.492,-116.08"/>
<polygon fill="black" stroke="black" points="542.017,-108.303 551.874,-113.109 545.216,-112.146 548.416,-115.988 548.416,-115.988 548.416,-115.988 545.216,-112.146 544.958,-118.868 542.017,-108.303 542.017,-108.303"/>
</g>
<!-- 6 -->
<g id="node6" class="node"><title>6</title>
<polygon fill="none" stroke="black" points="677.5,-252 474.5,-252 474.5,-216 677.5,-216 677.5,-252"/>
<text text-anchor="middle" x="576" y="-230.3" font-family="Times,serif" font-size="14.00">npfc.fragment_combination_point</text>
</g>
<!-- 5&#45;&gt;6 -->
<g id="edge6" class="edge"><title>5&#45;&gt;6</title>
<path fill="none" stroke="black" d="M576,-180.303C576,-188.017 576,-197.288 576,-205.888"/>
<polygon fill="black" stroke="black" points="576,-215.896 571.5,-205.896 576,-210.896 576,-205.896 576,-205.896 576,-205.896 576,-210.896 580.5,-205.896 576,-215.896 576,-215.896"/>
</g>
<!-- 5&#45;&gt;12 -->
<g id="edge7" class="edge"><title>5&#45;&gt;12</title>
<path fill="none" stroke="black" d="M519.786,-180.034C479.625,-192.205 426.343,-208.351 389.208,-219.604"/>
<polygon fill="black" stroke="black" points="379.186,-222.641 387.451,-215.434 383.971,-221.19 388.757,-219.74 388.757,-219.74 388.757,-219.74 383.971,-221.19 390.062,-224.047 379.186,-222.641 379.186,-222.641"/>
</g>
<!-- 7 -->
<g id="node7" class="node"><title>7</title>
<polygon fill="none" stroke="black" points="729.5,-36 594.5,-36 594.5,-0 729.5,-0 729.5,-36"/>
<text text-anchor="middle" x="662" y="-14.3" font-family="Times,serif" font-size="14.00">npfc.fragment_search</text>
</g>
<!-- 8 -->
<g id="node8" class="node"><title>8</title>
<polygon fill="none" stroke="black" points="68,-180 0,-180 0,-144 68,-144 68,-180"/>
<text text-anchor="middle" x="34" y="-158.3" font-family="Times,serif" font-size="14.00">npfc.load</text>
</g>
<!-- 8&#45;&gt;12 -->
<g id="edge8" class="edge"><title>8&#45;&gt;12</title>
<path fill="none" stroke="black" d="M68.1604,-175.761C72.7802,-177.292 77.4838,-178.752 82,-180 157.76,-200.936 247.919,-217.3 300.575,-226.023"/>
<polygon fill="black" stroke="black" points="310.591,-227.665 299.995,-230.488 305.657,-226.856 300.723,-226.047 300.723,-226.047 300.723,-226.047 305.657,-226.856 301.451,-221.606 310.591,-227.665 310.591,-227.665"/>
</g>
<!-- 9 -->
<g id="node9" class="node"><title>9</title>
<polygon fill="none" stroke="black" points="190.5,-108 113.5,-108 113.5,-72 190.5,-72 190.5,-108"/>
<text text-anchor="middle" x="152" y="-86.3" font-family="Times,serif" font-size="14.00">npfc.report</text>
</g>
<!-- 9&#45;&gt;4 -->
<g id="edge9" class="edge"><title>9&#45;&gt;4</title>
<path fill="none" stroke="black" d="M165.843,-108.303C172.489,-116.611 180.578,-126.723 187.887,-135.859"/>
<polygon fill="black" stroke="black" points="194.317,-143.896 184.556,-138.898 191.193,-139.991 188.07,-136.087 188.07,-136.087 188.07,-136.087 191.193,-139.991 191.583,-133.276 194.317,-143.896 194.317,-143.896"/>
</g>
<!-- 9&#45;&gt;8 -->
<g id="edge10" class="edge"><title>9&#45;&gt;8</title>
<path fill="none" stroke="black" d="M123.134,-108.124C107.705,-117.276 88.5189,-128.658 71.9033,-138.515"/>
<polygon fill="black" stroke="black" points="62.977,-143.81 69.2816,-134.838 67.2773,-141.259 71.5776,-138.708 71.5776,-138.708 71.5776,-138.708 67.2773,-141.259 73.8735,-142.578 62.977,-143.81 62.977,-143.81"/>
</g>
<!-- 9&#45;&gt;10 -->
<g id="edge11" class="edge"><title>9&#45;&gt;10</title>
<path fill="none" stroke="black" d="M190.693,-104.442C220.83,-114.99 263.674,-130.154 301,-144 301.101,-144.037 301.202,-144.075 301.303,-144.112"/>
<polygon fill="black" stroke="black" points="310.925,-147.73 299.981,-148.423 306.245,-145.971 301.564,-144.211 301.564,-144.211 301.564,-144.211 306.245,-145.971 303.148,-139.999 310.925,-147.73 310.925,-147.73"/>
</g>
<!-- 9&#45;&gt;12 -->
<g id="edge12" class="edge"><title>9&#45;&gt;12</title>
<path fill="none" stroke="black" d="M134.769,-108.177C117.76,-127.24 96.6236,-158.185 114,-180 136.901,-208.751 240.351,-223.186 300.763,-229.283"/>
<polygon fill="black" stroke="black" points="310.792,-230.259 300.403,-233.769 305.816,-229.775 300.839,-229.291 300.839,-229.291 300.839,-229.291 305.816,-229.775 301.275,-224.812 310.792,-230.259 310.792,-230.259"/>
</g>
<!-- 10&#45;&gt;12 -->
<g id="edge13" class="edge"><title>10&#45;&gt;12</title>
<path fill="none" stroke="black" d="M345,-180.303C345,-188.017 345,-197.288 345,-205.888"/>
<polygon fill="black" stroke="black" points="345,-215.896 340.5,-205.896 345,-210.896 345,-205.896 345,-205.896 345,-205.896 345,-210.896 349.5,-205.896 345,-215.896 345,-215.896"/>
</g>
<!-- 11 -->
<g id="node11" class="node"><title>11</title>
<polygon fill="none" stroke="black" points="576,-36 470,-36 470,-0 576,-0 576,-36"/>
<text text-anchor="middle" x="523" y="-14.3" font-family="Times,serif" font-size="14.00">npfc.standardize</text>
</g>
<!-- 11&#45;&gt;1 -->
<g id="edge14" class="edge"><title>11&#45;&gt;1</title>
<path fill="none" stroke="black" d="M523,-36.3034C523,-44.0173 523,-53.2875 523,-61.8876"/>
<polygon fill="black" stroke="black" points="523,-71.8957 518.5,-61.8956 523,-66.8957 523,-61.8957 523,-61.8957 523,-61.8957 523,-66.8957 527.5,-61.8957 523,-71.8957 523,-71.8957"/>
</g>
<!-- 11&#45;&gt;3 -->
<g id="edge15" class="edge"><title>11&#45;&gt;3</title>
<path fill="none" stroke="black" d="M545,-36.3034C556.209,-45.1193 570.002,-55.9679 582.154,-65.5258"/>
<polygon fill="black" stroke="black" points="590.253,-71.8957 579.611,-69.2506 586.323,-68.8046 582.393,-65.7135 582.393,-65.7135 582.393,-65.7135 586.323,-68.8046 585.175,-62.1765 590.253,-71.8957 590.253,-71.8957"/>
</g>
<!-- 11&#45;&gt;12 -->
<g id="edge16" class="edge"><title>11&#45;&gt;12</title>
<path fill="none" stroke="black" d="M508.734,-36.1508C477.423,-73.7944 402.56,-163.799 365.92,-207.849"/>
<polygon fill="black" stroke="black" points="359.334,-215.768 362.269,-205.202 362.531,-211.923 365.728,-208.079 365.728,-208.079 365.728,-208.079 362.531,-211.923 369.188,-210.957 359.334,-215.768 359.334,-215.768"/>
</g>
</g>
</svg>
