<?xml version="1.0" encoding="UTF-8" standalone="no"?>
<!DOCTYPE svg PUBLIC "-//W3C//DTD SVG 1.1//EN"
 "http://www.w3.org/Graphics/SVG/1.1/DTD/svg11.dtd">
<!-- Generated by graphviz version 2.40.1 (20161225.0304)
 -->
<!-- Title: packages_npfc Pages: 1 -->
<svg width="643pt" height="188pt"
 viewBox="0.00 0.00 643.00 188.00" xmlns="http://www.w3.org/2000/svg" xmlns:xlink="http://www.w3.org/1999/xlink">
<g id="graph0" class="graph" transform="scale(1 1) rotate(0) translate(4 184)">
<title>packages_npfc</title>
<polygon fill="#ffffff" stroke="transparent" points="-4,4 -4,-184 639,-184 639,4 -4,4"/>
<!-- 1 -->
<g id="node1" class="node">
<title>1</title>
<polygon fill="none" stroke="#000000" points="258,-108 187,-108 187,-72 258,-72 258,-108"/>
<text text-anchor="middle" x="222.5" y="-86.3" font-family="Times,serif" font-size="14.00" fill="#000000">npfc.draw</text>
</g>
<!-- 10 -->
<g id="node10" class="node">
<title>10</title>
<polygon fill="none" stroke="#000000" points="351.5,-180 283.5,-180 283.5,-144 351.5,-144 351.5,-180"/>
<text text-anchor="middle" x="317.5" y="-158.3" font-family="Times,serif" font-size="14.00" fill="#000000">npfc.utils</text>
</g>
<!-- 1&#45;&gt;10 -->
<g id="edge1" class="edge">
<title>1&#45;&gt;10</title>
<path fill="none" stroke="#000000" d="M246.4725,-108.1686C258.2861,-117.1221 272.6972,-128.0442 285.4435,-137.7045"/>
<polygon fill="#000000" stroke="#000000" points="293.5352,-143.8372 282.8473,-141.3833 289.5503,-140.8171 285.5654,-137.7969 285.5654,-137.7969 285.5654,-137.7969 289.5503,-140.8171 288.2835,-134.2106 293.5352,-143.8372 293.5352,-143.8372"/>
</g>
<!-- 2 -->
<g id="node2" class="node">
<title>2</title>
<polygon fill="none" stroke="#000000" points="481.5,-36 387.5,-36 387.5,0 481.5,0 481.5,-36"/>
<text text-anchor="middle" x="434.5" y="-14.3" font-family="Times,serif" font-size="14.00" fill="#000000">npfc.duplicate</text>
</g>
<!-- 8 -->
<g id="node8" class="node">
<title>8</title>
<polygon fill="none" stroke="#000000" points="468.5,-108 400.5,-108 400.5,-72 468.5,-72 468.5,-108"/>
<text text-anchor="middle" x="434.5" y="-86.3" font-family="Times,serif" font-size="14.00" fill="#000000">npfc.save</text>
</g>
<!-- 2&#45;&gt;8 -->
<g id="edge2" class="edge">
<title>2&#45;&gt;8</title>
<path fill="none" stroke="#000000" d="M434.5,-36.1686C434.5,-43.869 434.5,-53.0257 434.5,-61.5834"/>
<polygon fill="#000000" stroke="#000000" points="434.5,-71.5867 430.0001,-61.5867 434.5,-66.5867 434.5001,-61.5867 434.5001,-61.5867 434.5001,-61.5867 434.5,-66.5867 439.0001,-61.5868 434.5,-71.5867 434.5,-71.5867"/>
</g>
<!-- 3 -->
<g id="node3" class="node">
<title>3</title>
<polygon fill="none" stroke="#000000" points="575,-180 504,-180 504,-144 575,-144 575,-180"/>
<text text-anchor="middle" x="539.5" y="-158.3" font-family="Times,serif" font-size="14.00" fill="#000000">npfc.filter</text>
</g>
<!-- 4 -->
<g id="node4" class="node">
<title>4</title>
<polygon fill="none" stroke="#000000" points="169,-108 0,-108 0,-72 169,-72 169,-108"/>
<text text-anchor="middle" x="84.5" y="-86.3" font-family="Times,serif" font-size="14.00" fill="#000000">npfc.fragment_combination</text>
</g>
<!-- 4&#45;&gt;10 -->
<g id="edge3" class="edge">
<title>4&#45;&gt;10</title>
<path fill="none" stroke="#000000" d="M142.995,-108.0757C183.4106,-120.5646 236.3304,-136.9176 273.252,-148.3268"/>
<polygon fill="#000000" stroke="#000000" points="283.2179,-151.4064 272.335,-152.7533 278.4408,-149.9302 273.6636,-148.4539 273.6636,-148.4539 273.6636,-148.4539 278.4408,-149.9302 274.9922,-144.1545 283.2179,-151.4064 283.2179,-151.4064"/>
</g>
<!-- 5 -->
<g id="node5" class="node">
<title>5</title>
<polygon fill="none" stroke="#000000" points="320,-36 189,-36 189,0 320,0 320,-36"/>
<text text-anchor="middle" x="254.5" y="-14.3" font-family="Times,serif" font-size="14.00" fill="#000000">npfc.fragment_graph</text>
</g>
<!-- 5&#45;&gt;1 -->
<g id="edge4" class="edge">
<title>5&#45;&gt;1</title>
<path fill="none" stroke="#000000" d="M246.425,-36.1686C242.8898,-44.1229 238.664,-53.631 234.7544,-62.4277"/>
<polygon fill="#000000" stroke="#000000" points="230.6837,-71.5867 230.633,-60.621 232.7144,-67.0177 234.7451,-62.4486 234.7451,-62.4486 234.7451,-62.4486 232.7144,-67.0177 238.8573,-64.2763 230.6837,-71.5867 230.6837,-71.5867"/>
</g>
<!-- 5&#45;&gt;10 -->
<g id="edge5" class="edge">
<title>5&#45;&gt;10</title>
<path fill="none" stroke="#000000" d="M262.479,-36.2377C273.3192,-61.0154 292.7938,-105.5286 305.4277,-134.4061"/>
<polygon fill="#000000" stroke="#000000" points="309.5858,-143.9104 301.4548,-136.5525 307.5817,-139.3296 305.5775,-134.7488 305.5775,-134.7488 305.5775,-134.7488 307.5817,-139.3296 309.7003,-132.9451 309.5858,-143.9104 309.5858,-143.9104"/>
</g>
<!-- 6 -->
<g id="node6" class="node">
<title>6</title>
<polygon fill="none" stroke="#000000" points="635,-36 500,-36 500,0 635,0 635,-36"/>
<text text-anchor="middle" x="567.5" y="-14.3" font-family="Times,serif" font-size="14.00" fill="#000000">npfc.fragment_search</text>
</g>
<!-- 7 -->
<g id="node7" class="node">
<title>7</title>
<polygon fill="none" stroke="#000000" points="382.5,-108 314.5,-108 314.5,-72 382.5,-72 382.5,-108"/>
<text text-anchor="middle" x="348.5" y="-86.3" font-family="Times,serif" font-size="14.00" fill="#000000">npfc.load</text>
</g>
<!-- 7&#45;&gt;10 -->
<g id="edge6" class="edge">
<title>7&#45;&gt;10</title>
<path fill="none" stroke="#000000" d="M340.6774,-108.1686C337.2891,-116.0383 333.2459,-125.4288 329.4924,-134.1467"/>
<polygon fill="#000000" stroke="#000000" points="325.4279,-143.5867 325.2494,-132.6223 327.4053,-138.9943 329.3826,-134.4019 329.3826,-134.4019 329.3826,-134.4019 327.4053,-138.9943 333.5158,-136.1815 325.4279,-143.5867 325.4279,-143.5867"/>
</g>
<!-- 8&#45;&gt;10 -->
<g id="edge7" class="edge">
<title>8&#45;&gt;10</title>
<path fill="none" stroke="#000000" d="M404.976,-108.1686C390.0109,-117.3779 371.6614,-128.6699 355.6397,-138.5294"/>
<polygon fill="#000000" stroke="#000000" points="347.0146,-143.8372 353.1727,-134.7637 351.2729,-141.2167 355.5312,-138.5962 355.5312,-138.5962 355.5312,-138.5962 351.2729,-141.2167 357.8897,-142.4286 347.0146,-143.8372 347.0146,-143.8372"/>
</g>
<!-- 9 -->
<g id="node9" class="node">
<title>9</title>
<polygon fill="none" stroke="#000000" points="592.5,-108 486.5,-108 486.5,-72 592.5,-72 592.5,-108"/>
<text text-anchor="middle" x="539.5" y="-86.3" font-family="Times,serif" font-size="14.00" fill="#000000">npfc.standardize</text>
</g>
<!-- 9&#45;&gt;3 -->
<g id="edge8" class="edge">
<title>9&#45;&gt;3</title>
<path fill="none" stroke="#000000" d="M539.5,-108.1686C539.5,-115.869 539.5,-125.0257 539.5,-133.5834"/>
<polygon fill="#000000" stroke="#000000" points="539.5,-143.5867 535.0001,-133.5867 539.5,-138.5867 539.5001,-133.5867 539.5001,-133.5867 539.5001,-133.5867 539.5,-138.5867 544.0001,-133.5868 539.5,-143.5867 539.5,-143.5867"/>
</g>
<!-- 9&#45;&gt;10 -->
<g id="edge9" class="edge">
<title>9&#45;&gt;10</title>
<path fill="none" stroke="#000000" d="M486.3255,-107.2458C448.1016,-119.6427 397.185,-136.1562 361.2974,-147.7955"/>
<polygon fill="#000000" stroke="#000000" points="351.5968,-150.9416 359.7207,-143.576 356.3529,-149.399 361.109,-147.8565 361.109,-147.8565 361.109,-147.8565 356.3529,-149.399 362.4973,-152.137 351.5968,-150.9416 351.5968,-150.9416"/>
</g>
</g>
</svg>
