<?xml version="1.0" encoding="UTF-8" standalone="no"?>
<!DOCTYPE svg PUBLIC "-//W3C//DTD SVG 1.1//EN"
 "http://www.w3.org/Graphics/SVG/1.1/DTD/svg11.dtd">
<!-- Generated by graphviz version 2.38.0 (20140413.2041)
 -->
<!-- Title: packages_npfc Pages: 1 -->
<svg width="778pt" height="260pt"
 viewBox="0.00 0.00 778.00 260.00" xmlns="http://www.w3.org/2000/svg" xmlns:xlink="http://www.w3.org/1999/xlink">
<g id="graph0" class="graph" transform="scale(1 1) rotate(0) translate(4 256)">
<title>packages_npfc</title>
<polygon fill="white" stroke="none" points="-4,4 -4,-256 774,-256 774,4 -4,4"/>
<!-- 1 -->
<g id="node1" class="node"><title>1</title>
<polygon fill="none" stroke="black" points="502,-108 431,-108 431,-72 502,-72 502,-108"/>
<text text-anchor="middle" x="466.5" y="-86.3" font-family="Times,serif" font-size="14.00">npfc.draw</text>
</g>
<!-- 5 -->
<g id="node5" class="node"><title>5</title>
<polygon fill="none" stroke="black" points="565.5,-180 359.5,-180 359.5,-144 565.5,-144 565.5,-180"/>
<text text-anchor="middle" x="462.5" y="-158.3" font-family="Times,serif" font-size="14.00">npfc.fragment_combination_graph</text>
</g>
<!-- 1&#45;&gt;5 -->
<g id="edge1" class="edge"><title>1&#45;&gt;5</title>
<path fill="none" stroke="black" d="M459.596,-108.303C458.359,-116.017 457.603,-125.288 457.454,-133.888"/>
<polygon fill="black" stroke="black" points="457.582,-143.896 452.954,-133.954 457.518,-138.896 457.454,-133.896 457.454,-133.896 457.454,-133.896 457.518,-138.896 461.954,-133.839 457.582,-143.896 457.582,-143.896"/>
</g>
<!-- 10 -->
<g id="node10" class="node"><title>10</title>
<polygon fill="none" stroke="black" points="418.5,-252 350.5,-252 350.5,-216 418.5,-216 418.5,-252"/>
<text text-anchor="middle" x="384.5" y="-230.3" font-family="Times,serif" font-size="14.00">npfc.utils</text>
</g>
<!-- 1&#45;&gt;10 -->
<g id="edge2" class="edge"><title>1&#45;&gt;10</title>
<path fill="none" stroke="black" d="M502.173,-103.789C530.322,-114.688 566.188,-130.661 574.5,-144 582.962,-157.579 584.175,-167.257 574.5,-180 556.919,-203.157 479.07,-218.912 428.637,-226.896"/>
<polygon fill="black" stroke="black" points="418.633,-228.436 427.832,-222.467 423.575,-227.675 428.517,-226.915 428.517,-226.915 428.517,-226.915 423.575,-227.675 429.201,-231.362 418.633,-228.436 418.633,-228.436"/>
</g>
<!-- 2 -->
<g id="node2" class="node"><title>2</title>
<polygon fill="none" stroke="black" points="354.5,-108 260.5,-108 260.5,-72 354.5,-72 354.5,-108"/>
<text text-anchor="middle" x="307.5" y="-86.3" font-family="Times,serif" font-size="14.00">npfc.duplicate</text>
</g>
<!-- 8 -->
<g id="node8" class="node"><title>8</title>
<polygon fill="none" stroke="black" points="341.5,-180 273.5,-180 273.5,-144 341.5,-144 341.5,-180"/>
<text text-anchor="middle" x="307.5" y="-158.3" font-family="Times,serif" font-size="14.00">npfc.save</text>
</g>
<!-- 2&#45;&gt;8 -->
<g id="edge3" class="edge"><title>2&#45;&gt;8</title>
<path fill="none" stroke="black" d="M307.5,-108.303C307.5,-116.017 307.5,-125.288 307.5,-133.888"/>
<polygon fill="black" stroke="black" points="307.5,-143.896 303,-133.896 307.5,-138.896 307.5,-133.896 307.5,-133.896 307.5,-133.896 307.5,-138.896 312,-133.896 307.5,-143.896 307.5,-143.896"/>
</g>
<!-- 3 -->
<g id="node3" class="node"><title>3</title>
<polygon fill="none" stroke="black" points="599,-108 528,-108 528,-72 599,-72 599,-108"/>
<text text-anchor="middle" x="563.5" y="-86.3" font-family="Times,serif" font-size="14.00">npfc.filter</text>
</g>
<!-- 4 -->
<g id="node4" class="node"><title>4</title>
<polygon fill="none" stroke="black" points="169,-180 1.42109e-14,-180 1.42109e-14,-144 169,-144 169,-180"/>
<text text-anchor="middle" x="84.5" y="-158.3" font-family="Times,serif" font-size="14.00">npfc.fragment_combination</text>
</g>
<!-- 4&#45;&gt;10 -->
<g id="edge4" class="edge"><title>4&#45;&gt;10</title>
<path fill="none" stroke="black" d="M157.505,-180.034C214.663,-193.371 292.286,-211.483 340.347,-222.698"/>
<polygon fill="black" stroke="black" points="350.136,-224.982 339.375,-227.092 345.267,-223.846 340.397,-222.709 340.397,-222.709 340.397,-222.709 345.267,-223.846 341.42,-218.327 350.136,-224.982 350.136,-224.982"/>
</g>
<!-- 5&#45;&gt;1 -->
<g id="edge5" class="edge"><title>5&#45;&gt;1</title>
<path fill="none" stroke="black" d="M469.372,-143.896C470.617,-136.209 471.383,-126.946 471.542,-118.335"/>
<polygon fill="black" stroke="black" points="471.427,-108.303 476.041,-118.251 471.484,-113.303 471.542,-118.303 471.542,-118.303 471.542,-118.303 471.484,-113.303 467.042,-118.354 471.427,-108.303 471.427,-108.303"/>
</g>
<!-- 5&#45;&gt;10 -->
<g id="edge6" class="edge"><title>5&#45;&gt;10</title>
<path fill="none" stroke="black" d="M443.219,-180.303C433.585,-188.95 421.771,-199.551 411.273,-208.973"/>
<polygon fill="black" stroke="black" points="403.559,-215.896 407.996,-205.867 407.28,-212.556 411.002,-209.217 411.002,-209.217 411.002,-209.217 407.28,-212.556 414.007,-212.566 403.559,-215.896 403.559,-215.896"/>
</g>
<!-- 6 -->
<g id="node6" class="node"><title>6</title>
<polygon fill="none" stroke="black" points="770,-36 635,-36 635,-0 770,-0 770,-36"/>
<text text-anchor="middle" x="702.5" y="-14.3" font-family="Times,serif" font-size="14.00">npfc.fragment_search</text>
</g>
<!-- 7 -->
<g id="node7" class="node"><title>7</title>
<polygon fill="none" stroke="black" points="255.5,-180 187.5,-180 187.5,-144 255.5,-144 255.5,-180"/>
<text text-anchor="middle" x="221.5" y="-158.3" font-family="Times,serif" font-size="14.00">npfc.load</text>
</g>
<!-- 7&#45;&gt;10 -->
<g id="edge7" class="edge"><title>7&#45;&gt;10</title>
<path fill="none" stroke="black" d="M255.67,-177.674C280.447,-188.315 314.154,-202.79 340.876,-214.266"/>
<polygon fill="black" stroke="black" points="350.375,-218.345 339.411,-218.534 345.781,-216.372 341.186,-214.399 341.186,-214.399 341.186,-214.399 345.781,-216.372 342.962,-210.264 350.375,-218.345 350.375,-218.345"/>
</g>
<!-- 8&#45;&gt;10 -->
<g id="edge8" class="edge"><title>8&#45;&gt;10</title>
<path fill="none" stroke="black" d="M326.534,-180.303C336.045,-188.95 347.707,-199.551 358.07,-208.973"/>
<polygon fill="black" stroke="black" points="365.685,-215.896 355.259,-212.499 361.986,-212.532 358.286,-209.169 358.286,-209.169 358.286,-209.169 361.986,-212.532 361.313,-205.839 365.685,-215.896 365.685,-215.896"/>
</g>
<!-- 9 -->
<g id="node9" class="node"><title>9</title>
<polygon fill="none" stroke="black" points="616.5,-36 510.5,-36 510.5,-0 616.5,-0 616.5,-36"/>
<text text-anchor="middle" x="563.5" y="-14.3" font-family="Times,serif" font-size="14.00">npfc.standardize</text>
</g>
<!-- 9&#45;&gt;1 -->
<g id="edge9" class="edge"><title>9&#45;&gt;1</title>
<path fill="none" stroke="black" d="M539.522,-36.3034C527.189,-45.204 511.984,-56.1768 498.647,-65.8011"/>
<polygon fill="black" stroke="black" points="490.202,-71.8957 495.677,-62.3947 494.256,-68.9697 498.311,-66.0438 498.311,-66.0438 498.311,-66.0438 494.256,-68.9697 500.944,-69.6928 490.202,-71.8957 490.202,-71.8957"/>
</g>
<!-- 9&#45;&gt;3 -->
<g id="edge10" class="edge"><title>9&#45;&gt;3</title>
<path fill="none" stroke="black" d="M563.5,-36.3034C563.5,-44.0173 563.5,-53.2875 563.5,-61.8876"/>
<polygon fill="black" stroke="black" points="563.5,-71.8957 559,-61.8956 563.5,-66.8957 563.5,-61.8957 563.5,-61.8957 563.5,-61.8957 563.5,-66.8957 568,-61.8957 563.5,-71.8957 563.5,-71.8957"/>
</g>
<!-- 9&#45;&gt;10 -->
<g id="edge11" class="edge"><title>9&#45;&gt;10</title>
<path fill="none" stroke="black" d="M583.879,-36.469C593.307,-45.9079 603.506,-58.4032 608.5,-72 625.252,-117.612 625.535,-145.32 591.5,-180 569.042,-202.884 482.534,-219.028 428.712,-227.102"/>
<polygon fill="black" stroke="black" points="418.739,-228.561 427.982,-222.66 423.686,-227.837 428.633,-227.113 428.633,-227.113 428.633,-227.113 423.686,-227.837 429.285,-231.565 418.739,-228.561 418.739,-228.561"/>
</g>
</g>
</svg>
