<?xml version="1.0" encoding="UTF-8" standalone="no"?>
<!DOCTYPE svg PUBLIC "-//W3C//DTD SVG 1.1//EN"
 "http://www.w3.org/Graphics/SVG/1.1/DTD/svg11.dtd">
<!-- Generated by graphviz version 2.40.1 (20161225.0304)
 -->
<!-- Title: packages_npfc Pages: 1 -->
<svg width="605pt" height="188pt"
 viewBox="0.00 0.00 605.00 188.00" xmlns="http://www.w3.org/2000/svg" xmlns:xlink="http://www.w3.org/1999/xlink">
<g id="graph0" class="graph" transform="scale(1 1) rotate(0) translate(4 184)">
<title>packages_npfc</title>
<polygon fill="#ffffff" stroke="transparent" points="-4,4 -4,-184 601,-184 601,4 -4,4"/>
<!-- 1 -->
<g id="node1" class="node">
<title>1</title>
<polygon fill="none" stroke="#000000" points="71,-108 0,-108 0,-72 71,-72 71,-108"/>
<text text-anchor="middle" x="35.5" y="-86.3" font-family="Times,serif" font-size="14.00" fill="#000000">npfc.draw</text>
</g>
<!-- 9 -->
<g id="node9" class="node">
<title>9</title>
<polygon fill="none" stroke="#000000" points="344.5,-180 276.5,-180 276.5,-144 344.5,-144 344.5,-180"/>
<text text-anchor="middle" x="310.5" y="-158.3" font-family="Times,serif" font-size="14.00" fill="#000000">npfc.utils</text>
</g>
<!-- 1&#45;&gt;9 -->
<g id="edge1" class="edge">
<title>1&#45;&gt;9</title>
<path fill="none" stroke="#000000" d="M71.3468,-105.2067C74.0874,-106.2025 76.8267,-107.1467 79.5,-108 143.4676,-128.4187 219.6505,-144.7317 266.5447,-153.8868"/>
<polygon fill="#000000" stroke="#000000" points="276.3779,-155.7853 265.7061,-158.3079 271.4685,-154.8374 266.5592,-153.8895 266.5592,-153.8895 266.5592,-153.8895 271.4685,-154.8374 267.4123,-149.4711 276.3779,-155.7853 276.3779,-155.7853"/>
</g>
<!-- 2 -->
<g id="node2" class="node">
<title>2</title>
<polygon fill="none" stroke="#000000" points="443.5,-36 349.5,-36 349.5,0 443.5,0 443.5,-36"/>
<text text-anchor="middle" x="396.5" y="-14.3" font-family="Times,serif" font-size="14.00" fill="#000000">npfc.duplicate</text>
</g>
<!-- 7 -->
<g id="node7" class="node">
<title>7</title>
<polygon fill="none" stroke="#000000" points="430.5,-108 362.5,-108 362.5,-72 430.5,-72 430.5,-108"/>
<text text-anchor="middle" x="396.5" y="-86.3" font-family="Times,serif" font-size="14.00" fill="#000000">npfc.save</text>
</g>
<!-- 2&#45;&gt;7 -->
<g id="edge2" class="edge">
<title>2&#45;&gt;7</title>
<path fill="none" stroke="#000000" d="M396.5,-36.1686C396.5,-43.869 396.5,-53.0257 396.5,-61.5834"/>
<polygon fill="#000000" stroke="#000000" points="396.5,-71.5867 392.0001,-61.5867 396.5,-66.5867 396.5001,-61.5867 396.5001,-61.5867 396.5001,-61.5867 396.5,-66.5867 401.0001,-61.5868 396.5,-71.5867 396.5,-71.5867"/>
</g>
<!-- 3 -->
<g id="node3" class="node">
<title>3</title>
<polygon fill="none" stroke="#000000" points="537,-180 466,-180 466,-144 537,-144 537,-180"/>
<text text-anchor="middle" x="501.5" y="-158.3" font-family="Times,serif" font-size="14.00" fill="#000000">npfc.filter</text>
</g>
<!-- 4 -->
<g id="node4" class="node">
<title>4</title>
<polygon fill="none" stroke="#000000" points="258,-108 89,-108 89,-72 258,-72 258,-108"/>
<text text-anchor="middle" x="173.5" y="-86.3" font-family="Times,serif" font-size="14.00" fill="#000000">npfc.fragment_combination</text>
</g>
<!-- 4&#45;&gt;9 -->
<g id="edge3" class="edge">
<title>4&#45;&gt;9</title>
<path fill="none" stroke="#000000" d="M208.0709,-108.1686C226.0548,-117.62 248.2129,-129.2652 267.3147,-139.3041"/>
<polygon fill="#000000" stroke="#000000" points="276.4148,-144.0866 265.4693,-143.4178 271.9888,-141.7605 267.5628,-139.4344 267.5628,-139.4344 267.5628,-139.4344 271.9888,-141.7605 269.6562,-135.451 276.4148,-144.0866 276.4148,-144.0866"/>
</g>
<!-- 5 -->
<g id="node5" class="node">
<title>5</title>
<polygon fill="none" stroke="#000000" points="597,-36 462,-36 462,0 597,0 597,-36"/>
<text text-anchor="middle" x="529.5" y="-14.3" font-family="Times,serif" font-size="14.00" fill="#000000">npfc.fragment_search</text>
</g>
<!-- 6 -->
<g id="node6" class="node">
<title>6</title>
<polygon fill="none" stroke="#000000" points="344.5,-108 276.5,-108 276.5,-72 344.5,-72 344.5,-108"/>
<text text-anchor="middle" x="310.5" y="-86.3" font-family="Times,serif" font-size="14.00" fill="#000000">npfc.load</text>
</g>
<!-- 6&#45;&gt;9 -->
<g id="edge4" class="edge">
<title>6&#45;&gt;9</title>
<path fill="none" stroke="#000000" d="M310.5,-108.1686C310.5,-115.869 310.5,-125.0257 310.5,-133.5834"/>
<polygon fill="#000000" stroke="#000000" points="310.5,-143.5867 306.0001,-133.5867 310.5,-138.5867 310.5001,-133.5867 310.5001,-133.5867 310.5001,-133.5867 310.5,-138.5867 315.0001,-133.5868 310.5,-143.5867 310.5,-143.5867"/>
</g>
<!-- 7&#45;&gt;9 -->
<g id="edge5" class="edge">
<title>7&#45;&gt;9</title>
<path fill="none" stroke="#000000" d="M374.7986,-108.1686C364.3079,-116.9515 351.5545,-127.6288 340.1806,-137.1511"/>
<polygon fill="#000000" stroke="#000000" points="332.1945,-143.8372 336.9734,-133.9674 336.0283,-140.6275 339.8621,-137.4178 339.8621,-137.4178 339.8621,-137.4178 336.0283,-140.6275 342.7508,-140.8682 332.1945,-143.8372 332.1945,-143.8372"/>
</g>
<!-- 8 -->
<g id="node8" class="node">
<title>8</title>
<polygon fill="none" stroke="#000000" points="554.5,-108 448.5,-108 448.5,-72 554.5,-72 554.5,-108"/>
<text text-anchor="middle" x="501.5" y="-86.3" font-family="Times,serif" font-size="14.00" fill="#000000">npfc.standardize</text>
</g>
<!-- 8&#45;&gt;3 -->
<g id="edge6" class="edge">
<title>8&#45;&gt;3</title>
<path fill="none" stroke="#000000" d="M501.5,-108.1686C501.5,-115.869 501.5,-125.0257 501.5,-133.5834"/>
<polygon fill="#000000" stroke="#000000" points="501.5,-143.5867 497.0001,-133.5867 501.5,-138.5867 501.5001,-133.5867 501.5001,-133.5867 501.5001,-133.5867 501.5,-138.5867 506.0001,-133.5868 501.5,-143.5867 501.5,-143.5867"/>
</g>
<!-- 8&#45;&gt;9 -->
<g id="edge7" class="edge">
<title>8&#45;&gt;9</title>
<path fill="none" stroke="#000000" d="M453.3026,-108.1686C422.8212,-119.659 383.7384,-134.3918 354.1675,-145.5389"/>
<polygon fill="#000000" stroke="#000000" points="344.53,-149.1719 352.2999,-141.4338 349.2086,-147.4082 353.8872,-145.6445 353.8872,-145.6445 353.8872,-145.6445 349.2086,-147.4082 355.4746,-149.8553 344.53,-149.1719 344.53,-149.1719"/>
</g>
</g>
</svg>
