<?xml version="1.0" encoding="UTF-8" standalone="no"?>
<!DOCTYPE svg PUBLIC "-//W3C//DTD SVG 1.1//EN"
 "http://www.w3.org/Graphics/SVG/1.1/DTD/svg11.dtd">
<!-- Generated by graphviz version 2.40.1 (20161225.0304)
 -->
<!-- Title: packages_npfc Pages: 1 -->
<svg width="554pt" height="188pt"
 viewBox="0.00 0.00 553.50 188.00" xmlns="http://www.w3.org/2000/svg" xmlns:xlink="http://www.w3.org/1999/xlink">
<g id="graph0" class="graph" transform="scale(1 1) rotate(0) translate(4 184)">
<title>packages_npfc</title>
<polygon fill="#ffffff" stroke="transparent" points="-4,4 -4,-184 549.5,-184 549.5,4 -4,4"/>
<!-- 0 -->
<g id="node1" class="node">
<title>0</title>
<polygon fill="none" stroke="#000000" points="169,-180 115,-180 115,-144 169,-144 169,-180"/>
<text text-anchor="middle" x="142" y="-158.3" font-family="Times,serif" font-size="14.00" fill="#000000">npfc</text>
</g>
<!-- 1 -->
<g id="node2" class="node">
<title>1</title>
<polygon fill="none" stroke="#000000" points="133.5,-108 62.5,-108 62.5,-72 133.5,-72 133.5,-108"/>
<text text-anchor="middle" x="98" y="-86.3" font-family="Times,serif" font-size="14.00" fill="#000000">npfc.draw</text>
</g>
<!-- 1&#45;&gt;0 -->
<g id="edge1" class="edge">
<title>1&#45;&gt;0</title>
<path fill="none" stroke="#000000" d="M109.1031,-108.1686C114.0674,-116.2921 120.0222,-126.0363 125.4928,-134.9882"/>
<polygon fill="#000000" stroke="#000000" points="130.7474,-143.5867 121.6931,-137.4004 128.1402,-139.3203 125.5329,-135.0539 125.5329,-135.0539 125.5329,-135.0539 128.1402,-139.3203 129.3727,-132.7074 130.7474,-143.5867 130.7474,-143.5867"/>
</g>
<!-- 8 -->
<g id="node9" class="node">
<title>8</title>
<polygon fill="none" stroke="#000000" points="319,-180 251,-180 251,-144 319,-144 319,-180"/>
<text text-anchor="middle" x="285" y="-158.3" font-family="Times,serif" font-size="14.00" fill="#000000">npfc.utils</text>
</g>
<!-- 1&#45;&gt;8 -->
<g id="edge2" class="edge">
<title>1&#45;&gt;8</title>
<path fill="none" stroke="#000000" d="M133.8395,-104.3999C136.9352,-105.6243 140.0212,-106.8379 143,-108 175.8603,-120.8191 213.1395,-134.9812 241.2536,-145.585"/>
<polygon fill="#000000" stroke="#000000" points="250.7933,-149.1792 239.8489,-149.8645 246.1144,-147.4164 241.4355,-145.6535 241.4355,-145.6535 241.4355,-145.6535 246.1144,-147.4164 243.0221,-141.4424 250.7933,-149.1792 250.7933,-149.1792"/>
</g>
<!-- 2 -->
<g id="node3" class="node">
<title>2</title>
<polygon fill="none" stroke="#000000" points="332,-108 238,-108 238,-72 332,-72 332,-108"/>
<text text-anchor="middle" x="285" y="-86.3" font-family="Times,serif" font-size="14.00" fill="#000000">npfc.duplicate</text>
</g>
<!-- 2&#45;&gt;0 -->
<g id="edge3" class="edge">
<title>2&#45;&gt;0</title>
<path fill="none" stroke="#000000" d="M248.9151,-108.1686C227.2929,-119.0553 199.89,-132.8526 178.2403,-143.7532"/>
<polygon fill="#000000" stroke="#000000" points="169.0443,-148.3833 175.9523,-139.8669 173.5102,-146.1347 177.976,-143.8861 177.976,-143.8861 177.976,-143.8861 173.5102,-146.1347 179.9998,-147.9054 169.0443,-148.3833 169.0443,-148.3833"/>
</g>
<!-- 2&#45;&gt;8 -->
<g id="edge4" class="edge">
<title>2&#45;&gt;8</title>
<path fill="none" stroke="#000000" d="M285,-108.1686C285,-115.869 285,-125.0257 285,-133.5834"/>
<polygon fill="#000000" stroke="#000000" points="285,-143.5867 280.5001,-133.5867 285,-138.5867 285.0001,-133.5867 285.0001,-133.5867 285.0001,-133.5867 285,-138.5867 289.5001,-133.5868 285,-143.5867 285,-143.5867"/>
</g>
<!-- 3 -->
<g id="node4" class="node">
<title>3</title>
<polygon fill="none" stroke="#000000" points="545.5,-108 474.5,-108 474.5,-72 545.5,-72 545.5,-108"/>
<text text-anchor="middle" x="510" y="-86.3" font-family="Times,serif" font-size="14.00" fill="#000000">npfc.filter</text>
</g>
<!-- 4 -->
<g id="node5" class="node">
<title>4</title>
<polygon fill="none" stroke="#000000" points="94,-36 0,-36 0,0 94,0 94,-36"/>
<text text-anchor="middle" x="47" y="-14.3" font-family="Times,serif" font-size="14.00" fill="#000000">npfc.fragment</text>
</g>
<!-- 4&#45;&gt;0 -->
<g id="edge5" class="edge">
<title>4&#45;&gt;0</title>
<path fill="none" stroke="#000000" d="M33.1558,-36.1801C20.4064,-55.3219 5.4937,-85.7154 20,-108 38.6259,-136.6131 76.2482,-150.1787 104.8168,-156.539"/>
<polygon fill="#000000" stroke="#000000" points="114.8805,-158.5708 104.1877,-161.0027 109.9794,-157.5813 105.0783,-156.5917 105.0783,-156.5917 105.0783,-156.5917 109.9794,-157.5813 105.9689,-152.1807 114.8805,-158.5708 114.8805,-158.5708"/>
</g>
<!-- 4&#45;&gt;1 -->
<g id="edge6" class="edge">
<title>4&#45;&gt;1</title>
<path fill="none" stroke="#000000" d="M59.8695,-36.1686C65.6835,-44.3768 72.6696,-54.2394 79.0646,-63.2677"/>
<polygon fill="#000000" stroke="#000000" points="84.9573,-71.5867 75.5049,-66.0276 82.0672,-67.5066 79.1771,-63.4265 79.1771,-63.4265 79.1771,-63.4265 82.0672,-67.5066 82.8492,-60.8254 84.9573,-71.5867 84.9573,-71.5867"/>
</g>
<!-- 5 -->
<g id="node6" class="node">
<title>5</title>
<polygon fill="none" stroke="#000000" points="418,-108 350,-108 350,-72 418,-72 418,-108"/>
<text text-anchor="middle" x="384" y="-86.3" font-family="Times,serif" font-size="14.00" fill="#000000">npfc.load</text>
</g>
<!-- 5&#45;&gt;0 -->
<g id="edge7" class="edge">
<title>5&#45;&gt;0</title>
<path fill="none" stroke="#000000" d="M349.8888,-104.7555C346.9013,-105.9027 343.9087,-107.0014 341,-108 285.4028,-127.0875 219.254,-143.9057 178.9643,-153.5127"/>
<polygon fill="#000000" stroke="#000000" points="169.0546,-155.8543 177.7517,-149.1752 173.9206,-154.7044 178.7866,-153.5546 178.7866,-153.5546 178.7866,-153.5546 173.9206,-154.7044 179.8215,-157.934 169.0546,-155.8543 169.0546,-155.8543"/>
</g>
<!-- 5&#45;&gt;8 -->
<g id="edge8" class="edge">
<title>5&#45;&gt;8</title>
<path fill="none" stroke="#000000" d="M359.0181,-108.1686C346.7072,-117.1221 331.6893,-128.0442 318.4063,-137.7045"/>
<polygon fill="#000000" stroke="#000000" points="309.9739,-143.8372 315.4145,-134.3161 314.0176,-140.8963 318.0613,-137.9554 318.0613,-137.9554 318.0613,-137.9554 314.0176,-140.8963 320.7081,-141.5947 309.9739,-143.8372 309.9739,-143.8372"/>
</g>
<!-- 6 -->
<g id="node7" class="node">
<title>6</title>
<polygon fill="none" stroke="#000000" points="220,-108 152,-108 152,-72 220,-72 220,-108"/>
<text text-anchor="middle" x="186" y="-86.3" font-family="Times,serif" font-size="14.00" fill="#000000">npfc.save</text>
</g>
<!-- 6&#45;&gt;0 -->
<g id="edge9" class="edge">
<title>6&#45;&gt;0</title>
<path fill="none" stroke="#000000" d="M174.8969,-108.1686C169.9326,-116.2921 163.9778,-126.0363 158.5072,-134.9882"/>
<polygon fill="#000000" stroke="#000000" points="153.2526,-143.5867 154.6273,-132.7074 155.8598,-139.3203 158.4671,-135.0539 158.4671,-135.0539 158.4671,-135.0539 155.8598,-139.3203 162.3069,-137.4004 153.2526,-143.5867 153.2526,-143.5867"/>
</g>
<!-- 6&#45;&gt;8 -->
<g id="edge10" class="edge">
<title>6&#45;&gt;8</title>
<path fill="none" stroke="#000000" d="M210.9819,-108.1686C223.2928,-117.1221 238.3107,-128.0442 251.5937,-137.7045"/>
<polygon fill="#000000" stroke="#000000" points="260.0261,-143.8372 249.2919,-141.5947 255.9824,-140.8963 251.9387,-137.9554 251.9387,-137.9554 251.9387,-137.9554 255.9824,-140.8963 254.5855,-134.3161 260.0261,-143.8372 260.0261,-143.8372"/>
</g>
<!-- 7 -->
<g id="node8" class="node">
<title>7</title>
<polygon fill="none" stroke="#000000" points="338,-36 232,-36 232,0 338,0 338,-36"/>
<text text-anchor="middle" x="285" y="-14.3" font-family="Times,serif" font-size="14.00" fill="#000000">npfc.standardize</text>
</g>
<!-- 7&#45;&gt;0 -->
<g id="edge11" class="edge">
<title>7&#45;&gt;0</title>
<path fill="none" stroke="#000000" d="M231.9862,-22.8075C170.5529,-29.6041 74.9218,-44.3897 53,-72 43.051,-84.5307 45.1512,-94.0574 53,-108 64.2248,-127.9399 86.1159,-141.3648 105.3774,-149.8416"/>
<polygon fill="#000000" stroke="#000000" points="114.8507,-153.722 103.8912,-154.0957 110.2238,-151.8268 105.5969,-149.9315 105.5969,-149.9315 105.5969,-149.9315 110.2238,-151.8268 107.3026,-145.7673 114.8507,-153.722 114.8507,-153.722"/>
</g>
<!-- 7&#45;&gt;1 -->
<g id="edge12" class="edge">
<title>7&#45;&gt;1</title>
<path fill="none" stroke="#000000" d="M236.9396,-36.0429C211.549,-45.6289 179.658,-57.7531 143.2045,-71.9471"/>
<polygon fill="#000000" stroke="#000000" points="133.8395,-75.6001 141.5205,-67.7737 138.4977,-73.7831 143.1558,-71.966 143.1558,-71.966 143.1558,-71.966 138.4977,-73.7831 144.7912,-76.1584 133.8395,-75.6001 133.8395,-75.6001"/>
</g>
<!-- 7&#45;&gt;2 -->
<g id="edge13" class="edge">
<title>7&#45;&gt;2</title>
<path fill="none" stroke="#000000" d="M285,-36.1686C285,-43.869 285,-53.0257 285,-61.5834"/>
<polygon fill="#000000" stroke="#000000" points="285,-71.5867 280.5001,-61.5867 285,-66.5867 285.0001,-61.5867 285.0001,-61.5867 285.0001,-61.5867 285,-66.5867 289.5001,-61.5868 285,-71.5867 285,-71.5867"/>
</g>
<!-- 7&#45;&gt;3 -->
<g id="edge14" class="edge">
<title>7&#45;&gt;3</title>
<path fill="none" stroke="#000000" d="M338.0438,-33.6716C372.8485,-44.1255 419.288,-58.3987 460,-72 461.4493,-72.4842 462.9204,-72.9811 464.4043,-73.487"/>
<polygon fill="#000000" stroke="#000000" points="474.2906,-76.9179 463.3679,-77.8906 469.5669,-75.2786 464.8433,-73.6393 464.8433,-73.6393 464.8433,-73.6393 469.5669,-75.2786 466.3187,-69.388 474.2906,-76.9179 474.2906,-76.9179"/>
</g>
<!-- 7&#45;&gt;8 -->
<g id="edge15" class="edge">
<title>7&#45;&gt;8</title>
<path fill="none" stroke="#000000" d="M338.0736,-31.4167C373.8416,-41.6552 416.3692,-56.5837 427,-72 436.0831,-85.1718 436.0831,-94.8282 427,-108 415.42,-124.7927 365.9936,-141.0065 328.6827,-151.2105"/>
<polygon fill="#000000" stroke="#000000" points="319.0061,-153.7982 327.5041,-146.8675 323.8364,-152.5064 328.6666,-151.2147 328.6666,-151.2147 328.6666,-151.2147 323.8364,-152.5064 329.8292,-155.562 319.0061,-153.7982 319.0061,-153.7982"/>
</g>
</g>
</svg>
