<?xml version="1.0" encoding="UTF-8" standalone="no"?>
<!DOCTYPE svg PUBLIC "-//W3C//DTD SVG 1.1//EN"
 "http://www.w3.org/Graphics/SVG/1.1/DTD/svg11.dtd">
<!-- Generated by graphviz version 2.47.3 (20210619.2315)
 -->
<!-- Title: packages_npfc Pages: 1 -->
<svg width="781pt" height="260pt"
 viewBox="0.00 0.00 780.96 260.00" xmlns="http://www.w3.org/2000/svg" xmlns:xlink="http://www.w3.org/1999/xlink">
<g id="graph0" class="graph" transform="scale(1 1) rotate(0) translate(4 256)">
<title>packages_npfc</title>
<polygon fill="white" stroke="transparent" points="-4,4 -4,-256 776.96,-256 776.96,4 -4,4"/>
<!-- 1 -->
<g id="node1" class="node">
<title>1</title>
<polygon fill="none" stroke="black" points="180.96,-36 97.96,-36 97.96,0 180.96,0 180.96,-36"/>
<text text-anchor="middle" x="139.46" y="-14.3" font-family="Times,serif" font-size="14.00">npfc.contrib</text>
</g>
<!-- 2 -->
<g id="node2" class="node">
<title>2</title>
<polygon fill="none" stroke="black" points="333.96,-36 198.96,-36 198.96,0 333.96,0 333.96,-36"/>
<text text-anchor="middle" x="266.46" y="-14.3" font-family="Times,serif" font-size="14.00">npfc.contrib.np_score</text>
</g>
<!-- 3 -->
<g id="node3" class="node">
<title>3</title>
<polygon fill="none" stroke="black" points="484.96,-36 351.96,-36 351.96,0 484.96,0 484.96,-36"/>
<text text-anchor="middle" x="418.46" y="-14.3" font-family="Times,serif" font-size="14.00">npfc.contrib.sa_score</text>
</g>
<!-- 4 -->
<g id="node4" class="node">
<title>4</title>
<polygon fill="none" stroke="black" points="591.96,-108 520.96,-108 520.96,-72 591.96,-72 591.96,-108"/>
<text text-anchor="middle" x="556.46" y="-86.3" font-family="Times,serif" font-size="14.00">npfc.draw</text>
</g>
<!-- 8 -->
<g id="node8" class="node">
<title>8</title>
<polygon fill="none" stroke="black" points="659.46,-180 453.46,-180 453.46,-144 659.46,-144 659.46,-180"/>
<text text-anchor="middle" x="556.46" y="-158.3" font-family="Times,serif" font-size="14.00">npfc.fragment_combination_graph</text>
</g>
<!-- 4&#45;&gt;8 -->
<g id="edge1" class="edge">
<title>4&#45;&gt;8</title>
<path fill="none" stroke="black" d="M550.55,-108.3C549.75,-116.02 549.52,-125.29 549.87,-133.89"/>
<polygon fill="black" stroke="black" points="550.57,-143.9 545.38,-134.23 550.22,-138.91 549.87,-133.92 549.87,-133.92 549.87,-133.92 550.22,-138.91 554.36,-133.61 550.57,-143.9 550.57,-143.9"/>
</g>
<!-- 12 -->
<g id="node12" class="node">
<title>12</title>
<polygon fill="none" stroke="black" points="772.96,-180 677.96,-180 677.96,-144 772.96,-144 772.96,-180"/>
<text text-anchor="middle" x="725.46" y="-158.3" font-family="Times,serif" font-size="14.00">npfc.notebook</text>
</g>
<!-- 4&#45;&gt;12 -->
<g id="edge2" class="edge">
<title>4&#45;&gt;12</title>
<path fill="none" stroke="black" d="M592.3,-105.85C616.29,-115.78 648.22,-129.01 674.8,-140.01"/>
<polygon fill="black" stroke="black" points="684.32,-143.96 673.36,-144.29 679.7,-142.05 675.08,-140.13 675.08,-140.13 675.08,-140.13 679.7,-142.05 676.81,-135.98 684.32,-143.96 684.32,-143.96"/>
</g>
<!-- 16 -->
<g id="node16" class="node">
<title>16</title>
<polygon fill="none" stroke="black" points="359.46,-252 291.46,-252 291.46,-216 359.46,-216 359.46,-252"/>
<text text-anchor="middle" x="325.46" y="-230.3" font-family="Times,serif" font-size="14.00">npfc.utils</text>
</g>
<!-- 4&#45;&gt;16 -->
<g id="edge3" class="edge">
<title>4&#45;&gt;16</title>
<path fill="none" stroke="black" d="M520.94,-105.05C498.29,-114.66 468.74,-128.46 444.46,-144 423.47,-157.44 421.26,-164.86 401.46,-180 388.05,-190.26 372.85,-201.02 359.59,-210.15"/>
<polygon fill="black" stroke="black" points="351.2,-215.88 356.91,-206.52 355.32,-213.06 359.45,-210.24 359.45,-210.24 359.45,-210.24 355.32,-213.06 361.99,-213.96 351.2,-215.88 351.2,-215.88"/>
</g>
<!-- 5 -->
<g id="node5" class="node">
<title>5</title>
<polygon fill="none" stroke="black" points="359.46,-108 265.46,-108 265.46,-72 359.46,-72 359.46,-108"/>
<text text-anchor="middle" x="312.46" y="-86.3" font-family="Times,serif" font-size="14.00">npfc.duplicate</text>
</g>
<!-- 14 -->
<g id="node14" class="node">
<title>14</title>
<polygon fill="none" stroke="black" points="359.46,-180 291.46,-180 291.46,-144 359.46,-144 359.46,-180"/>
<text text-anchor="middle" x="325.46" y="-158.3" font-family="Times,serif" font-size="14.00">npfc.save</text>
</g>
<!-- 5&#45;&gt;14 -->
<g id="edge4" class="edge">
<title>5&#45;&gt;14</title>
<path fill="none" stroke="black" d="M315.67,-108.3C317.11,-116.02 318.83,-125.29 320.43,-133.89"/>
<polygon fill="black" stroke="black" points="322.28,-143.9 316.03,-134.89 321.37,-138.98 320.46,-134.06 320.46,-134.06 320.46,-134.06 321.37,-138.98 324.88,-133.24 322.28,-143.9 322.28,-143.9"/>
</g>
<!-- 6 -->
<g id="node6" class="node">
<title>6</title>
<polygon fill="none" stroke="black" points="680.96,-108 609.96,-108 609.96,-72 680.96,-72 680.96,-108"/>
<text text-anchor="middle" x="645.46" y="-86.3" font-family="Times,serif" font-size="14.00">npfc.filter</text>
</g>
<!-- 7 -->
<g id="node7" class="node">
<title>7</title>
<polygon fill="none" stroke="black" points="186.96,-180 17.96,-180 17.96,-144 186.96,-144 186.96,-180"/>
<text text-anchor="middle" x="102.46" y="-158.3" font-family="Times,serif" font-size="14.00">npfc.fragment_combination</text>
</g>
<!-- 7&#45;&gt;16 -->
<g id="edge5" class="edge">
<title>7&#45;&gt;16</title>
<path fill="none" stroke="black" d="M156.73,-180.03C195.03,-192.06 245.69,-207.96 281.47,-219.19"/>
<polygon fill="black" stroke="black" points="291.15,-222.23 280.26,-223.53 286.38,-220.73 281.6,-219.23 281.6,-219.23 281.6,-219.23 286.38,-220.73 282.95,-214.94 291.15,-222.23 291.15,-222.23"/>
</g>
<!-- 8&#45;&gt;4 -->
<g id="edge6" class="edge">
<title>8&#45;&gt;4</title>
<path fill="none" stroke="black" d="M562.36,-143.9C563.16,-136.21 563.4,-126.95 563.07,-118.33"/>
<polygon fill="black" stroke="black" points="562.38,-108.3 567.55,-117.97 562.72,-113.29 563.06,-118.28 563.06,-118.28 563.06,-118.28 562.72,-113.29 558.57,-118.59 562.38,-108.3 562.38,-108.3"/>
</g>
<!-- 9 -->
<g id="node9" class="node">
<title>9</title>
<polygon fill="none" stroke="black" points="657.96,-252 454.96,-252 454.96,-216 657.96,-216 657.96,-252"/>
<text text-anchor="middle" x="556.46" y="-230.3" font-family="Times,serif" font-size="14.00">npfc.fragment_combination_point</text>
</g>
<!-- 8&#45;&gt;9 -->
<g id="edge7" class="edge">
<title>8&#45;&gt;9</title>
<path fill="none" stroke="black" d="M556.46,-180.3C556.46,-188.02 556.46,-197.29 556.46,-205.89"/>
<polygon fill="black" stroke="black" points="556.46,-215.9 551.96,-205.9 556.46,-210.9 556.46,-205.9 556.46,-205.9 556.46,-205.9 556.46,-210.9 560.96,-205.9 556.46,-215.9 556.46,-215.9"/>
</g>
<!-- 8&#45;&gt;16 -->
<g id="edge8" class="edge">
<title>8&#45;&gt;16</title>
<path fill="none" stroke="black" d="M500.25,-180.03C460.09,-192.2 406.8,-208.35 369.67,-219.6"/>
<polygon fill="black" stroke="black" points="359.65,-222.64 367.91,-215.43 364.43,-221.19 369.22,-219.74 369.22,-219.74 369.22,-219.74 364.43,-221.19 370.52,-224.05 359.65,-222.64 359.65,-222.64"/>
</g>
<!-- 10 -->
<g id="node10" class="node">
<title>10</title>
<polygon fill="none" stroke="black" points="762.96,-36 627.96,-36 627.96,0 762.96,0 762.96,-36"/>
<text text-anchor="middle" x="695.46" y="-14.3" font-family="Times,serif" font-size="14.00">npfc.fragment_search</text>
</g>
<!-- 11 -->
<g id="node11" class="node">
<title>11</title>
<polygon fill="none" stroke="black" points="273.46,-180 205.46,-180 205.46,-144 273.46,-144 273.46,-180"/>
<text text-anchor="middle" x="239.46" y="-158.3" font-family="Times,serif" font-size="14.00">npfc.load</text>
</g>
<!-- 11&#45;&gt;16 -->
<g id="edge9" class="edge">
<title>11&#45;&gt;16</title>
<path fill="none" stroke="black" d="M260.72,-180.3C271.55,-189.12 284.88,-199.97 296.62,-209.53"/>
<polygon fill="black" stroke="black" points="304.45,-215.9 293.85,-213.07 300.57,-212.74 296.69,-209.58 296.69,-209.58 296.69,-209.58 300.57,-212.74 299.53,-206.09 304.45,-215.9 304.45,-215.9"/>
</g>
<!-- 13 -->
<g id="node13" class="node">
<title>13</title>
<polygon fill="none" stroke="black" points="193.96,-108 116.96,-108 116.96,-72 193.96,-72 193.96,-108"/>
<text text-anchor="middle" x="155.46" y="-86.3" font-family="Times,serif" font-size="14.00">npfc.report</text>
</g>
<!-- 13&#45;&gt;7 -->
<g id="edge10" class="edge">
<title>13&#45;&gt;7</title>
<path fill="none" stroke="black" d="M142.36,-108.3C136.07,-116.61 128.41,-126.72 121.5,-135.86"/>
<polygon fill="black" stroke="black" points="115.41,-143.9 117.86,-133.21 118.43,-139.91 121.45,-135.92 121.45,-135.92 121.45,-135.92 118.43,-139.91 125.04,-138.64 115.41,-143.9 115.41,-143.9"/>
</g>
<!-- 13&#45;&gt;11 -->
<g id="edge11" class="edge">
<title>13&#45;&gt;11</title>
<path fill="none" stroke="black" d="M176.23,-108.3C186.7,-117.03 199.57,-127.76 210.96,-137.25"/>
<polygon fill="black" stroke="black" points="218.94,-143.9 208.37,-140.95 215.1,-140.69 211.25,-137.49 211.25,-137.49 211.25,-137.49 215.1,-140.69 214.13,-134.04 218.94,-143.9 218.94,-143.9"/>
</g>
<!-- 13&#45;&gt;14 -->
<g id="edge12" class="edge">
<title>13&#45;&gt;14</title>
<path fill="none" stroke="black" d="M194.04,-106.88C220.24,-117.67 254.93,-131.96 282.09,-143.14"/>
<polygon fill="black" stroke="black" points="291.36,-146.96 280.4,-147.31 286.73,-145.05 282.11,-143.15 282.11,-143.15 282.11,-143.15 286.73,-145.05 283.82,-138.99 291.36,-146.96 291.36,-146.96"/>
</g>
<!-- 13&#45;&gt;16 -->
<g id="edge13" class="edge">
<title>13&#45;&gt;16</title>
<path fill="none" stroke="black" d="M116.92,-98.62C62.48,-111.06 -26.62,-138.56 8.46,-180 42.88,-220.65 202.29,-230.15 281.1,-232.35"/>
<polygon fill="black" stroke="black" points="291.21,-232.6 281.1,-236.85 286.21,-232.48 281.21,-232.35 281.21,-232.35 281.21,-232.35 286.21,-232.48 281.33,-227.85 291.21,-232.6 291.21,-232.6"/>
</g>
<!-- 14&#45;&gt;16 -->
<g id="edge14" class="edge">
<title>14&#45;&gt;16</title>
<path fill="none" stroke="black" d="M325.46,-180.3C325.46,-188.02 325.46,-197.29 325.46,-205.89"/>
<polygon fill="black" stroke="black" points="325.46,-215.9 320.96,-205.9 325.46,-210.9 325.46,-205.9 325.46,-205.9 325.46,-205.9 325.46,-210.9 329.96,-205.9 325.46,-215.9 325.46,-215.9"/>
</g>
<!-- 15 -->
<g id="node15" class="node">
<title>15</title>
<polygon fill="none" stroke="black" points="609.46,-36 503.46,-36 503.46,0 609.46,0 609.46,-36"/>
<text text-anchor="middle" x="556.46" y="-14.3" font-family="Times,serif" font-size="14.00">npfc.standardize</text>
</g>
<!-- 15&#45;&gt;4 -->
<g id="edge15" class="edge">
<title>15&#45;&gt;4</title>
<path fill="none" stroke="black" d="M556.46,-36.3C556.46,-44.02 556.46,-53.29 556.46,-61.89"/>
<polygon fill="black" stroke="black" points="556.46,-71.9 551.96,-61.9 556.46,-66.9 556.46,-61.9 556.46,-61.9 556.46,-61.9 556.46,-66.9 560.96,-61.9 556.46,-71.9 556.46,-71.9"/>
</g>
<!-- 15&#45;&gt;6 -->
<g id="edge16" class="edge">
<title>15&#45;&gt;6</title>
<path fill="none" stroke="black" d="M578.46,-36.3C589.67,-45.12 603.46,-55.97 615.62,-65.53"/>
<polygon fill="black" stroke="black" points="623.71,-71.9 613.07,-69.25 619.78,-68.8 615.85,-65.71 615.85,-65.71 615.85,-65.71 619.78,-68.8 618.64,-62.18 623.71,-71.9 623.71,-71.9"/>
</g>
<!-- 15&#45;&gt;16 -->
<g id="edge17" class="edge">
<title>15&#45;&gt;16</title>
<path fill="none" stroke="black" d="M532.49,-36.15C501.02,-59.15 444.71,-101.95 401.46,-144 390.11,-155.04 364.41,-185.63 346.04,-207.87"/>
<polygon fill="black" stroke="black" points="339.64,-215.63 342.53,-205.05 342.82,-211.77 346,-207.91 346,-207.91 346,-207.91 342.82,-211.77 349.48,-210.77 339.64,-215.63 339.64,-215.63"/>
</g>
</g>
</svg>
