<?xml version="1.0" encoding="UTF-8" standalone="no"?>
<!DOCTYPE svg PUBLIC "-//W3C//DTD SVG 1.1//EN"
 "http://www.w3.org/Graphics/SVG/1.1/DTD/svg11.dtd">
<!-- Generated by graphviz version 2.40.1 (20161225.0304)
 -->
<!-- Title: packages_npfc Pages: 1 -->
<svg width="373pt" height="260pt"
 viewBox="0.00 0.00 372.65 260.00" xmlns="http://www.w3.org/2000/svg" xmlns:xlink="http://www.w3.org/1999/xlink">
<g id="graph0" class="graph" transform="scale(1 1) rotate(0) translate(4 256)">
<title>packages_npfc</title>
<polygon fill="#ffffff" stroke="transparent" points="-4,4 -4,-256 368.6484,-256 368.6484,4 -4,4"/>
<!-- 0 -->
<g id="node1" class="node">
<title>0</title>
<polygon fill="none" stroke="#000000" points="271.8997,-252 217.8997,-252 217.8997,-216 271.8997,-216 271.8997,-252"/>
<text text-anchor="middle" x="244.8997" y="-230.3" font-family="Times,serif" font-size="14.00" fill="#000000">npfc</text>
</g>
<!-- 1 -->
<g id="node2" class="node">
<title>1</title>
<polygon fill="none" stroke="#000000" points="312.3997,-180 241.3997,-180 241.3997,-144 312.3997,-144 312.3997,-180"/>
<text text-anchor="middle" x="276.8997" y="-158.3" font-family="Times,serif" font-size="14.00" fill="#000000">npfc.draw</text>
</g>
<!-- 1&#45;&gt;0 -->
<g id="edge1" class="edge">
<title>1&#45;&gt;0</title>
<path fill="none" stroke="#000000" d="M268.8247,-180.1686C265.2895,-188.1229 261.0637,-197.631 257.154,-206.4277"/>
<polygon fill="#000000" stroke="#000000" points="253.0834,-215.5867 253.0326,-204.621 255.1141,-211.0177 257.1448,-206.4486 257.1448,-206.4486 257.1448,-206.4486 255.1141,-211.0177 261.257,-208.2763 253.0834,-215.5867 253.0834,-215.5867"/>
</g>
<!-- 8 -->
<g id="node9" class="node">
<title>8</title>
<polygon fill="none" stroke="#000000" points="98.8997,-252 30.8997,-252 30.8997,-216 98.8997,-216 98.8997,-252"/>
<text text-anchor="middle" x="64.8997" y="-230.3" font-family="Times,serif" font-size="14.00" fill="#000000">npfc.utils</text>
</g>
<!-- 1&#45;&gt;8 -->
<g id="edge2" class="edge">
<title>1&#45;&gt;8</title>
<path fill="none" stroke="#000000" d="M240.9368,-174.2138C204.3448,-186.6413 147.5979,-205.9138 108.4754,-219.2007"/>
<polygon fill="#000000" stroke="#000000" points="98.9317,-222.4419 106.9534,-214.9651 103.6661,-220.834 108.4006,-219.2261 108.4006,-219.2261 108.4006,-219.2261 103.6661,-220.834 109.8477,-223.487 98.9317,-222.4419 98.9317,-222.4419"/>
</g>
<!-- 2 -->
<g id="node3" class="node">
<title>2</title>
<polygon fill="none" stroke="#000000" points="197.8997,-108 103.8997,-108 103.8997,-72 197.8997,-72 197.8997,-108"/>
<text text-anchor="middle" x="150.8997" y="-86.3" font-family="Times,serif" font-size="14.00" fill="#000000">npfc.duplicate</text>
</g>
<!-- 2&#45;&gt;0 -->
<g id="edge3" class="edge">
<title>2&#45;&gt;0</title>
<path fill="none" stroke="#000000" d="M166.7733,-108.4428C175.2339,-118.6309 185.5824,-131.6852 193.8997,-144 207.6807,-164.4047 221.3284,-188.7673 231.033,-206.9961"/>
<polygon fill="#000000" stroke="#000000" points="235.7283,-215.916 227.0883,-209.1632 233.3993,-211.4915 231.0703,-207.0671 231.0703,-207.0671 231.0703,-207.0671 233.3993,-211.4915 235.0524,-204.971 235.7283,-215.916 235.7283,-215.916"/>
</g>
<!-- 5 -->
<g id="node6" class="node">
<title>5</title>
<polygon fill="none" stroke="#000000" points="184.8997,-180 116.8997,-180 116.8997,-144 184.8997,-144 184.8997,-180"/>
<text text-anchor="middle" x="150.8997" y="-158.3" font-family="Times,serif" font-size="14.00" fill="#000000">npfc.load</text>
</g>
<!-- 2&#45;&gt;5 -->
<g id="edge4" class="edge">
<title>2&#45;&gt;5</title>
<path fill="none" stroke="#000000" d="M150.8997,-108.1686C150.8997,-115.869 150.8997,-125.0257 150.8997,-133.5834"/>
<polygon fill="#000000" stroke="#000000" points="150.8997,-143.5867 146.3998,-133.5867 150.8997,-138.5867 150.8998,-133.5867 150.8998,-133.5867 150.8998,-133.5867 150.8997,-138.5867 155.3998,-133.5868 150.8997,-143.5867 150.8997,-143.5867"/>
</g>
<!-- 6 -->
<g id="node7" class="node">
<title>6</title>
<polygon fill="none" stroke="#000000" points="98.8997,-180 30.8997,-180 30.8997,-144 98.8997,-144 98.8997,-180"/>
<text text-anchor="middle" x="64.8997" y="-158.3" font-family="Times,serif" font-size="14.00" fill="#000000">npfc.save</text>
</g>
<!-- 2&#45;&gt;6 -->
<g id="edge5" class="edge">
<title>2&#45;&gt;6</title>
<path fill="none" stroke="#000000" d="M129.1982,-108.1686C118.7076,-116.9515 105.9542,-127.6288 94.5803,-137.1511"/>
<polygon fill="#000000" stroke="#000000" points="86.5942,-143.8372 91.373,-133.9674 90.428,-140.6275 94.2618,-137.4178 94.2618,-137.4178 94.2618,-137.4178 90.428,-140.6275 97.1505,-140.8682 86.5942,-143.8372 86.5942,-143.8372"/>
</g>
<!-- 2&#45;&gt;8 -->
<g id="edge6" class="edge">
<title>2&#45;&gt;8</title>
<path fill="none" stroke="#000000" d="M103.6978,-106.8613C68.9287,-119.7556 26.8597,-136.5467 21.8997,-144 8.3006,-164.4352 22.945,-189.8336 38.7249,-208.4336"/>
<polygon fill="#000000" stroke="#000000" points="45.4782,-215.9544 35.4488,-211.5204 42.1376,-212.2341 38.797,-208.5139 38.797,-208.5139 38.797,-208.5139 42.1376,-212.2341 42.1453,-205.5073 45.4782,-215.9544 45.4782,-215.9544"/>
</g>
<!-- 3 -->
<g id="node4" class="node">
<title>3</title>
<polygon fill="none" stroke="#000000" points="85.3997,-108 14.3997,-108 14.3997,-72 85.3997,-72 85.3997,-108"/>
<text text-anchor="middle" x="49.8997" y="-86.3" font-family="Times,serif" font-size="14.00" fill="#000000">npfc.filter</text>
</g>
<!-- 4 -->
<g id="node5" class="node">
<title>4</title>
<polygon fill="none" stroke="#000000" points="349.8997,-108 255.8997,-108 255.8997,-72 349.8997,-72 349.8997,-108"/>
<text text-anchor="middle" x="302.8997" y="-86.3" font-family="Times,serif" font-size="14.00" fill="#000000">npfc.fragment</text>
</g>
<!-- 4&#45;&gt;0 -->
<g id="edge7" class="edge">
<title>4&#45;&gt;0</title>
<path fill="none" stroke="#000000" d="M313.1873,-108.214C322.3869,-127.1142 332.7402,-157.062 320.8997,-180 312.335,-196.5919 296.0566,-209.1957 280.7556,-218.0365"/>
<polygon fill="#000000" stroke="#000000" points="271.9252,-222.8087 278.5832,-214.0953 276.3239,-220.4314 280.7227,-218.0542 280.7227,-218.0542 280.7227,-218.0542 276.3239,-220.4314 282.8622,-222.0131 271.9252,-222.8087 271.9252,-222.8087"/>
</g>
<!-- 4&#45;&gt;1 -->
<g id="edge8" class="edge">
<title>4&#45;&gt;1</title>
<path fill="none" stroke="#000000" d="M296.3388,-108.1686C293.497,-116.0383 290.1059,-125.4288 286.9578,-134.1467"/>
<polygon fill="#000000" stroke="#000000" points="283.5489,-143.5867 282.7129,-132.6528 285.2472,-138.884 286.9454,-134.1812 286.9454,-134.1812 286.9454,-134.1812 285.2472,-138.884 291.1779,-135.7096 283.5489,-143.5867 283.5489,-143.5867"/>
</g>
<!-- 5&#45;&gt;0 -->
<g id="edge9" class="edge">
<title>5&#45;&gt;0</title>
<path fill="none" stroke="#000000" d="M174.6198,-180.1686C186.309,-189.1221 200.5685,-200.0442 213.1806,-209.7045"/>
<polygon fill="#000000" stroke="#000000" points="221.1871,-215.8372 210.5119,-213.3288 217.2177,-212.7968 213.2483,-209.7564 213.2483,-209.7564 213.2483,-209.7564 217.2177,-212.7968 215.9847,-206.1839 221.1871,-215.8372 221.1871,-215.8372"/>
</g>
<!-- 5&#45;&gt;8 -->
<g id="edge10" class="edge">
<title>5&#45;&gt;8</title>
<path fill="none" stroke="#000000" d="M129.1982,-180.1686C118.7076,-188.9515 105.9542,-199.6288 94.5803,-209.1511"/>
<polygon fill="#000000" stroke="#000000" points="86.5942,-215.8372 91.373,-205.9674 90.428,-212.6275 94.2618,-209.4178 94.2618,-209.4178 94.2618,-209.4178 90.428,-212.6275 97.1505,-212.8682 86.5942,-215.8372 86.5942,-215.8372"/>
</g>
<!-- 6&#45;&gt;0 -->
<g id="edge11" class="edge">
<title>6&#45;&gt;0</title>
<path fill="none" stroke="#000000" d="M99.1404,-176.4094C102.0998,-177.6317 105.0506,-178.8423 107.8997,-180 141.7564,-193.757 180.5183,-208.9873 208.1513,-219.7563"/>
<polygon fill="#000000" stroke="#000000" points="217.7987,-223.511 206.8474,-224.0776 213.1391,-221.6975 208.4796,-219.884 208.4796,-219.884 208.4796,-219.884 213.1391,-221.6975 210.1117,-215.6904 217.7987,-223.511 217.7987,-223.511"/>
</g>
<!-- 6&#45;&gt;8 -->
<g id="edge12" class="edge">
<title>6&#45;&gt;8</title>
<path fill="none" stroke="#000000" d="M64.8997,-180.1686C64.8997,-187.869 64.8997,-197.0257 64.8997,-205.5834"/>
<polygon fill="#000000" stroke="#000000" points="64.8997,-215.5867 60.3998,-205.5867 64.8997,-210.5867 64.8998,-205.5867 64.8998,-205.5867 64.8998,-205.5867 64.8997,-210.5867 69.3998,-205.5868 64.8997,-215.5867 64.8997,-215.5867"/>
</g>
<!-- 7 -->
<g id="node8" class="node">
<title>7</title>
<polygon fill="none" stroke="#000000" points="203.8997,-36 97.8997,-36 97.8997,0 203.8997,0 203.8997,-36"/>
<text text-anchor="middle" x="150.8997" y="-14.3" font-family="Times,serif" font-size="14.00" fill="#000000">npfc.standardize</text>
</g>
<!-- 7&#45;&gt;0 -->
<g id="edge13" class="edge">
<title>7&#45;&gt;0</title>
<path fill="none" stroke="#000000" d="M203.9231,-24.3902C259.1037,-32.259 340.0675,-47.6543 358.8997,-72 377.4963,-96.041 344.1625,-172.001 337.8997,-180 323.3596,-198.5708 300.523,-211.963 281.1188,-220.7653"/>
<polygon fill="#000000" stroke="#000000" points="271.9203,-224.7204 279.3296,-216.6363 276.5137,-222.7454 281.1071,-220.7703 281.1071,-220.7703 281.1071,-220.7703 276.5137,-222.7454 282.8846,-224.9044 271.9203,-224.7204 271.9203,-224.7204"/>
</g>
<!-- 7&#45;&gt;1 -->
<g id="edge14" class="edge">
<title>7&#45;&gt;1</title>
<path fill="none" stroke="#000000" d="M171.0168,-36.0867C181.9962,-46.2768 195.6122,-59.4456 206.8997,-72 225.2109,-92.3665 244.1762,-117.0075 257.7398,-135.3535"/>
<polygon fill="#000000" stroke="#000000" points="263.9378,-143.8077 254.396,-138.4035 260.9815,-139.7752 258.0252,-135.7428 258.0252,-135.7428 258.0252,-135.7428 260.9815,-139.7752 261.6544,-133.0821 263.9378,-143.8077 263.9378,-143.8077"/>
</g>
<!-- 7&#45;&gt;2 -->
<g id="edge15" class="edge">
<title>7&#45;&gt;2</title>
<path fill="none" stroke="#000000" d="M150.8997,-36.1686C150.8997,-43.869 150.8997,-53.0257 150.8997,-61.5834"/>
<polygon fill="#000000" stroke="#000000" points="150.8997,-71.5867 146.3998,-61.5867 150.8997,-66.5867 150.8998,-61.5867 150.8998,-61.5867 150.8998,-61.5867 150.8997,-66.5867 155.3998,-61.5868 150.8997,-71.5867 150.8997,-71.5867"/>
</g>
<!-- 7&#45;&gt;3 -->
<g id="edge16" class="edge">
<title>7&#45;&gt;3</title>
<path fill="none" stroke="#000000" d="M125.4131,-36.1686C112.7338,-45.2073 97.2401,-56.2524 83.5941,-65.9802"/>
<polygon fill="#000000" stroke="#000000" points="75.3781,-71.8372 80.9087,-62.3681 79.4495,-68.9348 83.5209,-66.0324 83.5209,-66.0324 83.5209,-66.0324 79.4495,-68.9348 86.133,-69.6966 75.3781,-71.8372 75.3781,-71.8372"/>
</g>
<!-- 7&#45;&gt;8 -->
<g id="edge17" class="edge">
<title>7&#45;&gt;8</title>
<path fill="none" stroke="#000000" d="M97.5144,-30.9005C60.5137,-41.0467 15.9805,-56.0872 4.8997,-72 -5.6835,-87.1982 4.0366,-161.1048 12.8997,-180 17.944,-190.754 26.0007,-200.7035 34.2808,-209.0553"/>
<polygon fill="#000000" stroke="#000000" points="41.5446,-215.9635 31.1972,-212.3328 37.9215,-212.5178 34.2984,-209.072 34.2984,-209.072 34.2984,-209.072 37.9215,-212.5178 37.3996,-205.8112 41.5446,-215.9635 41.5446,-215.9635"/>
</g>
</g>
</svg>
