<?xml version="1.0" encoding="UTF-8" standalone="no"?>
<!DOCTYPE svg PUBLIC "-//W3C//DTD SVG 1.1//EN"
 "http://www.w3.org/Graphics/SVG/1.1/DTD/svg11.dtd">
<!-- Generated by graphviz version 2.38.0 (20140413.2041)
 -->
<!-- Title: packages_npfc Pages: 1 -->
<svg width="816pt" height="260pt"
 viewBox="0.00 0.00 816.00 260.00" xmlns="http://www.w3.org/2000/svg" xmlns:xlink="http://www.w3.org/1999/xlink">
<g id="graph0" class="graph" transform="scale(1 1) rotate(0) translate(4 256)">
<title>packages_npfc</title>
<polygon fill="white" stroke="none" points="-4,4 -4,-256 812,-256 812,4 -4,4"/>
<!-- 1 -->
<g id="node1" class="node"><title>1</title>
<polygon fill="none" stroke="black" points="540,-108 469,-108 469,-72 540,-72 540,-108"/>
<text text-anchor="middle" x="504.5" y="-86.3" font-family="Times,serif" font-size="14.00">npfc.draw</text>
</g>
<!-- 5 -->
<g id="node5" class="node"><title>5</title>
<polygon fill="none" stroke="black" points="603.5,-180 397.5,-180 397.5,-144 603.5,-144 603.5,-180"/>
<text text-anchor="middle" x="500.5" y="-158.3" font-family="Times,serif" font-size="14.00">npfc.fragment_combination_graph</text>
</g>
<!-- 1&#45;&gt;5 -->
<g id="edge1" class="edge"><title>1&#45;&gt;5</title>
<path fill="none" stroke="black" d="M497.596,-108.303C496.359,-116.017 495.603,-125.288 495.454,-133.888"/>
<polygon fill="black" stroke="black" points="495.582,-143.896 490.954,-133.954 495.518,-138.896 495.454,-133.896 495.454,-133.896 495.454,-133.896 495.518,-138.896 499.954,-133.839 495.582,-143.896 495.582,-143.896"/>
</g>
<!-- 11 -->
<g id="node11" class="node"><title>11</title>
<polygon fill="none" stroke="black" points="379.5,-252 311.5,-252 311.5,-216 379.5,-216 379.5,-252"/>
<text text-anchor="middle" x="345.5" y="-230.3" font-family="Times,serif" font-size="14.00">npfc.utils</text>
</g>
<!-- 1&#45;&gt;11 -->
<g id="edge2" class="edge"><title>1&#45;&gt;11</title>
<path fill="none" stroke="black" d="M540.173,-103.789C568.322,-114.688 604.188,-130.661 612.5,-144 620.962,-157.579 622.653,-167.634 612.5,-180 584.797,-213.743 458,-226.387 389.58,-230.811"/>
<polygon fill="black" stroke="black" points="379.526,-231.429 389.231,-226.324 384.517,-231.122 389.507,-230.815 389.507,-230.815 389.507,-230.815 384.517,-231.122 389.784,-235.307 379.526,-231.429 379.526,-231.429"/>
</g>
<!-- 2 -->
<g id="node2" class="node"><title>2</title>
<polygon fill="none" stroke="black" points="392.5,-108 298.5,-108 298.5,-72 392.5,-72 392.5,-108"/>
<text text-anchor="middle" x="345.5" y="-86.3" font-family="Times,serif" font-size="14.00">npfc.duplicate</text>
</g>
<!-- 9 -->
<g id="node9" class="node"><title>9</title>
<polygon fill="none" stroke="black" points="379.5,-180 311.5,-180 311.5,-144 379.5,-144 379.5,-180"/>
<text text-anchor="middle" x="345.5" y="-158.3" font-family="Times,serif" font-size="14.00">npfc.save</text>
</g>
<!-- 2&#45;&gt;9 -->
<g id="edge3" class="edge"><title>2&#45;&gt;9</title>
<path fill="none" stroke="black" d="M345.5,-108.303C345.5,-116.017 345.5,-125.288 345.5,-133.888"/>
<polygon fill="black" stroke="black" points="345.5,-143.896 341,-133.896 345.5,-138.896 345.5,-133.896 345.5,-133.896 345.5,-133.896 345.5,-138.896 350,-133.896 345.5,-143.896 345.5,-143.896"/>
</g>
<!-- 3 -->
<g id="node3" class="node"><title>3</title>
<polygon fill="none" stroke="black" points="637,-108 566,-108 566,-72 637,-72 637,-108"/>
<text text-anchor="middle" x="601.5" y="-86.3" font-family="Times,serif" font-size="14.00">npfc.filter</text>
</g>
<!-- 4 -->
<g id="node4" class="node"><title>4</title>
<polygon fill="none" stroke="black" points="169,-180 1.42109e-14,-180 1.42109e-14,-144 169,-144 169,-180"/>
<text text-anchor="middle" x="84.5" y="-158.3" font-family="Times,serif" font-size="14.00">npfc.fragment_combination</text>
</g>
<!-- 4&#45;&gt;11 -->
<g id="edge4" class="edge"><title>4&#45;&gt;11</title>
<path fill="none" stroke="black" d="M148.014,-180.034C195.649,-192.81 259.622,-209.968 301.675,-221.246"/>
<polygon fill="black" stroke="black" points="311.347,-223.84 300.522,-225.596 306.518,-222.545 301.688,-221.25 301.688,-221.25 301.688,-221.25 306.518,-222.545 302.854,-216.903 311.347,-223.84 311.347,-223.84"/>
</g>
<!-- 5&#45;&gt;1 -->
<g id="edge5" class="edge"><title>5&#45;&gt;1</title>
<path fill="none" stroke="black" d="M507.372,-143.896C508.617,-136.209 509.383,-126.946 509.542,-118.335"/>
<polygon fill="black" stroke="black" points="509.427,-108.303 514.041,-118.251 509.484,-113.303 509.542,-118.303 509.542,-118.303 509.542,-118.303 509.484,-113.303 505.042,-118.354 509.427,-108.303 509.427,-108.303"/>
</g>
<!-- 5&#45;&gt;11 -->
<g id="edge6" class="edge"><title>5&#45;&gt;11</title>
<path fill="none" stroke="black" d="M462.583,-180.124C440.29,-190.191 412.026,-202.956 388.852,-213.422"/>
<polygon fill="black" stroke="black" points="379.593,-217.603 386.854,-209.386 384.149,-215.545 388.706,-213.487 388.706,-213.487 388.706,-213.487 384.149,-215.545 390.558,-217.589 379.593,-217.603 379.593,-217.603"/>
</g>
<!-- 6 -->
<g id="node6" class="node"><title>6</title>
<polygon fill="none" stroke="black" points="808,-36 673,-36 673,-0 808,-0 808,-36"/>
<text text-anchor="middle" x="740.5" y="-14.3" font-family="Times,serif" font-size="14.00">npfc.fragment_search</text>
</g>
<!-- 7 -->
<g id="node7" class="node"><title>7</title>
<polygon fill="none" stroke="black" points="255.5,-180 187.5,-180 187.5,-144 255.5,-144 255.5,-180"/>
<text text-anchor="middle" x="221.5" y="-158.3" font-family="Times,serif" font-size="14.00">npfc.load</text>
</g>
<!-- 7&#45;&gt;11 -->
<g id="edge7" class="edge"><title>7&#45;&gt;11</title>
<path fill="none" stroke="black" d="M251.834,-180.124C268.197,-189.361 288.583,-200.869 306.154,-210.788"/>
<polygon fill="black" stroke="black" points="315.05,-215.81 304.129,-214.813 310.695,-213.352 306.341,-210.894 306.341,-210.894 306.341,-210.894 310.695,-213.352 308.554,-206.976 315.05,-215.81 315.05,-215.81"/>
</g>
<!-- 8 -->
<g id="node8" class="node"><title>8</title>
<polygon fill="none" stroke="black" points="270,-108 193,-108 193,-72 270,-72 270,-108"/>
<text text-anchor="middle" x="231.5" y="-86.3" font-family="Times,serif" font-size="14.00">npfc.report</text>
</g>
<!-- 8&#45;&gt;4 -->
<g id="edge8" class="edge"><title>8&#45;&gt;4</title>
<path fill="none" stroke="black" d="M195.54,-108.124C175.623,-117.608 150.678,-129.487 129.48,-139.581"/>
<polygon fill="black" stroke="black" points="120.343,-143.932 127.437,-135.569 124.858,-141.782 129.372,-139.632 129.372,-139.632 129.372,-139.632 124.858,-141.782 131.307,-143.695 120.343,-143.932 120.343,-143.932"/>
</g>
<!-- 8&#45;&gt;7 -->
<g id="edge9" class="edge"><title>8&#45;&gt;7</title>
<path fill="none" stroke="black" d="M229.028,-108.303C227.926,-116.017 226.602,-125.288 225.373,-133.888"/>
<polygon fill="black" stroke="black" points="223.943,-143.896 220.903,-133.36 224.651,-138.946 225.358,-133.996 225.358,-133.996 225.358,-133.996 224.651,-138.946 229.813,-134.633 223.943,-143.896 223.943,-143.896"/>
</g>
<!-- 8&#45;&gt;9 -->
<g id="edge10" class="edge"><title>8&#45;&gt;9</title>
<path fill="none" stroke="black" d="M259.388,-108.124C274.293,-117.276 292.829,-128.658 308.882,-138.515"/>
<polygon fill="black" stroke="black" points="317.505,-143.81 306.629,-142.412 313.244,-141.194 308.984,-138.578 308.984,-138.578 308.984,-138.578 313.244,-141.194 311.338,-134.743 317.505,-143.81 317.505,-143.81"/>
</g>
<!-- 8&#45;&gt;11 -->
<g id="edge11" class="edge"><title>8&#45;&gt;11</title>
<path fill="none" stroke="black" d="M245.07,-108.095C259.328,-126.038 282.428,-155.051 302.5,-180 309.817,-189.095 317.87,-199.039 325.01,-207.831"/>
<polygon fill="black" stroke="black" points="331.521,-215.843 321.722,-210.921 328.368,-211.963 325.214,-208.083 325.214,-208.083 325.214,-208.083 328.368,-211.963 328.706,-205.245 331.521,-215.843 331.521,-215.843"/>
</g>
<!-- 9&#45;&gt;11 -->
<g id="edge12" class="edge"><title>9&#45;&gt;11</title>
<path fill="none" stroke="black" d="M345.5,-180.303C345.5,-188.017 345.5,-197.288 345.5,-205.888"/>
<polygon fill="black" stroke="black" points="345.5,-215.896 341,-205.896 345.5,-210.896 345.5,-205.896 345.5,-205.896 345.5,-205.896 345.5,-210.896 350,-205.896 345.5,-215.896 345.5,-215.896"/>
</g>
<!-- 10 -->
<g id="node10" class="node"><title>10</title>
<polygon fill="none" stroke="black" points="654.5,-36 548.5,-36 548.5,-0 654.5,-0 654.5,-36"/>
<text text-anchor="middle" x="601.5" y="-14.3" font-family="Times,serif" font-size="14.00">npfc.standardize</text>
</g>
<!-- 10&#45;&gt;1 -->
<g id="edge13" class="edge"><title>10&#45;&gt;1</title>
<path fill="none" stroke="black" d="M577.522,-36.3034C565.189,-45.204 549.984,-56.1768 536.647,-65.8011"/>
<polygon fill="black" stroke="black" points="528.202,-71.8957 533.677,-62.3947 532.256,-68.9697 536.311,-66.0438 536.311,-66.0438 536.311,-66.0438 532.256,-68.9697 538.944,-69.6928 528.202,-71.8957 528.202,-71.8957"/>
</g>
<!-- 10&#45;&gt;3 -->
<g id="edge14" class="edge"><title>10&#45;&gt;3</title>
<path fill="none" stroke="black" d="M601.5,-36.3034C601.5,-44.0173 601.5,-53.2875 601.5,-61.8876"/>
<polygon fill="black" stroke="black" points="601.5,-71.8957 597,-61.8956 601.5,-66.8957 601.5,-61.8957 601.5,-61.8957 601.5,-61.8957 601.5,-66.8957 606,-61.8957 601.5,-71.8957 601.5,-71.8957"/>
</g>
<!-- 10&#45;&gt;11 -->
<g id="edge15" class="edge"><title>10&#45;&gt;11</title>
<path fill="none" stroke="black" d="M620.974,-36.082C630.321,-45.5966 640.546,-58.2768 645.5,-72 661.955,-117.582 665.134,-146.104 630.5,-180 596.947,-212.839 460.921,-225.963 389.61,-230.666"/>
<polygon fill="black" stroke="black" points="379.578,-231.3 389.274,-226.178 384.568,-230.984 389.558,-230.669 389.558,-230.669 389.558,-230.669 384.568,-230.984 389.842,-235.16 379.578,-231.3 379.578,-231.3"/>
</g>
</g>
</svg>
