<?xml version="1.0" encoding="UTF-8" standalone="no"?>
<!DOCTYPE svg PUBLIC "-//W3C//DTD SVG 1.1//EN"
 "http://www.w3.org/Graphics/SVG/1.1/DTD/svg11.dtd">
<!-- Generated by graphviz version 2.43.0 (0)
 -->
<!-- Title: packages_npfc Pages: 1 -->
<svg width="963pt" height="260pt"
 viewBox="0.00 0.00 963.24 260.00" xmlns="http://www.w3.org/2000/svg" xmlns:xlink="http://www.w3.org/1999/xlink">
<g id="graph0" class="graph" transform="scale(1 1) rotate(0) translate(4 256)">
<title>packages_npfc</title>
<polygon fill="white" stroke="transparent" points="-4,4 -4,-256 959.24,-256 959.24,4 -4,4"/>
<!-- npfc -->
<g id="node1" class="node">
<title>npfc</title>
<polygon fill="none" stroke="black" points="238.74,-252 184.74,-252 184.74,-216 238.74,-216 238.74,-252"/>
<text text-anchor="middle" x="211.74" y="-230.3" font-family="Times,serif" font-size="14.00">npfc</text>
</g>
<!-- npfc.contrib -->
<g id="node2" class="node">
<title>npfc.contrib</title>
<polygon fill="none" stroke="black" points="498.24,-36 415.24,-36 415.24,0 498.24,0 498.24,-36"/>
<text text-anchor="middle" x="456.74" y="-14.3" font-family="Times,serif" font-size="14.00">npfc.contrib</text>
</g>
<!-- npfc.contrib.np_score -->
<g id="node3" class="node">
<title>npfc.contrib.np_score</title>
<polygon fill="none" stroke="black" points="651.24,-36 516.24,-36 516.24,0 651.24,0 651.24,-36"/>
<text text-anchor="middle" x="583.74" y="-14.3" font-family="Times,serif" font-size="14.00">npfc.contrib.np_score</text>
</g>
<!-- npfc.contrib.sa_score -->
<g id="node4" class="node">
<title>npfc.contrib.sa_score</title>
<polygon fill="none" stroke="black" points="802.24,-36 669.24,-36 669.24,0 802.24,0 802.24,-36"/>
<text text-anchor="middle" x="735.74" y="-14.3" font-family="Times,serif" font-size="14.00">npfc.contrib.sa_score</text>
</g>
<!-- npfc.deduplicate -->
<g id="node5" class="node">
<title>npfc.deduplicate</title>
<polygon fill="none" stroke="black" points="215.24,-108 108.24,-108 108.24,-72 215.24,-72 215.24,-108"/>
<text text-anchor="middle" x="161.74" y="-86.3" font-family="Times,serif" font-size="14.00">npfc.deduplicate</text>
</g>
<!-- npfc.deduplicate&#45;&gt;npfc -->
<g id="edge1" class="edge">
<title>npfc.deduplicate&#45;&gt;npfc</title>
<path fill="none" stroke="black" d="M116.19,-108.02C100.49,-116.34 84.63,-128.07 75.74,-144 67.94,-157.97 66.71,-166.79 75.74,-180 97.74,-212.19 142.42,-224.83 174.57,-229.79"/>
<polygon fill="black" stroke="black" points="184.52,-231.15 174,-234.26 179.57,-230.47 174.61,-229.8 174.61,-229.8 174.61,-229.8 179.57,-230.47 175.22,-225.34 184.52,-231.15 184.52,-231.15"/>
</g>
<!-- npfc.save -->
<g id="node15" class="node">
<title>npfc.save</title>
<polygon fill="none" stroke="black" points="152.74,-180 84.74,-180 84.74,-144 152.74,-144 152.74,-180"/>
<text text-anchor="middle" x="118.74" y="-158.3" font-family="Times,serif" font-size="14.00">npfc.save</text>
</g>
<!-- npfc.deduplicate&#45;&gt;npfc.save -->
<g id="edge2" class="edge">
<title>npfc.deduplicate&#45;&gt;npfc.save</title>
<path fill="none" stroke="black" d="M151.11,-108.3C146.11,-116.44 140.05,-126.31 134.53,-135.3"/>
<polygon fill="black" stroke="black" points="129.25,-143.9 130.65,-133.02 131.86,-139.64 134.48,-135.37 134.48,-135.37 134.48,-135.37 131.86,-139.64 138.32,-137.73 129.25,-143.9 129.25,-143.9"/>
</g>
<!-- npfc.draw -->
<g id="node6" class="node">
<title>npfc.draw</title>
<polygon fill="none" stroke="black" points="696.24,-108 625.24,-108 625.24,-72 696.24,-72 696.24,-108"/>
<text text-anchor="middle" x="660.74" y="-86.3" font-family="Times,serif" font-size="14.00">npfc.draw</text>
</g>
<!-- npfc.draw&#45;&gt;npfc -->
<g id="edge3" class="edge">
<title>npfc.draw&#45;&gt;npfc</title>
<path fill="none" stroke="black" d="M625.18,-107.82C603.16,-118.24 574.31,-131.9 548.74,-144 514.96,-159.99 508.2,-168.19 472.74,-180 395.17,-205.82 300.24,-221.26 248.94,-228.34"/>
<polygon fill="black" stroke="black" points="238.98,-229.68 248.28,-223.88 243.93,-229.01 248.89,-228.34 248.89,-228.34 248.89,-228.34 243.93,-229.01 249.49,-232.8 238.98,-229.68 238.98,-229.68"/>
</g>
<!-- npfc.fragment_combination_graph -->
<g id="node9" class="node">
<title>npfc.fragment_combination_graph</title>
<polygon fill="none" stroke="black" points="763.74,-180 557.74,-180 557.74,-144 763.74,-144 763.74,-180"/>
<text text-anchor="middle" x="660.74" y="-158.3" font-family="Times,serif" font-size="14.00">npfc.fragment_combination_graph</text>
</g>
<!-- npfc.draw&#45;&gt;npfc.fragment_combination_graph -->
<g id="edge4" class="edge">
<title>npfc.draw&#45;&gt;npfc.fragment_combination_graph</title>
<path fill="none" stroke="black" d="M654.82,-108.3C654.03,-116.02 653.8,-125.29 654.14,-133.89"/>
<polygon fill="black" stroke="black" points="654.84,-143.9 649.66,-134.23 654.5,-138.91 654.15,-133.92 654.15,-133.92 654.15,-133.92 654.5,-138.91 658.64,-133.61 654.84,-143.9 654.84,-143.9"/>
</g>
<!-- npfc.notebook -->
<g id="node13" class="node">
<title>npfc.notebook</title>
<polygon fill="none" stroke="black" points="915.24,-180 820.24,-180 820.24,-144 915.24,-144 915.24,-180"/>
<text text-anchor="middle" x="867.74" y="-158.3" font-family="Times,serif" font-size="14.00">npfc.notebook</text>
</g>
<!-- npfc.draw&#45;&gt;npfc.notebook -->
<g id="edge5" class="edge">
<title>npfc.draw&#45;&gt;npfc.notebook</title>
<path fill="none" stroke="black" d="M696.32,-103.03C727.73,-113.65 774.08,-129.33 810.67,-141.7"/>
<polygon fill="black" stroke="black" points="820.23,-144.93 809.31,-145.99 815.49,-143.33 810.75,-141.73 810.75,-141.73 810.75,-141.73 815.49,-143.33 812.19,-137.47 820.23,-144.93 820.23,-144.93"/>
</g>
<!-- npfc.utils -->
<g id="node17" class="node">
<title>npfc.utils</title>
<polygon fill="none" stroke="black" points="551.74,-252 483.74,-252 483.74,-216 551.74,-216 551.74,-252"/>
<text text-anchor="middle" x="517.74" y="-230.3" font-family="Times,serif" font-size="14.00">npfc.utils</text>
</g>
<!-- npfc.draw&#45;&gt;npfc.utils -->
<g id="edge6" class="edge">
<title>npfc.draw&#45;&gt;npfc.utils</title>
<path fill="none" stroke="black" d="M696.51,-97.46C722.57,-104.24 756.11,-117.74 772.74,-144 781.3,-157.52 783.06,-167.77 772.74,-180 742.06,-216.35 607.6,-203.37 561.74,-216 561.64,-216.03 561.54,-216.05 561.44,-216.08"/>
<polygon fill="black" stroke="black" points="552.11,-218.97 560.33,-211.72 556.88,-217.49 561.66,-216.01 561.66,-216.01 561.66,-216.01 556.88,-217.49 562.99,-220.31 552.11,-218.97 552.11,-218.97"/>
</g>
<!-- npfc.filter -->
<g id="node7" class="node">
<title>npfc.filter</title>
<polygon fill="none" stroke="black" points="90.24,-108 19.24,-108 19.24,-72 90.24,-72 90.24,-108"/>
<text text-anchor="middle" x="54.74" y="-86.3" font-family="Times,serif" font-size="14.00">npfc.filter</text>
</g>
<!-- npfc.fragment_combination -->
<g id="node8" class="node">
<title>npfc.fragment_combination</title>
<polygon fill="none" stroke="black" points="464.24,-180 295.24,-180 295.24,-144 464.24,-144 464.24,-180"/>
<text text-anchor="middle" x="379.74" y="-158.3" font-family="Times,serif" font-size="14.00">npfc.fragment_combination</text>
</g>
<!-- npfc.fragment_combination&#45;&gt;npfc -->
<g id="edge7" class="edge">
<title>npfc.fragment_combination&#45;&gt;npfc</title>
<path fill="none" stroke="black" d="M338.64,-180.12C310.96,-191.66 274.77,-206.74 248.13,-217.84"/>
<polygon fill="black" stroke="black" points="238.78,-221.73 246.28,-213.73 243.39,-219.81 248.01,-217.89 248.01,-217.89 248.01,-217.89 243.39,-219.81 249.74,-222.04 238.78,-221.73 238.78,-221.73"/>
</g>
<!-- npfc.fragment_combination&#45;&gt;npfc.utils -->
<g id="edge8" class="edge">
<title>npfc.fragment_combination&#45;&gt;npfc.utils</title>
<path fill="none" stroke="black" d="M413.5,-180.12C431.96,-189.49 455.02,-201.19 474.76,-211.2"/>
<polygon fill="black" stroke="black" points="483.85,-215.81 472.9,-215.3 479.39,-213.55 474.93,-211.29 474.93,-211.29 474.93,-211.29 479.39,-213.55 476.97,-207.27 483.85,-215.81 483.85,-215.81"/>
</g>
<!-- npfc.fragment_combination_graph&#45;&gt;npfc -->
<g id="edge9" class="edge">
<title>npfc.fragment_combination_graph&#45;&gt;npfc</title>
<path fill="none" stroke="black" d="M557.73,-179.06C459.18,-194.42 315.94,-216.76 248.92,-227.2"/>
<polygon fill="black" stroke="black" points="238.83,-228.78 248.02,-222.79 243.78,-228.01 248.72,-227.24 248.72,-227.24 248.72,-227.24 243.78,-228.01 249.41,-231.68 238.83,-228.78 238.83,-228.78"/>
</g>
<!-- npfc.fragment_combination_graph&#45;&gt;npfc.draw -->
<g id="edge10" class="edge">
<title>npfc.fragment_combination_graph&#45;&gt;npfc.draw</title>
<path fill="none" stroke="black" d="M666.63,-143.9C667.44,-136.21 667.68,-126.95 667.34,-118.33"/>
<polygon fill="black" stroke="black" points="666.66,-108.3 671.83,-117.97 667,-113.29 667.34,-118.28 667.34,-118.28 667.34,-118.28 667,-113.29 662.85,-118.59 666.66,-108.3 666.66,-108.3"/>
</g>
<!-- npfc.fragment_combination_point -->
<g id="node10" class="node">
<title>npfc.fragment_combination_point</title>
<polygon fill="none" stroke="black" points="773.24,-252 570.24,-252 570.24,-216 773.24,-216 773.24,-252"/>
<text text-anchor="middle" x="671.74" y="-230.3" font-family="Times,serif" font-size="14.00">npfc.fragment_combination_point</text>
</g>
<!-- npfc.fragment_combination_graph&#45;&gt;npfc.fragment_combination_point -->
<g id="edge11" class="edge">
<title>npfc.fragment_combination_graph&#45;&gt;npfc.fragment_combination_point</title>
<path fill="none" stroke="black" d="M663.46,-180.3C664.67,-188.02 666.13,-197.29 667.48,-205.89"/>
<polygon fill="black" stroke="black" points="669.05,-215.9 663.05,-206.72 668.28,-210.96 667.5,-206.02 667.5,-206.02 667.5,-206.02 668.28,-210.96 671.94,-205.32 669.05,-215.9 669.05,-215.9"/>
</g>
<!-- npfc.fragment_combination_graph&#45;&gt;npfc.utils -->
<g id="edge12" class="edge">
<title>npfc.fragment_combination_graph&#45;&gt;npfc.utils</title>
<path fill="none" stroke="black" d="M625.76,-180.12C606.25,-189.67 581.8,-201.64 561.09,-211.78"/>
<polygon fill="black" stroke="black" points="551.87,-216.29 558.87,-207.86 556.36,-214.1 560.85,-211.9 560.85,-211.9 560.85,-211.9 556.36,-214.1 562.83,-215.94 551.87,-216.29 551.87,-216.29"/>
</g>
<!-- npfc.fragment_search -->
<g id="node11" class="node">
<title>npfc.fragment_search</title>
<polygon fill="none" stroke="black" points="955.24,-36 820.24,-36 820.24,0 955.24,0 955.24,-36"/>
<text text-anchor="middle" x="887.74" y="-14.3" font-family="Times,serif" font-size="14.00">npfc.fragment_search</text>
</g>
<!-- npfc.load -->
<g id="node12" class="node">
<title>npfc.load</title>
<polygon fill="none" stroke="black" points="276.74,-180 208.74,-180 208.74,-144 276.74,-144 276.74,-180"/>
<text text-anchor="middle" x="242.74" y="-158.3" font-family="Times,serif" font-size="14.00">npfc.load</text>
</g>
<!-- npfc.load&#45;&gt;npfc -->
<g id="edge13" class="edge">
<title>npfc.load&#45;&gt;npfc</title>
<path fill="none" stroke="black" d="M235.08,-180.3C231.55,-188.27 227.28,-197.9 223.37,-206.74"/>
<polygon fill="black" stroke="black" points="219.31,-215.9 219.25,-204.93 221.34,-211.32 223.36,-206.75 223.36,-206.75 223.36,-206.75 221.34,-211.32 227.48,-208.57 219.31,-215.9 219.31,-215.9"/>
</g>
<!-- npfc.load&#45;&gt;npfc.utils -->
<g id="edge14" class="edge">
<title>npfc.load&#45;&gt;npfc.utils</title>
<path fill="none" stroke="black" d="M276.84,-177.02C279.83,-178.09 282.83,-179.1 285.74,-180 350.08,-199.94 426.57,-215.98 473.63,-225"/>
<polygon fill="black" stroke="black" points="483.5,-226.87 472.84,-229.43 478.59,-225.94 473.68,-225.01 473.68,-225.01 473.68,-225.01 478.59,-225.94 474.51,-220.58 483.5,-226.87 483.5,-226.87"/>
</g>
<!-- npfc.report -->
<g id="node14" class="node">
<title>npfc.report</title>
<polygon fill="none" stroke="black" points="310.24,-108 233.24,-108 233.24,-72 310.24,-72 310.24,-108"/>
<text text-anchor="middle" x="271.74" y="-86.3" font-family="Times,serif" font-size="14.00">npfc.report</text>
</g>
<!-- npfc.report&#45;&gt;npfc -->
<g id="edge15" class="edge">
<title>npfc.report&#45;&gt;npfc</title>
<path fill="none" stroke="black" d="M235.71,-108.19C221.82,-116.84 207.44,-128.76 199.74,-144 189.95,-163.37 194.35,-187.99 200.41,-206.43"/>
<polygon fill="black" stroke="black" points="203.87,-215.96 196.23,-208.09 202.16,-211.26 200.46,-206.56 200.46,-206.56 200.46,-206.56 202.16,-211.26 204.69,-205.03 203.87,-215.96 203.87,-215.96"/>
</g>
<!-- npfc.report&#45;&gt;npfc.fragment_combination -->
<g id="edge16" class="edge">
<title>npfc.report&#45;&gt;npfc.fragment_combination</title>
<path fill="none" stroke="black" d="M298.16,-108.12C312.15,-117.19 329.52,-128.45 344.63,-138.24"/>
<polygon fill="black" stroke="black" points="353.22,-143.81 342.38,-142.15 349.02,-141.09 344.83,-138.37 344.83,-138.37 344.83,-138.37 349.02,-141.09 347.27,-134.6 353.22,-143.81 353.22,-143.81"/>
</g>
<!-- npfc.report&#45;&gt;npfc.load -->
<g id="edge17" class="edge">
<title>npfc.report&#45;&gt;npfc.load</title>
<path fill="none" stroke="black" d="M264.57,-108.3C261.31,-116.19 257.37,-125.7 253.74,-134.45"/>
<polygon fill="black" stroke="black" points="249.83,-143.9 249.5,-132.93 251.74,-139.28 253.65,-134.66 253.65,-134.66 253.65,-134.66 251.74,-139.28 257.81,-136.38 249.83,-143.9 249.83,-143.9"/>
</g>
<!-- npfc.report&#45;&gt;npfc.save -->
<g id="edge18" class="edge">
<title>npfc.report&#45;&gt;npfc.save</title>
<path fill="none" stroke="black" d="M234.31,-108.12C212.46,-118.12 184.8,-130.78 162.02,-141.2"/>
<polygon fill="black" stroke="black" points="152.91,-145.37 160.13,-137.12 157.45,-143.29 162,-141.21 162,-141.21 162,-141.21 157.45,-143.29 163.87,-145.3 152.91,-145.37 152.91,-145.37"/>
</g>
<!-- npfc.report&#45;&gt;npfc.utils -->
<g id="edge19" class="edge">
<title>npfc.report&#45;&gt;npfc.utils</title>
<path fill="none" stroke="black" d="M310.35,-91.99C354.2,-95.02 425.75,-105.98 472.74,-144 492.23,-159.77 504.06,-186.16 510.67,-206.12"/>
<polygon fill="black" stroke="black" points="513.66,-215.88 506.43,-207.64 512.2,-211.1 510.73,-206.32 510.73,-206.32 510.73,-206.32 512.2,-211.1 515.04,-205 513.66,-215.88 513.66,-215.88"/>
</g>
<!-- npfc.save&#45;&gt;npfc -->
<g id="edge20" class="edge">
<title>npfc.save&#45;&gt;npfc</title>
<path fill="none" stroke="black" d="M141.73,-180.3C153.55,-189.2 168.13,-200.18 180.92,-209.8"/>
<polygon fill="black" stroke="black" points="189.02,-215.9 178.32,-213.48 185.02,-212.89 181.03,-209.88 181.03,-209.88 181.03,-209.88 185.02,-212.89 183.73,-206.29 189.02,-215.9 189.02,-215.9"/>
</g>
<!-- npfc.save&#45;&gt;npfc.utils -->
<g id="edge21" class="edge">
<title>npfc.save&#45;&gt;npfc.utils</title>
<path fill="none" stroke="black" d="M152.97,-170.51C167.38,-173.59 184.35,-177.1 199.74,-180 296.97,-198.3 411.55,-216.6 473.16,-226.17"/>
<polygon fill="black" stroke="black" points="483.3,-227.74 472.73,-230.66 478.36,-226.98 473.42,-226.21 473.42,-226.21 473.42,-226.21 478.36,-226.98 474.11,-221.76 483.3,-227.74 483.3,-227.74"/>
</g>
<!-- npfc.standardize -->
<g id="node16" class="node">
<title>npfc.standardize</title>
<polygon fill="none" stroke="black" points="396.74,-36 290.74,-36 290.74,0 396.74,0 396.74,-36"/>
<text text-anchor="middle" x="343.74" y="-14.3" font-family="Times,serif" font-size="14.00">npfc.standardize</text>
</g>
<!-- npfc.standardize&#45;&gt;npfc -->
<g id="edge22" class="edge">
<title>npfc.standardize&#45;&gt;npfc</title>
<path fill="none" stroke="black" d="M290.43,-19.41C205.45,-21.31 45.19,-30.48 9.74,-72 -27.09,-115.13 56.92,-173.58 65.74,-180 98.55,-203.87 143.24,-217.99 174.5,-225.58"/>
<polygon fill="black" stroke="black" points="184.55,-227.9 173.8,-230.03 179.68,-226.78 174.81,-225.65 174.81,-225.65 174.81,-225.65 179.68,-226.78 175.82,-221.27 184.55,-227.9 184.55,-227.9"/>
</g>
<!-- npfc.standardize&#45;&gt;npfc.draw -->
<g id="edge23" class="edge">
<title>npfc.standardize&#45;&gt;npfc.draw</title>
<path fill="none" stroke="black" d="M396.78,-33.78C399.81,-34.55 402.81,-35.29 405.74,-36 478.53,-53.53 563.85,-70.55 615.03,-80.4"/>
<polygon fill="black" stroke="black" points="625.11,-82.33 614.44,-84.86 620.2,-81.39 615.28,-80.44 615.28,-80.44 615.28,-80.44 620.2,-81.39 616.13,-76.03 625.11,-82.33 625.11,-82.33"/>
</g>
<!-- npfc.standardize&#45;&gt;npfc.filter -->
<g id="edge24" class="edge">
<title>npfc.standardize&#45;&gt;npfc.filter</title>
<path fill="none" stroke="black" d="M290.57,-28.03C242.78,-36.7 170.62,-51.16 100.48,-71.68"/>
<polygon fill="black" stroke="black" points="90.6,-74.62 98.9,-67.46 95.39,-73.2 100.19,-71.77 100.19,-71.77 100.19,-71.77 95.39,-73.2 101.47,-76.09 90.6,-74.62 90.6,-74.62"/>
</g>
<!-- npfc.standardize&#45;&gt;npfc.utils -->
<g id="edge25" class="edge">
<title>npfc.standardize&#45;&gt;npfc.utils</title>
<path fill="none" stroke="black" d="M397.05,-34.16C399.98,-34.82 402.89,-35.44 405.74,-36 521.34,-58.66 855.66,-48.57 924.74,-144 934.12,-156.96 935.48,-168.14 924.74,-180 870.32,-240.08 640.6,-197.22 561.74,-216 561.64,-216.02 561.54,-216.05 561.44,-216.07"/>
<polygon fill="black" stroke="black" points="552.05,-218.74 560.44,-211.68 556.86,-217.37 561.67,-216.01 561.67,-216.01 561.67,-216.01 556.86,-217.37 562.9,-220.34 552.05,-218.74 552.05,-218.74"/>
</g>
</g>
</svg>
