<?xml version="1.0" encoding="UTF-8" standalone="no"?>
<!DOCTYPE svg PUBLIC "-//W3C//DTD SVG 1.1//EN"
 "http://www.w3.org/Graphics/SVG/1.1/DTD/svg11.dtd">
<!-- Generated by graphviz version 2.40.1 (20161225.0304)
 -->
<!-- Title: packages_npfc Pages: 1 -->
<svg width="818pt" height="188pt"
 viewBox="0.00 0.00 817.50 188.00" xmlns="http://www.w3.org/2000/svg" xmlns:xlink="http://www.w3.org/1999/xlink">
<g id="graph0" class="graph" transform="scale(1 1) rotate(0) translate(4 184)">
<title>packages_npfc</title>
<polygon fill="#ffffff" stroke="transparent" points="-4,4 -4,-184 813.5,-184 813.5,4 -4,4"/>
<!-- 1 -->
<g id="node1" class="node">
<title>1</title>
<polygon fill="none" stroke="#000000" points="565.5,-108 494.5,-108 494.5,-72 565.5,-72 565.5,-108"/>
<text text-anchor="middle" x="530" y="-86.3" font-family="Times,serif" font-size="14.00" fill="#000000">npfc.draw</text>
</g>
<!-- 11 -->
<g id="node11" class="node">
<title>11</title>
<polygon fill="none" stroke="#000000" points="438,-180 370,-180 370,-144 438,-144 438,-180"/>
<text text-anchor="middle" x="404" y="-158.3" font-family="Times,serif" font-size="14.00" fill="#000000">npfc.utils</text>
</g>
<!-- 1&#45;&gt;11 -->
<g id="edge1" class="edge">
<title>1&#45;&gt;11</title>
<path fill="none" stroke="#000000" d="M498.2049,-108.1686C481.9395,-117.4632 461.9614,-128.8792 444.5949,-138.8029"/>
<polygon fill="#000000" stroke="#000000" points="435.7849,-143.8372 442.2347,-134.9686 440.1262,-141.3565 444.4674,-138.8757 444.4674,-138.8757 444.4674,-138.8757 440.1262,-141.3565 446.7,-142.7828 435.7849,-143.8372 435.7849,-143.8372"/>
</g>
<!-- 2 -->
<g id="node2" class="node">
<title>2</title>
<polygon fill="none" stroke="#000000" points="78,-108 0,-108 0,-72 78,-72 78,-108"/>
<text text-anchor="middle" x="39" y="-86.3" font-family="Times,serif" font-size="14.00" fill="#000000">npfc.draw0</text>
</g>
<!-- 2&#45;&gt;11 -->
<g id="edge2" class="edge">
<title>2&#45;&gt;11</title>
<path fill="none" stroke="#000000" d="M78.0941,-105.3521C81.0866,-106.3143 84.0786,-107.2111 87,-108 182.5303,-133.797 297.7376,-149.7581 359.5799,-157.1371"/>
<polygon fill="#000000" stroke="#000000" points="369.7629,-158.3318 359.3066,-161.6358 364.7969,-157.7491 359.831,-157.1664 359.831,-157.1664 359.831,-157.1664 364.7969,-157.7491 360.3554,-152.6971 369.7629,-158.3318 369.7629,-158.3318"/>
</g>
<!-- 3 -->
<g id="node3" class="node">
<title>3</title>
<polygon fill="none" stroke="#000000" points="365,-36 271,-36 271,0 365,0 365,-36"/>
<text text-anchor="middle" x="318" y="-14.3" font-family="Times,serif" font-size="14.00" fill="#000000">npfc.duplicate</text>
</g>
<!-- 9 -->
<g id="node9" class="node">
<title>9</title>
<polygon fill="none" stroke="#000000" points="352,-108 284,-108 284,-72 352,-72 352,-108"/>
<text text-anchor="middle" x="318" y="-86.3" font-family="Times,serif" font-size="14.00" fill="#000000">npfc.save</text>
</g>
<!-- 3&#45;&gt;9 -->
<g id="edge3" class="edge">
<title>3&#45;&gt;9</title>
<path fill="none" stroke="#000000" d="M318,-36.1686C318,-43.869 318,-53.0257 318,-61.5834"/>
<polygon fill="#000000" stroke="#000000" points="318,-71.5867 313.5001,-61.5867 318,-66.5867 318.0001,-61.5867 318.0001,-61.5867 318.0001,-61.5867 318,-66.5867 322.5001,-61.5868 318,-71.5867 318,-71.5867"/>
</g>
<!-- 4 -->
<g id="node4" class="node">
<title>4</title>
<polygon fill="none" stroke="#000000" points="693.5,-108 622.5,-108 622.5,-72 693.5,-72 693.5,-108"/>
<text text-anchor="middle" x="658" y="-86.3" font-family="Times,serif" font-size="14.00" fill="#000000">npfc.filter</text>
</g>
<!-- 5 -->
<g id="node5" class="node">
<title>5</title>
<polygon fill="none" stroke="#000000" points="265.5,-108 96.5,-108 96.5,-72 265.5,-72 265.5,-108"/>
<text text-anchor="middle" x="181" y="-86.3" font-family="Times,serif" font-size="14.00" fill="#000000">npfc.fragment_combination</text>
</g>
<!-- 5&#45;&gt;11 -->
<g id="edge4" class="edge">
<title>5&#45;&gt;11</title>
<path fill="none" stroke="#000000" d="M236.9845,-108.0757C275.1938,-120.4123 325.0806,-136.5193 360.3515,-147.9072"/>
<polygon fill="#000000" stroke="#000000" points="369.8903,-150.987 358.9913,-152.1967 365.1321,-149.4507 360.374,-147.9144 360.374,-147.9144 360.374,-147.9144 365.1321,-149.4507 361.7566,-143.6321 369.8903,-150.987 369.8903,-150.987"/>
</g>
<!-- 6 -->
<g id="node6" class="node">
<title>6</title>
<polygon fill="none" stroke="#000000" points="531.5,-36 400.5,-36 400.5,0 531.5,0 531.5,-36"/>
<text text-anchor="middle" x="466" y="-14.3" font-family="Times,serif" font-size="14.00" fill="#000000">npfc.fragment_graph</text>
</g>
<!-- 6&#45;&gt;1 -->
<g id="edge5" class="edge">
<title>6&#45;&gt;1</title>
<path fill="none" stroke="#000000" d="M482.1499,-36.1686C489.6717,-44.6306 498.7565,-54.8511 506.9804,-64.1029"/>
<polygon fill="#000000" stroke="#000000" points="513.6327,-71.5867 503.6256,-67.1023 510.3108,-67.8497 506.989,-64.1126 506.989,-64.1126 506.989,-64.1126 510.3108,-67.8497 510.3523,-61.123 513.6327,-71.5867 513.6327,-71.5867"/>
</g>
<!-- 6&#45;&gt;11 -->
<g id="edge6" class="edge">
<title>6&#45;&gt;11</title>
<path fill="none" stroke="#000000" d="M464.6557,-36.0258C462.7054,-54.7725 458.0255,-84.5966 447,-108 442.278,-118.0232 435.3584,-127.8497 428.4443,-136.3143"/>
<polygon fill="#000000" stroke="#000000" points="421.8889,-143.9746 424.9718,-133.451 425.1399,-140.1757 428.3908,-136.3768 428.3908,-136.3768 428.3908,-136.3768 425.1399,-140.1757 431.8098,-139.3027 421.8889,-143.9746 421.8889,-143.9746"/>
</g>
<!-- 7 -->
<g id="node7" class="node">
<title>7</title>
<polygon fill="none" stroke="#000000" points="809.5,-36 674.5,-36 674.5,0 809.5,0 809.5,-36"/>
<text text-anchor="middle" x="742" y="-14.3" font-family="Times,serif" font-size="14.00" fill="#000000">npfc.fragment_search</text>
</g>
<!-- 8 -->
<g id="node8" class="node">
<title>8</title>
<polygon fill="none" stroke="#000000" points="438,-108 370,-108 370,-72 438,-72 438,-108"/>
<text text-anchor="middle" x="404" y="-86.3" font-family="Times,serif" font-size="14.00" fill="#000000">npfc.load</text>
</g>
<!-- 8&#45;&gt;11 -->
<g id="edge7" class="edge">
<title>8&#45;&gt;11</title>
<path fill="none" stroke="#000000" d="M404,-108.1686C404,-115.869 404,-125.0257 404,-133.5834"/>
<polygon fill="#000000" stroke="#000000" points="404,-143.5867 399.5001,-133.5867 404,-138.5867 404.0001,-133.5867 404.0001,-133.5867 404.0001,-133.5867 404,-138.5867 408.5001,-133.5868 404,-143.5867 404,-143.5867"/>
</g>
<!-- 9&#45;&gt;11 -->
<g id="edge8" class="edge">
<title>9&#45;&gt;11</title>
<path fill="none" stroke="#000000" d="M339.7014,-108.1686C350.1921,-116.9515 362.9455,-127.6288 374.3194,-137.1511"/>
<polygon fill="#000000" stroke="#000000" points="382.3055,-143.8372 371.7492,-140.8682 378.4717,-140.6275 374.6379,-137.4178 374.6379,-137.4178 374.6379,-137.4178 378.4717,-140.6275 377.5266,-133.9674 382.3055,-143.8372 382.3055,-143.8372"/>
</g>
<!-- 10 -->
<g id="node10" class="node">
<title>10</title>
<polygon fill="none" stroke="#000000" points="656,-36 550,-36 550,0 656,0 656,-36"/>
<text text-anchor="middle" x="603" y="-14.3" font-family="Times,serif" font-size="14.00" fill="#000000">npfc.standardize</text>
</g>
<!-- 10&#45;&gt;1 -->
<g id="edge9" class="edge">
<title>10&#45;&gt;1</title>
<path fill="none" stroke="#000000" d="M584.579,-36.1686C575.8471,-44.781 565.2683,-55.2149 555.7577,-64.5952"/>
<polygon fill="#000000" stroke="#000000" points="548.4151,-71.8372 552.3748,-61.6111 551.9749,-68.3261 555.5348,-64.815 555.5348,-64.815 555.5348,-64.815 551.9749,-68.3261 558.6948,-68.0189 548.4151,-71.8372 548.4151,-71.8372"/>
</g>
<!-- 10&#45;&gt;4 -->
<g id="edge10" class="edge">
<title>10&#45;&gt;4</title>
<path fill="none" stroke="#000000" d="M616.8788,-36.1686C623.2136,-44.4614 630.8384,-54.443 637.7926,-63.5467"/>
<polygon fill="#000000" stroke="#000000" points="643.9343,-71.5867 634.2878,-66.3717 640.8991,-67.6134 637.8639,-63.64 637.8639,-63.64 637.8639,-63.64 640.8991,-67.6134 641.4399,-60.9083 643.9343,-71.5867 643.9343,-71.5867"/>
</g>
<!-- 10&#45;&gt;11 -->
<g id="edge11" class="edge">
<title>10&#45;&gt;11</title>
<path fill="none" stroke="#000000" d="M601.9655,-36.0556C599.8478,-56.2495 593.4255,-88.655 574,-108 556.137,-125.7891 492.2304,-142.7934 448.0738,-152.8155"/>
<polygon fill="#000000" stroke="#000000" points="438.1458,-155.0274 446.9278,-148.4604 443.0261,-153.9401 447.9064,-152.8527 447.9064,-152.8527 447.9064,-152.8527 443.0261,-153.9401 448.8851,-157.245 438.1458,-155.0274 438.1458,-155.0274"/>
</g>
</g>
</svg>
