<?xml version="1.0" encoding="UTF-8" standalone="no"?>
<!DOCTYPE svg PUBLIC "-//W3C//DTD SVG 1.1//EN"
 "http://www.w3.org/Graphics/SVG/1.1/DTD/svg11.dtd">
<!-- Generated by graphviz version 2.42.3 (20191010.1750)
 -->
<!-- Title: packages_npfc Pages: 1 -->
<svg width="738pt" height="260pt"
 viewBox="0.00 0.00 737.50 260.00" xmlns="http://www.w3.org/2000/svg" xmlns:xlink="http://www.w3.org/1999/xlink">
<g id="graph0" class="graph" transform="scale(1 1) rotate(0) translate(4 256)">
<title>packages_npfc</title>
<polygon fill="white" stroke="transparent" points="-4,4 -4,-256 733.5,-256 733.5,4 -4,4"/>
<!-- 1 -->
<g id="node1" class="node">
<title>1</title>
<polygon fill="none" stroke="black" points="147.5,-36 64.5,-36 64.5,0 147.5,0 147.5,-36"/>
<text text-anchor="middle" x="106" y="-14.3" font-family="Times,serif" font-size="14.00">npfc.contrib</text>
</g>
<!-- 2 -->
<g id="node2" class="node">
<title>2</title>
<polygon fill="none" stroke="black" points="300.5,-36 165.5,-36 165.5,0 300.5,0 300.5,-36"/>
<text text-anchor="middle" x="233" y="-14.3" font-family="Times,serif" font-size="14.00">npfc.contrib.np_score</text>
</g>
<!-- 3 -->
<g id="node3" class="node">
<title>3</title>
<polygon fill="none" stroke="black" points="451.5,-36 318.5,-36 318.5,0 451.5,0 451.5,-36"/>
<text text-anchor="middle" x="385" y="-14.3" font-family="Times,serif" font-size="14.00">npfc.contrib.sa_score</text>
</g>
<!-- 4 -->
<g id="node4" class="node">
<title>4</title>
<polygon fill="none" stroke="black" points="558.5,-108 487.5,-108 487.5,-72 558.5,-72 558.5,-108"/>
<text text-anchor="middle" x="523" y="-86.3" font-family="Times,serif" font-size="14.00">npfc.draw</text>
</g>
<!-- 8 -->
<g id="node8" class="node">
<title>8</title>
<polygon fill="none" stroke="black" points="679,-180 473,-180 473,-144 679,-144 679,-180"/>
<text text-anchor="middle" x="576" y="-158.3" font-family="Times,serif" font-size="14.00">npfc.fragment_combination_graph</text>
</g>
<!-- 4&#45;&gt;8 -->
<g id="edge1" class="edge">
<title>4&#45;&gt;8</title>
<path fill="none" stroke="black" d="M530.19,-108.3C535.67,-116.7 543.23,-126.93 550.68,-136.14"/>
<polygon fill="black" stroke="black" points="557.15,-143.9 547.29,-139.1 553.95,-140.06 550.75,-136.22 550.75,-136.22 550.75,-136.22 553.95,-140.06 554.21,-133.33 557.15,-143.9 557.15,-143.9"/>
</g>
<!-- 15 -->
<g id="node15" class="node">
<title>15</title>
<polygon fill="none" stroke="black" points="379,-252 311,-252 311,-216 379,-216 379,-252"/>
<text text-anchor="middle" x="345" y="-230.3" font-family="Times,serif" font-size="14.00">npfc.utils</text>
</g>
<!-- 4&#45;&gt;15 -->
<g id="edge2" class="edge">
<title>4&#45;&gt;15</title>
<path fill="none" stroke="black" d="M503.69,-108.29C478.92,-130.4 437.2,-167.34 421,-180 407.79,-190.32 392.75,-201.01 379.55,-210.07"/>
<polygon fill="black" stroke="black" points="371.18,-215.77 376.92,-206.42 375.32,-212.96 379.45,-210.14 379.45,-210.14 379.45,-210.14 375.32,-212.96 381.98,-213.86 371.18,-215.77 371.18,-215.77"/>
</g>
<!-- 5 -->
<g id="node5" class="node">
<title>5</title>
<polygon fill="none" stroke="black" points="379,-108 285,-108 285,-72 379,-72 379,-108"/>
<text text-anchor="middle" x="332" y="-86.3" font-family="Times,serif" font-size="14.00">npfc.duplicate</text>
</g>
<!-- 13 -->
<g id="node13" class="node">
<title>13</title>
<polygon fill="none" stroke="black" points="379,-180 311,-180 311,-144 379,-144 379,-180"/>
<text text-anchor="middle" x="345" y="-158.3" font-family="Times,serif" font-size="14.00">npfc.save</text>
</g>
<!-- 5&#45;&gt;13 -->
<g id="edge3" class="edge">
<title>5&#45;&gt;13</title>
<path fill="none" stroke="black" d="M335.21,-108.3C336.65,-116.02 338.37,-125.29 339.96,-133.89"/>
<polygon fill="black" stroke="black" points="341.82,-143.9 335.57,-134.89 340.91,-138.98 340,-134.06 340,-134.06 340,-134.06 340.91,-138.98 344.42,-133.24 341.82,-143.9 341.82,-143.9"/>
</g>
<!-- 6 -->
<g id="node6" class="node">
<title>6</title>
<polygon fill="none" stroke="black" points="647.5,-108 576.5,-108 576.5,-72 647.5,-72 647.5,-108"/>
<text text-anchor="middle" x="612" y="-86.3" font-family="Times,serif" font-size="14.00">npfc.filter</text>
</g>
<!-- 7 -->
<g id="node7" class="node">
<title>7</title>
<polygon fill="none" stroke="black" points="292.5,-180 123.5,-180 123.5,-144 292.5,-144 292.5,-180"/>
<text text-anchor="middle" x="208" y="-158.3" font-family="Times,serif" font-size="14.00">npfc.fragment_combination</text>
</g>
<!-- 7&#45;&gt;15 -->
<g id="edge4" class="edge">
<title>7&#45;&gt;15</title>
<path fill="none" stroke="black" d="M241.51,-180.12C259.84,-189.49 282.74,-201.19 302.33,-211.2"/>
<polygon fill="black" stroke="black" points="311.36,-215.81 300.4,-215.27 306.9,-213.54 302.45,-211.26 302.45,-211.26 302.45,-211.26 306.9,-213.54 304.5,-207.25 311.36,-215.81 311.36,-215.81"/>
</g>
<!-- 8&#45;&gt;4 -->
<g id="edge5" class="edge">
<title>8&#45;&gt;4</title>
<path fill="none" stroke="black" d="M568.94,-143.9C563.49,-135.53 555.95,-125.31 548.49,-116.08"/>
<polygon fill="black" stroke="black" points="542.02,-108.3 551.87,-113.11 545.22,-112.15 548.42,-115.99 548.42,-115.99 548.42,-115.99 545.22,-112.15 544.96,-118.87 542.02,-108.3 542.02,-108.3"/>
</g>
<!-- 9 -->
<g id="node9" class="node">
<title>9</title>
<polygon fill="none" stroke="black" points="677.5,-252 474.5,-252 474.5,-216 677.5,-216 677.5,-252"/>
<text text-anchor="middle" x="576" y="-230.3" font-family="Times,serif" font-size="14.00">npfc.fragment_combination_point</text>
</g>
<!-- 8&#45;&gt;9 -->
<g id="edge6" class="edge">
<title>8&#45;&gt;9</title>
<path fill="none" stroke="black" d="M576,-180.3C576,-188.02 576,-197.29 576,-205.89"/>
<polygon fill="black" stroke="black" points="576,-215.9 571.5,-205.9 576,-210.9 576,-205.9 576,-205.9 576,-205.9 576,-210.9 580.5,-205.9 576,-215.9 576,-215.9"/>
</g>
<!-- 8&#45;&gt;15 -->
<g id="edge7" class="edge">
<title>8&#45;&gt;15</title>
<path fill="none" stroke="black" d="M519.79,-180.03C479.62,-192.2 426.34,-208.35 389.21,-219.6"/>
<polygon fill="black" stroke="black" points="379.19,-222.64 387.45,-215.43 383.97,-221.19 388.76,-219.74 388.76,-219.74 388.76,-219.74 383.97,-221.19 390.06,-224.05 379.19,-222.64 379.19,-222.64"/>
</g>
<!-- 10 -->
<g id="node10" class="node">
<title>10</title>
<polygon fill="none" stroke="black" points="729.5,-36 594.5,-36 594.5,0 729.5,0 729.5,-36"/>
<text text-anchor="middle" x="662" y="-14.3" font-family="Times,serif" font-size="14.00">npfc.fragment_search</text>
</g>
<!-- 11 -->
<g id="node11" class="node">
<title>11</title>
<polygon fill="none" stroke="black" points="68,-180 0,-180 0,-144 68,-144 68,-180"/>
<text text-anchor="middle" x="34" y="-158.3" font-family="Times,serif" font-size="14.00">npfc.load</text>
</g>
<!-- 11&#45;&gt;15 -->
<g id="edge8" class="edge">
<title>11&#45;&gt;15</title>
<path fill="none" stroke="black" d="M68.16,-175.76C72.78,-177.29 77.48,-178.75 82,-180 157.76,-200.94 247.92,-217.3 300.58,-226.02"/>
<polygon fill="black" stroke="black" points="310.59,-227.66 299.99,-230.49 305.66,-226.86 300.72,-226.05 300.72,-226.05 300.72,-226.05 305.66,-226.86 301.45,-221.61 310.59,-227.66 310.59,-227.66"/>
</g>
<!-- 12 -->
<g id="node12" class="node">
<title>12</title>
<polygon fill="none" stroke="black" points="190.5,-108 113.5,-108 113.5,-72 190.5,-72 190.5,-108"/>
<text text-anchor="middle" x="152" y="-86.3" font-family="Times,serif" font-size="14.00">npfc.report</text>
</g>
<!-- 12&#45;&gt;7 -->
<g id="edge9" class="edge">
<title>12&#45;&gt;7</title>
<path fill="none" stroke="black" d="M165.84,-108.3C172.49,-116.61 180.58,-126.72 187.89,-135.86"/>
<polygon fill="black" stroke="black" points="194.32,-143.9 184.56,-138.9 191.19,-139.99 188.07,-136.09 188.07,-136.09 188.07,-136.09 191.19,-139.99 191.58,-133.28 194.32,-143.9 194.32,-143.9"/>
</g>
<!-- 12&#45;&gt;11 -->
<g id="edge10" class="edge">
<title>12&#45;&gt;11</title>
<path fill="none" stroke="black" d="M123.13,-108.12C107.71,-117.28 88.52,-128.66 71.9,-138.52"/>
<polygon fill="black" stroke="black" points="62.98,-143.81 69.28,-134.84 67.28,-141.26 71.58,-138.71 71.58,-138.71 71.58,-138.71 67.28,-141.26 73.87,-142.58 62.98,-143.81 62.98,-143.81"/>
</g>
<!-- 12&#45;&gt;13 -->
<g id="edge11" class="edge">
<title>12&#45;&gt;13</title>
<path fill="none" stroke="black" d="M190.69,-104.44C220.83,-114.99 263.67,-130.15 301,-144 301.1,-144.04 301.2,-144.07 301.3,-144.11"/>
<polygon fill="black" stroke="black" points="310.92,-147.73 299.98,-148.42 306.24,-145.97 301.56,-144.21 301.56,-144.21 301.56,-144.21 306.24,-145.97 303.15,-140 310.92,-147.73 310.92,-147.73"/>
</g>
<!-- 12&#45;&gt;15 -->
<g id="edge12" class="edge">
<title>12&#45;&gt;15</title>
<path fill="none" stroke="black" d="M134.77,-108.18C117.76,-127.24 96.62,-158.19 114,-180 136.9,-208.75 240.35,-223.19 300.76,-229.28"/>
<polygon fill="black" stroke="black" points="310.79,-230.26 300.4,-233.77 305.82,-229.77 300.84,-229.29 300.84,-229.29 300.84,-229.29 305.82,-229.77 301.27,-224.81 310.79,-230.26 310.79,-230.26"/>
</g>
<!-- 13&#45;&gt;15 -->
<g id="edge13" class="edge">
<title>13&#45;&gt;15</title>
<path fill="none" stroke="black" d="M345,-180.3C345,-188.02 345,-197.29 345,-205.89"/>
<polygon fill="black" stroke="black" points="345,-215.9 340.5,-205.9 345,-210.9 345,-205.9 345,-205.9 345,-205.9 345,-210.9 349.5,-205.9 345,-215.9 345,-215.9"/>
</g>
<!-- 14 -->
<g id="node14" class="node">
<title>14</title>
<polygon fill="none" stroke="black" points="576,-36 470,-36 470,0 576,0 576,-36"/>
<text text-anchor="middle" x="523" y="-14.3" font-family="Times,serif" font-size="14.00">npfc.standardize</text>
</g>
<!-- 14&#45;&gt;4 -->
<g id="edge14" class="edge">
<title>14&#45;&gt;4</title>
<path fill="none" stroke="black" d="M523,-36.3C523,-44.02 523,-53.29 523,-61.89"/>
<polygon fill="black" stroke="black" points="523,-71.9 518.5,-61.9 523,-66.9 523,-61.9 523,-61.9 523,-61.9 523,-66.9 527.5,-61.9 523,-71.9 523,-71.9"/>
</g>
<!-- 14&#45;&gt;6 -->
<g id="edge15" class="edge">
<title>14&#45;&gt;6</title>
<path fill="none" stroke="black" d="M545,-36.3C556.21,-45.12 570,-55.97 582.15,-65.53"/>
<polygon fill="black" stroke="black" points="590.25,-71.9 579.61,-69.25 586.32,-68.8 582.39,-65.71 582.39,-65.71 582.39,-65.71 586.32,-68.8 585.17,-62.18 590.25,-71.9 590.25,-71.9"/>
</g>
<!-- 14&#45;&gt;15 -->
<g id="edge16" class="edge">
<title>14&#45;&gt;15</title>
<path fill="none" stroke="black" d="M508.73,-36.15C477.42,-73.79 402.56,-163.8 365.92,-207.85"/>
<polygon fill="black" stroke="black" points="359.33,-215.77 362.27,-205.2 362.53,-211.92 365.73,-208.08 365.73,-208.08 365.73,-208.08 362.53,-211.92 369.19,-210.96 359.33,-215.77 359.33,-215.77"/>
</g>
</g>
</svg>
