<?xml version="1.0" encoding="UTF-8" standalone="no"?>
<!DOCTYPE svg PUBLIC "-//W3C//DTD SVG 1.1//EN"
 "http://www.w3.org/Graphics/SVG/1.1/DTD/svg11.dtd">
<!-- Generated by graphviz version 2.40.1 (20161225.0304)
 -->
<!-- Title: packages_npfc Pages: 1 -->
<svg width="406pt" height="188pt"
 viewBox="0.00 0.00 405.74 188.00" xmlns="http://www.w3.org/2000/svg" xmlns:xlink="http://www.w3.org/1999/xlink">
<g id="graph0" class="graph" transform="scale(1 1) rotate(0) translate(4 184)">
<title>packages_npfc</title>
<polygon fill="#ffffff" stroke="transparent" points="-4,4 -4,-184 401.7418,-184 401.7418,4 -4,4"/>
<!-- 0 -->
<g id="node1" class="node">
<title>0</title>
<polygon fill="none" stroke="#000000" points="108.7238,-180 54.7238,-180 54.7238,-144 108.7238,-144 108.7238,-180"/>
<text text-anchor="middle" x="81.7238" y="-158.3" font-family="Times,serif" font-size="14.00" fill="#000000">npfc</text>
</g>
<!-- 1 -->
<g id="node2" class="node">
<title>1</title>
<polygon fill="none" stroke="#000000" points="205.2238,-108 134.2238,-108 134.2238,-72 205.2238,-72 205.2238,-108"/>
<text text-anchor="middle" x="169.7238" y="-86.3" font-family="Times,serif" font-size="14.00" fill="#000000">npfc.draw</text>
</g>
<!-- 1&#45;&gt;0 -->
<g id="edge1" class="edge">
<title>1&#45;&gt;0</title>
<path fill="none" stroke="#000000" d="M147.5177,-108.1686C136.6788,-117.0368 123.4794,-127.8363 111.756,-137.4282"/>
<polygon fill="#000000" stroke="#000000" points="103.9228,-143.8372 108.8128,-134.0219 107.7926,-140.671 111.6624,-137.5048 111.6624,-137.5048 111.6624,-137.5048 107.7926,-140.671 114.512,-140.9876 103.9228,-143.8372 103.9228,-143.8372"/>
</g>
<!-- 7 -->
<g id="node8" class="node">
<title>7</title>
<polygon fill="none" stroke="#000000" points="247.7238,-180 179.7238,-180 179.7238,-144 247.7238,-144 247.7238,-180"/>
<text text-anchor="middle" x="213.7238" y="-158.3" font-family="Times,serif" font-size="14.00" fill="#000000">npfc.utils</text>
</g>
<!-- 1&#45;&gt;7 -->
<g id="edge2" class="edge">
<title>1&#45;&gt;7</title>
<path fill="none" stroke="#000000" d="M180.8268,-108.1686C185.7912,-116.2921 191.7459,-126.0363 197.2166,-134.9882"/>
<polygon fill="#000000" stroke="#000000" points="202.4712,-143.5867 193.4169,-137.4004 199.8639,-139.3203 197.2567,-135.0539 197.2567,-135.0539 197.2567,-135.0539 199.8639,-139.3203 201.0964,-132.7074 202.4712,-143.5867 202.4712,-143.5867"/>
</g>
<!-- 2 -->
<g id="node3" class="node">
<title>2</title>
<polygon fill="none" stroke="#000000" points="381.2238,-108 310.2238,-108 310.2238,-72 381.2238,-72 381.2238,-108"/>
<text text-anchor="middle" x="345.7238" y="-86.3" font-family="Times,serif" font-size="14.00" fill="#000000">npfc.filter</text>
</g>
<!-- 3 -->
<g id="node4" class="node">
<title>3</title>
<polygon fill="none" stroke="#000000" points="139.7238,-36 45.7238,-36 45.7238,0 139.7238,0 139.7238,-36"/>
<text text-anchor="middle" x="92.7238" y="-14.3" font-family="Times,serif" font-size="14.00" fill="#000000">npfc.fragment</text>
</g>
<!-- 3&#45;&gt;0 -->
<g id="edge3" class="edge">
<title>3&#45;&gt;0</title>
<path fill="none" stroke="#000000" d="M45.7217,-35.9106C30.1405,-44.3627 14.5385,-56.1541 5.7238,-72 -2.0542,-85.9822 -1.6153,-93.7825 5.7238,-108 14.2884,-124.5919 30.5668,-137.1957 45.8679,-146.0365"/>
<polygon fill="#000000" stroke="#000000" points="54.6983,-150.8087 43.7613,-150.0131 50.2995,-148.4314 45.9008,-146.0542 45.9008,-146.0542 45.9008,-146.0542 50.2995,-148.4314 48.0403,-142.0953 54.6983,-150.8087 54.6983,-150.8087"/>
</g>
<!-- 3&#45;&gt;1 -->
<g id="edge4" class="edge">
<title>3&#45;&gt;1</title>
<path fill="none" stroke="#000000" d="M112.1541,-36.1686C121.4557,-44.8663 132.7442,-55.4217 142.8523,-64.8735"/>
<polygon fill="#000000" stroke="#000000" points="150.2996,-71.8372 139.9219,-68.2941 146.6475,-68.4222 142.9954,-65.0072 142.9954,-65.0072 142.9954,-65.0072 146.6475,-68.4222 146.0689,-61.7203 150.2996,-71.8372 150.2996,-71.8372"/>
</g>
<!-- 4 -->
<g id="node5" class="node">
<title>4</title>
<polygon fill="none" stroke="#000000" points="115.7238,-108 47.7238,-108 47.7238,-72 115.7238,-72 115.7238,-108"/>
<text text-anchor="middle" x="81.7238" y="-86.3" font-family="Times,serif" font-size="14.00" fill="#000000">npfc.load</text>
</g>
<!-- 4&#45;&gt;0 -->
<g id="edge5" class="edge">
<title>4&#45;&gt;0</title>
<path fill="none" stroke="#000000" d="M81.7238,-108.1686C81.7238,-115.869 81.7238,-125.0257 81.7238,-133.5834"/>
<polygon fill="#000000" stroke="#000000" points="81.7238,-143.5867 77.2239,-133.5867 81.7238,-138.5867 81.7239,-133.5867 81.7239,-133.5867 81.7239,-133.5867 81.7238,-138.5867 86.2239,-133.5868 81.7238,-143.5867 81.7238,-143.5867"/>
</g>
<!-- 4&#45;&gt;7 -->
<g id="edge6" class="edge">
<title>4&#45;&gt;7</title>
<path fill="none" stroke="#000000" d="M115.0329,-108.1686C132.151,-117.5058 153.1944,-128.984 171.4459,-138.9394"/>
<polygon fill="#000000" stroke="#000000" points="180.4253,-143.8372 169.4914,-142.9991 176.0358,-141.4429 171.6463,-139.0486 171.6463,-139.0486 171.6463,-139.0486 176.0358,-141.4429 173.8011,-135.0981 180.4253,-143.8372 180.4253,-143.8372"/>
</g>
<!-- 5 -->
<g id="node6" class="node">
<title>5</title>
<polygon fill="none" stroke="#000000" points="291.7238,-108 223.7238,-108 223.7238,-72 291.7238,-72 291.7238,-108"/>
<text text-anchor="middle" x="257.7238" y="-86.3" font-family="Times,serif" font-size="14.00" fill="#000000">npfc.save</text>
</g>
<!-- 5&#45;&gt;0 -->
<g id="edge7" class="edge">
<title>5&#45;&gt;0</title>
<path fill="none" stroke="#000000" d="M223.4701,-104.3778C220.5135,-105.607 217.5669,-106.8278 214.7238,-108 182.0977,-121.4516 144.8702,-136.5447 118.1152,-147.3473"/>
<polygon fill="#000000" stroke="#000000" points="108.7598,-151.1221 116.3495,-143.2071 113.3966,-149.2512 118.0334,-147.3802 118.0334,-147.3802 118.0334,-147.3802 113.3966,-149.2512 119.7172,-151.5533 108.7598,-151.1221 108.7598,-151.1221"/>
</g>
<!-- 5&#45;&gt;7 -->
<g id="edge8" class="edge">
<title>5&#45;&gt;7</title>
<path fill="none" stroke="#000000" d="M246.6207,-108.1686C241.6563,-116.2921 235.7016,-126.0363 230.231,-134.9882"/>
<polygon fill="#000000" stroke="#000000" points="224.9763,-143.5867 226.3511,-132.7074 227.5836,-139.3203 230.1909,-135.0539 230.1909,-135.0539 230.1909,-135.0539 227.5836,-139.3203 234.0306,-137.4004 224.9763,-143.5867 224.9763,-143.5867"/>
</g>
<!-- 6 -->
<g id="node7" class="node">
<title>6</title>
<polygon fill="none" stroke="#000000" points="298.7238,-36 192.7238,-36 192.7238,0 298.7238,0 298.7238,-36"/>
<text text-anchor="middle" x="245.7238" y="-14.3" font-family="Times,serif" font-size="14.00" fill="#000000">npfc.standardize</text>
</g>
<!-- 6&#45;&gt;0 -->
<g id="edge9" class="edge">
<title>6&#45;&gt;0</title>
<path fill="none" stroke="#000000" d="M192.5409,-28.3799C134.4278,-40.2577 48.2607,-59.6561 38.7238,-72 23.5564,-91.6317 38.8311,-117.4763 55.2262,-136.432"/>
<polygon fill="#000000" stroke="#000000" points="61.9899,-143.8405 51.9242,-139.4895 58.6187,-140.1479 55.2475,-136.4554 55.2475,-136.4554 55.2475,-136.4554 58.6187,-140.1479 58.5708,-133.4213 61.9899,-143.8405 61.9899,-143.8405"/>
</g>
<!-- 6&#45;&gt;1 -->
<g id="edge10" class="edge">
<title>6&#45;&gt;1</title>
<path fill="none" stroke="#000000" d="M226.5458,-36.1686C217.3649,-44.8663 206.2231,-55.4217 196.2462,-64.8735"/>
<polygon fill="#000000" stroke="#000000" points="188.8956,-71.8372 193.0603,-61.6929 192.5254,-68.3984 196.1552,-64.9597 196.1552,-64.9597 196.1552,-64.9597 192.5254,-68.3984 199.2501,-68.2265 188.8956,-71.8372 188.8956,-71.8372"/>
</g>
<!-- 6&#45;&gt;2 -->
<g id="edge11" class="edge">
<title>6&#45;&gt;2</title>
<path fill="none" stroke="#000000" d="M270.958,-36.1686C283.5117,-45.2073 298.8521,-56.2524 312.3629,-65.9802"/>
<polygon fill="#000000" stroke="#000000" points="320.4976,-71.8372 309.7529,-69.646 316.4399,-68.9156 312.3823,-65.9941 312.3823,-65.9941 312.3823,-65.9941 316.4399,-68.9156 315.0116,-62.3422 320.4976,-71.8372 320.4976,-71.8372"/>
</g>
<!-- 6&#45;&gt;7 -->
<g id="edge12" class="edge">
<title>6&#45;&gt;7</title>
<path fill="none" stroke="#000000" d="M298.7484,-30.9489C335.4982,-41.1201 379.7275,-56.1707 390.7238,-72 399.8522,-85.1405 400.2447,-95.1411 390.7238,-108 374.8276,-129.4692 304.893,-145.8326 257.8348,-154.664"/>
<polygon fill="#000000" stroke="#000000" points="247.8759,-156.4854 256.9031,-150.2597 252.7943,-155.5858 257.7127,-154.6863 257.7127,-154.6863 257.7127,-154.6863 252.7943,-155.5858 258.5224,-159.1128 247.8759,-156.4854 247.8759,-156.4854"/>
</g>
</g>
</svg>
