<?xml version="1.0" encoding="UTF-8" standalone="no"?>
<!DOCTYPE svg PUBLIC "-//W3C//DTD SVG 1.1//EN"
 "http://www.w3.org/Graphics/SVG/1.1/DTD/svg11.dtd">
<!-- Generated by graphviz version 2.49.0 (20210829.0051)
 -->
<!-- Title: packages_npfc Pages: 1 -->
<svg width="934pt" height="260pt"
 viewBox="0.00 0.00 933.50 260.00" xmlns="http://www.w3.org/2000/svg" xmlns:xlink="http://www.w3.org/1999/xlink">
<g id="graph0" class="graph" transform="scale(1 1) rotate(0) translate(4 256)">
<title>packages_npfc</title>
<polygon fill="white" stroke="transparent" points="-4,4 -4,-256 929.5,-256 929.5,4 -4,4"/>
<!-- 1 -->
<g id="node1" class="node">
<title>1</title>
<polygon fill="none" stroke="black" points="343.5,-36 260.5,-36 260.5,0 343.5,0 343.5,-36"/>
<text text-anchor="middle" x="302" y="-14.3" font-family="Times,serif" font-size="14.00">npfc.contrib</text>
</g>
<!-- 2 -->
<g id="node2" class="node">
<title>2</title>
<polygon fill="none" stroke="black" points="496.5,-36 361.5,-36 361.5,0 496.5,0 496.5,-36"/>
<text text-anchor="middle" x="429" y="-14.3" font-family="Times,serif" font-size="14.00">npfc.contrib.np_score</text>
</g>
<!-- 3 -->
<g id="node3" class="node">
<title>3</title>
<polygon fill="none" stroke="black" points="647.5,-36 514.5,-36 514.5,0 647.5,0 647.5,-36"/>
<text text-anchor="middle" x="581" y="-14.3" font-family="Times,serif" font-size="14.00">npfc.contrib.sa_score</text>
</g>
<!-- 4 -->
<g id="node4" class="node">
<title>4</title>
<polygon fill="none" stroke="black" points="665.5,-108 558.5,-108 558.5,-72 665.5,-72 665.5,-108"/>
<text text-anchor="middle" x="612" y="-86.3" font-family="Times,serif" font-size="14.00">npfc.deduplicate</text>
</g>
<!-- 14 -->
<g id="node14" class="node">
<title>14</title>
<polygon fill="none" stroke="black" points="755,-180 687,-180 687,-144 755,-144 755,-180"/>
<text text-anchor="middle" x="721" y="-158.3" font-family="Times,serif" font-size="14.00">npfc.save</text>
</g>
<!-- 4&#45;&gt;14 -->
<g id="edge1" class="edge">
<title>4&#45;&gt;14</title>
<path fill="none" stroke="black" d="M638.66,-108.12C652.78,-117.19 670.31,-128.45 685.56,-138.24"/>
<polygon fill="black" stroke="black" points="694.23,-143.81 683.39,-142.19 690.03,-141.11 685.82,-138.41 685.82,-138.41 685.82,-138.41 690.03,-141.11 688.25,-134.62 694.23,-143.81 694.23,-143.81"/>
</g>
<!-- 5 -->
<g id="node5" class="node">
<title>5</title>
<polygon fill="none" stroke="black" points="269.5,-108 198.5,-108 198.5,-72 269.5,-72 269.5,-108"/>
<text text-anchor="middle" x="234" y="-86.3" font-family="Times,serif" font-size="14.00">npfc.draw</text>
</g>
<!-- 8 -->
<g id="node8" class="node">
<title>8</title>
<polygon fill="none" stroke="black" points="206,-180 0,-180 0,-144 206,-144 206,-180"/>
<text text-anchor="middle" x="103" y="-158.3" font-family="Times,serif" font-size="14.00">npfc.fragment_combination_graph</text>
</g>
<!-- 5&#45;&gt;8 -->
<g id="edge2" class="edge">
<title>5&#45;&gt;8</title>
<path fill="none" stroke="black" d="M198.17,-107.06C179.43,-116.49 156.68,-128.56 138.07,-138.88"/>
<polygon fill="black" stroke="black" points="129.3,-143.79 135.82,-134.98 133.66,-141.35 138.02,-138.91 138.02,-138.91 138.02,-138.91 133.66,-141.35 140.22,-142.83 129.3,-143.79 129.3,-143.79"/>
</g>
<!-- 12 -->
<g id="node12" class="node">
<title>12</title>
<polygon fill="none" stroke="black" points="357.5,-180 262.5,-180 262.5,-144 357.5,-144 357.5,-180"/>
<text text-anchor="middle" x="310" y="-158.3" font-family="Times,serif" font-size="14.00">npfc.notebook</text>
</g>
<!-- 5&#45;&gt;12 -->
<g id="edge3" class="edge">
<title>5&#45;&gt;12</title>
<path fill="none" stroke="black" d="M252.79,-108.3C262.17,-116.95 273.68,-127.55 283.91,-136.97"/>
<polygon fill="black" stroke="black" points="291.43,-143.9 281.03,-140.43 287.75,-140.51 284.07,-137.12 284.07,-137.12 284.07,-137.12 287.75,-140.51 287.12,-133.81 291.43,-143.9 291.43,-143.9"/>
</g>
<!-- 16 -->
<g id="node16" class="node">
<title>16</title>
<polygon fill="none" stroke="black" points="532,-252 464,-252 464,-216 532,-216 532,-252"/>
<text text-anchor="middle" x="498" y="-230.3" font-family="Times,serif" font-size="14.00">npfc.utils</text>
</g>
<!-- 5&#45;&gt;16 -->
<g id="edge4" class="edge">
<title>5&#45;&gt;16</title>
<path fill="none" stroke="black" d="M232.56,-108.3C231.9,-128.36 234.15,-161.09 253,-180 280.73,-207.8 391.1,-222.74 453.83,-229.14"/>
<polygon fill="black" stroke="black" points="463.84,-230.13 453.45,-233.63 458.86,-229.64 453.89,-229.15 453.89,-229.15 453.89,-229.15 458.86,-229.64 454.33,-224.67 463.84,-230.13 463.84,-230.13"/>
</g>
<!-- 6 -->
<g id="node6" class="node">
<title>6</title>
<polygon fill="none" stroke="black" points="754.5,-108 683.5,-108 683.5,-72 754.5,-72 754.5,-108"/>
<text text-anchor="middle" x="719" y="-86.3" font-family="Times,serif" font-size="14.00">npfc.filter</text>
</g>
<!-- 7 -->
<g id="node7" class="node">
<title>7</title>
<polygon fill="none" stroke="black" points="582.5,-180 413.5,-180 413.5,-144 582.5,-144 582.5,-180"/>
<text text-anchor="middle" x="498" y="-158.3" font-family="Times,serif" font-size="14.00">npfc.fragment_combination</text>
</g>
<!-- 7&#45;&gt;16 -->
<g id="edge5" class="edge">
<title>7&#45;&gt;16</title>
<path fill="none" stroke="black" d="M498,-180.3C498,-188.02 498,-197.29 498,-205.89"/>
<polygon fill="black" stroke="black" points="498,-215.9 493.5,-205.9 498,-210.9 498,-205.9 498,-205.9 498,-205.9 498,-210.9 502.5,-205.9 498,-215.9 498,-215.9"/>
</g>
<!-- 8&#45;&gt;5 -->
<g id="edge6" class="edge">
<title>8&#45;&gt;5</title>
<path fill="none" stroke="black" d="M141.07,-143.81C159.34,-134.56 181.02,-123.05 198.89,-113.14"/>
<polygon fill="black" stroke="black" points="207.85,-108.12 201.32,-116.94 203.49,-110.57 199.13,-113.01 199.13,-113.01 199.13,-113.01 203.49,-110.57 196.93,-109.08 207.85,-108.12 207.85,-108.12"/>
</g>
<!-- 9 -->
<g id="node9" class="node">
<title>9</title>
<polygon fill="none" stroke="black" points="204.5,-252 1.5,-252 1.5,-216 204.5,-216 204.5,-252"/>
<text text-anchor="middle" x="103" y="-230.3" font-family="Times,serif" font-size="14.00">npfc.fragment_combination_point</text>
</g>
<!-- 8&#45;&gt;9 -->
<g id="edge7" class="edge">
<title>8&#45;&gt;9</title>
<path fill="none" stroke="black" d="M103,-180.3C103,-188.02 103,-197.29 103,-205.89"/>
<polygon fill="black" stroke="black" points="103,-215.9 98.5,-205.9 103,-210.9 103,-205.9 103,-205.9 103,-205.9 103,-210.9 107.5,-205.9 103,-215.9 103,-215.9"/>
</g>
<!-- 8&#45;&gt;16 -->
<g id="edge8" class="edge">
<title>8&#45;&gt;16</title>
<path fill="none" stroke="black" d="M199.12,-180.03C280.08,-194.38 392.2,-214.25 453.53,-225.12"/>
<polygon fill="black" stroke="black" points="463.65,-226.91 453.02,-229.6 458.73,-226.04 453.8,-225.17 453.8,-225.17 453.8,-225.17 458.73,-226.04 454.59,-220.74 463.65,-226.91 463.65,-226.91"/>
</g>
<!-- 10 -->
<g id="node10" class="node">
<title>10</title>
<polygon fill="none" stroke="black" points="925.5,-36 790.5,-36 790.5,0 925.5,0 925.5,-36"/>
<text text-anchor="middle" x="858" y="-14.3" font-family="Times,serif" font-size="14.00">npfc.fragment_search</text>
</g>
<!-- 11 -->
<g id="node11" class="node">
<title>11</title>
<polygon fill="none" stroke="black" points="669,-180 601,-180 601,-144 669,-144 669,-180"/>
<text text-anchor="middle" x="635" y="-158.3" font-family="Times,serif" font-size="14.00">npfc.load</text>
</g>
<!-- 11&#45;&gt;16 -->
<g id="edge9" class="edge">
<title>11&#45;&gt;16</title>
<path fill="none" stroke="black" d="M601.49,-180.12C583.16,-189.49 560.26,-201.19 540.67,-211.2"/>
<polygon fill="black" stroke="black" points="531.64,-215.81 538.5,-207.25 536.1,-213.54 540.55,-211.26 540.55,-211.26 540.55,-211.26 536.1,-213.54 542.6,-215.27 531.64,-215.81 531.64,-215.81"/>
</g>
<!-- 13 -->
<g id="node13" class="node">
<title>13</title>
<polygon fill="none" stroke="black" points="538.5,-108 461.5,-108 461.5,-72 538.5,-72 538.5,-108"/>
<text text-anchor="middle" x="500" y="-86.3" font-family="Times,serif" font-size="14.00">npfc.report</text>
</g>
<!-- 13&#45;&gt;7 -->
<g id="edge10" class="edge">
<title>13&#45;&gt;7</title>
<path fill="none" stroke="black" d="M499.51,-108.3C499.29,-116.02 499.02,-125.29 498.77,-133.89"/>
<polygon fill="black" stroke="black" points="498.49,-143.9 494.28,-133.77 498.63,-138.9 498.77,-133.9 498.77,-133.9 498.77,-133.9 498.63,-138.9 503.27,-134.03 498.49,-143.9 498.49,-143.9"/>
</g>
<!-- 13&#45;&gt;11 -->
<g id="edge11" class="edge">
<title>13&#45;&gt;11</title>
<path fill="none" stroke="black" d="M533.02,-108.12C551.08,-117.49 573.65,-129.19 592.95,-139.2"/>
<polygon fill="black" stroke="black" points="601.85,-143.81 590.9,-143.2 597.41,-141.51 592.97,-139.21 592.97,-139.21 592.97,-139.21 597.41,-141.51 595.04,-135.21 601.85,-143.81 601.85,-143.81"/>
</g>
<!-- 13&#45;&gt;14 -->
<g id="edge12" class="edge">
<title>13&#45;&gt;14</title>
<path fill="none" stroke="black" d="M538.69,-104.38C542.51,-105.63 546.32,-106.86 550,-108 603.57,-124.63 620.32,-125.11 677.34,-143.95"/>
<polygon fill="black" stroke="black" points="686.85,-147.13 675.94,-148.22 682.11,-145.54 677.37,-143.96 677.37,-143.96 677.37,-143.96 682.11,-145.54 678.8,-139.69 686.85,-147.13 686.85,-147.13"/>
</g>
<!-- 13&#45;&gt;16 -->
<g id="edge13" class="edge">
<title>13&#45;&gt;16</title>
<path fill="none" stroke="black" d="M461.2,-102.05C440.62,-110.11 417.15,-123.32 405,-144 396.9,-157.8 396.96,-166.17 405,-180 415.78,-198.56 435.76,-211.16 454.45,-219.4"/>
<polygon fill="black" stroke="black" points="463.76,-223.21 452.8,-223.58 459.13,-221.31 454.5,-219.42 454.5,-219.42 454.5,-219.42 459.13,-221.31 456.21,-215.26 463.76,-223.21 463.76,-223.21"/>
</g>
<!-- 14&#45;&gt;16 -->
<g id="edge14" class="edge">
<title>14&#45;&gt;16</title>
<path fill="none" stroke="black" d="M686.84,-176.83C683.86,-177.93 680.88,-179.01 678,-180 632.1,-195.79 578.66,-211.16 542,-221.24"/>
<polygon fill="black" stroke="black" points="532.13,-223.94 540.59,-216.96 536.95,-222.62 541.77,-221.3 541.77,-221.3 541.77,-221.3 536.95,-222.62 542.96,-225.64 532.13,-223.94 532.13,-223.94"/>
</g>
<!-- 15 -->
<g id="node15" class="node">
<title>15</title>
<polygon fill="none" stroke="black" points="772,-36 666,-36 666,0 772,0 772,-36"/>
<text text-anchor="middle" x="719" y="-14.3" font-family="Times,serif" font-size="14.00">npfc.standardize</text>
</g>
<!-- 15&#45;&gt;5 -->
<g id="edge15" class="edge">
<title>15&#45;&gt;5</title>
<path fill="none" stroke="black" d="M665.68,-34.14C662.75,-34.81 659.85,-35.43 657,-36 521.01,-63.02 357.53,-78.88 279.62,-85.44"/>
<polygon fill="black" stroke="black" points="269.65,-86.27 279.24,-80.95 274.63,-85.85 279.61,-85.44 279.61,-85.44 279.61,-85.44 274.63,-85.85 279.99,-89.92 269.65,-86.27 269.65,-86.27"/>
</g>
<!-- 15&#45;&gt;6 -->
<g id="edge16" class="edge">
<title>15&#45;&gt;6</title>
<path fill="none" stroke="black" d="M719,-36.3C719,-44.02 719,-53.29 719,-61.89"/>
<polygon fill="black" stroke="black" points="719,-71.9 714.5,-61.9 719,-66.9 719,-61.9 719,-61.9 719,-61.9 719,-66.9 723.5,-61.9 719,-71.9 719,-71.9"/>
</g>
<!-- 15&#45;&gt;16 -->
<g id="edge17" class="edge">
<title>15&#45;&gt;16</title>
<path fill="none" stroke="black" d="M739.38,-36.47C748.81,-45.91 759.01,-58.4 764,-72 780.55,-117.06 794.44,-142.89 764,-180 736.44,-213.59 610.41,-226.29 542.18,-230.77"/>
<polygon fill="black" stroke="black" points="532.15,-231.39 541.85,-226.28 537.14,-231.08 542.13,-230.77 542.13,-230.77 542.13,-230.77 537.14,-231.08 542.41,-235.26 532.15,-231.39 532.15,-231.39"/>
</g>
</g>
</svg>
