<?xml version="1.0" encoding="UTF-8" standalone="no"?>
<!DOCTYPE svg PUBLIC "-//W3C//DTD SVG 1.1//EN"
 "http://www.w3.org/Graphics/SVG/1.1/DTD/svg11.dtd">
<!-- Generated by graphviz version 2.40.1 (20161225.0304)
 -->
<!-- Title: packages_npfc Pages: 1 -->
<svg width="711pt" height="188pt"
 viewBox="0.00 0.00 711.00 188.00" xmlns="http://www.w3.org/2000/svg" xmlns:xlink="http://www.w3.org/1999/xlink">
<g id="graph0" class="graph" transform="scale(1 1) rotate(0) translate(4 184)">
<title>packages_npfc</title>
<polygon fill="#ffffff" stroke="transparent" points="-4,4 -4,-184 707,-184 707,4 -4,4"/>
<!-- 1 -->
<g id="node1" class="node">
<title>1</title>
<polygon fill="none" stroke="#000000" points="94,-36 0,-36 0,0 94,0 94,-36"/>
<text text-anchor="middle" x="47" y="-14.3" font-family="Times,serif" font-size="14.00" fill="#000000">npfc.duplicate</text>
</g>
<!-- 7 -->
<g id="node7" class="node">
<title>7</title>
<polygon fill="none" stroke="#000000" points="81,-108 13,-108 13,-72 81,-72 81,-108"/>
<text text-anchor="middle" x="47" y="-86.3" font-family="Times,serif" font-size="14.00" fill="#000000">npfc.save</text>
</g>
<!-- 1&#45;&gt;7 -->
<g id="edge1" class="edge">
<title>1&#45;&gt;7</title>
<path fill="none" stroke="#000000" d="M47,-36.1686C47,-43.869 47,-53.0257 47,-61.5834"/>
<polygon fill="#000000" stroke="#000000" points="47,-71.5867 42.5001,-61.5867 47,-66.5867 47.0001,-61.5867 47.0001,-61.5867 47.0001,-61.5867 47,-66.5867 51.5001,-61.5868 47,-71.5867 47,-71.5867"/>
</g>
<!-- 2 -->
<g id="node2" class="node">
<title>2</title>
<polygon fill="none" stroke="#000000" points="685.5,-180 614.5,-180 614.5,-144 685.5,-144 685.5,-180"/>
<text text-anchor="middle" x="650" y="-158.3" font-family="Times,serif" font-size="14.00" fill="#000000">npfc.filter</text>
</g>
<!-- 3 -->
<g id="node3" class="node">
<title>3</title>
<polygon fill="none" stroke="#000000" points="268.5,-108 99.5,-108 99.5,-72 268.5,-72 268.5,-108"/>
<text text-anchor="middle" x="184" y="-86.3" font-family="Times,serif" font-size="14.00" fill="#000000">npfc.fragment_combination</text>
</g>
<!-- 9 -->
<g id="node9" class="node">
<title>9</title>
<polygon fill="none" stroke="#000000" points="424,-180 356,-180 356,-144 424,-144 424,-180"/>
<text text-anchor="middle" x="390" y="-158.3" font-family="Times,serif" font-size="14.00" fill="#000000">npfc.utils</text>
</g>
<!-- 3&#45;&gt;9 -->
<g id="edge2" class="edge">
<title>3&#45;&gt;9</title>
<path fill="none" stroke="#000000" d="M235.7166,-108.0757C269.7393,-119.9671 313.7848,-135.3617 346.0999,-146.6563"/>
<polygon fill="#000000" stroke="#000000" points="355.7281,-150.0215 344.8033,-150.97 351.0081,-148.3717 346.2881,-146.722 346.2881,-146.722 346.2881,-146.722 351.0081,-148.3717 347.7728,-142.474 355.7281,-150.0215 355.7281,-150.0215"/>
</g>
<!-- 4 -->
<g id="node4" class="node">
<title>4</title>
<polygon fill="none" stroke="#000000" points="493,-108 287,-108 287,-72 493,-72 493,-108"/>
<text text-anchor="middle" x="390" y="-86.3" font-family="Times,serif" font-size="14.00" fill="#000000">npfc.fragment_combination_graph</text>
</g>
<!-- 4&#45;&gt;9 -->
<g id="edge3" class="edge">
<title>4&#45;&gt;9</title>
<path fill="none" stroke="#000000" d="M390,-108.1686C390,-115.869 390,-125.0257 390,-133.5834"/>
<polygon fill="#000000" stroke="#000000" points="390,-143.5867 385.5001,-133.5867 390,-138.5867 390.0001,-133.5867 390.0001,-133.5867 390.0001,-133.5867 390,-138.5867 394.5001,-133.5868 390,-143.5867 390,-143.5867"/>
</g>
<!-- 5 -->
<g id="node5" class="node">
<title>5</title>
<polygon fill="none" stroke="#000000" points="247.5,-36 112.5,-36 112.5,0 247.5,0 247.5,-36"/>
<text text-anchor="middle" x="180" y="-14.3" font-family="Times,serif" font-size="14.00" fill="#000000">npfc.fragment_search</text>
</g>
<!-- 6 -->
<g id="node6" class="node">
<title>6</title>
<polygon fill="none" stroke="#000000" points="579,-108 511,-108 511,-72 579,-72 579,-108"/>
<text text-anchor="middle" x="545" y="-86.3" font-family="Times,serif" font-size="14.00" fill="#000000">npfc.load</text>
</g>
<!-- 6&#45;&gt;9 -->
<g id="edge4" class="edge">
<title>6&#45;&gt;9</title>
<path fill="none" stroke="#000000" d="M510.9846,-105.8007C488.1479,-116.4087 457.8632,-130.4765 433.307,-141.8832"/>
<polygon fill="#000000" stroke="#000000" points="424.2035,-146.1119 431.377,-137.8178 428.7382,-144.0055 433.2728,-141.899 433.2728,-141.899 433.2728,-141.899 428.7382,-144.0055 435.1686,-145.9802 424.2035,-146.1119 424.2035,-146.1119"/>
</g>
<!-- 7&#45;&gt;9 -->
<g id="edge5" class="edge">
<title>7&#45;&gt;9</title>
<path fill="none" stroke="#000000" d="M81.0228,-105.0323C84.0295,-106.1194 87.0507,-107.1287 90,-108 178.8121,-134.2386 286.3853,-149.8377 345.572,-157.0827"/>
<polygon fill="#000000" stroke="#000000" points="355.6951,-158.2978 345.2301,-161.5738 350.7308,-157.7019 345.7664,-157.1059 345.7664,-157.1059 345.7664,-157.1059 350.7308,-157.7019 346.3028,-152.638 355.6951,-158.2978 355.6951,-158.2978"/>
</g>
<!-- 8 -->
<g id="node8" class="node">
<title>8</title>
<polygon fill="none" stroke="#000000" points="703,-108 597,-108 597,-72 703,-72 703,-108"/>
<text text-anchor="middle" x="650" y="-86.3" font-family="Times,serif" font-size="14.00" fill="#000000">npfc.standardize</text>
</g>
<!-- 8&#45;&gt;2 -->
<g id="edge6" class="edge">
<title>8&#45;&gt;2</title>
<path fill="none" stroke="#000000" d="M650,-108.1686C650,-115.869 650,-125.0257 650,-133.5834"/>
<polygon fill="#000000" stroke="#000000" points="650,-143.5867 645.5001,-133.5867 650,-138.5867 650.0001,-133.5867 650.0001,-133.5867 650.0001,-133.5867 650,-138.5867 654.5001,-133.5868 650,-143.5867 650,-143.5867"/>
</g>
<!-- 8&#45;&gt;9 -->
<g id="edge7" class="edge">
<title>8&#45;&gt;9</title>
<path fill="none" stroke="#000000" d="M596.9164,-105.473C593.9013,-106.3327 590.913,-107.18 588,-108 535.0399,-122.9085 473.9312,-139.4786 433.7723,-150.2817"/>
<polygon fill="#000000" stroke="#000000" points="424.0315,-152.8995 432.5209,-145.9583 428.8602,-151.6018 433.6888,-150.3041 433.6888,-150.3041 433.6888,-150.3041 428.8602,-151.6018 434.8568,-154.6499 424.0315,-152.8995 424.0315,-152.8995"/>
</g>
</g>
</svg>
