<?xml version="1.0" encoding="UTF-8" standalone="no"?>
<!DOCTYPE svg PUBLIC "-//W3C//DTD SVG 1.1//EN"
 "http://www.w3.org/Graphics/SVG/1.1/DTD/svg11.dtd">
<!-- Generated by graphviz version 2.40.1 (20161225.0304)
 -->
<!-- Title: packages_npfc Pages: 1 -->
<svg width="717pt" height="188pt"
 viewBox="0.00 0.00 716.50 188.00" xmlns="http://www.w3.org/2000/svg" xmlns:xlink="http://www.w3.org/1999/xlink">
<g id="graph0" class="graph" transform="scale(1 1) rotate(0) translate(4 184)">
<title>packages_npfc</title>
<polygon fill="#ffffff" stroke="transparent" points="-4,4 -4,-184 712.5,-184 712.5,4 -4,4"/>
<!-- 1 -->
<g id="node1" class="node">
<title>1</title>
<polygon fill="none" stroke="#000000" points="243.5,-108 172.5,-108 172.5,-72 243.5,-72 243.5,-108"/>
<text text-anchor="middle" x="208" y="-86.3" font-family="Times,serif" font-size="14.00" fill="#000000">npfc.draw</text>
</g>
<!-- 11 -->
<g id="node11" class="node">
<title>11</title>
<polygon fill="none" stroke="#000000" points="198,-180 130,-180 130,-144 198,-144 198,-180"/>
<text text-anchor="middle" x="164" y="-158.3" font-family="Times,serif" font-size="14.00" fill="#000000">npfc.utils</text>
</g>
<!-- 1&#45;&gt;11 -->
<g id="edge1" class="edge">
<title>1&#45;&gt;11</title>
<path fill="none" stroke="#000000" d="M196.8969,-108.1686C191.9326,-116.2921 185.9778,-126.0363 180.5072,-134.9882"/>
<polygon fill="#000000" stroke="#000000" points="175.2526,-143.5867 176.6273,-132.7074 177.8598,-139.3203 180.4671,-135.0539 180.4671,-135.0539 180.4671,-135.0539 177.8598,-139.3203 184.3069,-137.4004 175.2526,-143.5867 175.2526,-143.5867"/>
</g>
<!-- 2 -->
<g id="node2" class="node">
<title>2</title>
<polygon fill="none" stroke="#000000" points="133,-36 39,-36 39,0 133,0 133,-36"/>
<text text-anchor="middle" x="86" y="-14.3" font-family="Times,serif" font-size="14.00" fill="#000000">npfc.duplicate</text>
</g>
<!-- 9 -->
<g id="node9" class="node">
<title>9</title>
<polygon fill="none" stroke="#000000" points="154,-108 86,-108 86,-72 154,-72 154,-108"/>
<text text-anchor="middle" x="120" y="-86.3" font-family="Times,serif" font-size="14.00" fill="#000000">npfc.save</text>
</g>
<!-- 2&#45;&gt;9 -->
<g id="edge2" class="edge">
<title>2&#45;&gt;9</title>
<path fill="none" stroke="#000000" d="M94.5796,-36.1686C98.3358,-44.1229 102.8257,-53.631 106.9798,-62.4277"/>
<polygon fill="#000000" stroke="#000000" points="111.3048,-71.5867 102.9656,-64.4658 109.1698,-67.0655 107.0347,-62.5442 107.0347,-62.5442 107.0347,-62.5442 109.1698,-67.0655 111.1038,-60.6227 111.3048,-71.5867 111.3048,-71.5867"/>
</g>
<!-- 3 -->
<g id="node3" class="node">
<title>3</title>
<polygon fill="none" stroke="#000000" points="350.5,-180 279.5,-180 279.5,-144 350.5,-144 350.5,-180"/>
<text text-anchor="middle" x="315" y="-158.3" font-family="Times,serif" font-size="14.00" fill="#000000">npfc.filter</text>
</g>
<!-- 4 -->
<g id="node4" class="node">
<title>4</title>
<polygon fill="none" stroke="#000000" points="521,-36 427,-36 427,0 521,0 521,-36"/>
<text text-anchor="middle" x="474" y="-14.3" font-family="Times,serif" font-size="14.00" fill="#000000">npfc.fragment</text>
</g>
<!-- 5 -->
<g id="node5" class="node">
<title>5</title>
<polygon fill="none" stroke="#000000" points="265,-36 151,-36 151,0 265,0 265,-36"/>
<text text-anchor="middle" x="208" y="-14.3" font-family="Times,serif" font-size="14.00" fill="#000000">npfc.fragment_bk</text>
</g>
<!-- 5&#45;&gt;1 -->
<g id="edge3" class="edge">
<title>5&#45;&gt;1</title>
<path fill="none" stroke="#000000" d="M208,-36.1686C208,-43.869 208,-53.0257 208,-61.5834"/>
<polygon fill="#000000" stroke="#000000" points="208,-71.5867 203.5001,-61.5867 208,-66.5867 208.0001,-61.5867 208.0001,-61.5867 208.0001,-61.5867 208,-66.5867 212.5001,-61.5868 208,-71.5867 208,-71.5867"/>
</g>
<!-- 6 -->
<g id="node6" class="node">
<title>6</title>
<polygon fill="none" stroke="#000000" points="708.5,-36 539.5,-36 539.5,0 708.5,0 708.5,-36"/>
<text text-anchor="middle" x="624" y="-14.3" font-family="Times,serif" font-size="14.00" fill="#000000">npfc.fragment_combination</text>
</g>
<!-- 7 -->
<g id="node7" class="node">
<title>7</title>
<polygon fill="none" stroke="#000000" points="408.5,-36 283.5,-36 283.5,0 408.5,0 408.5,-36"/>
<text text-anchor="middle" x="346" y="-14.3" font-family="Times,serif" font-size="14.00" fill="#000000">npfc.fragment_map</text>
</g>
<!-- 7&#45;&gt;1 -->
<g id="edge4" class="edge">
<title>7&#45;&gt;1</title>
<path fill="none" stroke="#000000" d="M311.1768,-36.1686C293.1989,-45.5484 271.0797,-57.0888 251.9384,-67.0756"/>
<polygon fill="#000000" stroke="#000000" points="242.8121,-71.8372 249.5964,-63.2218 247.245,-69.5243 251.6779,-67.2115 251.6779,-67.2115 251.6779,-67.2115 247.245,-69.5243 253.7595,-71.2011 242.8121,-71.8372 242.8121,-71.8372"/>
</g>
<!-- 8 -->
<g id="node8" class="node">
<title>8</title>
<polygon fill="none" stroke="#000000" points="68,-108 0,-108 0,-72 68,-72 68,-108"/>
<text text-anchor="middle" x="34" y="-86.3" font-family="Times,serif" font-size="14.00" fill="#000000">npfc.load</text>
</g>
<!-- 8&#45;&gt;11 -->
<g id="edge5" class="edge">
<title>8&#45;&gt;11</title>
<path fill="none" stroke="#000000" d="M66.8045,-108.1686C83.5862,-117.4632 104.1985,-128.8792 122.1163,-138.8029"/>
<polygon fill="#000000" stroke="#000000" points="131.206,-143.8372 120.2778,-142.9287 126.832,-141.4146 122.4581,-138.9921 122.4581,-138.9921 122.4581,-138.9921 126.832,-141.4146 124.6384,-135.0556 131.206,-143.8372 131.206,-143.8372"/>
</g>
<!-- 9&#45;&gt;11 -->
<g id="edge6" class="edge">
<title>9&#45;&gt;11</title>
<path fill="none" stroke="#000000" d="M131.1031,-108.1686C136.0674,-116.2921 142.0222,-126.0363 147.4928,-134.9882"/>
<polygon fill="#000000" stroke="#000000" points="152.7474,-143.5867 143.6931,-137.4004 150.1402,-139.3203 147.5329,-135.0539 147.5329,-135.0539 147.5329,-135.0539 150.1402,-139.3203 151.3727,-132.7074 152.7474,-143.5867 152.7474,-143.5867"/>
</g>
<!-- 10 -->
<g id="node10" class="node">
<title>10</title>
<polygon fill="none" stroke="#000000" points="368,-108 262,-108 262,-72 368,-72 368,-108"/>
<text text-anchor="middle" x="315" y="-86.3" font-family="Times,serif" font-size="14.00" fill="#000000">npfc.standardize</text>
</g>
<!-- 10&#45;&gt;3 -->
<g id="edge7" class="edge">
<title>10&#45;&gt;3</title>
<path fill="none" stroke="#000000" d="M315,-108.1686C315,-115.869 315,-125.0257 315,-133.5834"/>
<polygon fill="#000000" stroke="#000000" points="315,-143.5867 310.5001,-133.5867 315,-138.5867 315.0001,-133.5867 315.0001,-133.5867 315.0001,-133.5867 315,-138.5867 319.5001,-133.5868 315,-143.5867 315,-143.5867"/>
</g>
<!-- 10&#45;&gt;11 -->
<g id="edge8" class="edge">
<title>10&#45;&gt;11</title>
<path fill="none" stroke="#000000" d="M276.8963,-108.1686C255.7205,-118.2657 229.2937,-130.8666 207.333,-141.3379"/>
<polygon fill="#000000" stroke="#000000" points="198.223,-145.6818 205.3125,-137.3159 202.7362,-143.5298 207.2494,-141.3777 207.2494,-141.3777 207.2494,-141.3777 202.7362,-143.5298 209.1862,-145.4396 198.223,-145.6818 198.223,-145.6818"/>
</g>
</g>
</svg>
