<?xml version="1.0" encoding="UTF-8" standalone="no"?>
<!DOCTYPE svg PUBLIC "-//W3C//DTD SVG 1.1//EN"
 "http://www.w3.org/Graphics/SVG/1.1/DTD/svg11.dtd">
<!-- Generated by graphviz version 2.40.1 (20161225.0304)
 -->
<!-- Title: packages_npfc Pages: 1 -->
<svg width="389pt" height="188pt"
 viewBox="0.00 0.00 389.00 188.00" xmlns="http://www.w3.org/2000/svg" xmlns:xlink="http://www.w3.org/1999/xlink">
<g id="graph0" class="graph" transform="scale(1 1) rotate(0) translate(4 184)">
<title>packages_npfc</title>
<polygon fill="#ffffff" stroke="transparent" points="-4,4 -4,-184 385,-184 385,4 -4,4"/>
<!-- 1 -->
<g id="node1" class="node">
<title>1</title>
<polygon fill="none" stroke="#000000" points="256.5,-108 185.5,-108 185.5,-72 256.5,-72 256.5,-108"/>
<text text-anchor="middle" x="221" y="-86.3" font-family="Times,serif" font-size="14.00" fill="#000000">npfc.draw</text>
</g>
<!-- 8 -->
<g id="node8" class="node">
<title>8</title>
<polygon fill="none" stroke="#000000" points="211,-180 143,-180 143,-144 211,-144 211,-180"/>
<text text-anchor="middle" x="177" y="-158.3" font-family="Times,serif" font-size="14.00" fill="#000000">npfc.utils</text>
</g>
<!-- 1&#45;&gt;8 -->
<g id="edge1" class="edge">
<title>1&#45;&gt;8</title>
<path fill="none" stroke="#000000" d="M209.8969,-108.1686C204.9326,-116.2921 198.9778,-126.0363 193.5072,-134.9882"/>
<polygon fill="#000000" stroke="#000000" points="188.2526,-143.5867 189.6273,-132.7074 190.8598,-139.3203 193.4671,-135.0539 193.4671,-135.0539 193.4671,-135.0539 190.8598,-139.3203 197.3069,-137.4004 188.2526,-143.5867 188.2526,-143.5867"/>
</g>
<!-- 2 -->
<g id="node2" class="node">
<title>2</title>
<polygon fill="none" stroke="#000000" points="94,-36 0,-36 0,0 94,0 94,-36"/>
<text text-anchor="middle" x="47" y="-14.3" font-family="Times,serif" font-size="14.00" fill="#000000">npfc.duplicate</text>
</g>
<!-- 5 -->
<g id="node5" class="node">
<title>5</title>
<polygon fill="none" stroke="#000000" points="81,-108 13,-108 13,-72 81,-72 81,-108"/>
<text text-anchor="middle" x="47" y="-86.3" font-family="Times,serif" font-size="14.00" fill="#000000">npfc.load</text>
</g>
<!-- 2&#45;&gt;5 -->
<g id="edge2" class="edge">
<title>2&#45;&gt;5</title>
<path fill="none" stroke="#000000" d="M47,-36.1686C47,-43.869 47,-53.0257 47,-61.5834"/>
<polygon fill="#000000" stroke="#000000" points="47,-71.5867 42.5001,-61.5867 47,-66.5867 47.0001,-61.5867 47.0001,-61.5867 47.0001,-61.5867 47,-66.5867 51.5001,-61.5868 47,-71.5867 47,-71.5867"/>
</g>
<!-- 3 -->
<g id="node3" class="node">
<title>3</title>
<polygon fill="none" stroke="#000000" points="363.5,-180 292.5,-180 292.5,-144 363.5,-144 363.5,-180"/>
<text text-anchor="middle" x="328" y="-158.3" font-family="Times,serif" font-size="14.00" fill="#000000">npfc.filter</text>
</g>
<!-- 4 -->
<g id="node4" class="node">
<title>4</title>
<polygon fill="none" stroke="#000000" points="268,-36 174,-36 174,0 268,0 268,-36"/>
<text text-anchor="middle" x="221" y="-14.3" font-family="Times,serif" font-size="14.00" fill="#000000">npfc.fragment</text>
</g>
<!-- 4&#45;&gt;1 -->
<g id="edge3" class="edge">
<title>4&#45;&gt;1</title>
<path fill="none" stroke="#000000" d="M221,-36.1686C221,-43.869 221,-53.0257 221,-61.5834"/>
<polygon fill="#000000" stroke="#000000" points="221,-71.5867 216.5001,-61.5867 221,-66.5867 221.0001,-61.5867 221.0001,-61.5867 221.0001,-61.5867 221,-66.5867 225.5001,-61.5868 221,-71.5867 221,-71.5867"/>
</g>
<!-- 5&#45;&gt;8 -->
<g id="edge4" class="edge">
<title>5&#45;&gt;8</title>
<path fill="none" stroke="#000000" d="M79.8045,-108.1686C96.5862,-117.4632 117.1985,-128.8792 135.1163,-138.8029"/>
<polygon fill="#000000" stroke="#000000" points="144.206,-143.8372 133.2778,-142.9287 139.832,-141.4146 135.4581,-138.9921 135.4581,-138.9921 135.4581,-138.9921 139.832,-141.4146 137.6384,-135.0556 144.206,-143.8372 144.206,-143.8372"/>
</g>
<!-- 6 -->
<g id="node6" class="node">
<title>6</title>
<polygon fill="none" stroke="#000000" points="167,-108 99,-108 99,-72 167,-72 167,-108"/>
<text text-anchor="middle" x="133" y="-86.3" font-family="Times,serif" font-size="14.00" fill="#000000">npfc.save</text>
</g>
<!-- 6&#45;&gt;8 -->
<g id="edge5" class="edge">
<title>6&#45;&gt;8</title>
<path fill="none" stroke="#000000" d="M144.1031,-108.1686C149.0674,-116.2921 155.0222,-126.0363 160.4928,-134.9882"/>
<polygon fill="#000000" stroke="#000000" points="165.7474,-143.5867 156.6931,-137.4004 163.1402,-139.3203 160.5329,-135.0539 160.5329,-135.0539 160.5329,-135.0539 163.1402,-139.3203 164.3727,-132.7074 165.7474,-143.5867 165.7474,-143.5867"/>
</g>
<!-- 7 -->
<g id="node7" class="node">
<title>7</title>
<polygon fill="none" stroke="#000000" points="381,-108 275,-108 275,-72 381,-72 381,-108"/>
<text text-anchor="middle" x="328" y="-86.3" font-family="Times,serif" font-size="14.00" fill="#000000">npfc.standardize</text>
</g>
<!-- 7&#45;&gt;3 -->
<g id="edge6" class="edge">
<title>7&#45;&gt;3</title>
<path fill="none" stroke="#000000" d="M328,-108.1686C328,-115.869 328,-125.0257 328,-133.5834"/>
<polygon fill="#000000" stroke="#000000" points="328,-143.5867 323.5001,-133.5867 328,-138.5867 328.0001,-133.5867 328.0001,-133.5867 328.0001,-133.5867 328,-138.5867 332.5001,-133.5868 328,-143.5867 328,-143.5867"/>
</g>
<!-- 7&#45;&gt;8 -->
<g id="edge7" class="edge">
<title>7&#45;&gt;8</title>
<path fill="none" stroke="#000000" d="M289.8963,-108.1686C268.7205,-118.2657 242.2937,-130.8666 220.333,-141.3379"/>
<polygon fill="#000000" stroke="#000000" points="211.223,-145.6818 218.3125,-137.3159 215.7362,-143.5298 220.2494,-141.3777 220.2494,-141.3777 220.2494,-141.3777 215.7362,-143.5298 222.1862,-145.4396 211.223,-145.6818 211.223,-145.6818"/>
</g>
</g>
</svg>
