<?xml version="1.0" encoding="UTF-8" standalone="no"?>
<!DOCTYPE svg PUBLIC "-//W3C//DTD SVG 1.1//EN"
 "http://www.w3.org/Graphics/SVG/1.1/DTD/svg11.dtd">
<!-- Generated by graphviz version 2.40.1 (20161225.0304)
 -->
<!-- Title: packages_npfc Pages: 1 -->
<svg width="457pt" height="188pt"
 viewBox="0.00 0.00 457.00 188.00" xmlns="http://www.w3.org/2000/svg" xmlns:xlink="http://www.w3.org/1999/xlink">
<g id="graph0" class="graph" transform="scale(1 1) rotate(0) translate(4 184)">
<title>packages_npfc</title>
<polygon fill="#ffffff" stroke="transparent" points="-4,4 -4,-184 453,-184 453,4 -4,4"/>
<!-- 0 -->
<g id="node1" class="node">
<title>0</title>
<polygon fill="none" stroke="#000000" points="201,-180 147,-180 147,-144 201,-144 201,-180"/>
<text text-anchor="middle" x="174" y="-158.3" font-family="Times,serif" font-size="14.00" fill="#000000">npfc</text>
</g>
<!-- 1 -->
<g id="node2" class="node">
<title>1</title>
<polygon fill="none" stroke="#000000" points="114.5,-108 43.5,-108 43.5,-72 114.5,-72 114.5,-108"/>
<text text-anchor="middle" x="79" y="-86.3" font-family="Times,serif" font-size="14.00" fill="#000000">npfc.draw</text>
</g>
<!-- 1&#45;&gt;0 -->
<g id="edge1" class="edge">
<title>1&#45;&gt;0</title>
<path fill="none" stroke="#000000" d="M102.9725,-108.1686C114.7861,-117.1221 129.1972,-128.0442 141.9435,-137.7045"/>
<polygon fill="#000000" stroke="#000000" points="150.0352,-143.8372 139.3473,-141.3833 146.0503,-140.8171 142.0654,-137.7969 142.0654,-137.7969 142.0654,-137.7969 146.0503,-140.8171 144.7835,-134.2106 150.0352,-143.8372 150.0352,-143.8372"/>
</g>
<!-- 8 -->
<g id="node9" class="node">
<title>8</title>
<polygon fill="none" stroke="#000000" points="306,-180 238,-180 238,-144 306,-144 306,-180"/>
<text text-anchor="middle" x="272" y="-158.3" font-family="Times,serif" font-size="14.00" fill="#000000">npfc.utils</text>
</g>
<!-- 1&#45;&gt;8 -->
<g id="edge2" class="edge">
<title>1&#45;&gt;8</title>
<path fill="none" stroke="#000000" d="M114.8495,-103.3739C146.8969,-115.3294 193.9522,-132.8837 228.2154,-145.6659"/>
<polygon fill="#000000" stroke="#000000" points="237.9614,-149.3017 227.0192,-150.0225 233.2767,-147.554 228.5921,-145.8063 228.5921,-145.8063 228.5921,-145.8063 233.2767,-147.554 230.165,-141.5902 237.9614,-149.3017 237.9614,-149.3017"/>
</g>
<!-- 2 -->
<g id="node3" class="node">
<title>2</title>
<polygon fill="none" stroke="#000000" points="252,-36 158,-36 158,0 252,0 252,-36"/>
<text text-anchor="middle" x="205" y="-14.3" font-family="Times,serif" font-size="14.00" fill="#000000">npfc.duplicate</text>
</g>
<!-- 2&#45;&gt;0 -->
<g id="edge3" class="edge">
<title>2&#45;&gt;0</title>
<path fill="none" stroke="#000000" d="M185.5044,-36.0337C176.4897,-45.7106 166.7449,-58.4243 162,-72 154.9676,-92.1207 158.7117,-116.0946 163.8103,-134.238"/>
<polygon fill="#000000" stroke="#000000" points="166.8096,-143.9145 159.5506,-135.6951 165.3292,-139.1386 163.8489,-134.3628 163.8489,-134.3628 163.8489,-134.3628 165.3292,-139.1386 168.1471,-133.0305 166.8096,-143.9145 166.8096,-143.9145"/>
</g>
<!-- 5 -->
<g id="node6" class="node">
<title>5</title>
<polygon fill="none" stroke="#000000" points="239,-108 171,-108 171,-72 239,-72 239,-108"/>
<text text-anchor="middle" x="205" y="-86.3" font-family="Times,serif" font-size="14.00" fill="#000000">npfc.load</text>
</g>
<!-- 2&#45;&gt;5 -->
<g id="edge4" class="edge">
<title>2&#45;&gt;5</title>
<path fill="none" stroke="#000000" d="M205,-36.1686C205,-43.869 205,-53.0257 205,-61.5834"/>
<polygon fill="#000000" stroke="#000000" points="205,-71.5867 200.5001,-61.5867 205,-66.5867 205.0001,-61.5867 205.0001,-61.5867 205.0001,-61.5867 205,-66.5867 209.5001,-61.5868 205,-71.5867 205,-71.5867"/>
</g>
<!-- 6 -->
<g id="node7" class="node">
<title>6</title>
<polygon fill="none" stroke="#000000" points="325,-108 257,-108 257,-72 325,-72 325,-108"/>
<text text-anchor="middle" x="291" y="-86.3" font-family="Times,serif" font-size="14.00" fill="#000000">npfc.save</text>
</g>
<!-- 2&#45;&gt;6 -->
<g id="edge5" class="edge">
<title>2&#45;&gt;6</title>
<path fill="none" stroke="#000000" d="M226.7014,-36.1686C237.1921,-44.9515 249.9455,-55.6288 261.3194,-65.1511"/>
<polygon fill="#000000" stroke="#000000" points="269.3055,-71.8372 258.7492,-68.8682 265.4717,-68.6275 261.6379,-65.4178 261.6379,-65.4178 261.6379,-65.4178 265.4717,-68.6275 264.5266,-61.9674 269.3055,-71.8372 269.3055,-71.8372"/>
</g>
<!-- 3 -->
<g id="node4" class="node">
<title>3</title>
<polygon fill="none" stroke="#000000" points="431.5,-180 360.5,-180 360.5,-144 431.5,-144 431.5,-180"/>
<text text-anchor="middle" x="396" y="-158.3" font-family="Times,serif" font-size="14.00" fill="#000000">npfc.filter</text>
</g>
<!-- 4 -->
<g id="node5" class="node">
<title>4</title>
<polygon fill="none" stroke="#000000" points="94,-36 0,-36 0,0 94,0 94,-36"/>
<text text-anchor="middle" x="47" y="-14.3" font-family="Times,serif" font-size="14.00" fill="#000000">npfc.fragment</text>
</g>
<!-- 4&#45;&gt;0 -->
<g id="edge6" class="edge">
<title>4&#45;&gt;0</title>
<path fill="none" stroke="#000000" d="M37.4947,-36.2444C28.8072,-55.7192 19.3524,-86.6508 34,-108 46.0234,-125.5243 99.5898,-142.6458 136.8608,-152.7594"/>
<polygon fill="#000000" stroke="#000000" points="146.893,-155.4207 136.0734,-157.2061 142.0601,-154.1386 137.2273,-152.8566 137.2273,-152.8566 137.2273,-152.8566 142.0601,-154.1386 138.3811,-148.507 146.893,-155.4207 146.893,-155.4207"/>
</g>
<!-- 4&#45;&gt;1 -->
<g id="edge7" class="edge">
<title>4&#45;&gt;1</title>
<path fill="none" stroke="#000000" d="M55.075,-36.1686C58.6102,-44.1229 62.836,-53.631 66.7456,-62.4277"/>
<polygon fill="#000000" stroke="#000000" points="70.8163,-71.5867 62.6427,-64.2763 68.7856,-67.0177 66.7549,-62.4486 66.7549,-62.4486 66.7549,-62.4486 68.7856,-67.0177 70.867,-60.621 70.8163,-71.5867 70.8163,-71.5867"/>
</g>
<!-- 5&#45;&gt;0 -->
<g id="edge8" class="edge">
<title>5&#45;&gt;0</title>
<path fill="none" stroke="#000000" d="M197.1774,-108.1686C193.7891,-116.0383 189.7459,-125.4288 185.9924,-134.1467"/>
<polygon fill="#000000" stroke="#000000" points="181.9279,-143.5867 181.7494,-132.6223 183.9053,-138.9943 185.8826,-134.4019 185.8826,-134.4019 185.8826,-134.4019 183.9053,-138.9943 190.0158,-136.1815 181.9279,-143.5867 181.9279,-143.5867"/>
</g>
<!-- 5&#45;&gt;8 -->
<g id="edge9" class="edge">
<title>5&#45;&gt;8</title>
<path fill="none" stroke="#000000" d="M221.9069,-108.1686C229.7813,-116.6306 239.292,-126.8511 247.9013,-136.1029"/>
<polygon fill="#000000" stroke="#000000" points="254.8654,-143.5867 244.7588,-139.3316 251.4593,-139.9264 248.0531,-136.266 248.0531,-136.266 248.0531,-136.266 251.4593,-139.9264 251.3474,-133.2005 254.8654,-143.5867 254.8654,-143.5867"/>
</g>
<!-- 6&#45;&gt;0 -->
<g id="edge10" class="edge">
<title>6&#45;&gt;0</title>
<path fill="none" stroke="#000000" d="M261.476,-108.1686C245.8255,-117.7997 226.4734,-129.7087 209.9535,-139.8748"/>
<polygon fill="#000000" stroke="#000000" points="201.1086,-145.3178 207.2668,-136.2443 205.3669,-142.6973 209.6252,-140.0768 209.6252,-140.0768 209.6252,-140.0768 205.3669,-142.6973 211.9837,-143.9092 201.1086,-145.3178 201.1086,-145.3178"/>
</g>
<!-- 6&#45;&gt;8 -->
<g id="edge11" class="edge">
<title>6&#45;&gt;8</title>
<path fill="none" stroke="#000000" d="M286.2055,-108.1686C284.1511,-115.9537 281.704,-125.2271 279.4244,-133.8653"/>
<polygon fill="#000000" stroke="#000000" points="276.8591,-143.5867 275.0596,-132.7695 278.1349,-138.7522 279.4107,-133.9177 279.4107,-133.9177 279.4107,-133.9177 278.1349,-138.7522 283.7617,-135.066 276.8591,-143.5867 276.8591,-143.5867"/>
</g>
<!-- 7 -->
<g id="node8" class="node">
<title>7</title>
<polygon fill="none" stroke="#000000" points="449,-108 343,-108 343,-72 449,-72 449,-108"/>
<text text-anchor="middle" x="396" y="-86.3" font-family="Times,serif" font-size="14.00" fill="#000000">npfc.standardize</text>
</g>
<!-- 7&#45;&gt;0 -->
<g id="edge12" class="edge">
<title>7&#45;&gt;0</title>
<path fill="none" stroke="#000000" d="M342.9604,-107.0976C310.1265,-117.6949 267.104,-131.6043 229,-144 223.1854,-145.8916 217.027,-147.901 211.017,-149.8655"/>
<polygon fill="#000000" stroke="#000000" points="201.1293,-153.1002 209.2344,-145.7139 205.8815,-151.5455 210.6337,-149.9908 210.6337,-149.9908 210.6337,-149.9908 205.8815,-151.5455 212.0329,-154.2678 201.1293,-153.1002 201.1293,-153.1002"/>
</g>
<!-- 7&#45;&gt;3 -->
<g id="edge13" class="edge">
<title>7&#45;&gt;3</title>
<path fill="none" stroke="#000000" d="M396,-108.1686C396,-115.869 396,-125.0257 396,-133.5834"/>
<polygon fill="#000000" stroke="#000000" points="396,-143.5867 391.5001,-133.5867 396,-138.5867 396.0001,-133.5867 396.0001,-133.5867 396.0001,-133.5867 396,-138.5867 400.5001,-133.5868 396,-143.5867 396,-143.5867"/>
</g>
<!-- 7&#45;&gt;8 -->
<g id="edge14" class="edge">
<title>7&#45;&gt;8</title>
<path fill="none" stroke="#000000" d="M364.7096,-108.1686C348.7023,-117.4632 329.0414,-128.8792 311.9506,-138.8029"/>
<polygon fill="#000000" stroke="#000000" points="303.2804,-143.8372 309.6687,-134.9242 307.6044,-141.3265 311.9283,-138.8158 311.9283,-138.8158 311.9283,-138.8158 307.6044,-141.3265 314.188,-142.7073 303.2804,-143.8372 303.2804,-143.8372"/>
</g>
</g>
</svg>
