<?xml version="1.0" encoding="UTF-8" standalone="no"?>
<!DOCTYPE svg PUBLIC "-//W3C//DTD SVG 1.1//EN"
 "http://www.w3.org/Graphics/SVG/1.1/DTD/svg11.dtd">
<!-- Generated by graphviz version 2.50.0 (0)
 -->
<!-- Title: snakemake_dag Pages: 1 -->
<svg width="640pt" height="764pt"
 viewBox="0.00 0.00 640.00 764.00" xmlns="http://www.w3.org/2000/svg" xmlns:xlink="http://www.w3.org/1999/xlink">
<g id="graph0" class="graph" transform="scale(1 1) rotate(0) translate(4 760)">
<title>snakemake_dag</title>
<polygon fill="white" stroke="transparent" points="-4,4 -4,-760 636,-760 636,4 -4,4"/>
<!-- 0 -->
<g id="node1" class="node">
<title>0</title>
<path fill="none" stroke="#d8b456" stroke-width="2" d="M373,-36C373,-36 343,-36 343,-36 337,-36 331,-30 331,-24 331,-24 331,-12 331,-12 331,-6 337,0 343,0 343,0 373,0 373,0 379,0 385,-6 385,-12 385,-12 385,-24 385,-24 385,-30 379,-36 373,-36"/>
<text text-anchor="middle" x="358" y="-15.5" font-family="sans" font-size="10.00">all</text>
</g>
<!-- 1 -->
<g id="node2" class="node">
<title>1</title>
<path fill="none" stroke="#d87556" stroke-width="2" d="M298,-252C298,-252 268,-252 268,-252 262,-252 256,-246 256,-240 256,-240 256,-228 256,-228 256,-222 262,-216 268,-216 268,-216 298,-216 298,-216 304,-216 310,-222 310,-228 310,-228 310,-240 310,-240 310,-246 304,-252 298,-252"/>
<text text-anchor="middle" x="283" y="-231.5" font-family="sans" font-size="10.00">FCG</text>
</g>
<!-- 1&#45;&gt;0 -->
<g id="edge1" class="edge">
<title>1&#45;&gt;0</title>
<path fill="none" stroke="grey" stroke-width="2" d="M265.42,-215.55C256.95,-205.93 247.65,-193.27 243,-180 227.12,-134.69 214.98,-112.35 241,-72 258.52,-44.83 293.72,-31.44 320.96,-24.93"/>
<polygon fill="grey" stroke="grey" stroke-width="2" points="321.92,-28.3 330.95,-22.76 320.44,-21.46 321.92,-28.3"/>
</g>
<!-- 10 -->
<g id="node11" class="node">
<title>10</title>
<path fill="none" stroke="#d85656" stroke-width="2" d="M167.5,-180C167.5,-180 96.5,-180 96.5,-180 90.5,-180 84.5,-174 84.5,-168 84.5,-168 84.5,-156 84.5,-156 84.5,-150 90.5,-144 96.5,-144 96.5,-144 167.5,-144 167.5,-144 173.5,-144 179.5,-150 179.5,-156 179.5,-156 179.5,-168 179.5,-168 179.5,-174 173.5,-180 167.5,-180"/>
<text text-anchor="middle" x="132" y="-159.5" font-family="sans" font-size="10.00">REPORT_COUNT</text>
</g>
<!-- 1&#45;&gt;10 -->
<g id="edge15" class="edge">
<title>1&#45;&gt;10</title>
<path fill="none" stroke="grey" stroke-width="2" d="M255.66,-220.32C234.01,-210.29 203.29,-196.05 177.89,-184.27"/>
<polygon fill="grey" stroke="grey" stroke-width="2" points="179.35,-181.09 168.8,-180.06 176.4,-187.44 179.35,-181.09"/>
</g>
<!-- 12 -->
<g id="node13" class="node">
<title>12</title>
<path fill="none" stroke="#d6d856" stroke-width="2" d="M473,-180C473,-180 413,-180 413,-180 407,-180 401,-174 401,-168 401,-168 401,-156 401,-156 401,-150 407,-144 413,-144 413,-144 473,-144 473,-144 479,-144 485,-150 485,-156 485,-156 485,-168 485,-168 485,-174 479,-180 473,-180"/>
<text text-anchor="middle" x="443" y="-159.5" font-family="sans" font-size="10.00">REPORT_TIME</text>
</g>
<!-- 1&#45;&gt;12 -->
<g id="edge24" class="edge">
<title>1&#45;&gt;12</title>
<path fill="none" stroke="grey" stroke-width="2" d="M310.14,-221.13C333.19,-211.04 366.84,-196.32 394.5,-184.22"/>
<polygon fill="grey" stroke="grey" stroke-width="2" points="396.25,-187.27 404.01,-180.06 393.44,-180.86 396.25,-187.27"/>
</g>
<!-- 14 -->
<g id="node15" class="node">
<title>14</title>
<path fill="none" stroke="#59d856" stroke-width="2" d="M362,-180C362,-180 264,-180 264,-180 258,-180 252,-174 252,-168 252,-168 252,-156 252,-156 252,-150 258,-144 264,-144 264,-144 362,-144 362,-144 368,-144 374,-150 374,-156 374,-156 374,-168 374,-168 374,-174 368,-180 362,-180"/>
<text text-anchor="middle" x="313" y="-159.5" font-family="sans" font-size="10.00">REPORT_FCG_CHUNK</text>
</g>
<!-- 1&#45;&gt;14 -->
<g id="edge35" class="edge">
<title>1&#45;&gt;14</title>
<path fill="none" stroke="grey" stroke-width="2" d="M290.42,-215.7C293.79,-207.81 297.87,-198.3 301.62,-189.55"/>
<polygon fill="grey" stroke="grey" stroke-width="2" points="304.95,-190.67 305.67,-180.1 298.51,-187.92 304.95,-190.67"/>
</g>
<!-- 2 -->
<g id="node3" class="node">
<title>2</title>
<path fill="none" stroke="#56d87b" stroke-width="2" d="M317,-324C317,-324 287,-324 287,-324 281,-324 275,-318 275,-312 275,-312 275,-300 275,-300 275,-294 281,-288 287,-288 287,-288 317,-288 317,-288 323,-288 329,-294 329,-300 329,-300 329,-312 329,-312 329,-318 323,-324 317,-324"/>
<text text-anchor="middle" x="302" y="-303.5" font-family="sans" font-size="10.00">FCC</text>
</g>
<!-- 2&#45;&gt;1 -->
<g id="edge7" class="edge">
<title>2&#45;&gt;1</title>
<path fill="none" stroke="grey" stroke-width="2" d="M297.3,-287.7C295.19,-279.9 292.64,-270.51 290.28,-261.83"/>
<polygon fill="grey" stroke="grey" stroke-width="2" points="293.64,-260.84 287.64,-252.1 286.88,-262.67 293.64,-260.84"/>
</g>
<!-- 2&#45;&gt;10 -->
<g id="edge18" class="edge">
<title>2&#45;&gt;10</title>
<path fill="none" stroke="grey" stroke-width="2" d="M284.07,-287.69C264.79,-269.32 232.99,-239.73 204,-216 191.51,-205.78 177.28,-195.11 164.8,-186.05"/>
<polygon fill="grey" stroke="grey" stroke-width="2" points="166.63,-183.06 156.47,-180.06 162.54,-188.74 166.63,-183.06"/>
</g>
<!-- 2&#45;&gt;12 -->
<g id="edge27" class="edge">
<title>2&#45;&gt;12</title>
<path fill="none" stroke="grey" stroke-width="2" d="M310.87,-287.79C321.29,-268.7 339.98,-237.72 362,-216 373.68,-204.48 388.23,-194.04 401.76,-185.53"/>
<polygon fill="grey" stroke="grey" stroke-width="2" points="403.75,-188.42 410.47,-180.22 400.11,-182.44 403.75,-188.42"/>
</g>
<!-- 3 -->
<g id="node4" class="node">
<title>3</title>
<path fill="none" stroke="#56d8b9" stroke-width="2" d="M345,-396C345,-396 315,-396 315,-396 309,-396 303,-390 303,-384 303,-384 303,-372 303,-372 303,-366 309,-360 315,-360 315,-360 345,-360 345,-360 351,-360 357,-366 357,-372 357,-372 357,-384 357,-384 357,-390 351,-396 345,-396"/>
<text text-anchor="middle" x="330" y="-375.5" font-family="sans" font-size="10.00">FS</text>
</g>
<!-- 3&#45;&gt;2 -->
<g id="edge8" class="edge">
<title>3&#45;&gt;2</title>
<path fill="none" stroke="grey" stroke-width="2" d="M323.08,-359.7C319.93,-351.81 316.12,-342.3 312.62,-333.55"/>
<polygon fill="grey" stroke="grey" stroke-width="2" points="315.81,-332.09 308.84,-324.1 309.31,-334.69 315.81,-332.09"/>
</g>
<!-- 3&#45;&gt;10 -->
<g id="edge20" class="edge">
<title>3&#45;&gt;10</title>
<path fill="none" stroke="grey" stroke-width="2" d="M307.59,-359.96C294.93,-349.97 279.08,-336.83 266,-324 220.96,-279.82 175.42,-221.57 150.75,-188.62"/>
<polygon fill="grey" stroke="grey" stroke-width="2" points="153.43,-186.36 144.65,-180.42 147.81,-190.53 153.43,-186.36"/>
</g>
<!-- 3&#45;&gt;12 -->
<g id="edge28" class="edge">
<title>3&#45;&gt;12</title>
<path fill="none" stroke="grey" stroke-width="2" d="M335.73,-359.81C346.19,-329.53 370.09,-265.23 400,-216 405.87,-206.33 413.35,-196.5 420.41,-187.98"/>
<polygon fill="grey" stroke="grey" stroke-width="2" points="423.17,-190.13 426.99,-180.25 417.84,-185.59 423.17,-190.13"/>
</g>
<!-- 4 -->
<g id="node5" class="node">
<title>4</title>
<path fill="none" stroke="#b6d856" stroke-width="2" d="M374,-468C374,-468 344,-468 344,-468 338,-468 332,-462 332,-456 332,-456 332,-444 332,-444 332,-438 338,-432 344,-432 344,-432 374,-432 374,-432 380,-432 386,-438 386,-444 386,-444 386,-456 386,-456 386,-462 380,-468 374,-468"/>
<text text-anchor="middle" x="359" y="-447.5" font-family="sans" font-size="10.00">DEPICT</text>
</g>
<!-- 4&#45;&gt;3 -->
<g id="edge9" class="edge">
<title>4&#45;&gt;3</title>
<path fill="none" stroke="grey" stroke-width="2" d="M351.83,-431.7C348.57,-423.81 344.63,-414.3 341,-405.55"/>
<polygon fill="grey" stroke="grey" stroke-width="2" points="344.15,-404 337.09,-396.1 337.68,-406.68 344.15,-404"/>
</g>
<!-- 4&#45;&gt;10 -->
<g id="edge16" class="edge">
<title>4&#45;&gt;10</title>
<path fill="none" stroke="grey" stroke-width="2" d="M336.33,-431.9C323.5,-421.89 307.4,-408.74 294,-396 232.37,-337.4 211.99,-324.78 168,-252 156.13,-232.35 146.61,-208.08 140.35,-189.85"/>
<polygon fill="grey" stroke="grey" stroke-width="2" points="143.6,-188.55 137.13,-180.16 136.96,-190.75 143.6,-188.55"/>
</g>
<!-- 4&#45;&gt;12 -->
<g id="edge25" class="edge">
<title>4&#45;&gt;12</title>
<path fill="none" stroke="grey" stroke-width="2" d="M364,-431.97C378.06,-384.09 418.02,-248.06 435.1,-189.9"/>
<polygon fill="grey" stroke="grey" stroke-width="2" points="438.46,-190.89 437.92,-180.31 431.74,-188.91 438.46,-190.89"/>
</g>
<!-- 13 -->
<g id="node14" class="node">
<title>13</title>
<path fill="none" stroke="#97d856" stroke-width="2" d="M591.5,-396C591.5,-396 530.5,-396 530.5,-396 524.5,-396 518.5,-390 518.5,-384 518.5,-384 518.5,-372 518.5,-372 518.5,-366 524.5,-360 530.5,-360 530.5,-360 591.5,-360 591.5,-360 597.5,-360 603.5,-366 603.5,-372 603.5,-372 603.5,-384 603.5,-384 603.5,-390 597.5,-396 591.5,-396"/>
<text text-anchor="middle" x="561" y="-375.5" font-family="sans" font-size="10.00">REPORT_PREP</text>
</g>
<!-- 4&#45;&gt;13 -->
<g id="edge31" class="edge">
<title>4&#45;&gt;13</title>
<path fill="none" stroke="grey" stroke-width="2" d="M386.24,-439.56C417.51,-428.72 469.53,-410.7 508.7,-397.12"/>
<polygon fill="grey" stroke="grey" stroke-width="2" points="510.06,-400.36 518.36,-393.78 507.76,-393.74 510.06,-400.36"/>
</g>
<!-- 5 -->
<g id="node6" class="node">
<title>5</title>
<path fill="none" stroke="#567bd8" stroke-width="2" d="M430,-540C430,-540 398,-540 398,-540 392,-540 386,-534 386,-528 386,-528 386,-516 386,-516 386,-510 392,-504 398,-504 398,-504 430,-504 430,-504 436,-504 442,-510 442,-516 442,-516 442,-528 442,-528 442,-534 436,-540 430,-540"/>
<text text-anchor="middle" x="414" y="-519.5" font-family="sans" font-size="10.00">DEDUPL</text>
</g>
<!-- 5&#45;&gt;4 -->
<g id="edge10" class="edge">
<title>5&#45;&gt;4</title>
<path fill="none" stroke="grey" stroke-width="2" d="M400.4,-503.7C393.88,-495.39 385.93,-485.28 378.75,-476.14"/>
<polygon fill="grey" stroke="grey" stroke-width="2" points="381.37,-473.81 372.44,-468.1 375.87,-478.13 381.37,-473.81"/>
</g>
<!-- 5&#45;&gt;10 -->
<g id="edge21" class="edge">
<title>5&#45;&gt;10</title>
<path fill="none" stroke="grey" stroke-width="2" d="M385.78,-520.52C311.1,-517.6 114,-498.57 114,-379 114,-379 114,-379 114,-305 114,-264.9 121.15,-218.92 126.44,-190.42"/>
<polygon fill="grey" stroke="grey" stroke-width="2" points="129.92,-190.88 128.36,-180.4 123.04,-189.56 129.92,-190.88"/>
</g>
<!-- 5&#45;&gt;12 -->
<g id="edge29" class="edge">
<title>5&#45;&gt;12</title>
<path fill="none" stroke="grey" stroke-width="2" d="M415.59,-503.7C419.48,-460.99 429.73,-347.11 437,-252 438.58,-231.28 440.16,-207.84 441.29,-190.21"/>
<polygon fill="grey" stroke="grey" stroke-width="2" points="444.8,-190.27 441.94,-180.07 437.81,-189.82 444.8,-190.27"/>
</g>
<!-- 5&#45;&gt;13 -->
<g id="edge32" class="edge">
<title>5&#45;&gt;13</title>
<path fill="none" stroke="grey" stroke-width="2" d="M431.73,-503.87C457.67,-478.82 506.08,-432.05 535.73,-403.41"/>
<polygon fill="grey" stroke="grey" stroke-width="2" points="538.44,-405.65 543.21,-396.19 533.58,-400.62 538.44,-405.65"/>
</g>
<!-- 6 -->
<g id="node7" class="node">
<title>6</title>
<path fill="none" stroke="#56d89a" stroke-width="2" d="M467,-612C467,-612 437,-612 437,-612 431,-612 425,-606 425,-600 425,-600 425,-588 425,-588 425,-582 431,-576 437,-576 437,-576 467,-576 467,-576 473,-576 479,-582 479,-588 479,-588 479,-600 479,-600 479,-606 473,-612 467,-612"/>
<text text-anchor="middle" x="452" y="-591.5" font-family="sans" font-size="10.00">STD</text>
</g>
<!-- 6&#45;&gt;5 -->
<g id="edge11" class="edge">
<title>6&#45;&gt;5</title>
<path fill="none" stroke="grey" stroke-width="2" d="M442.61,-575.7C438.24,-567.64 432.94,-557.89 428.1,-548.98"/>
<polygon fill="grey" stroke="grey" stroke-width="2" points="431.13,-547.22 423.29,-540.1 424.98,-550.56 431.13,-547.22"/>
</g>
<!-- 6&#45;&gt;10 -->
<g id="edge17" class="edge">
<title>6&#45;&gt;10</title>
<path fill="none" stroke="grey" stroke-width="2" d="M424.96,-588.82C338.75,-574.73 76,-525.66 76,-451 76,-451 76,-451 76,-305 76,-261.91 98.6,-216.26 115.08,-188.7"/>
<polygon fill="grey" stroke="grey" stroke-width="2" points="118.13,-190.42 120.4,-180.07 112.17,-186.75 118.13,-190.42"/>
</g>
<!-- 6&#45;&gt;12 -->
<g id="edge26" class="edge">
<title>6&#45;&gt;12</title>
<path fill="none" stroke="grey" stroke-width="2" d="M459.69,-575.91C470.79,-549.62 490,-497.45 490,-451 490,-451 490,-451 490,-305 490,-262.96 471.2,-217.29 457.38,-189.41"/>
<polygon fill="grey" stroke="grey" stroke-width="2" points="460.4,-187.63 452.74,-180.32 454.17,-190.82 460.4,-187.63"/>
</g>
<!-- 6&#45;&gt;13 -->
<g id="edge33" class="edge">
<title>6&#45;&gt;13</title>
<path fill="none" stroke="grey" stroke-width="2" d="M472.72,-575.84C483.27,-566.21 495.6,-553.45 504,-540 530.92,-496.88 547.35,-439.3 555.26,-405.98"/>
<polygon fill="grey" stroke="grey" stroke-width="2" points="558.71,-406.59 557.54,-396.06 551.89,-405.02 558.71,-406.59"/>
</g>
<!-- 7 -->
<g id="node8" class="node">
<title>7</title>
<path fill="none" stroke="#569ad8" stroke-width="2" d="M467,-684C467,-684 437,-684 437,-684 431,-684 425,-678 425,-672 425,-672 425,-660 425,-660 425,-654 431,-648 437,-648 437,-648 467,-648 467,-648 473,-648 479,-654 479,-660 479,-660 479,-672 479,-672 479,-678 473,-684 467,-684"/>
<text text-anchor="middle" x="452" y="-663.5" font-family="sans" font-size="10.00">LOAD</text>
</g>
<!-- 7&#45;&gt;6 -->
<g id="edge12" class="edge">
<title>7&#45;&gt;6</title>
<path fill="none" stroke="grey" stroke-width="2" d="M452,-647.7C452,-639.98 452,-630.71 452,-622.11"/>
<polygon fill="grey" stroke="grey" stroke-width="2" points="455.5,-622.1 452,-612.1 448.5,-622.1 455.5,-622.1"/>
</g>
<!-- 7&#45;&gt;10 -->
<g id="edge22" class="edge">
<title>7&#45;&gt;10</title>
<path fill="none" stroke="grey" stroke-width="2" d="M424.84,-661.69C332.73,-649.74 38,-605.06 38,-523 38,-523 38,-523 38,-305 38,-257.17 75.54,-213.08 103.18,-187.11"/>
<polygon fill="grey" stroke="grey" stroke-width="2" points="105.64,-189.6 110.67,-180.27 100.92,-184.42 105.64,-189.6"/>
</g>
<!-- 7&#45;&gt;12 -->
<g id="edge30" class="edge">
<title>7&#45;&gt;12</title>
<path fill="none" stroke="grey" stroke-width="2" d="M479.34,-657.39C529.69,-641.52 632,-599.82 632,-523 632,-523 632,-523 632,-377 632,-288.26 539.56,-218.97 483.98,-185.33"/>
<polygon fill="grey" stroke="grey" stroke-width="2" points="485.45,-182.14 475.06,-180.05 481.88,-188.16 485.45,-182.14"/>
</g>
<!-- 7&#45;&gt;13 -->
<g id="edge34" class="edge">
<title>7&#45;&gt;13</title>
<path fill="none" stroke="grey" stroke-width="2" d="M464.47,-647.96C487.55,-615.16 536.07,-540.09 552,-468 556.5,-447.66 558.75,-424.19 559.88,-406.47"/>
<polygon fill="grey" stroke="grey" stroke-width="2" points="563.39,-406.43 560.45,-396.25 556.4,-406.04 563.39,-406.43"/>
</g>
<!-- 8 -->
<g id="node9" class="node">
<title>8</title>
<path fill="none" stroke="#78d856" stroke-width="2" d="M222,-756C222,-756 192,-756 192,-756 186,-756 180,-750 180,-744 180,-744 180,-732 180,-732 180,-726 186,-720 192,-720 192,-720 222,-720 222,-720 228,-720 234,-726 234,-732 234,-732 234,-744 234,-744 234,-750 228,-756 222,-756"/>
<text text-anchor="middle" x="207" y="-735.5" font-family="sans" font-size="10.00">CHUNK</text>
</g>
<!-- 8&#45;&gt;7 -->
<g id="edge13" class="edge">
<title>8&#45;&gt;7</title>
<path fill="none" stroke="grey" stroke-width="2" d="M234.16,-729.24C278.21,-716.65 365.34,-691.76 415.01,-677.57"/>
<polygon fill="grey" stroke="grey" stroke-width="2" points="416.07,-680.91 424.72,-674.79 414.15,-674.18 416.07,-680.91"/>
</g>
<!-- 8&#45;&gt;10 -->
<g id="edge19" class="edge">
<title>8&#45;&gt;10</title>
<path fill="none" stroke="grey" stroke-width="2" d="M179.94,-731.72C123.83,-719.05 0,-681.29 0,-595 0,-595 0,-595 0,-305 0,-251.4 51.07,-209.54 89.68,-185.55"/>
<polygon fill="grey" stroke="grey" stroke-width="2" points="91.93,-188.29 98.69,-180.13 88.32,-182.29 91.93,-188.29"/>
</g>
<!-- 9 -->
<g id="node10" class="node">
<title>9</title>
<path fill="none" stroke="#56b9d8" stroke-width="2" d="M181.5,-108C181.5,-108 82.5,-108 82.5,-108 76.5,-108 70.5,-102 70.5,-96 70.5,-96 70.5,-84 70.5,-84 70.5,-78 76.5,-72 82.5,-72 82.5,-72 181.5,-72 181.5,-72 187.5,-72 193.5,-78 193.5,-84 193.5,-84 193.5,-96 193.5,-96 193.5,-102 187.5,-108 181.5,-108"/>
<text text-anchor="middle" x="132" y="-87.5" font-family="sans" font-size="10.00">REPORT_COUNT_SUM</text>
</g>
<!-- 9&#45;&gt;0 -->
<g id="edge6" class="edge">
<title>9&#45;&gt;0</title>
<path fill="none" stroke="grey" stroke-width="2" d="M187,-71.97C228.68,-59.06 284.8,-41.67 321.19,-30.4"/>
<polygon fill="grey" stroke="grey" stroke-width="2" points="322.39,-33.69 330.91,-27.39 320.32,-27.01 322.39,-33.69"/>
</g>
<!-- 10&#45;&gt;9 -->
<g id="edge14" class="edge">
<title>10&#45;&gt;9</title>
<path fill="none" stroke="grey" stroke-width="2" d="M132,-143.7C132,-135.98 132,-126.71 132,-118.11"/>
<polygon fill="grey" stroke="grey" stroke-width="2" points="135.5,-118.1 132,-108.1 128.5,-118.1 135.5,-118.1"/>
</g>
<!-- 11 -->
<g id="node12" class="node">
<title>11</title>
<path fill="none" stroke="#56d8d8" stroke-width="2" d="M532,-108C532,-108 444,-108 444,-108 438,-108 432,-102 432,-96 432,-96 432,-84 432,-84 432,-78 438,-72 444,-72 444,-72 532,-72 532,-72 538,-72 544,-78 544,-84 544,-84 544,-96 544,-96 544,-102 538,-108 532,-108"/>
<text text-anchor="middle" x="488" y="-87.5" font-family="sans" font-size="10.00">REPORT_TIME_SUM</text>
</g>
<!-- 11&#45;&gt;0 -->
<g id="edge5" class="edge">
<title>11&#45;&gt;0</title>
<path fill="none" stroke="grey" stroke-width="2" d="M456.2,-71.88C437.38,-61.74 413.49,-48.88 393.98,-38.37"/>
<polygon fill="grey" stroke="grey" stroke-width="2" points="395.54,-35.24 385.08,-33.58 392.23,-41.4 395.54,-35.24"/>
</g>
<!-- 12&#45;&gt;11 -->
<g id="edge23" class="edge">
<title>12&#45;&gt;11</title>
<path fill="none" stroke="grey" stroke-width="2" d="M454.12,-143.7C459.36,-135.56 465.7,-125.69 471.48,-116.7"/>
<polygon fill="grey" stroke="grey" stroke-width="2" points="474.54,-118.41 477,-108.1 468.65,-114.62 474.54,-118.41"/>
</g>
<!-- 13&#45;&gt;0 -->
<g id="edge3" class="edge">
<title>13&#45;&gt;0</title>
<path fill="none" stroke="grey" stroke-width="2" d="M567.68,-359.81C577.32,-333.4 594,-281.06 594,-235 594,-235 594,-235 594,-161 594,-117.45 586.25,-100.13 553,-72 507.97,-33.9 437.97,-22.98 395.23,-19.98"/>
<polygon fill="grey" stroke="grey" stroke-width="2" points="395.43,-16.49 385.24,-19.39 395.02,-23.47 395.43,-16.49"/>
</g>
<!-- 14&#45;&gt;0 -->
<g id="edge4" class="edge">
<title>14&#45;&gt;0</title>
<path fill="none" stroke="grey" stroke-width="2" d="M349.03,-143.81C362.92,-135.16 377.3,-123.24 385,-108 395.22,-87.78 386.13,-63 375.82,-44.72"/>
<polygon fill="grey" stroke="grey" stroke-width="2" points="378.76,-42.81 370.58,-36.07 372.77,-46.43 378.76,-42.81"/>
</g>
<!-- 15 -->
<g id="node16" class="node">
<title>15</title>
<path fill="none" stroke="#d89556" stroke-width="2" d="M364,-108C364,-108 262,-108 262,-108 256,-108 250,-102 250,-96 250,-96 250,-84 250,-84 250,-78 256,-72 262,-72 262,-72 364,-72 364,-72 370,-72 376,-78 376,-84 376,-84 376,-96 376,-96 376,-102 370,-108 364,-108"/>
<text text-anchor="middle" x="313" y="-87.5" font-family="sans" font-size="10.00">REPORT_FCG_CONCAT</text>
</g>
<!-- 14&#45;&gt;15 -->
<g id="edge36" class="edge">
<title>14&#45;&gt;15</title>
<path fill="none" stroke="grey" stroke-width="2" d="M313,-143.7C313,-135.98 313,-126.71 313,-118.11"/>
<polygon fill="grey" stroke="grey" stroke-width="2" points="316.5,-118.1 313,-108.1 309.5,-118.1 316.5,-118.1"/>
</g>
<!-- 15&#45;&gt;0 -->
<g id="edge2" class="edge">
<title>15&#45;&gt;0</title>
<path fill="none" stroke="grey" stroke-width="2" d="M324.12,-71.7C329.36,-63.56 335.7,-53.69 341.48,-44.7"/>
<polygon fill="grey" stroke="grey" stroke-width="2" points="344.54,-46.41 347,-36.1 338.65,-42.62 344.54,-46.41"/>
</g>
</g>
</svg>
