<?xml version="1.0" encoding="UTF-8" standalone="no"?>
<!DOCTYPE svg PUBLIC "-//W3C//DTD SVG 1.1//EN"
 "http://www.w3.org/Graphics/SVG/1.1/DTD/svg11.dtd">
<!-- Generated by graphviz version 2.50.0 (0)
 -->
<!-- Title: snakemake_dag Pages: 1 -->
<svg width="959pt" height="908pt"
 viewBox="0.00 0.00 959.00 908.00" xmlns="http://www.w3.org/2000/svg" xmlns:xlink="http://www.w3.org/1999/xlink">
<g id="graph0" class="graph" transform="scale(1 1) rotate(0) translate(4 904)">
<title>snakemake_dag</title>
<polygon fill="white" stroke="transparent" points="-4,4 -4,-904 955,-904 955,4 -4,4"/>
<!-- 0 -->
<g id="node1" class="node">
<title>0</title>
<path fill="none" stroke="#56d89a" stroke-width="2" d="M522,-36C522,-36 492,-36 492,-36 486,-36 480,-30 480,-24 480,-24 480,-12 480,-12 480,-6 486,0 492,0 492,0 522,0 522,0 528,0 534,-6 534,-12 534,-12 534,-24 534,-24 534,-30 528,-36 522,-36"/>
<text text-anchor="middle" x="507" y="-15.5" font-family="sans" font-size="10.00">all</text>
</g>
<!-- 1 -->
<g id="node2" class="node">
<title>1</title>
<path fill="none" stroke="#9fd856" stroke-width="2" d="M455,-252C455,-252 425,-252 425,-252 419,-252 413,-246 413,-240 413,-240 413,-228 413,-228 413,-222 419,-216 425,-216 425,-216 455,-216 455,-216 461,-216 467,-222 467,-228 467,-228 467,-240 467,-240 467,-246 461,-252 455,-252"/>
<text text-anchor="middle" x="440" y="-231.5" font-family="sans" font-size="10.00">PNP</text>
</g>
<!-- 1&#45;&gt;0 -->
<g id="edge7" class="edge">
<title>1&#45;&gt;0</title>
<path fill="none" stroke="grey" stroke-width="2" d="M467.02,-220.44C470.37,-218.92 473.76,-217.41 477,-216 550.97,-183.71 595.84,-184 623,-108 628.38,-92.93 631.65,-85.46 623,-72 605.7,-45.08 570.96,-31.66 543.98,-25.08"/>
<polygon fill="grey" stroke="grey" stroke-width="2" points="544.6,-21.63 534.08,-22.88 543.08,-28.47 544.6,-21.63"/>
</g>
<!-- 12 -->
<g id="node13" class="node">
<title>12</title>
<path fill="none" stroke="#b6d856" stroke-width="2" d="M726.5,-180C726.5,-180 655.5,-180 655.5,-180 649.5,-180 643.5,-174 643.5,-168 643.5,-168 643.5,-156 643.5,-156 643.5,-150 649.5,-144 655.5,-144 655.5,-144 726.5,-144 726.5,-144 732.5,-144 738.5,-150 738.5,-156 738.5,-156 738.5,-168 738.5,-168 738.5,-174 732.5,-180 726.5,-180"/>
<text text-anchor="middle" x="691" y="-159.5" font-family="sans" font-size="10.00">REPORT_COUNT</text>
</g>
<!-- 1&#45;&gt;12 -->
<g id="edge25" class="edge">
<title>1&#45;&gt;12</title>
<path fill="none" stroke="grey" stroke-width="2" d="M467.13,-221.06C471.71,-219.25 476.46,-217.48 481,-216 545.35,-194.97 563.46,-196.95 629,-180 630.45,-179.62 631.92,-179.24 633.41,-178.85"/>
<polygon fill="grey" stroke="grey" stroke-width="2" points="634.54,-182.17 643.31,-176.23 632.75,-175.41 634.54,-182.17"/>
</g>
<!-- 14 -->
<g id="node15" class="node">
<title>14</title>
<path fill="none" stroke="#566bd8" stroke-width="2" d="M190,-180C190,-180 130,-180 130,-180 124,-180 118,-174 118,-168 118,-168 118,-156 118,-156 118,-150 124,-144 130,-144 130,-144 190,-144 190,-144 196,-144 202,-150 202,-156 202,-156 202,-168 202,-168 202,-174 196,-180 190,-180"/>
<text text-anchor="middle" x="160" y="-159.5" font-family="sans" font-size="10.00">REPORT_TIME</text>
</g>
<!-- 1&#45;&gt;14 -->
<g id="edge36" class="edge">
<title>1&#45;&gt;14</title>
<path fill="none" stroke="grey" stroke-width="2" d="M412.93,-220.87C408.34,-219.08 403.58,-217.37 399,-216 320.53,-192.49 295.19,-200.81 212.05,-180.07"/>
<polygon fill="grey" stroke="grey" stroke-width="2" points="212.73,-176.63 202.17,-177.54 210.99,-183.41 212.73,-176.63"/>
</g>
<!-- 18 -->
<g id="node19" class="node">
<title>18</title>
<path fill="none" stroke="#70d856" stroke-width="2" d="M354,-180C354,-180 232,-180 232,-180 226,-180 220,-174 220,-168 220,-168 220,-156 220,-156 220,-150 226,-144 232,-144 232,-144 354,-144 354,-144 360,-144 366,-150 366,-156 366,-156 366,-168 366,-168 366,-174 360,-180 354,-180"/>
<text text-anchor="middle" x="293" y="-159.5" font-family="sans" font-size="10.00">REPORT_FCG_CHUNK_PNP</text>
</g>
<!-- 1&#45;&gt;18 -->
<g id="edge45" class="edge">
<title>1&#45;&gt;18</title>
<path fill="none" stroke="grey" stroke-width="2" d="M412.69,-220C391.71,-210.01 362.28,-195.99 337.86,-184.36"/>
<polygon fill="grey" stroke="grey" stroke-width="2" points="339.3,-181.17 328.77,-180.03 336.29,-187.49 339.3,-181.17"/>
</g>
<!-- 20 -->
<g id="node21" class="node">
<title>20</title>
<path fill="none" stroke="#56d8b1" stroke-width="2" d="M518,-180C518,-180 396,-180 396,-180 390,-180 384,-174 384,-168 384,-168 384,-156 384,-156 384,-150 390,-144 396,-144 396,-144 518,-144 518,-144 524,-144 530,-150 530,-156 530,-156 530,-168 530,-168 530,-174 524,-180 518,-180"/>
<text text-anchor="middle" x="457" y="-159.5" font-family="sans" font-size="10.00">REPORT_FCG_CHUNK_NPL</text>
</g>
<!-- 1&#45;&gt;20 -->
<g id="edge47" class="edge">
<title>1&#45;&gt;20</title>
<path fill="none" stroke="grey" stroke-width="2" d="M444.2,-215.7C446.1,-207.9 448.38,-198.51 450.48,-189.83"/>
<polygon fill="grey" stroke="grey" stroke-width="2" points="453.89,-190.65 452.85,-180.1 447.08,-189 453.89,-190.65"/>
</g>
<!-- 21 -->
<g id="node22" class="node">
<title>21</title>
<path fill="none" stroke="#d88556" stroke-width="2" d="M602,-108C602,-108 546,-108 546,-108 540,-108 534,-102 534,-96 534,-96 534,-84 534,-84 534,-78 540,-72 546,-72 546,-72 602,-72 602,-72 608,-72 614,-78 614,-84 614,-84 614,-96 614,-96 614,-102 608,-108 602,-108"/>
<text text-anchor="middle" x="574" y="-87.5" font-family="sans" font-size="10.00">REPORT_PNP</text>
</g>
<!-- 1&#45;&gt;21 -->
<g id="edge48" class="edge">
<title>1&#45;&gt;21</title>
<path fill="none" stroke="grey" stroke-width="2" d="M467.43,-220.93C493,-209.22 528.7,-191.58 539,-180 554.55,-162.52 563.58,-137.32 568.57,-118.19"/>
<polygon fill="grey" stroke="grey" stroke-width="2" points="572.01,-118.82 570.93,-108.28 565.21,-117.19 572.01,-118.82"/>
</g>
<!-- 2 -->
<g id="node3" class="node">
<title>2</title>
<path fill="none" stroke="#d86e56" stroke-width="2" d="M455,-324C455,-324 425,-324 425,-324 419,-324 413,-318 413,-312 413,-312 413,-300 413,-300 413,-294 419,-288 425,-288 425,-288 455,-288 455,-288 461,-288 467,-294 467,-300 467,-300 467,-312 467,-312 467,-318 461,-324 455,-324"/>
<text text-anchor="middle" x="440" y="-303.5" font-family="sans" font-size="10.00">FCG</text>
</g>
<!-- 2&#45;&gt;1 -->
<g id="edge9" class="edge">
<title>2&#45;&gt;1</title>
<path fill="none" stroke="grey" stroke-width="2" d="M440,-287.7C440,-279.98 440,-270.71 440,-262.11"/>
<polygon fill="grey" stroke="grey" stroke-width="2" points="443.5,-262.1 440,-252.1 436.5,-262.1 443.5,-262.1"/>
</g>
<!-- 2&#45;&gt;12 -->
<g id="edge20" class="edge">
<title>2&#45;&gt;12</title>
<path fill="none" stroke="grey" stroke-width="2" d="M451,-287.7C464.62,-267.63 489.64,-234.9 519,-216 528.94,-209.6 587.28,-192.23 633.29,-179.11"/>
<polygon fill="grey" stroke="grey" stroke-width="2" points="634.54,-182.4 643.2,-176.3 632.62,-175.66 634.54,-182.4"/>
</g>
<!-- 2&#45;&gt;14 -->
<g id="edge31" class="edge">
<title>2&#45;&gt;14</title>
<path fill="none" stroke="grey" stroke-width="2" d="M429.44,-287.73C416.08,-267.38 391.12,-234.06 361,-216 304.84,-182.32 279.25,-197.34 211.99,-180.05"/>
<polygon fill="grey" stroke="grey" stroke-width="2" points="212.78,-176.63 202.21,-177.38 210.94,-183.39 212.78,-176.63"/>
</g>
<!-- 3 -->
<g id="node4" class="node">
<title>3</title>
<path fill="none" stroke="#56d8c9" stroke-width="2" d="M455,-396C455,-396 425,-396 425,-396 419,-396 413,-390 413,-384 413,-384 413,-372 413,-372 413,-366 419,-360 425,-360 425,-360 455,-360 455,-360 461,-360 467,-366 467,-372 467,-372 467,-384 467,-384 467,-390 461,-396 455,-396"/>
<text text-anchor="middle" x="440" y="-375.5" font-family="sans" font-size="10.00">FCC</text>
</g>
<!-- 3&#45;&gt;2 -->
<g id="edge10" class="edge">
<title>3&#45;&gt;2</title>
<path fill="none" stroke="grey" stroke-width="2" d="M440,-359.7C440,-351.98 440,-342.71 440,-334.11"/>
<polygon fill="grey" stroke="grey" stroke-width="2" points="443.5,-334.1 440,-324.1 436.5,-334.1 443.5,-334.1"/>
</g>
<!-- 3&#45;&gt;12 -->
<g id="edge19" class="edge">
<title>3&#45;&gt;12</title>
<path fill="none" stroke="grey" stroke-width="2" d="M451.58,-359.96C478.34,-320.75 543.21,-226.69 557,-216 579.43,-198.61 608.29,-186.23 633.48,-177.82"/>
<polygon fill="grey" stroke="grey" stroke-width="2" points="634.84,-181.07 643.3,-174.69 632.71,-174.4 634.84,-181.07"/>
</g>
<!-- 3&#45;&gt;14 -->
<g id="edge30" class="edge">
<title>3&#45;&gt;14</title>
<path fill="none" stroke="grey" stroke-width="2" d="M428.47,-359.9C401.81,-320.56 337.13,-226.23 323,-216 283.05,-187.07 263.02,-195.16 211.62,-180.03"/>
<polygon fill="grey" stroke="grey" stroke-width="2" points="212.6,-176.67 202.01,-177.04 210.52,-183.36 212.6,-176.67"/>
</g>
<!-- 4 -->
<g id="node5" class="node">
<title>4</title>
<path fill="none" stroke="#56b1d8" stroke-width="2" d="M455,-468C455,-468 425,-468 425,-468 419,-468 413,-462 413,-456 413,-456 413,-444 413,-444 413,-438 419,-432 425,-432 425,-432 455,-432 455,-432 461,-432 467,-438 467,-444 467,-444 467,-456 467,-456 467,-462 461,-468 455,-468"/>
<text text-anchor="middle" x="440" y="-447.5" font-family="sans" font-size="10.00">FS</text>
</g>
<!-- 4&#45;&gt;3 -->
<g id="edge11" class="edge">
<title>4&#45;&gt;3</title>
<path fill="none" stroke="grey" stroke-width="2" d="M440,-431.7C440,-423.98 440,-414.71 440,-406.11"/>
<polygon fill="grey" stroke="grey" stroke-width="2" points="443.5,-406.1 440,-396.1 436.5,-406.1 443.5,-406.1"/>
</g>
<!-- 4&#45;&gt;12 -->
<g id="edge21" class="edge">
<title>4&#45;&gt;12</title>
<path fill="none" stroke="grey" stroke-width="2" d="M451.73,-431.85C458.79,-421.49 467.95,-408.01 476,-396 529.39,-316.33 524.54,-281.06 595,-216 608.45,-203.58 625.33,-193.02 641.18,-184.67"/>
<polygon fill="grey" stroke="grey" stroke-width="2" points="643.02,-187.66 650.35,-180.01 639.85,-181.41 643.02,-187.66"/>
</g>
<!-- 4&#45;&gt;14 -->
<g id="edge32" class="edge">
<title>4&#45;&gt;14</title>
<path fill="none" stroke="grey" stroke-width="2" d="M428.27,-431.85C421.21,-421.49 412.05,-408.01 404,-396 350.61,-316.33 358.73,-277.33 285,-216 273.11,-206.11 240.59,-192.44 211.7,-181.46"/>
<polygon fill="grey" stroke="grey" stroke-width="2" points="212.67,-178.09 202.08,-177.85 210.21,-184.64 212.67,-178.09"/>
</g>
<!-- 5 -->
<g id="node6" class="node">
<title>5</title>
<path fill="none" stroke="#569ad8" stroke-width="2" d="M455.5,-540C455.5,-540 424.5,-540 424.5,-540 418.5,-540 412.5,-534 412.5,-528 412.5,-528 412.5,-516 412.5,-516 412.5,-510 418.5,-504 424.5,-504 424.5,-504 455.5,-504 455.5,-504 461.5,-504 467.5,-510 467.5,-516 467.5,-516 467.5,-528 467.5,-528 467.5,-534 461.5,-540 455.5,-540"/>
<text text-anchor="middle" x="440" y="-519.5" font-family="sans" font-size="10.00">SUBSET</text>
</g>
<!-- 5&#45;&gt;4 -->
<g id="edge12" class="edge">
<title>5&#45;&gt;4</title>
<path fill="none" stroke="grey" stroke-width="2" d="M440,-503.7C440,-495.98 440,-486.71 440,-478.11"/>
<polygon fill="grey" stroke="grey" stroke-width="2" points="443.5,-478.1 440,-468.1 436.5,-478.1 443.5,-478.1"/>
</g>
<!-- 5&#45;&gt;12 -->
<g id="edge23" class="edge">
<title>5&#45;&gt;12</title>
<path fill="none" stroke="grey" stroke-width="2" d="M467.53,-512.21C515.42,-494.99 609,-452 609,-379 609,-379 609,-379 609,-305 609,-264.03 611.69,-250.99 633,-216 639.65,-205.08 649.21,-195.05 658.65,-186.72"/>
<polygon fill="grey" stroke="grey" stroke-width="2" points="661.08,-189.25 666.49,-180.14 656.58,-183.89 661.08,-189.25"/>
</g>
<!-- 5&#45;&gt;14 -->
<g id="edge34" class="edge">
<title>5&#45;&gt;14</title>
<path fill="none" stroke="grey" stroke-width="2" d="M428.15,-503.93C421.05,-493.6 411.89,-480.12 404,-468 332.02,-357.4 340.77,-308.84 247,-216 234.82,-203.94 219.4,-193.42 204.93,-185"/>
<polygon fill="grey" stroke="grey" stroke-width="2" points="206.52,-181.88 196.09,-180.03 203.09,-187.98 206.52,-181.88"/>
</g>
<!-- 16 -->
<g id="node17" class="node">
<title>16</title>
<path fill="none" stroke="#56d86b" stroke-width="2" d="M193,-396C193,-396 119,-396 119,-396 113,-396 107,-390 107,-384 107,-384 107,-372 107,-372 107,-366 113,-360 119,-360 119,-360 193,-360 193,-360 199,-360 205,-366 205,-372 205,-372 205,-384 205,-384 205,-390 199,-396 193,-396"/>
<text text-anchor="middle" x="156" y="-375.5" font-family="sans" font-size="10.00">REPORT_SUBSET</text>
</g>
<!-- 5&#45;&gt;16 -->
<g id="edge43" class="edge">
<title>5&#45;&gt;16</title>
<path fill="none" stroke="grey" stroke-width="2" d="M412.27,-512.86C382.52,-503.68 334.27,-487.45 295,-468 256.31,-448.83 215,-421.39 187.57,-402.06"/>
<polygon fill="grey" stroke="grey" stroke-width="2" points="189.35,-399.03 179.17,-396.09 185.29,-404.74 189.35,-399.03"/>
</g>
<!-- 6 -->
<g id="node7" class="node">
<title>6</title>
<path fill="none" stroke="#d8cb56" stroke-width="2" d="M645,-612C645,-612 615,-612 615,-612 609,-612 603,-606 603,-600 603,-600 603,-588 603,-588 603,-582 609,-576 615,-576 615,-576 645,-576 645,-576 651,-576 657,-582 657,-588 657,-588 657,-600 657,-600 657,-606 651,-612 645,-612"/>
<text text-anchor="middle" x="630" y="-591.5" font-family="sans" font-size="10.00">DEPICT</text>
</g>
<!-- 6&#45;&gt;5 -->
<g id="edge13" class="edge">
<title>6&#45;&gt;5</title>
<path fill="none" stroke="grey" stroke-width="2" d="M602.78,-582.97C569.81,-570.82 514.12,-550.31 477.21,-536.71"/>
<polygon fill="grey" stroke="grey" stroke-width="2" points="478.38,-533.41 467.79,-533.24 475.96,-539.98 478.38,-533.41"/>
</g>
<!-- 6&#45;&gt;12 -->
<g id="edge28" class="edge">
<title>6&#45;&gt;12</title>
<path fill="none" stroke="grey" stroke-width="2" d="M633.44,-575.59C638.41,-548.9 647,-496.19 647,-451 647,-451 647,-451 647,-305 647,-263.21 664.6,-217.48 677.54,-189.51"/>
<polygon fill="grey" stroke="grey" stroke-width="2" points="680.74,-190.93 681.88,-180.39 674.42,-187.92 680.74,-190.93"/>
</g>
<!-- 6&#45;&gt;14 -->
<g id="edge38" class="edge">
<title>6&#45;&gt;14</title>
<path fill="none" stroke="grey" stroke-width="2" d="M602.71,-589.29C513.02,-576.36 233,-529.69 233,-451 233,-451 233,-451 233,-305 233,-260.03 203.69,-215.04 182.21,-188.1"/>
<polygon fill="grey" stroke="grey" stroke-width="2" points="184.89,-185.85 175.84,-180.35 179.48,-190.29 184.89,-185.85"/>
</g>
<!-- 15 -->
<g id="node16" class="node">
<title>15</title>
<path fill="none" stroke="#59d856" stroke-width="2" d="M829.5,-540C829.5,-540 768.5,-540 768.5,-540 762.5,-540 756.5,-534 756.5,-528 756.5,-528 756.5,-516 756.5,-516 756.5,-510 762.5,-504 768.5,-504 768.5,-504 829.5,-504 829.5,-504 835.5,-504 841.5,-510 841.5,-516 841.5,-516 841.5,-528 841.5,-528 841.5,-534 835.5,-540 829.5,-540"/>
<text text-anchor="middle" x="799" y="-519.5" font-family="sans" font-size="10.00">REPORT_PREP</text>
</g>
<!-- 6&#45;&gt;15 -->
<g id="edge42" class="edge">
<title>6&#45;&gt;15</title>
<path fill="none" stroke="grey" stroke-width="2" d="M657.15,-581.75C681.65,-571.61 718.33,-556.41 748.25,-544.02"/>
<polygon fill="grey" stroke="grey" stroke-width="2" points="749.81,-547.16 757.71,-540.1 747.13,-540.7 749.81,-547.16"/>
</g>
<!-- 7 -->
<g id="node8" class="node">
<title>7</title>
<path fill="none" stroke="#5682d8" stroke-width="2" d="M683,-684C683,-684 651,-684 651,-684 645,-684 639,-678 639,-672 639,-672 639,-660 639,-660 639,-654 645,-648 651,-648 651,-648 683,-648 683,-648 689,-648 695,-654 695,-660 695,-660 695,-672 695,-672 695,-678 689,-684 683,-684"/>
<text text-anchor="middle" x="667" y="-663.5" font-family="sans" font-size="10.00">DEDUPL</text>
</g>
<!-- 7&#45;&gt;6 -->
<g id="edge14" class="edge">
<title>7&#45;&gt;6</title>
<path fill="none" stroke="grey" stroke-width="2" d="M657.85,-647.7C653.6,-639.64 648.44,-629.89 643.73,-620.98"/>
<polygon fill="grey" stroke="grey" stroke-width="2" points="646.81,-619.31 639.04,-612.1 640.62,-622.58 646.81,-619.31"/>
</g>
<!-- 7&#45;&gt;12 -->
<g id="edge24" class="edge">
<title>7&#45;&gt;12</title>
<path fill="none" stroke="grey" stroke-width="2" d="M670.64,-647.6C675.9,-620.92 685,-568.23 685,-523 685,-523 685,-523 685,-305 685,-264.96 687.41,-218.63 689.18,-190.07"/>
<polygon fill="grey" stroke="grey" stroke-width="2" points="692.67,-190.24 689.81,-180.04 685.69,-189.8 692.67,-190.24"/>
</g>
<!-- 7&#45;&gt;14 -->
<g id="edge35" class="edge">
<title>7&#45;&gt;14</title>
<path fill="none" stroke="grey" stroke-width="2" d="M638.64,-664.32C521.18,-660.75 79,-639.57 79,-523 79,-523 79,-523 79,-449 79,-350.06 124.43,-238.91 147.24,-189.33"/>
<polygon fill="grey" stroke="grey" stroke-width="2" points="150.42,-190.79 151.48,-180.25 144.08,-187.83 150.42,-190.79"/>
</g>
<!-- 7&#45;&gt;15 -->
<g id="edge41" class="edge">
<title>7&#45;&gt;15</title>
<path fill="none" stroke="grey" stroke-width="2" d="M682.92,-647.87C706.11,-622.92 749.31,-576.45 775.97,-547.77"/>
<polygon fill="grey" stroke="grey" stroke-width="2" points="778.78,-549.9 783.02,-540.19 773.65,-545.13 778.78,-549.9"/>
</g>
<!-- 8 -->
<g id="node9" class="node">
<title>8</title>
<path fill="none" stroke="#88d856" stroke-width="2" d="M738,-756C738,-756 708,-756 708,-756 702,-756 696,-750 696,-744 696,-744 696,-732 696,-732 696,-726 702,-720 708,-720 708,-720 738,-720 738,-720 744,-720 750,-726 750,-732 750,-732 750,-744 750,-744 750,-750 744,-756 738,-756"/>
<text text-anchor="middle" x="723" y="-735.5" font-family="sans" font-size="10.00">STD</text>
</g>
<!-- 8&#45;&gt;7 -->
<g id="edge15" class="edge">
<title>8&#45;&gt;7</title>
<path fill="none" stroke="grey" stroke-width="2" d="M709.16,-719.7C702.51,-711.39 694.42,-701.28 687.11,-692.14"/>
<polygon fill="grey" stroke="grey" stroke-width="2" points="689.66,-689.73 680.68,-684.1 684.2,-694.1 689.66,-689.73"/>
</g>
<!-- 8&#45;&gt;12 -->
<g id="edge26" class="edge">
<title>8&#45;&gt;12</title>
<path fill="none" stroke="grey" stroke-width="2" d="M723,-719.95C723,-693.29 723,-640.11 723,-595 723,-595 723,-595 723,-305 723,-264.04 710.17,-218.02 700.76,-189.77"/>
<polygon fill="grey" stroke="grey" stroke-width="2" points="704.03,-188.53 697.48,-180.21 697.41,-190.8 704.03,-188.53"/>
</g>
<!-- 8&#45;&gt;14 -->
<g id="edge37" class="edge">
<title>8&#45;&gt;14</title>
<path fill="none" stroke="grey" stroke-width="2" d="M695.72,-737.27C568.32,-737.8 38,-731.79 38,-595 38,-595 38,-595 38,-377 38,-299.74 98.75,-224.96 134.51,-187.63"/>
<polygon fill="grey" stroke="grey" stroke-width="2" points="137.25,-189.84 141.74,-180.24 132.24,-184.94 137.25,-189.84"/>
</g>
<!-- 8&#45;&gt;15 -->
<g id="edge39" class="edge">
<title>8&#45;&gt;15</title>
<path fill="none" stroke="grey" stroke-width="2" d="M729.09,-719.85C742.29,-682.68 773.63,-594.44 789.48,-549.82"/>
<polygon fill="grey" stroke="grey" stroke-width="2" points="792.83,-550.83 792.88,-540.23 786.24,-548.48 792.83,-550.83"/>
</g>
<!-- 9 -->
<g id="node10" class="node">
<title>9</title>
<path fill="none" stroke="#56d882" stroke-width="2" d="M852,-828C852,-828 822,-828 822,-828 816,-828 810,-822 810,-816 810,-816 810,-804 810,-804 810,-798 816,-792 822,-792 822,-792 852,-792 852,-792 858,-792 864,-798 864,-804 864,-804 864,-816 864,-816 864,-822 858,-828 852,-828"/>
<text text-anchor="middle" x="837" y="-807.5" font-family="sans" font-size="10.00">LOAD</text>
</g>
<!-- 9&#45;&gt;8 -->
<g id="edge16" class="edge">
<title>9&#45;&gt;8</title>
<path fill="none" stroke="grey" stroke-width="2" d="M809.98,-792.41C794.76,-783.06 775.55,-771.27 759.06,-761.14"/>
<polygon fill="grey" stroke="grey" stroke-width="2" points="760.57,-757.96 750.22,-755.71 756.91,-763.93 760.57,-757.96"/>
</g>
<!-- 9&#45;&gt;12 -->
<g id="edge22" class="edge">
<title>9&#45;&gt;12</title>
<path fill="none" stroke="grey" stroke-width="2" d="M844.69,-791.91C855.79,-765.62 875,-713.45 875,-667 875,-667 875,-667 875,-305 875,-240.1 802.37,-200.7 748.37,-180.37"/>
<polygon fill="grey" stroke="grey" stroke-width="2" points="749.46,-177.04 738.86,-176.92 747.07,-183.62 749.46,-177.04"/>
</g>
<!-- 9&#45;&gt;14 -->
<g id="edge33" class="edge">
<title>9&#45;&gt;14</title>
<path fill="none" stroke="grey" stroke-width="2" d="M809.63,-807.32C665.38,-798.12 0,-751.1 0,-667 0,-667 0,-667 0,-305 0,-245.81 62.01,-205.28 108.82,-183.12"/>
<polygon fill="grey" stroke="grey" stroke-width="2" points="110.33,-186.28 117.96,-178.93 107.41,-179.92 110.33,-186.28"/>
</g>
<!-- 9&#45;&gt;15 -->
<g id="edge40" class="edge">
<title>9&#45;&gt;15</title>
<path fill="none" stroke="grey" stroke-width="2" d="M834.74,-791.97C828.39,-744.19 810.38,-608.62 802.62,-550.27"/>
<polygon fill="grey" stroke="grey" stroke-width="2" points="806.09,-549.76 801.3,-540.31 799.15,-550.68 806.09,-549.76"/>
</g>
<!-- 10 -->
<g id="node11" class="node">
<title>10</title>
<path fill="none" stroke="#d8b456" stroke-width="2" d="M890,-900C890,-900 860,-900 860,-900 854,-900 848,-894 848,-888 848,-888 848,-876 848,-876 848,-870 854,-864 860,-864 860,-864 890,-864 890,-864 896,-864 902,-870 902,-876 902,-876 902,-888 902,-888 902,-894 896,-900 890,-900"/>
<text text-anchor="middle" x="875" y="-879.5" font-family="sans" font-size="10.00">CHUNK</text>
</g>
<!-- 10&#45;&gt;9 -->
<g id="edge17" class="edge">
<title>10&#45;&gt;9</title>
<path fill="none" stroke="grey" stroke-width="2" d="M865.61,-863.7C861.24,-855.64 855.94,-845.89 851.1,-836.98"/>
<polygon fill="grey" stroke="grey" stroke-width="2" points="854.13,-835.22 846.29,-828.1 847.98,-838.56 854.13,-835.22"/>
</g>
<!-- 10&#45;&gt;12 -->
<g id="edge27" class="edge">
<title>10&#45;&gt;12</title>
<path fill="none" stroke="grey" stroke-width="2" d="M882.69,-863.91C893.79,-837.62 913,-785.45 913,-739 913,-739 913,-739 913,-305 913,-226.89 814.25,-189.8 748.48,-173.77"/>
<polygon fill="grey" stroke="grey" stroke-width="2" points="749.16,-170.33 738.62,-171.46 747.56,-177.15 749.16,-170.33"/>
</g>
<!-- 11 -->
<g id="node12" class="node">
<title>11</title>
<path fill="none" stroke="#d85656" stroke-width="2" d="M781.5,-108C781.5,-108 682.5,-108 682.5,-108 676.5,-108 670.5,-102 670.5,-96 670.5,-96 670.5,-84 670.5,-84 670.5,-78 676.5,-72 682.5,-72 682.5,-72 781.5,-72 781.5,-72 787.5,-72 793.5,-78 793.5,-84 793.5,-84 793.5,-96 793.5,-96 793.5,-102 787.5,-108 781.5,-108"/>
<text text-anchor="middle" x="732" y="-87.5" font-family="sans" font-size="10.00">REPORT_COUNT_SUM</text>
</g>
<!-- 11&#45;&gt;0 -->
<g id="edge1" class="edge">
<title>11&#45;&gt;0</title>
<path fill="none" stroke="grey" stroke-width="2" d="M677.25,-71.97C635.87,-59.09 580.19,-41.77 543.96,-30.5"/>
<polygon fill="grey" stroke="grey" stroke-width="2" points="544.87,-27.12 534.28,-27.49 542.79,-33.8 544.87,-27.12"/>
</g>
<!-- 12&#45;&gt;11 -->
<g id="edge18" class="edge">
<title>12&#45;&gt;11</title>
<path fill="none" stroke="grey" stroke-width="2" d="M701.13,-143.7C705.85,-135.64 711.56,-125.89 716.78,-116.98"/>
<polygon fill="grey" stroke="grey" stroke-width="2" points="719.95,-118.5 721.98,-108.1 713.91,-114.96 719.95,-118.5"/>
</g>
<!-- 13 -->
<g id="node14" class="node">
<title>13</title>
<path fill="none" stroke="#ced856" stroke-width="2" d="M166,-108C166,-108 78,-108 78,-108 72,-108 66,-102 66,-96 66,-96 66,-84 66,-84 66,-78 72,-72 78,-72 78,-72 166,-72 166,-72 172,-72 178,-78 178,-84 178,-84 178,-96 178,-96 178,-102 172,-108 166,-108"/>
<text text-anchor="middle" x="122" y="-87.5" font-family="sans" font-size="10.00">REPORT_TIME_SUM</text>
</g>
<!-- 13&#45;&gt;0 -->
<g id="edge8" class="edge">
<title>13&#45;&gt;0</title>
<path fill="none" stroke="grey" stroke-width="2" d="M178.29,-73.94C181.23,-73.26 184.15,-72.61 187,-72 288.57,-50.35 409.88,-32.39 469.77,-24.04"/>
<polygon fill="grey" stroke="grey" stroke-width="2" points="470.45,-27.48 479.87,-22.64 469.49,-20.54 470.45,-27.48"/>
</g>
<!-- 14&#45;&gt;13 -->
<g id="edge29" class="edge">
<title>14&#45;&gt;13</title>
<path fill="none" stroke="grey" stroke-width="2" d="M150.61,-143.7C146.24,-135.64 140.94,-125.89 136.1,-116.98"/>
<polygon fill="grey" stroke="grey" stroke-width="2" points="139.13,-115.22 131.29,-108.1 132.98,-118.56 139.13,-115.22"/>
</g>
<!-- 15&#45;&gt;0 -->
<g id="edge3" class="edge">
<title>15&#45;&gt;0</title>
<path fill="none" stroke="grey" stroke-width="2" d="M815.85,-503.98C855.42,-462.1 951,-349.15 951,-235 951,-235 951,-235 951,-161 951,-75.83 650.83,-34.72 544.11,-22.79"/>
<polygon fill="grey" stroke="grey" stroke-width="2" points="544.43,-19.31 534.11,-21.7 543.67,-26.26 544.43,-19.31"/>
</g>
<!-- 16&#45;&gt;0 -->
<g id="edge4" class="edge">
<title>16&#45;&gt;0</title>
<path fill="none" stroke="grey" stroke-width="2" d="M140.35,-359.82C96.26,-309.35 -20.87,-159.58 57,-72 84.29,-41.3 366.58,-25.42 469.62,-20.61"/>
<polygon fill="grey" stroke="grey" stroke-width="2" points="470.04,-24.09 479.86,-20.14 469.72,-17.1 470.04,-24.09"/>
</g>
<!-- 17 -->
<g id="node18" class="node">
<title>17</title>
<path fill="none" stroke="#d89c56" stroke-width="2" d="M335.5,-108C335.5,-108 208.5,-108 208.5,-108 202.5,-108 196.5,-102 196.5,-96 196.5,-96 196.5,-84 196.5,-84 196.5,-78 202.5,-72 208.5,-72 208.5,-72 335.5,-72 335.5,-72 341.5,-72 347.5,-78 347.5,-84 347.5,-84 347.5,-96 347.5,-96 347.5,-102 341.5,-108 335.5,-108"/>
<text text-anchor="middle" x="272" y="-87.5" font-family="sans" font-size="10.00">REPORT_FCG_CONCAT_PNP</text>
</g>
<!-- 17&#45;&gt;0 -->
<g id="edge6" class="edge">
<title>17&#45;&gt;0</title>
<path fill="none" stroke="grey" stroke-width="2" d="M329.19,-71.97C373.09,-58.89 432.4,-41.22 470.18,-29.97"/>
<polygon fill="grey" stroke="grey" stroke-width="2" points="471.19,-33.32 479.77,-27.11 469.19,-26.61 471.19,-33.32"/>
</g>
<!-- 18&#45;&gt;17 -->
<g id="edge44" class="edge">
<title>18&#45;&gt;17</title>
<path fill="none" stroke="grey" stroke-width="2" d="M287.81,-143.7C285.47,-135.9 282.65,-126.51 280.05,-117.83"/>
<polygon fill="grey" stroke="grey" stroke-width="2" points="283.36,-116.68 277.13,-108.1 276.65,-118.69 283.36,-116.68"/>
</g>
<!-- 19 -->
<g id="node20" class="node">
<title>19</title>
<path fill="none" stroke="#56c9d8" stroke-width="2" d="M504,-108C504,-108 378,-108 378,-108 372,-108 366,-102 366,-96 366,-96 366,-84 366,-84 366,-78 372,-72 378,-72 378,-72 504,-72 504,-72 510,-72 516,-78 516,-84 516,-84 516,-96 516,-96 516,-102 510,-108 504,-108"/>
<text text-anchor="middle" x="441" y="-87.5" font-family="sans" font-size="10.00">REPORT_FCG_CONCAT_NPL</text>
</g>
<!-- 19&#45;&gt;0 -->
<g id="edge2" class="edge">
<title>19&#45;&gt;0</title>
<path fill="none" stroke="grey" stroke-width="2" d="M457.31,-71.7C465.31,-63.22 475.07,-52.86 483.82,-43.58"/>
<polygon fill="grey" stroke="grey" stroke-width="2" points="486.56,-45.78 490.87,-36.1 481.47,-40.98 486.56,-45.78"/>
</g>
<!-- 20&#45;&gt;19 -->
<g id="edge46" class="edge">
<title>20&#45;&gt;19</title>
<path fill="none" stroke="grey" stroke-width="2" d="M453.04,-143.7C451.28,-135.98 449.16,-126.71 447.2,-118.11"/>
<polygon fill="grey" stroke="grey" stroke-width="2" points="450.55,-117.07 444.91,-108.1 443.73,-118.63 450.55,-117.07"/>
</g>
<!-- 21&#45;&gt;0 -->
<g id="edge5" class="edge">
<title>21&#45;&gt;0</title>
<path fill="none" stroke="grey" stroke-width="2" d="M557.44,-71.7C549.32,-63.22 539.41,-52.86 530.53,-43.58"/>
<polygon fill="grey" stroke="grey" stroke-width="2" points="532.81,-40.91 523.37,-36.1 527.76,-45.75 532.81,-40.91"/>
</g>
</g>
</svg>
