<?xml version="1.0" encoding="UTF-8" standalone="no"?>
<!DOCTYPE svg PUBLIC "-//W3C//DTD SVG 1.1//EN"
 "http://www.w3.org/Graphics/SVG/1.1/DTD/svg11.dtd">
<!-- Generated by graphviz version 2.50.0 (0)
 -->
<!-- Title: snakemake_dag Pages: 1 -->
<svg width="452pt" height="476pt"
 viewBox="0.00 0.00 452.00 476.00" xmlns="http://www.w3.org/2000/svg" xmlns:xlink="http://www.w3.org/1999/xlink">
<g id="graph0" class="graph" transform="scale(1 1) rotate(0) translate(4 472)">
<title>snakemake_dag</title>
<polygon fill="white" stroke="transparent" points="-4,4 -4,-472 448,-472 448,4 -4,4"/>
<!-- 0 -->
<g id="node1" class="node">
<title>0</title>
<path fill="none" stroke="#59d856" stroke-width="2" d="M210,-36C210,-36 180,-36 180,-36 174,-36 168,-30 168,-24 168,-24 168,-12 168,-12 168,-6 174,0 180,0 180,0 210,0 210,0 216,0 222,-6 222,-12 222,-12 222,-24 222,-24 222,-30 216,-36 210,-36"/>
<text text-anchor="middle" x="195" y="-15.5" font-family="sans" font-size="10.00">all</text>
</g>
<!-- 1 -->
<g id="node2" class="node">
<title>1</title>
<path fill="none" stroke="#d88d56" stroke-width="2" d="M290,-180C290,-180 260,-180 260,-180 254,-180 248,-174 248,-168 248,-168 248,-156 248,-156 248,-150 254,-144 260,-144 260,-144 290,-144 290,-144 296,-144 302,-150 302,-156 302,-156 302,-168 302,-168 302,-174 296,-180 290,-180"/>
<text text-anchor="middle" x="275" y="-159.5" font-family="sans" font-size="10.00">FCP</text>
</g>
<!-- 1&#45;&gt;0 -->
<g id="edge1" class="edge">
<title>1&#45;&gt;0</title>
<path fill="none" stroke="grey" stroke-width="2" d="M249.08,-143.94C236.98,-134.69 223.42,-122.24 215,-108 203.88,-89.2 198.94,-64.82 196.74,-46.33"/>
<polygon fill="grey" stroke="grey" stroke-width="2" points="200.21,-45.82 195.74,-36.22 193.24,-46.51 200.21,-45.82"/>
</g>
<!-- 6 -->
<g id="node7" class="node">
<title>6</title>
<path fill="none" stroke="#56d8c1" stroke-width="2" d="M403.5,-108C403.5,-108 332.5,-108 332.5,-108 326.5,-108 320.5,-102 320.5,-96 320.5,-96 320.5,-84 320.5,-84 320.5,-78 326.5,-72 332.5,-72 332.5,-72 403.5,-72 403.5,-72 409.5,-72 415.5,-78 415.5,-84 415.5,-84 415.5,-96 415.5,-96 415.5,-102 409.5,-108 403.5,-108"/>
<text text-anchor="middle" x="368" y="-87.5" font-family="sans" font-size="10.00">REPORT_COUNT</text>
</g>
<!-- 1&#45;&gt;6 -->
<g id="edge11" class="edge">
<title>1&#45;&gt;6</title>
<path fill="none" stroke="grey" stroke-width="2" d="M297.99,-143.7C309.81,-134.8 324.39,-123.82 337.18,-114.2"/>
<polygon fill="grey" stroke="grey" stroke-width="2" points="339.39,-116.91 345.28,-108.1 335.18,-111.32 339.39,-116.91"/>
</g>
<!-- 7 -->
<g id="node8" class="node">
<title>7</title>
<path fill="none" stroke="#56c1d8" stroke-width="2" d="M113,-108C113,-108 53,-108 53,-108 47,-108 41,-102 41,-96 41,-96 41,-84 41,-84 41,-78 47,-72 53,-72 53,-72 113,-72 113,-72 119,-72 125,-78 125,-84 125,-84 125,-96 125,-96 125,-102 119,-108 113,-108"/>
<text text-anchor="middle" x="83" y="-87.5" font-family="sans" font-size="10.00">REPORT_TIME</text>
</g>
<!-- 1&#45;&gt;7 -->
<g id="edge16" class="edge">
<title>1&#45;&gt;7</title>
<path fill="none" stroke="grey" stroke-width="2" d="M247.74,-149.45C243.17,-147.58 238.46,-145.71 234,-144 201.24,-131.47 164.08,-118.41 134.81,-108.39"/>
<polygon fill="grey" stroke="grey" stroke-width="2" points="135.81,-105.03 125.21,-105.11 133.54,-111.66 135.81,-105.03"/>
</g>
<!-- 9 -->
<g id="node10" class="node">
<title>9</title>
<path fill="none" stroke="#88d856" stroke-width="2" d="M290.5,-108C290.5,-108 235.5,-108 235.5,-108 229.5,-108 223.5,-102 223.5,-96 223.5,-96 223.5,-84 223.5,-84 223.5,-78 229.5,-72 235.5,-72 235.5,-72 290.5,-72 290.5,-72 296.5,-72 302.5,-78 302.5,-84 302.5,-84 302.5,-96 302.5,-96 302.5,-102 296.5,-108 290.5,-108"/>
<text text-anchor="middle" x="263" y="-87.5" font-family="sans" font-size="10.00">REPORT_FCP</text>
</g>
<!-- 1&#45;&gt;9 -->
<g id="edge24" class="edge">
<title>1&#45;&gt;9</title>
<path fill="none" stroke="grey" stroke-width="2" d="M272.03,-143.7C270.71,-135.98 269.12,-126.71 267.65,-118.11"/>
<polygon fill="grey" stroke="grey" stroke-width="2" points="271.07,-117.37 265.93,-108.1 264.17,-118.55 271.07,-117.37"/>
</g>
<!-- 2 -->
<g id="node3" class="node">
<title>2</title>
<path fill="none" stroke="#568ad8" stroke-width="2" d="M260,-252C260,-252 230,-252 230,-252 224,-252 218,-246 218,-240 218,-240 218,-228 218,-228 218,-222 224,-216 230,-216 230,-216 260,-216 260,-216 266,-216 272,-222 272,-228 272,-228 272,-240 272,-240 272,-246 266,-252 260,-252"/>
<text text-anchor="middle" x="245" y="-231.5" font-family="sans" font-size="10.00">DEPICT</text>
</g>
<!-- 2&#45;&gt;1 -->
<g id="edge6" class="edge">
<title>2&#45;&gt;1</title>
<path fill="none" stroke="grey" stroke-width="2" d="M252.42,-215.7C255.79,-207.81 259.87,-198.3 263.62,-189.55"/>
<polygon fill="grey" stroke="grey" stroke-width="2" points="266.95,-190.67 267.67,-180.1 260.51,-187.92 266.95,-190.67"/>
</g>
<!-- 2&#45;&gt;6 -->
<g id="edge14" class="edge">
<title>2&#45;&gt;6</title>
<path fill="none" stroke="grey" stroke-width="2" d="M270.15,-215.84C283.21,-206.21 298.92,-193.45 311,-180 328.31,-160.73 343.86,-135.66 354.33,-117.03"/>
<polygon fill="grey" stroke="grey" stroke-width="2" points="357.43,-118.65 359.18,-108.21 351.3,-115.28 357.43,-118.65"/>
</g>
<!-- 2&#45;&gt;7 -->
<g id="edge19" class="edge">
<title>2&#45;&gt;7</title>
<path fill="none" stroke="grey" stroke-width="2" d="M240.15,-215.81C233.82,-196.16 221,-164.12 200,-144 181.84,-126.6 156.96,-114.24 134.82,-105.86"/>
<polygon fill="grey" stroke="grey" stroke-width="2" points="135.79,-102.49 125.2,-102.4 133.42,-109.08 135.79,-102.49"/>
</g>
<!-- 8 -->
<g id="node9" class="node">
<title>8</title>
<path fill="none" stroke="#bed856" stroke-width="2" d="M179.5,-180C179.5,-180 118.5,-180 118.5,-180 112.5,-180 106.5,-174 106.5,-168 106.5,-168 106.5,-156 106.5,-156 106.5,-150 112.5,-144 118.5,-144 118.5,-144 179.5,-144 179.5,-144 185.5,-144 191.5,-150 191.5,-156 191.5,-156 191.5,-168 191.5,-168 191.5,-174 185.5,-180 179.5,-180"/>
<text text-anchor="middle" x="149" y="-159.5" font-family="sans" font-size="10.00">REPORT_PREP</text>
</g>
<!-- 2&#45;&gt;8 -->
<g id="edge23" class="edge">
<title>2&#45;&gt;8</title>
<path fill="none" stroke="grey" stroke-width="2" d="M221.27,-215.7C209.06,-206.8 194.01,-195.82 180.82,-186.2"/>
<polygon fill="grey" stroke="grey" stroke-width="2" points="182.6,-183.17 172.46,-180.1 178.48,-188.82 182.6,-183.17"/>
</g>
<!-- 3 -->
<g id="node4" class="node">
<title>3</title>
<path fill="none" stroke="#56d88a" stroke-width="2" d="M224,-324C224,-324 192,-324 192,-324 186,-324 180,-318 180,-312 180,-312 180,-300 180,-300 180,-294 186,-288 192,-288 192,-288 224,-288 224,-288 230,-288 236,-294 236,-300 236,-300 236,-312 236,-312 236,-318 230,-324 224,-324"/>
<text text-anchor="middle" x="208" y="-303.5" font-family="sans" font-size="10.00">DEDUPL</text>
</g>
<!-- 3&#45;&gt;2 -->
<g id="edge7" class="edge">
<title>3&#45;&gt;2</title>
<path fill="none" stroke="grey" stroke-width="2" d="M217.15,-287.7C221.4,-279.64 226.56,-269.89 231.27,-260.98"/>
<polygon fill="grey" stroke="grey" stroke-width="2" points="234.38,-262.58 235.96,-252.1 228.19,-259.31 234.38,-262.58"/>
</g>
<!-- 3&#45;&gt;6 -->
<g id="edge13" class="edge">
<title>3&#45;&gt;6</title>
<path fill="none" stroke="grey" stroke-width="2" d="M235.03,-287.98C249.42,-278.3 266.98,-265.44 281,-252 310.45,-223.75 318.53,-215.87 338,-180 348.72,-160.26 356.58,-136 361.57,-117.8"/>
<polygon fill="grey" stroke="grey" stroke-width="2" points="364.96,-118.68 364.1,-108.12 358.18,-116.9 364.96,-118.68"/>
</g>
<!-- 3&#45;&gt;7 -->
<g id="edge18" class="edge">
<title>3&#45;&gt;7</title>
<path fill="none" stroke="grey" stroke-width="2" d="M186.42,-287.65C160.6,-265.58 118.19,-224.88 97,-180 87.89,-160.7 84.51,-136.69 83.35,-118.47"/>
<polygon fill="grey" stroke="grey" stroke-width="2" points="86.83,-118.06 82.88,-108.23 79.84,-118.38 86.83,-118.06"/>
</g>
<!-- 3&#45;&gt;8 -->
<g id="edge21" class="edge">
<title>3&#45;&gt;8</title>
<path fill="none" stroke="grey" stroke-width="2" d="M200.88,-287.87C190.74,-263.46 172.03,-218.43 160.07,-189.64"/>
<polygon fill="grey" stroke="grey" stroke-width="2" points="163.21,-188.08 156.14,-180.19 156.75,-190.77 163.21,-188.08"/>
</g>
<!-- 4 -->
<g id="node5" class="node">
<title>4</title>
<path fill="none" stroke="#d8bc56" stroke-width="2" d="M182.5,-396C182.5,-396 121.5,-396 121.5,-396 115.5,-396 109.5,-390 109.5,-384 109.5,-384 109.5,-372 109.5,-372 109.5,-366 115.5,-360 121.5,-360 121.5,-360 182.5,-360 182.5,-360 188.5,-360 194.5,-366 194.5,-372 194.5,-372 194.5,-384 194.5,-384 194.5,-390 188.5,-396 182.5,-396"/>
<text text-anchor="middle" x="152" y="-375.5" font-family="sans" font-size="10.00">STD_MURCKO</text>
</g>
<!-- 4&#45;&gt;3 -->
<g id="edge8" class="edge">
<title>4&#45;&gt;3</title>
<path fill="none" stroke="grey" stroke-width="2" d="M165.84,-359.7C172.49,-351.39 180.58,-341.28 187.89,-332.14"/>
<polygon fill="grey" stroke="grey" stroke-width="2" points="190.8,-334.1 194.32,-324.1 185.34,-329.73 190.8,-334.1"/>
</g>
<!-- 4&#45;&gt;6 -->
<g id="edge12" class="edge">
<title>4&#45;&gt;6</title>
<path fill="none" stroke="grey" stroke-width="2" d="M187.6,-359.97C205.63,-350.56 227.37,-337.96 245,-324 309,-273.33 331.81,-256.97 359,-180 366.02,-160.14 368.12,-136.34 368.55,-118.36"/>
<polygon fill="grey" stroke="grey" stroke-width="2" points="372.06,-118.28 368.64,-108.25 365.06,-118.22 372.06,-118.28"/>
</g>
<!-- 4&#45;&gt;7 -->
<g id="edge17" class="edge">
<title>4&#45;&gt;7</title>
<path fill="none" stroke="grey" stroke-width="2" d="M143.77,-359.87C128.16,-326.31 94.76,-249.13 83,-180 79.52,-159.56 79.69,-136.11 80.64,-118.4"/>
<polygon fill="grey" stroke="grey" stroke-width="2" points="84.15,-118.41 81.3,-108.21 77.16,-117.96 84.15,-118.41"/>
</g>
<!-- 4&#45;&gt;8 -->
<g id="edge22" class="edge">
<title>4&#45;&gt;8</title>
<path fill="none" stroke="grey" stroke-width="2" d="M151.76,-359.85C151.24,-322.83 150.01,-235.18 149.38,-190.39"/>
<polygon fill="grey" stroke="grey" stroke-width="2" points="152.88,-190.18 149.24,-180.23 145.88,-190.28 152.88,-190.18"/>
</g>
<!-- 5 -->
<g id="node6" class="node">
<title>5</title>
<path fill="none" stroke="#d85656" stroke-width="2" d="M129,-468C129,-468 99,-468 99,-468 93,-468 87,-462 87,-456 87,-456 87,-444 87,-444 87,-438 93,-432 99,-432 99,-432 129,-432 129,-432 135,-432 141,-438 141,-444 141,-444 141,-456 141,-456 141,-462 135,-468 129,-468"/>
<text text-anchor="middle" x="114" y="-447.5" font-family="sans" font-size="10.00">LOAD</text>
</g>
<!-- 5&#45;&gt;4 -->
<g id="edge9" class="edge">
<title>5&#45;&gt;4</title>
<path fill="none" stroke="grey" stroke-width="2" d="M123.39,-431.7C127.76,-423.64 133.06,-413.89 137.9,-404.98"/>
<polygon fill="grey" stroke="grey" stroke-width="2" points="141.02,-406.56 142.71,-396.1 134.87,-403.22 141.02,-406.56"/>
</g>
<!-- 5&#45;&gt;6 -->
<g id="edge10" class="edge">
<title>5&#45;&gt;6</title>
<path fill="none" stroke="grey" stroke-width="2" d="M141.01,-449.58C219.82,-449.73 444,-438.6 444,-307 444,-307 444,-307 444,-233 444,-187.64 413.48,-142.75 391.12,-115.95"/>
<polygon fill="grey" stroke="grey" stroke-width="2" points="393.66,-113.53 384.49,-108.23 388.36,-118.09 393.66,-113.53"/>
</g>
<!-- 5&#45;&gt;7 -->
<g id="edge15" class="edge">
<title>5&#45;&gt;7</title>
<path fill="none" stroke="grey" stroke-width="2" d="M86.98,-431.96C53.27,-408.37 0,-362.33 0,-307 0,-307 0,-307 0,-233 0,-186.74 33.24,-142.16 57.65,-115.66"/>
<polygon fill="grey" stroke="grey" stroke-width="2" points="60.24,-118.02 64.58,-108.36 55.16,-113.2 60.24,-118.02"/>
</g>
<!-- 5&#45;&gt;8 -->
<g id="edge20" class="edge">
<title>5&#45;&gt;8</title>
<path fill="none" stroke="grey" stroke-width="2" d="M108.18,-431.56C105.07,-421.33 101.57,-408.08 100,-396 97.94,-380.13 98.05,-375.88 100,-360 107.6,-297.97 128.18,-227.35 140.11,-189.8"/>
<polygon fill="grey" stroke="grey" stroke-width="2" points="143.5,-190.72 143.23,-180.13 136.83,-188.57 143.5,-190.72"/>
</g>
<!-- 6&#45;&gt;0 -->
<g id="edge4" class="edge">
<title>6&#45;&gt;0</title>
<path fill="none" stroke="grey" stroke-width="2" d="M325.68,-71.88C296.78,-60.18 258.88,-44.85 231.34,-33.7"/>
<polygon fill="grey" stroke="grey" stroke-width="2" points="232.65,-30.46 222.07,-29.95 230.02,-36.95 232.65,-30.46"/>
</g>
<!-- 7&#45;&gt;0 -->
<g id="edge5" class="edge">
<title>7&#45;&gt;0</title>
<path fill="none" stroke="grey" stroke-width="2" d="M110.4,-71.88C125.15,-62.66 143.53,-51.17 159.38,-41.26"/>
<polygon fill="grey" stroke="grey" stroke-width="2" points="161.26,-44.22 167.88,-35.95 157.55,-38.28 161.26,-44.22"/>
</g>
<!-- 8&#45;&gt;0 -->
<g id="edge2" class="edge">
<title>8&#45;&gt;0</title>
<path fill="none" stroke="grey" stroke-width="2" d="M154.55,-143.87C162.42,-119.56 176.92,-74.82 186.25,-46.01"/>
<polygon fill="grey" stroke="grey" stroke-width="2" points="189.68,-46.78 189.43,-36.19 183.02,-44.62 189.68,-46.78"/>
</g>
<!-- 9&#45;&gt;0 -->
<g id="edge3" class="edge">
<title>9&#45;&gt;0</title>
<path fill="none" stroke="grey" stroke-width="2" d="M246.19,-71.7C237.87,-63.14 227.69,-52.66 218.61,-43.3"/>
<polygon fill="grey" stroke="grey" stroke-width="2" points="221.09,-40.84 211.62,-36.1 216.07,-45.72 221.09,-40.84"/>
</g>
</g>
</svg>
